<?xml version="1.0" encoding="UTF-8"?>
<svg width="45px" height="45px" viewBox="0 0 45 45" version="1.1" xmlns="http://www.w3.org/2000/svg" xmlns:xlink="http://www.w3.org/1999/xlink">
    <title>现金业务</title>
    <g id="pad" stroke="none" stroke-width="1" fill="none" fill-rule="evenodd">
        <g id="现金业务" fill-rule="nonzero">
            <rect id="矩形" fill="#000000" opacity="0" x="0" y="0" width="45" height="45"></rect>
            <path d="M38.5733354,31.0618691 L36.9921875,31.6396484 L36.9921875,31.6396484 L36.9921875,7.98828125 C36.9921875,6.3359375 35.65625,5 34.0039063,5 L11.1523438,5 C9.5,5 8.1640625,6.3359375 8.1640625,7.98828125 L8.1640625,31.6396484 L6.58291457,31.0618691 C5.97161124,30.8384881 5.29496589,31.1529613 5.07158488,31.7642646 C5.0242296,31.8938568 5,32.0307583 5,32.1687317 L5,33.1537124 C5,33.5741596 5.26299473,33.9497018 5.65810499,34.0934506 L19.8429649,39.2541784 C21.6097562,39.8969714 23.5464938,39.8969714 25.3132851,39.2541784 L39.498145,34.0934506 C39.8932553,33.9497018 40.15625,33.5741596 40.15625,33.1537124 L40.15625,32.1687317 C40.15625,31.5178931 39.6286411,30.9902842 38.9778025,30.9902842 C38.8398291,30.9902842 38.7029276,31.0145138 38.5733354,31.0618691 Z M20.8692623,36.2608589 L11.328125,32.7910156 L11.328125,32.7910156 L11.328125,8.1640625 L33.828125,8.1640625 L33.828125,32.7910156 L24.2869877,36.2608589 C23.1831117,36.6623076 21.9731383,36.6623076 20.8692623,36.2608589 Z M29.1083984,13.7890625 L26.7133789,13.7890625 C26.581543,13.7890625 26.4584961,13.8637695 26.4013672,13.9824219 L22.6791992,21.4003906 L22.5341797,21.4003906 L18.8120117,13.9824219 C18.7504883,13.8637695 18.6318359,13.7890625 18.5,13.7890625 L16.0522461,13.7890625 C15.9951172,13.7890625 15.9379883,13.8022461 15.8852539,13.8330078 C15.7138672,13.925293 15.6523437,14.140625 15.7446289,14.3076172 L20.3105469,22.7275391 L17.8056641,22.7275391 C17.6123047,22.7275391 17.4541016,22.8857422 17.4541016,23.0791016 L17.4541016,24.2700195 C17.4541016,24.4633789 17.6123047,24.621582 17.8056641,24.621582 L21.1455078,24.621582 L21.1455078,26.3354492 L17.8056641,26.3354492 C17.6123047,26.3354492 17.4541016,26.4936523 17.4541016,26.6870117 L17.4541016,27.8779297 C17.4541016,28.0712891 17.6123047,28.2294922 17.8056641,28.2294922 L21.1455078,28.2294922 L21.1455078,31.015625 C21.1455078,31.2089844 21.3037109,31.3671875 21.4970703,31.3671875 L23.6899414,31.3671875 C23.8833008,31.3671875 24.0415039,31.2089844 24.0415039,31.015625 L24.0415039,28.2250977 L27.3945312,28.2250977 C27.5878906,28.2250977 27.7460937,28.0668945 27.7460937,27.8735352 L27.7460937,26.6826172 C27.7460937,26.4892578 27.5878906,26.3310547 27.3945312,26.3310547 L24.0415039,26.3310547 L24.0415039,24.6171875 L27.3945312,24.6171875 C27.5878906,24.6171875 27.7460937,24.4589844 27.7460937,24.265625 L27.7460937,23.074707 C27.7460937,22.8813477 27.5878906,22.7231445 27.3945312,22.7231445 L24.8632812,22.7231445 L29.4204102,14.3032227 C29.4467773,14.2504883 29.4643555,14.1933594 29.4643555,14.1362305 C29.4599609,13.9472656 29.3017578,13.7890625 29.1083984,13.7890625 Z" id="形状" fill="#FFFFFF"></path>
        </g>
    </g>
</svg>