<?xml version="1.0" encoding="UTF-8"?>
<svg width="45px" height="45px" viewBox="0 0 45 45" version="1.1" xmlns="http://www.w3.org/2000/svg" xmlns:xlink="http://www.w3.org/1999/xlink">
    <title>常用业务</title>
    <g id="pad" stroke="none" stroke-width="1" fill="none" fill-rule="evenodd">
        <g id="首页1" transform="translate(-65.000000, -155.000000)" fill-rule="nonzero">
            <g id="常用业务" transform="translate(65.000000, 155.000000)">
                <rect id="矩形" fill="#000000" opacity="0" x="0" y="0" width="45" height="45"></rect>
                <path d="M41.2105078,8.52820313 L41.2105078,17.732417 C41.2105078,18.8448926 40.7818213,19.8914502 40.0009131,20.6777197 C39.2195654,21.4665381 38.1780615,21.900498 37.0710791,21.900498 L27.945835,21.900498 C25.6633154,21.900498 23.8068457,20.0308447 23.8068457,17.7297803 L23.8068457,8.52556641 C23.8068457,6.22713867 25.6633154,4.35735352 27.945835,4.35735352 L37.0686182,4.35735352 C39.3538184,4.36003418 41.2105078,6.22977539 41.2105078,8.52820313 L41.2105078,8.52820313 Z M17.1874951,24.1043994 L8.06220703,24.1043994 C5.77946777,24.1043994 3.92291016,25.9742725 3.92291016,28.2726123 L3.92291016,37.4767383 C3.92291016,39.7752979 5.77946777,41.6478076 8.06220703,41.6478076 L17.1875391,41.6478076 C18.2946094,41.6478076 19.3332568,41.2136279 20.1170215,40.4248096 C20.8980176,39.6386279 21.3267041,38.5918506 21.3267041,37.4791553 L21.3267041,28.275249 C21.3267041,25.9742285 19.4701465,24.1043994 17.1874951,24.1043994 L17.1874951,24.1043994 Z M37.0422949,24.2439258 L27.8379492,24.2439258 C25.5396094,24.2439258 23.6673193,26.1001758 23.6673193,28.3831348 L23.6673193,37.508335 C23.6673193,38.6153174 24.1012793,39.6544043 24.8903174,40.4381689 C25.6762793,41.2188574 26.7230566,41.6477637 27.8355322,41.6477637 L37.0396143,41.6477637 C39.3381738,41.6477637 41.20783,39.7910742 41.20783,37.508335 L41.20783,28.3857275 C41.2105078,26.1001318 39.3408545,24.2439258 37.0422949,24.2439258 L37.0422949,24.2439258 Z M17.2977979,4.36003418 L8.09371582,4.36003418 C5.79515625,4.36003418 3.92286621,6.2165918 3.92286621,8.49946289 L3.92286621,17.6246631 C3.92286621,18.7318652 4.35682617,19.7703809 5.14573242,20.5541455 C5.93200195,21.3351416 6.97869141,21.7640479 8.09103516,21.7640479 L17.2953369,21.7640479 C19.5936768,21.7640479 21.4634207,19.9073584 21.4634207,17.6246191 L21.4634207,8.49669434 C21.4660107,6.2165918 19.5963574,4.36003418 17.2977979,4.36003418 L17.2977979,4.36003418 Z" id="形状" fill="#fff"></path>
            </g>
        </g>
    </g>
</svg>
