<?xml version="1.0" encoding="UTF-8"?>
<svg width="45px" height="45px" viewBox="0 0 45 45" version="1.1" xmlns="http://www.w3.org/2000/svg" xmlns:xlink="http://www.w3.org/1999/xlink">
    <title>便民服务</title>
    <g id="pad" stroke="none" stroke-width="1" fill="none" fill-rule="evenodd">
        <g id="便民服务" fill-rule="nonzero">
            <rect id="矩形" fill="#000000" opacity="0" x="0" y="0" width="45" height="45"></rect>
            <path d="M31.91625,5.355 C34.87725,5.355 37.6605,6.507 39.75525,8.60175 C44.0775,12.924 44.0775,19.9575 39.753,24.27975 L39.753,24.27975 L37.41525,26.61975 L25.60275,38.43225 C24.80175,39.2355 23.7465,39.636 22.6935,39.636 C21.6405,39.636 20.5875,39.23325 19.78425,38.43225 L19.78425,38.43225 L5.63175,24.27975 C1.3095,19.9575 1.3095,12.924 5.63175,8.60175 C9.954,4.2795 16.9875,4.2795 21.30975,8.60175 L21.30975,8.60175 L22.6935,9.9855 L24.07725,8.60175 C26.172,6.50925 28.95525,5.355 31.91625,5.355 Z M13.6594157,8.49859375 C11.5781909,8.49859375 9.49696607,9.29050633 7.91095933,10.8765131 C4.74112743,14.046345 4.74112743,19.2057754 7.91095933,22.3756073 L7.91095933,22.3756073 L21.4006046,35.9444005 C21.9372726,36.478887 22.807722,36.478887 23.3422085,35.9444005 L23.3422085,35.9444005 L25.3180625,33.968 L17.145,25.74225 C16.7793381,25.2622312 16.272335,24.3746241 17.145,23.3893058 C18.017665,22.4039875 19.1636628,23.0393801 19.5769609,23.3893058 L27.6130625,31.673 L29.7680625,29.518 L25.3845,25.13475 C24.8580839,24.6076784 24.7187628,23.4848084 25.3845,22.7741795 C26.0502372,22.0635505 27.2625343,22.2477634 27.7896059,22.7741795 L32.1510625,27.136 L33.8705008,25.4161082 L27.167847,18.8382344 L26.9693234,19.0236685 C25.1320467,20.6491512 21.9768905,19.7313042 20.7517237,18.5383442 C19.5265568,17.3453842 19.0333691,14.324478 20.0616919,13.023982 C20.2860073,12.7402954 20.3830371,12.5868697 20.6491895,12.3207173 L20.6491895,12.3207173 L20.7517237,12.2181831 L19.4100536,10.8765131 C17.8240468,9.29050633 15.7406405,8.49859375 13.6594157,8.49859375 Z M31.8331072,8.90525 C29.8368332,8.90525 27.9589312,9.68369655 26.5464921,11.0961356 L26.5464921,11.0961356 L24.463947,13.1786808 L23.5169708,14.125657 C23.2942708,14.3483569 23.1598484,14.6272334 23.1137033,14.9181477 C23.0434826,15.3615412 23.1758988,15.8310167 23.5169708,16.1720886 C23.5751536,16.2302715 23.6393554,16.2824354 23.7035572,16.3285805 C24.0646922,16.5853876 24.5141046,16.6596209 24.9253972,16.5452615 C24.9956179,16.5251984 25.0638323,16.4991164 25.1320467,16.4690219 C25.2792532,16.4021849 25.4147401,16.312086 25.5333078,16.2021832 L25.5333078,16.2021832 L26.5645489,15.2311313 C26.6227317,15.1749548 26.6849272,15.1288098 26.7511353,15.0866773 C26.7732046,15.0726332 26.795274,15.064608 26.8173434,15.0525701 C26.8634884,15.0284945 26.9096334,15.0024125 26.9577847,14.9843558 C26.985873,14.9743242 27.0159676,14.9683053 27.0440559,14.9602801 C27.0881946,14.946236 27.1323333,14.9321918 27.176472,14.9241666 L27.176472,14.9241666 L27.2727747,14.9161414 C27.3129008,14.9141351 27.3510206,14.9061098 27.3911467,14.9061098 L27.3911467,14.9061098 L27.4011783,14.9061098 C27.445317,14.9061098 27.4874494,14.9121288 27.5315881,14.9181477 C27.563689,14.9221603 27.5957899,14.9221603 27.6278908,14.9281792 C27.6740358,14.9382107 27.7181745,14.9542612 27.7623133,14.9683053 C27.7904015,14.9763305 27.8204961,14.9823495 27.8485844,14.9943873 C27.8987474,15.0157909 27.9470621,15.0412904 27.9930384,15.0706269 C28.0151078,15.0826647 28.0371771,15.09069 28.0572402,15.1047341 C28.1234483,15.1488728 28.1856437,15.1990305 28.2438266,15.2572133 L28.2438266,15.2572133 L35.8918633,22.90525 L37.1257412,21.6713721 C40.0429094,18.7562102 40.0429094,14.0112976 37.1197223,11.0961356 C35.7072832,9.68369655 33.8313875,8.90525 31.8331072,8.90525 Z" id="形状" fill="#666665"></path>
        </g>
    </g>
</svg>