<?xml version="1.0" encoding="UTF-8"?>
<svg width="45px" height="37px" viewBox="0 0 45 37" version="1.1" xmlns="http://www.w3.org/2000/svg" xmlns:xlink="http://www.w3.org/1999/xlink">
    <title>对公业务</title>
    <g id="pad" stroke="none" stroke-width="1" fill="none" fill-rule="evenodd">
        <g id="对公业务" fill-rule="nonzero">
            <rect id="矩形" fill="#000000" opacity="0" x="0" y="0" width="36.6176471" height="36.6176471"></rect>
            <path d="M22.7647059,0 C25.4428972,0.0048562068 27.6127909,2.17474985 27.6176471,4.85294117 L27.6176471,4.85294117 L27.6176471,8.56764705 C28.2995562,8.21504777 29.0558542,8.03051106 29.8235294,8.02941177 L29.8235294,8.02941177 L35.2941177,8.02941177 C37.972309,8.03426797 40.1422026,10.2041616 40.1470588,12.8823529 L40.1470588,12.8823529 L40.1470588,33.9705883 L43.6764706,33.9705883 C44.4074357,33.9705883 45,34.5631526 45,35.2941177 C45,36.0250828 44.4074357,36.6176471 43.6764706,36.6176471 L43.6764706,36.6176471 L1.32352941,36.6176471 C0.592564299,36.6176471 0,36.0250828 0,35.2941177 C0,34.5631526 0.592564299,33.9705883 1.32352941,33.9705883 L1.32352941,33.9705883 L5.29411766,33.9705883 L5.29411766,4.85294117 C5.29897386,2.17474985 7.46886751,0.0048562068 10.1470588,0 L10.1470588,0 Z M35.2941177,10.6764706 L29.8235294,10.6764706 C28.6052542,10.6764706 27.6176471,11.6640777 27.6176471,12.8823529 L27.6176471,12.8823529 L27.6176471,33.9705883 L37.5,33.9705883 L37.5,12.8823529 C37.5,11.6640777 36.5123929,10.6764706 35.2941177,10.6764706 L35.2941177,10.6764706 Z M22.7647059,2.64705881 L10.1470588,2.64705881 C8.92878364,2.64705881 7.94117647,3.63466598 7.94117647,4.85294117 L7.94117647,4.85294117 L7.94117647,33.9705883 L12.3529412,33.9705883 L12.3529412,27.7941177 C12.3529412,25.3575673 14.3281555,23.3823529 16.7647059,23.3823529 C19.2012563,23.3823529 21.1764706,25.3575673 21.1764706,27.7941177 L21.1764706,27.7941177 L21.1764706,33.9705883 L24.9705882,33.9705883 L24.9705882,4.85294117 C24.9705882,3.63466598 23.9829811,2.64705881 22.7647059,2.64705881 L22.7647059,2.64705881 Z M16.7647059,26.029663 C15.7901838,26.029663 15.0001387,26.8195956 15,27.7941177 L15,27.7941177 L15,33.9705883 L18.5294118,33.9705883 L18.5294118,27.7941177 C18.5292731,26.8195956 17.739228,26.029663 16.7647059,26.029663 Z M33.9705883,23.3823529 C34.7015534,23.3823529 35.2941177,23.9749172 35.2941177,24.7058824 C35.2941177,25.4368475 34.7015534,26.0294118 33.9705883,26.0294118 L33.9705883,26.0294118 L31.3235294,26.0294118 C30.5925643,26.0294118 30,25.4368475 30,24.7058824 C30,23.9749172 30.5925643,23.3823529 31.3235294,23.3823529 L31.3235294,23.3823529 Z M19.8529412,17.2058824 C20.5839063,17.2058824 21.1764706,17.7984467 21.1764706,18.5294118 C21.1764706,19.2603769 20.5839063,19.8529412 19.8529412,19.8529412 L19.8529412,19.8529412 L12.7941177,19.8529412 C12.0631526,19.8529412 11.4705883,19.2603769 11.4705883,18.5294118 C11.4705883,17.7984467 12.0631526,17.2058824 12.7941177,17.2058824 L12.7941177,17.2058824 Z M33.9705883,17.2058824 C34.7015534,17.2058824 35.2941177,17.7984467 35.2941177,18.5294118 C35.2941177,19.2603769 34.7015534,19.8529412 33.9705883,19.8529412 L33.9705883,19.8529412 L31.3235294,19.8529412 C30.5925643,19.8529412 30,19.2603769 30,18.5294118 C30,17.7984467 30.5925643,17.2058824 31.3235294,17.2058824 L31.3235294,17.2058824 Z M19.8529412,11.9117647 C20.5839063,11.9117647 21.1764706,12.504329 21.1764706,13.2352941 C21.1764706,13.9662592 20.5839063,14.5588235 19.8529412,14.5588235 L19.8529412,14.5588235 L12.7941177,14.5588235 C12.0631526,14.5588235 11.4705883,13.9662592 11.4705883,13.2352941 C11.4705883,12.504329 12.0631526,11.9117647 12.7941177,11.9117647 L12.7941177,11.9117647 Z M19.8529412,6.61764706 C20.5839063,6.61764706 21.1764706,7.21021136 21.1764706,7.94117647 C21.1764706,8.67214158 20.5839063,9.26470587 19.8529412,9.26470587 L19.8529412,9.26470587 L12.7941177,9.26470587 C12.0631526,9.26470587 11.4705883,8.67214158 11.4705883,7.94117647 C11.4705883,7.21021136 12.0631526,6.61764706 12.7941177,6.61764706 L12.7941177,6.61764706 Z" id="形状" fill="#666665"></path>
        </g>
    </g>
</svg>