<?xml version="1.0" encoding="UTF-8"?>
<svg width="45px" height="45px" viewBox="0 0 45 45" version="1.1" xmlns="http://www.w3.org/2000/svg" xmlns:xlink="http://www.w3.org/1999/xlink">
    <title>对公业务</title>
    <g id="pad" stroke="none" stroke-width="1" fill="none" fill-rule="evenodd">
        <g id="对公业务" fill="#FFFFFF" fill-rule="nonzero">
            <rect id="矩形" opacity="0" x="0" y="0" width="45" height="45"></rect>
            <path d="M22.7647059,5 C25.4428972,5.00485621 27.6127909,7.17474985 27.6176471,9.85294117 L27.6176471,9.85294117 L27.6176471,13.5676471 C28.2995562,13.2150478 29.0558542,13.0305111 29.8235294,13.0294118 L29.8235294,13.0294118 L35.2941177,13.0294118 C37.972309,13.034268 40.1422026,15.2041616 40.1470588,17.8823529 L40.1470588,17.8823529 L40.1470588,38.9705883 L43.6764706,38.9705883 C44.4074357,38.9705883 45,39.5631526 45,40.2941177 C45,41.0250828 44.4074357,41.6176471 43.6764706,41.6176471 L43.6764706,41.6176471 L1.32352941,41.6176471 C0.592564299,41.6176471 0,41.0250828 0,40.2941177 C0,39.5631526 0.592564299,38.9705883 1.32352941,38.9705883 L1.32352941,38.9705883 L5.29411766,38.9705883 L5.29411766,9.85294117 C5.29897386,7.17474985 7.46886751,5.00485621 10.1470588,5 L10.1470588,5 Z M35.2941177,15.6764706 L29.8235294,15.6764706 C28.6052542,15.6764706 27.6176471,16.6640777 27.6176471,17.8823529 L27.6176471,17.8823529 L27.6176471,38.9705883 L37.5,38.9705883 L37.5,17.8823529 C37.5,16.6640777 36.5123929,15.6764706 35.2941177,15.6764706 L35.2941177,15.6764706 Z M22.7647059,7.64705881 L10.1470588,7.64705881 C8.92878364,7.64705881 7.94117647,8.63466598 7.94117647,9.85294117 L7.94117647,9.85294117 L7.94117647,38.9705883 L12.3529412,38.9705883 L12.3529412,32.7941177 C12.3529412,30.3575673 14.3281555,28.3823529 16.7647059,28.3823529 C19.2012563,28.3823529 21.1764706,30.3575673 21.1764706,32.7941177 L21.1764706,32.7941177 L21.1764706,38.9705883 L24.9705882,38.9705883 L24.9705882,9.85294117 C24.9705882,8.63466598 23.9829811,7.64705881 22.7647059,7.64705881 L22.7647059,7.64705881 Z M16.7647059,31.029663 C15.7901838,31.029663 15.0001387,31.8195956 15,32.7941177 L15,32.7941177 L15,38.9705883 L18.5294118,38.9705883 L18.5294118,32.7941177 C18.5292731,31.8195956 17.739228,31.029663 16.7647059,31.029663 Z M33.9705883,28.3823529 C34.7015534,28.3823529 35.2941177,28.9749172 35.2941177,29.7058824 C35.2941177,30.4368475 34.7015534,31.0294118 33.9705883,31.0294118 L33.9705883,31.0294118 L31.3235294,31.0294118 C30.5925643,31.0294118 30,30.4368475 30,29.7058824 C30,28.9749172 30.5925643,28.3823529 31.3235294,28.3823529 L31.3235294,28.3823529 Z M19.8529412,22.2058824 C20.5839063,22.2058824 21.1764706,22.7984467 21.1764706,23.5294118 C21.1764706,24.2603769 20.5839063,24.8529412 19.8529412,24.8529412 L19.8529412,24.8529412 L12.7941177,24.8529412 C12.0631526,24.8529412 11.4705883,24.2603769 11.4705883,23.5294118 C11.4705883,22.7984467 12.0631526,22.2058824 12.7941177,22.2058824 L12.7941177,22.2058824 Z M33.9705883,22.2058824 C34.7015534,22.2058824 35.2941177,22.7984467 35.2941177,23.5294118 C35.2941177,24.2603769 34.7015534,24.8529412 33.9705883,24.8529412 L33.9705883,24.8529412 L31.3235294,24.8529412 C30.5925643,24.8529412 30,24.2603769 30,23.5294118 C30,22.7984467 30.5925643,22.2058824 31.3235294,22.2058824 L31.3235294,22.2058824 Z M19.8529412,16.9117647 C20.5839063,16.9117647 21.1764706,17.504329 21.1764706,18.2352941 C21.1764706,18.9662592 20.5839063,19.5588235 19.8529412,19.5588235 L19.8529412,19.5588235 L12.7941177,19.5588235 C12.0631526,19.5588235 11.4705883,18.9662592 11.4705883,18.2352941 C11.4705883,17.504329 12.0631526,16.9117647 12.7941177,16.9117647 L12.7941177,16.9117647 Z M19.8529412,11.6176471 C20.5839063,11.6176471 21.1764706,12.2102114 21.1764706,12.9411765 C21.1764706,13.6721416 20.5839063,14.2647059 19.8529412,14.2647059 L19.8529412,14.2647059 L12.7941177,14.2647059 C12.0631526,14.2647059 11.4705883,13.6721416 11.4705883,12.9411765 C11.4705883,12.2102114 12.0631526,11.6176471 12.7941177,11.6176471 L12.7941177,11.6176471 Z" id="形状"></path>
        </g>
    </g>
</svg>