<?xml version="1.0" encoding="UTF-8"?>
<svg width="45px" height="45px" viewBox="0 0 45 45" version="1.1" xmlns="http://www.w3.org/2000/svg" xmlns:xlink="http://www.w3.org/1999/xlink">
    <title>信用卡业务</title>
    <g id="pad" stroke="none" stroke-width="1" fill="none" fill-rule="evenodd">
        <g id="信用卡业务">
            <rect id="矩形" fill="#000000" fill-rule="nonzero" opacity="0" x="0" y="0" width="45" height="45"></rect>
            <g id="形状-7" transform="translate(3.000000, 8.000000)">
                <path d="M35,0 C37.7614237,0 40,2.23857625 40,5 L40,25 C40,27.7614237 37.7614237,30 35,30 L5,30 C2.23857625,30 0,27.7614237 0,25 L0,5 C0,2.23857625 2.23857625,0 5,0 L35,0 Z M36.6666667,13.3333333 L3.33333332,13.3333333 L3.33333332,25 C3.33333332,25.8449581 3.96584518,26.5561399 4.805,26.655 L5,26.6666667 L35,26.6666667 C35.8449581,26.6666667 36.5561399,26.0341548 36.655,25.195 L36.6666667,25 L36.6666667,13.3333333 Z M35,3.33333332 L5,3.33333332 C4.15504195,3.33344479 3.44386008,3.96584518 3.345,4.805 L3.33333332,5 L3.33333332,10 L36.6666667,10 L36.6666667,5 C36.6666667,4.07952541 35.9204746,3.33333332 35,3.33333332 Z" id="形状" fill="#666666" fill-rule="nonzero"></path>
                <line x1="23.5" y1="21.5" x2="32.5" y2="21.5" id="直线-6" stroke="#666666" stroke-width="3" stroke-linecap="round" stroke-linejoin="round"></line>
            </g>
        </g>
    </g>
</svg>