<?xml version="1.0" encoding="UTF-8"?>
<svg width="45px" height="45px" viewBox="0 0 45 45" version="1.1" xmlns="http://www.w3.org/2000/svg" xmlns:xlink="http://www.w3.org/1999/xlink">
    <title>账户管理</title>
    <g id="pad" stroke="none" stroke-width="1" fill="none" fill-rule="evenodd">
        <g id="账户管理">
            <rect id="矩形" fill="#D8D8D8" opacity="0" x="0" y="0" width="45" height="45"></rect>
            <g id="形状-25" transform="translate(3.000000, 3.000000)" fill="#FFFFFF" fill-rule="nonzero">
                <path d="M29.9266228,10.2249294 C29.9266228,4.73838194 25.1882408,0 19.4523048,0 C13.7163688,0 8.97798683,4.48899341 8.97798683,10.2249294 C8.97798683,13.4669802 10.474318,16.210254 12.7188147,18.2053622 C5.48654751,20.6992474 0,27.682126 0,35.6625588 C0.249388523,36.6601129 0.997554092,37.4082784 1.99510818,37.4082784 C2.99266228,37.4082784 3.74082784,36.6601129 3.74082784,35.6625588 C3.74082784,27.183349 10.7237065,20.4498589 19.4523048,20.4498589 L19.7016933,20.4498589 C25.1882408,20.4498589 29.9266228,15.9608655 29.9266228,10.2249294 Z M22.9437441,24.6894638 C23.9412982,19.9510818 28.4302916,16.709031 32.919285,17.7065851 C35.1637817,18.2053622 37.1588899,19.7016933 38.4058325,21.6968015 C39.6527752,23.6919097 40.1515522,25.9364064 39.6527752,28.4302916 C39.4033866,30.1760113 38.6552211,31.6723424 37.4082784,32.919285 L37.4082784,32.919285 L39.9021637,37.4082784 C40.1515522,38.156444 39.9021637,39.1539981 39.4033866,39.6527752 C39.1539981,39.9021637 38.9046096,39.9021637 38.6552211,39.9021637 L38.6552211,39.9021637 L38.156444,39.9021637 C37.657667,39.9021637 37.4082784,39.4033866 37.1588899,39.1539981 L37.1588899,39.1539981 L34.9143932,34.9143932 C33.1686736,35.6625588 31.4229539,35.9119473 29.6772342,35.4131703 C27.4327375,34.9143932 25.4376293,33.4180621 24.1906867,31.4229539 C22.9437441,29.4278457 22.4449671,26.9339605 22.9437441,24.6894638 Z M32.420508,20.6992474 C29.4278457,19.9510818 26.4351834,21.94619 25.9364064,25.1882408 C25.4376293,28.4302916 27.183349,31.4229539 30.1760113,32.1711195 C33.1686736,32.919285 36.1613358,30.9241768 36.6601129,27.682126 C37.1588899,24.4400753 35.4131703,21.447413 32.420508,20.6992474 Z M19.4523048,3.49143932 C23.1931326,3.49143932 26.4351834,6.4841016 26.4351834,10.2249294 C26.4351834,13.9657573 23.4425212,16.9584196 19.4523048,16.9584196 C15.7114769,16.9584196 12.4694261,13.9657573 12.4694261,10.2249294 C12.4694261,6.4841016 15.7114769,3.49143932 19.4523048,3.49143932 Z" id="形状"></path>
            </g>
        </g>
    </g>
</svg>