<?xml version="1.0" encoding="UTF-8"?>
<svg width="45px" height="46px" viewBox="0 0 45 46" version="1.1" xmlns="http://www.w3.org/2000/svg" xmlns:xlink="http://www.w3.org/1999/xlink">
    <title>存单业务</title>
    <g id="pad" stroke="none" stroke-width="1" fill="none" fill-rule="evenodd">
        <g id="存单业务" transform="translate(0.000000, 0.583333)">
            <rect id="矩形备份-25" fill="#D8D8D8" opacity="0" x="0" y="0" width="45" height="45"></rect>
            <path d="M18.2245455,14.1212374 C18.2245455,13.2739824 18.9113813,12.5871465 19.7586363,12.5871465 L31.8575,12.5871465 C32.704755,12.5871465 33.3915908,13.2739824 33.3915908,14.1212374 C33.3915908,14.9684924 32.704755,15.6553283 31.8575,15.6553283 L19.7586363,15.6553283 C18.9113813,15.6553283 18.2245455,14.9684924 18.2245455,14.1212374 Z M19.7586363,20.6053283 L31.8575,20.6053283 C32.704755,20.6053283 33.3915909,19.9184924 33.3915909,19.0712374 C33.3915909,18.2239824 32.704755,17.5371465 31.8575,17.5371465 L19.7586363,17.5371465 C18.9113813,17.5371465 18.2245454,18.2239824 18.2245454,19.0712374 C18.2245454,19.9184924 18.9113813,20.6053283 19.7586363,20.6053283 L19.7586363,20.6053283 Z M42.9070455,30.5135101 L42.9070455,39.3130556 C42.9070455,41.1294192 41.4281818,42.6062374 39.6138637,42.6062374 L5.29318183,42.6062374 C3.47681817,42.6062374 2,41.1273737 2,39.3130556 L2,30.5135101 C2,29.3885101 2.56863635,28.3944192 3.42977274,27.8012374 L3.42977274,10.2696465 C3.43315392,7.47962535 5.6940698,5.21870947 8.48409091,5.21532829 L10.4395455,5.21532829 C11.136365,3.18068207 13.0466203,1.81163834 15.1972727,1.80555556 L36.4270455,1.80555556 C39.2173974,1.81006318 41.4779851,4.07156564 41.4813637,6.86191921 L41.4813637,27.7991919 C42.3404546,28.3964647 42.9070455,29.3885101 42.9070455,30.5135101 Z M13.2070455,6.86191921 L13.2070455,27.2162374 L16.7681818,27.2162374 C17.5551344,27.2163837 18.2143464,27.811972 18.2940909,28.5948738 C18.3759091,29.3987374 19.9979546,30.5155556 22.4525,30.5155556 C24.9070454,30.5155556 26.5290909,29.3966919 26.6109091,28.5948738 C26.6906536,27.811972 27.3498656,27.2163837 28.1368182,27.2162374 L38.4070455,27.2162374 L38.4070455,6.86191921 C38.4059206,5.76514118 37.5176854,4.87599121 36.4209091,4.87373738 L15.1931818,4.87373738 C14.0968718,4.87711184 13.2092914,5.76560624 13.2070455,6.86191921 Z M6.49590909,10.2696465 L6.49590909,27.2162374 L10.1368182,27.2162374 L10.1368182,8.28555556 L8.48,8.28555556 C7.38515038,8.28780603 6.49815956,9.17479685 6.49590909,10.2696465 Z M39.838873,30.5135101 C39.8394094,30.4534828 39.8159452,30.3957263 39.7736902,30.3530872 C39.7314353,30.3104481 39.6738935,30.2864647 39.6138637,30.2864647 L29.2495455,30.2864647 C28.2452273,32.2378283 25.5963637,33.5857829 22.4545455,33.5857829 C19.3127273,33.5857829 16.6638637,32.2378283 15.6554546,30.2864647 L5.29318183,30.2864647 C5.23315203,30.2864647 5.17561022,30.3104481 5.13335524,30.3530872 C5.09110026,30.3957263 5.06763611,30.4534828 5.06817252,30.5135101 L5.06817252,39.3130556 C5.06817252,39.4398737 5.16636365,39.5380556 5.29318183,39.5380556 L39.6138637,39.5380556 C39.7381277,39.5380556 39.838873,39.4373196 39.838873,39.3130556 L39.838873,30.5135101 Z" id="形状" fill="#666665" fill-rule="nonzero"></path>
        </g>
    </g>
</svg>