<?xml version="1.0" encoding="UTF-8"?>
<svg width="45px" height="45px" viewBox="0 0 45 45" version="1.1" xmlns="http://www.w3.org/2000/svg" xmlns:xlink="http://www.w3.org/1999/xlink">
    <title>数字人民币业务</title>
    <g id="pad" stroke="none" stroke-width="1" fill="none" fill-rule="evenodd">
        <g id="数字人民币业务">
            <rect id="矩形" stroke="#979797" fill="#D8D8D8" opacity="0" x="0.5" y="0.5" width="44" height="44"></rect>
            <g id="路径-5" transform="translate(3.000000, 4.000000)" fill="#666666" fill-rule="nonzero">
                <path d="M19,0 C29.4934102,0 38,8.50658975 38,19 C38,20.0016437 37.2249161,20.8222569 36.2417992,20.8947886 L36.1,20.9 L20.504,20.9 L20.504,22.931 L25.9219175,22.9314048 C26.9631275,22.9314048 27.4837325,23.4520098 27.4837325,24.4932198 C27.4837325,25.5344298 26.9631275,26.0550348 25.9219175,26.0550348 L20.504,26.055 L20.5043402,30.4749564 C20.5043402,31.5161664 19.9837352,32.0367714 18.9425252,32.0367714 C17.9013152,32.0367714 17.3807102,31.5161664 17.3807102,30.4749564 L17.38,26.055 L12.011815,26.0550348 C10.970605,26.0550348 10.45,25.5344298 10.45,24.4932198 C10.45,23.4520098 10.970605,22.9314048 12.011815,22.9314048 L17.38,22.931 L17.38,20.9 L3.91875,20.9 L3.93875808,21.06255 C4.93217854,28.385329 11.1405514,34.0511854 18.7008729,34.1971154 L19,34.2 C25.3501019,34.2 30.9632431,30.2700344 33.1984824,24.4390581 C33.574084,23.4592417 34.6728673,22.9694289 35.6526836,23.3450305 C36.6325,23.7206321 37.1223128,24.8194154 36.7467112,25.7992317 C33.9526293,33.0880377 26.9369094,38 19,38 C8.50658975,38 0,29.4934102 0,19 C0,8.50658975 8.50658975,0 19,0 Z M19,3.8 C11.3048325,3.8 4.94524986,9.51831867 3.93875808,16.93745 L3.91875,17.1 L16.168,17.1 L11.1607736,11.9770172 C10.4245269,11.2407705 10.4245269,10.5045239 11.1607736,9.76827722 C11.8970202,9.03203057 12.6332669,9.03203057 13.3695135,9.76827722 L18.86,15.386 L24.3960192,9.72054078 C25.1322659,8.98429413 25.8685125,8.98429413 26.6047592,9.72054078 C27.3410058,10.4567874 27.3410058,11.1930341 26.6047592,11.9292807 L21.553,17.1 L34.0822,17.1 L34.0612419,16.93745 C33.0678215,9.61467102 26.8594486,3.94881462 19.2991271,3.8028846 L19,3.8 Z" id="路径"></path>
            </g>
        </g>
    </g>
</svg>