<?xml version="1.0" encoding="UTF-8"?>
<svg width="45px" height="45px" viewBox="0 0 45 45" version="1.1" xmlns="http://www.w3.org/2000/svg" xmlns:xlink="http://www.w3.org/1999/xlink">
    <title>理财类</title>
    <g id="pad" stroke="none" stroke-width="1" fill="none" fill-rule="evenodd">
        <g id="首页1" transform="translate(-65.000000, -782.000000)" fill-rule="nonzero">
            <g id="理财类" transform="translate(65.000000, 782.000000)">
                <rect id="矩形" fill="#000000" opacity="0" x="0" y="0" width="45" height="45"></rect>
                <path d="M38.2967115,22.2830503 L22.7169654,22.2830503 L22.7169654,6.70331727 C22.7169654,6.51183451 22.5602976,6.35516681 22.3688147,6.35516681 L21.2373247,6.35516681 C18.8873072,6.35516681 16.6069198,6.81646617 14.4614408,7.72165736 C12.3899438,8.59638539 10.5273373,9.85407893 8.93019572,11.4512192 C7.33305416,13.0483594 6.07535957,14.9109644 5.20063081,16.9824596 C4.29108698,19.1322887 3.82978723,21.4126742 3.82978723,23.7626898 C3.82978723,26.1127054 4.29108698,28.3930909 5.19627893,30.5385681 C6.07100769,32.6100633 7.32870227,34.4726683 8.92584384,36.0698085 C10.5229854,37.6669488 12.3855919,38.9246423 14.4570889,39.7993703 C16.6069198,40.7089134 18.8873072,41.1702128 21.2373247,41.1702128 C23.5873423,41.1702128 25.8677297,40.7089134 28.0132087,39.8037222 C30.0847057,38.9289942 31.9473122,37.6713006 33.5444538,36.0741604 C35.1415953,34.4770202 36.3992899,32.6144152 37.2740187,30.54292 C38.1835625,28.3930909 38.6448622,26.1127054 38.6448622,23.7626898 L38.6448622,22.6312008 C38.6448622,22.439718 38.4881944,22.2830503 38.2967115,22.2830503 Z M31.4076785,34.0244246 C28.6833989,36.7269425 25.0060566,38.2283414 21.1676946,38.2110836 C17.3336845,38.1935263 13.7303242,36.6921275 11.0191002,33.9809058 C8.29046872,31.2522765 6.78906861,27.622808 6.78906861,23.7626898 C6.78906861,19.9025716 8.29046872,16.273103 11.0191002,13.5444738 C13.3952291,11.1683469 16.4546038,9.71917062 19.7576841,9.38842769 L19.7576841,25.2423292 L35.6115988,25.2423292 C35.2765037,28.5628142 33.8142706,31.6395939 31.4076785,34.0244246 Z M42.1263697,19.8634046 L42.0132207,18.6361743 C41.6433106,14.6280921 39.8633899,10.8463077 36.9998499,7.99147397 C34.13631,5.13228832 30.3501706,3.35672097 26.3290295,2.98681111 L25.0974462,2.87366221 C24.8929076,2.85625469 24.7188322,3.01292239 24.7188322,3.21746079 L24.7188322,19.9330347 C24.7188322,20.1245175 24.8755001,20.2811852 25.066983,20.2811852 L41.778219,20.2376664 C41.9827576,20.2376664 42.1437773,20.0635912 42.1263697,19.8634046 Z M27.6694098,17.33061 L27.6694098,6.16368405 C30.3936895,6.73378043 32.9221343,8.08721534 34.9109454,10.071673 C36.8997566,12.0561306 38.2618964,14.5802214 38.8276414,17.3001469 L27.6694098,17.33061 Z" id="形状" fill="#ffffff"></path>
            </g>
        </g>
    </g>
</svg>
