<?xml version="1.0" encoding="UTF-8"?>
<svg width="45px" height="46px" viewBox="0 0 45 46" version="1.1" xmlns="http://www.w3.org/2000/svg" xmlns:xlink="http://www.w3.org/1999/xlink">
    <title>存折业务</title>
    <g id="pad" stroke="none" stroke-width="1" fill="none" fill-rule="evenodd">
        <g id="存折业务" transform="translate(0.000000, 0.583333)">
            <rect id="矩形" fill="#D8D8D8" opacity="0" x="0" y="0" width="45" height="45"></rect>
            <path d="M41.1369443,8 L8.80684722,8 C8.43893715,8 8.11701584,8.02299438 7.79509453,8.09197752 C6.9443025,8.20694941 6.36944303,8.50587634 5.9555442,8.9887583 C5.42667348,9.51762902 5.10475217,10.2074604 5.01277466,10.9892693 C4.9667859,11.1732243 4.92079714,11.334185 4.87480838,11.51814 L0,27.7751661 C0,29.7066939 1.2187021,31.2473173 3.84006132,31.2473173 L4.98978028,31.2473173 L4.98978028,32.741952 C4.98978028,34.6734798 6.20848237,36.2141032 8.82984159,36.2141032 L41.1599387,36.2141032 C43.7812979,36.2141032 45,34.6504854 45,32.741952 L45,11.4951456 C44.9540112,9.58661216 43.7353091,8 41.1369443,8 Z M6.04752172,15.1742463 L7.01328564,12.2079714 C7.01328564,12.1619826 7.03628002,12.1389882 7.03628002,12.0929995 C7.10526316,11.9320388 7.1742463,11.7250894 7.22023505,11.6331119 C7.31221257,11.2652018 7.56515074,10.9662749 7.91006643,10.7823199 C8.00204394,10.7593255 8.09402146,10.7133367 8.18599898,10.6903424 C8.32396525,10.6443536 8.48492591,10.6213592 8.64588656,10.6213592 L40.9759836,10.6213592 L40.9299949,10.6213592 L41.1139499,10.6213592 L40.815023,10.6443536 L41.5048544,10.6443536 C42.2406745,10.6443536 42.8385284,11.2422075 42.8385284,11.9780276 L39.9412366,21.1527849 L4.11579256,21.1527849 C4.09299949,21.1527849 6.04752172,15.1742463 6.04752172,15.1742463 Z M3.51814001,28.7179356 C2.85130301,28.7179356 2.29943792,28.2350537 2.2074604,27.591211 C2.16147164,27.4532448 2.13847726,27.2692897 2.13847726,27.1083291 L2.46039857,26.1425652 L38.3776188,26.1425652 L37.9867144,27.3842616 C37.7107818,28.3040368 37.3888605,28.7179356 36.6530404,28.7179356 L3.51814001,28.7179356 L3.51814001,28.7179356 Z M41.6428206,33.7077159 L8.50792029,33.7077159 C7.86407767,33.7077159 7.28921819,33.2248339 7.19724067,32.5809913 C7.15125192,32.443025 7.12825754,32.25907 7.12825754,32.0981094 L7.10526316,31.2703117 L36.147164,31.2703117 C38.7685232,31.2703117 39.1594277,30.1895759 39.9872253,27.7981604 L42.9764946,17.887583 L42.9764946,32.3970363 C42.9535003,33.109862 42.3556464,33.7077159 41.6428206,33.7077159 L41.6428206,33.7077159 Z" id="形状" fill="#FFFFFF" fill-rule="nonzero"></path>
        </g>
    </g>
</svg>