<?xml version="1.0" encoding="UTF-8"?>
<svg width="45px" height="45px" viewBox="0 0 45 45" version="1.1" xmlns="http://www.w3.org/2000/svg" xmlns:xlink="http://www.w3.org/1999/xlink">
    <title>表-单据_jurassic</title>
    <g id="pad" stroke="none" stroke-width="1" fill="none" fill-rule="evenodd">
        <g id="表-单据_jurassic" fill-rule="nonzero">
            <rect id="矩形" fill="#000000" opacity="0" x="0" y="0" width="45" height="45"></rect>
            <path d="M10.4963379,8.06396484 C11.2208071,8.06396484 11.8081055,8.65126319 11.8081055,9.37573242 C11.8081055,10.1002017 11.2208071,10.6875 10.4963379,10.6875 L10.4963379,10.6875 L10.472168,10.6875 C9.73388672,10.6875 9.13623047,11.2763672 9.13623047,12.0014648 L9.13623047,12.0014648 L9.13623047,38.25 C9.13623047,38.9750977 9.73388672,39.5639648 10.472168,39.5639648 L10.472168,39.5639648 L34.527832,39.5639648 C35.2661133,39.5639648 35.8637695,38.9750977 35.8637695,38.25 L35.8637695,38.25 L35.8637695,12.0014648 C35.8637695,11.2763672 35.2661133,10.6875 34.527832,10.6875 L34.527832,10.6875 L34.5036621,10.6875 C33.7791929,10.6875 33.1918945,10.1002017 33.1918945,9.37573242 C33.1918945,8.65126319 33.7791929,8.06396484 34.5036621,8.06396484 L34.5036621,8.06396484 L34.527832,8.06396484 C36.7426758,8.06396484 38.5400391,9.83056641 38.5444336,12.0014648 L38.5444336,12.0014648 L38.5444336,38.25 C38.5444336,40.4208984 36.7426758,42.1875 34.5322266,42.1875 L34.5322266,42.1875 L10.472168,42.1875 C8.25732422,42.1875 6.45996094,40.4208984 6.45996094,38.25 L6.45996094,38.25 L6.45996094,12.0014648 C6.45996094,9.83056641 8.26171875,8.06396484 10.472168,8.06396484 L10.472168,8.06396484 Z M29.208252,31.6889648 C29.9327212,31.6889648 30.5200195,32.2762632 30.5200195,33.0007324 C30.5200195,33.7252017 29.9327212,34.3125 29.208252,34.3125 L15.791748,34.3125 C15.0672788,34.3125 14.4799805,33.7252017 14.4799805,33.0007324 C14.4799805,32.2762632 15.0672788,31.6889648 15.791748,31.6889648 L29.208252,31.6889648 Z M29.208252,23.8139648 C29.9327212,23.8139648 30.5200195,24.4012632 30.5200195,25.1257324 C30.5200195,25.8502017 29.9327212,26.4375 29.208252,26.4375 L15.791748,26.4375 C15.0672788,26.4375 14.4799805,25.8502017 14.4799805,25.1257324 C14.4799805,24.4012632 15.0672788,23.8139648 15.791748,23.8139648 L29.208252,23.8139648 Z M29.208252,15.9389648 C29.9327212,15.9389648 30.5200195,16.5262632 30.5200195,17.2507324 C30.5200195,17.9752017 29.9327212,18.5625 29.208252,18.5625 L15.791748,18.5625 C15.0672788,18.5625 14.4799805,17.9752017 14.4799805,17.2507324 C14.4799805,16.5262632 15.0672788,15.9389648 15.791748,15.9389648 L29.208252,15.9389648 Z M23.8359375,2.8125 C26.0507812,2.8125 27.8481445,4.57910156 27.8481445,6.75 C27.8481445,7.21582031 27.7514648,7.65087891 27.6020508,8.06396484 L27.6020508,8.06396484 L29.208252,8.06396484 C29.9327212,8.06396484 30.5200195,8.65126319 30.5200195,9.37573242 C30.5200195,10.1002017 29.9327212,10.6875 29.208252,10.6875 L29.208252,10.6875 L15.791748,10.6875 C15.0672788,10.6875 14.4799805,10.1002017 14.4799805,9.37573242 C14.4799805,8.65126319 15.0672788,8.06396484 15.791748,8.06396484 L15.791748,8.06396484 L17.3979492,8.06396484 C17.2485352,7.65087891 17.1518555,7.21142578 17.1518555,6.75 C17.1518555,4.57910156 18.9536133,2.8125 21.1640625,2.8125 L21.1640625,2.8125 Z" id="路径-13" fill="#FFFFFF"></path>
        </g>
    </g>
</svg>