<?xml version="1.0" encoding="UTF-8"?>
<svg width="60px" height="60px" viewBox="0 0 60 60" version="1.1" xmlns="http://www.w3.org/2000/svg" xmlns:xlink="http://www.w3.org/1999/xlink">
    <title>远程银行</title>
    <g id="pad" stroke="none" stroke-width="1" fill="none" fill-rule="evenodd">
        <g id="首页1" transform="translate(-54.000000, -1072.000000)" fill-rule="nonzero">
            <g id="远程银行" transform="translate(54.000000, 1072.000000)">
                <rect id="矩形" fill="#000000" opacity="0" x="0" y="0" width="60" height="60"></rect>
                <path d="M47.8263038,9.67096307 C50.8565293,9.67096307 53.3121044,12.1818807 53.3121044,15.2778216 L53.3121044,15.2778216 L53.3121044,36.1404368 C53.3121044,39.2370973 50.8565293,41.7459163 47.8263038,41.7459163 L47.8263038,41.7459163 L35.6520979,41.7459163 L35.6520979,45.6647993 L25.3239203,45.6647993 L25.3239203,41.7459163 L12.0506596,41.7459163 C9.02073387,41.7459163 6.56389963,39.2371572 6.56389963,36.1404368 L6.56389963,36.1404368 L6.56389963,15.2778216 C6.56389963,12.1819406 9.02073393,9.67096307 12.0506596,9.67096307 L12.0506596,9.67096307 Z M29.9922,16.1011955 C28.6586238,16.1022919 27.339018,16.372839 26.1126,16.8966 C21.0857,19.0435 18.751,24.859 20.8979,29.886 C23.0447,34.913 28.8603,37.2478 33.8873,35.1009 C38.9143,32.954 41.2491,27.1385 39.1022,22.1115 L39.1022,22.1115 L35.4689,22.1115 C36.2722852,23.2428558 36.7048386,24.595616 36.7069,25.9832 C36.7123,29.686 33.715,32.6923 30.0122,32.6977 C26.3094,32.7031 23.3031,29.7059 23.2976,26.003 C23.2922,22.3001 26.2894,19.2939 29.9923,19.2884 C30.340105,19.2883791 30.6874074,19.3148221 31.0312,19.3675 L31.0312,19.3675 L31.0312,22.5405 L26.3958,22.5405 L26.3958,29.5106 L33.7355,29.5106 L33.7355,16.8635 C32.5520026,16.3592601 31.2786379,16.0999472 29.9922,16.1011955 Z M31.3218,24.83 L31.3218,27.2211 L28.8009,27.2211 L28.8009,24.83 L31.3218,24.83 Z M29.9375524,10.7697781 C30.4322769,10.7697781 30.8325056,11.1700667 30.8325056,11.6641917 C30.8325056,12.1584966 30.4322769,12.5587252 29.9375524,12.5587252 C29.4438471,12.5587252 29.0434985,12.1586764 29.0434985,11.6641917 C29.0435585,11.1700667 29.4437871,10.7697781 29.9375524,10.7697781 L29.9375524,10.7697781 M47.2011077,40.5684946 L43.2004402,40.5684946 C42.8277928,40.5684946 42.5252379,40.2649804 42.5252379,39.8922731 C42.5252379,39.5184865 42.8280326,39.2149723 43.2004402,39.2149723 L47.2011077,39.2149723 C47.573875,39.2149723 47.8763698,39.5185464 47.8763698,39.8922731 C47.8763099,40.2650403 47.573815,40.5684946 47.2011077,40.5684946 L47.2011077,40.5684946 M39.7904321,46.864346 L20.0855121,46.864346 C19.0727987,46.864346 18.2506961,47.6861488 18.2506961,48.699102 C18.2506961,49.7121152 19.0724989,50.5335582 20.0855121,50.5335582 L39.7904321,50.5335582 C40.8044646,50.5335582 41.6251881,49.7121152 41.6251881,48.699102 C41.6251881,47.6861488 40.8044646,46.864346 39.7904321,46.864346 L39.7904321,46.864346" id="形状" fill="#076741"></path>
            </g>
        </g>
    </g>
</svg>