<?xml version="1.0" encoding="UTF-8"?>
<svg width="45px" height="46px" viewBox="0 0 45 46" version="1.1" xmlns="http://www.w3.org/2000/svg" xmlns:xlink="http://www.w3.org/1999/xlink">
    <title>签约业务</title>
    <g id="pad" stroke="none" stroke-width="1" fill="none" fill-rule="evenodd">
        <g id="签约业务" transform="translate(0.000000, 0.777778)" fill-rule="nonzero">
            <rect id="矩形" fill="#000000" opacity="0" x="0" y="0" width="45" height="45"></rect>
            <path d="M30.3429153,14.1948077 L30.3429153,12.086668 C30.3429153,11.8934218 30.1824921,11.7353113 29.9864192,11.7353113 L12.8746039,11.7353113 C12.678531,11.7353113 12.5181077,11.8934218 12.5181077,12.086668 L12.5181077,14.1948077 C12.5181077,14.3880539 12.678531,14.5461644 12.8746039,14.5461644 L29.9864192,14.5461644 C30.1824921,14.5461644 30.3429153,14.3880539 30.3429153,14.1948077 Z M12.8746039,18.0597306 C12.678531,18.0597306 12.5181077,18.2178411 12.5181077,18.4110873 L12.5181077,20.519227 C12.5181077,20.7124732 12.678531,20.8705836 12.8746039,20.8705836 L21.0740154,20.8705836 C21.2700883,20.8705836 21.4305115,20.7124732 21.4305115,20.519227 L21.4305115,18.4110873 C21.4305115,18.2178411 21.2700883,18.0597306 21.0740154,18.0597306 L12.8746039,18.0597306 Z M29.629923,23.1544017 C34.9461719,23.1544017 39.2553191,27.4014249 39.2553191,32.6410306 C39.2553191,37.8806363 34.9461719,42.1276596 29.629923,42.1276596 C24.3136742,42.1276596 20.0045269,37.8806363 20.0045269,32.6410306 C20.0045269,27.4014249 24.3136742,23.1544017 29.629923,23.1544017 Z M29.629923,25.9652547 C27.8207051,25.9652547 26.1184359,26.6591841 24.839506,27.919676 C23.5605761,29.1801679 22.8564962,30.8578958 22.8564962,32.6410306 C22.8564962,34.4241655 23.5605761,36.1018934 24.839506,37.3623853 C26.1184359,38.6228772 27.8207051,39.3168066 29.629923,39.3168066 C31.439141,39.3168066 33.1414101,38.6228772 34.4203401,37.3623853 C35.69927,36.1018934 36.4033499,34.4241655 36.4033499,32.6410306 C36.4033499,30.8578958 35.69927,29.1801679 34.4203401,27.919676 C33.1414101,26.6591841 31.439141,25.9652547 29.629923,25.9652547 Z M29.5,27.2222222 C30.3284271,27.2222222 31,27.8937951 31,28.7222222 L30.9996809,32.1916499 L33.3242645,33.760044 C34.0110617,34.2232945 34.1922821,35.1555925 33.7290315,35.8423897 C33.265781,36.5291869 32.333483,36.7104073 31.6466858,36.2471567 L29.1595731,34.569578 C28.9198233,34.4078647 28.7416828,34.1889934 28.6310601,33.9433606 C28.2488434,33.6726595 28,33.2265011 28,32.7222222 L28,28.7222222 C28,27.8937951 28.6715729,27.2222222 29.5,27.2222222 Z M19.2915346,37.9113801 L10.9531462,37.9113801 C9.84857672,37.9113801 8.95314622,37.0159496 8.95314622,35.9113801 L8.95314622,8.99199688 C8.95314622,7.88742738 9.84857672,6.99199688 10.9531462,6.99199688 L31.9078769,6.99199688 C33.0124464,6.99199688 33.9078769,7.88742738 33.9078769,8.99199688 L33.9078769,22.1003318 L33.9078769,22.1003318 C33.9078769,22.293578 34.0683001,22.4516885 34.264373,22.4516885 L36.7598461,22.4516885 C36.955919,22.4516885 37.1163422,22.293578 37.1163422,22.1003318 L37.1163422,7.91764987 C37.1163422,5.70851087 35.3254812,3.91764987 33.1163422,3.91764987 L9.74468085,3.91764987 C7.53554185,3.91764987 5.74468085,5.70851087 5.74468085,7.91764987 L5.74468085,37.0735897 C5.74468085,39.2827287 7.53554185,41.0735897 9.74468085,41.0735897 L19.2915346,41.0735897 L19.2915346,41.0735897 C19.4876075,41.0735897 19.6480308,40.9154792 19.6480308,40.7222331 L19.6480308,38.2627367 C19.6480308,38.0694905 19.4876075,37.9113801 19.2915346,37.9113801 Z" id="形状" fill="#666665"></path>
        </g>
    </g>
</svg>