<?xml version="1.0" encoding="UTF-8"?>
<svg width="45px" height="45px" viewBox="0 0 45 45" version="1.1" xmlns="http://www.w3.org/2000/svg" xmlns:xlink="http://www.w3.org/1999/xlink">
    <title>转账汇款</title>
    <g id="pad" stroke="none" stroke-width="1" fill="none" fill-rule="evenodd">
        <g id="转账汇款" fill-rule="nonzero">
            <rect id="矩形" fill="#000000" opacity="0" x="0" y="0" width="45" height="45"></rect>
            <g id="形状-6" transform="translate(5.000000, 5.000000)" fill="#666665">
                <path d="M17.7898424,0 C26.6530603,0 34.1576635,6.44717229 35.558365,15.1065322 C35.7032762,16.0028751 35.0941204,16.8469783 34.1977775,16.9918895 C33.8679264,17.0452163 33.5451496,16.9964263 33.2616879,16.8687862 L33.2620037,16.8899605 L27.7788823,14.208242 C27.6276077,14.13462 27.539655,13.9731756 27.5598285,13.806151 C27.580002,13.6391263 27.7038637,13.5032653 27.8683168,13.4677773 L27.8683168,13.4677773 L31.5093995,12.6724152 C29.3617776,7.13686734 23.9802933,3.28803157 17.7898424,3.28803157 C10.5469665,3.28803157 4.41149958,8.55808856 3.2672646,15.6326173 C3.17328856,16.2124495 2.77711433,16.6981009 2.2279769,16.9066313 C1.67883947,17.1151618 1.06016589,17.0148906 0.605004508,16.6435888 C0.149843125,16.2722871 -0.0726562156,15.6863644 0.0213198369,15.1065322 C1.42202128,6.44848751 8.92662453,0.00131521263 17.7898424,0.00131521263 L17.7898424,0 Z M13.494358,15.3695747 L22.0853269,15.3695747 C23.1813374,15.3695747 23.7293426,15.91758 23.7293426,17.0135905 L23.7293426,17.0135905 C23.7293426,18.1096011 23.1813374,18.6576063 22.0853269,18.6576063 L13.494358,18.6576063 C12.3983475,18.6576063 11.8503422,18.1096011 11.8503422,17.0135905 L11.8503422,17.0135905 C11.8503422,15.91758 12.3983475,15.3695747 13.494358,15.3695747 L13.494358,15.3695747 Z M13.494358,20.004384 L22.0853269,20.004384 C23.1813374,20.004384 23.7293426,20.5523893 23.7293426,21.6483998 L23.7293426,21.6483998 C23.7293426,22.7444103 23.1813374,23.2924156 22.0853269,23.2924156 L13.494358,23.2924156 C12.3983475,23.2924156 11.8503422,22.7444103 11.8503422,21.6483998 L11.8503422,21.6483998 C11.8503422,20.5523893 12.3983475,20.004384 13.494358,20.004384 Z M19.4338582,17.3529154 L19.4338582,25.9438843 C19.4338582,27.0398948 18.8858529,27.5879 17.7898424,27.5879 L17.7898424,27.5879 C16.6938319,27.5879 16.1458266,27.0398948 16.1458266,25.9438843 L16.1458266,17.3529154 C16.1458266,16.2569049 16.6938319,15.7088996 17.7898424,15.7088996 L17.7898424,15.7088996 C18.8858529,15.7088996 19.4338582,16.2569049 19.4338582,17.3529154 Z M15.0837903,10.467424 L18.7944734,14.1781071 C19.5694699,14.9531036 19.5694699,15.7281001 18.7944734,16.5030966 L18.7944734,16.5030966 C18.0194769,17.278093 17.2444804,17.278093 16.469484,16.5030966 L12.7588009,12.7924134 C11.9838044,12.017417 11.9838044,11.2424205 12.7588009,10.467424 L12.7588009,10.467424 C13.5337973,9.69242756 14.3087938,9.69242756 15.0837903,10.467424 Z M22.6700198,12.7723 L18.9593366,16.4829832 C18.1843402,17.2579796 17.4093437,17.2579796 16.6343472,16.4829832 L16.6343472,16.4829832 C15.8593507,15.7079867 15.8593507,14.9329902 16.6343472,14.1579937 L20.3450304,10.4473106 C21.1200268,9.67231411 21.8950233,9.67231411 22.6700198,10.4473106 L22.6700198,10.4473106 C23.4450163,11.2223071 23.4450163,11.9973035 22.6700198,12.7723 L22.6700198,12.7723 Z M2.31897763,19.1316558 L2.31768108,19.1100395 L7.80080252,21.791758 C7.9520821,21.8651685 8.04021521,22.026388 8.02034461,22.1933604 C8.00047401,22.3603327 7.87696626,22.4963658 7.71268327,22.5322227 L7.71268327,22.5322227 L4.07067323,23.3281656 C6.21855516,28.8626354 11.5997642,32.7119684 17.7898424,32.7119684 C25.0327183,32.7119684 31.1681852,27.4419114 32.3124202,20.3686979 C32.4063963,19.7888658 32.8025705,19.3032143 33.3517079,19.0946839 C33.9008454,18.8861534 34.5195189,18.9864247 34.9746803,19.3577264 C35.4298417,19.7290281 35.652341,20.3149508 35.558365,20.894783 C34.1576635,29.5515125 26.6530603,35.9986848 17.7898424,35.9986848 L17.7898424,36 C8.92662453,36 1.42202128,29.5528277 0.0213198369,20.8934678 C-0.123591337,19.9971249 0.485564417,19.1530217 1.3819073,19.0081105 C1.71213889,18.9547222 2.03527978,19.0036864 2.31897763,19.1316558 Z" id="形状"></path>
            </g>
        </g>
    </g>
</svg>