<?xml version="1.0" encoding="UTF-8"?>
<svg width="35px" height="35px" viewBox="0 0 35 35" version="1.1" xmlns="http://www.w3.org/2000/svg" xmlns:xlink="http://www.w3.org/1999/xlink">
    <!-- Generator: Sketch 62 (91390) - https://sketch.com -->
    <title>chose_</title>
    <desc>Created with Sketch.</desc>
    <g id="高效能10.26-11.12" stroke="none" stroke-width="1" fill="none" fill-rule="evenodd">
        <g id="3.2.2.12-保障查询-自动续约" transform="translate(-1185.000000, -613.000000)">
            <g id="编组-8备份-2" transform="translate(340.000000, 528.000000)">
                <g id="chose_" transform="translate(845.000000, 85.000000)">
                    <path d="M9,4 C16,4 23,4 30,4 C31.3333333,4 33,2.66666667 35,0 L35,30 C35,32.7614237 32.7614237,35 30,35 L0,35 L0,35 C2.66666667,33 4,31.3333333 4,30 C4,23 4,16 4,9 C4,6.23857625 6.23857625,4 9,4 Z" id="矩形" fill="#4A83FF"></path>
                    <path d="M13.3130633,16.6093132 C13.6056917,16.4587367 13.9630748,16.524624 14.1827693,16.7696526 L18.9425752,22.0783346 C19.2739739,22.4479484 19.2840524,23.0047216 18.9662478,23.3860871 L18.0208235,24.5205964 C17.6672594,24.9448733 17.0366947,25.0021973 16.6124178,24.6486332 C16.5011147,24.5558807 16.4112957,24.44005 16.3491772,24.3091581 L13.0558308,17.3696407 C12.9223177,17.0883108 13.0361672,16.7517943 13.3130633,16.6093132 Z" id="矩形" fill="#FFFFFF"></path>
                    <path d="M27.4092139,15.0656864 L18.219411,24.3558681 C17.8310136,24.7485078 17.197858,24.751947 16.8052183,24.3635496 L16.7533494,24.308194 L16.2361125,23.7124203 C15.8740448,23.2953766 15.9186117,22.663782 16.3356554,22.3017143 L26.6975949,14.1167496 C26.9065334,13.9517355 27.1992142,13.9650519 27.3920564,14.1351355 L27.4693197,14.2192687 C27.6609136,14.4775791 27.6353873,14.8370425 27.4092139,15.0656864 Z" id="矩形备份-4" fill="#FFFFFF"></path>
                </g>
            </g>
        </g>
    </g>
</svg>