<?xml version="1.0" encoding="UTF-8"?>
<svg width="38px" height="39px" viewBox="0 0 38 39" version="1.1" xmlns="http://www.w3.org/2000/svg" xmlns:xlink="http://www.w3.org/1999/xlink">
    <title>电话图标备份</title>
    <g id="pad" stroke="none" stroke-width="1" fill="none" fill-rule="evenodd">
        <g id="首页" transform="translate(-1737.000000, -18.000000)" fill="#FFFFFF" fill-rule="nonzero">
            <g id="电话图标" transform="translate(1737.000000, 18.851485)">
                <path d="M26.146908,7.48585291 C26.1608104,7.49902843 26.1608104,7.52537947 26.1747129,7.53855499 C26.1747129,7.51220395 26.1608104,7.49902843 26.146908,7.48585291 Z M26.0930099,7.41463415 C26.1208147,7.4541607 26.1486196,7.48051174 26.1764245,7.5200383 C26.1486196,7.48051174 26.1208147,7.4541607 26.0930099,7.41463415 Z M26.1334335,7.46545849 C26.1473359,7.47863401 26.1612383,7.50498505 26.1751408,7.51816057 C26.1473359,7.50498505 26.1473359,7.49180953 26.1334335,7.46545849 Z M26.2556607,7.85829362 C26.2762638,7.69921715 26.2350576,7.56869287 26.1217404,7.47487854 C26.224756,7.56461398 26.2659623,7.69513827 26.2556607,7.85829362 Z M18.9287009,16.7951282 L19.0852604,16.5993417 C19.0809116,16.5993417 19.0765627,16.6034206 19.0765627,16.6034206 L18.9287009,16.7951282 Z M25.6868529,11.4354748 C24.7518447,13.2668936 23.0905744,14.3722712 23.0905744,14.3722712 C25.0432193,15.2492312 27.4133563,14.4701644 28.3483644,12.6305877 C29.2833726,10.7991689 28.4483886,8.57617718 26.4913948,7.69921715 C26.4913948,7.69921715 26.621861,9.60405591 25.6868529,11.4354748 L25.6868529,11.4354748 Z M18.9978797,0 C29.1710747,0 37.4741658,7.99352751 37.9703158,18.0437451 C37.9872782,18.3575494 37.9957594,18.6755942 38,19.0021203 C38,19.9138489 37.9321504,20.8128557 37.8091731,21.6906595 C36.5073095,30.9097199 28.5816315,38 19.0021203,38 C18.425399,38 17.8571588,37.9745564 17.2931592,37.9236692 C14.8039281,37.7370829 12.9847115,37.0034594 11.9288026,36.4776253 C10.6608637,35.8457761 9.1554514,35.0697467 8.41758732,33.4752818 C8.26068519,33.1360339 7.93839973,32.4193728 8.0104899,31.4864412 C8.07409887,30.634081 8.43454972,29.9895101 8.65930142,29.5908939 C8.71040062,29.5008619 8.76196525,29.4151739 8.81343149,29.3338297 C8.38640289,28.9435938 8.06541596,28.4827959 7.84133244,27.9730277 C7.76739409,27.8104214 7.70577881,27.6437499 7.65237889,27.468948 C6.98282611,25.2940883 7.78382484,22.3996954 9.34885312,19.8711669 L9.34885312,19.8711669 L15.6993353,9.65135845 C18.3118235,5.43578911 22.4318323,4.61869226 24.9210899,6.55777285 C24.9293053,6.56590317 24.9375207,6.57809864 24.945736,6.59029412 C24.9498437,6.59435927 24.9539514,6.59842443 24.9580591,6.60655475 L24.9580591,6.60655475 L24.9662745,6.62281538 C25.011459,6.71224887 25.0278898,6.84233394 25.0237821,6.99680996 C24.9744898,8.65945978 22.5756013,13.6718002 21.4336647,13.4685423 C19.8234519,13.1067432 20.345128,13.0173097 18.3241466,15.7084446 C18.3241466,15.7084446 18.3200389,15.7125097 18.3159312,15.7125097 L18.3159312,15.7125097 L18.1803776,15.9035722 L17.8558704,16.3913912 L15.9622272,19.2451325 C15.7773814,19.541889 15.6212893,19.822385 15.481628,20.0866203 C13.748558,23.415985 15.488757,24.2118154 15.6505377,24.2772848 L15.6623662,24.2818638 C16.9275334,24.7981389 12.2119101,31.2454803 11.1644502,30.5300124 C10.8235123,30.4446441 10.5113282,30.3430151 10.2196825,30.2210603 C10.1703903,30.2006247 10.1218542,30.1796545 10.0740567,30.1581672 C9.50945541,31.1083161 9.7650025,31.9394104 9.80426292,32.1606964 C10.0841424,33.8230108 12.853253,34.5311907 14.1593572,34.8619574 C15.4357773,35.1884834 16.5383328,35.23513 17.2889186,35.2181676 C17.8486776,35.277536 18.4211584,35.3072202 18.9978797,35.3072202 C28.0049102,35.3072202 35.3072202,28.0049102 35.3072202,18.9978797 L35.3072202,18.9978797 L35.3072202,18.836737 C35.298739,17.7002567 35.171521,16.5934606 34.9382881,15.5248298 C33.3395826,8.15042964 26.7581743,2.63765205 18.9003459,2.68429863 C9.82122531,2.7394264 2.56980248,10.1350296 2.68853923,19.2099096 C2.72246401,21.62281 3.27798237,23.912733 4.24907934,25.9651825 C4.50775583,26.5164602 4.1091396,27.1525499 3.49849347,27.1525499 C2.53163709,27.1525499 1.55205892,26.2620243 1.20008928,25.3587769 C0.381653833,23.2596808 0,21.3514117 0,18.9978797 C0,8.50663988 8.50663988,0 18.9978797,0 Z M16.7455656,25.7727516 C18.4894645,26.9841801 18.8591189,29.3132228 17.567503,30.9488552 C16.2758871,32.5804087 13.7883305,32.9271139 12.0487805,31.7156854 C12.0487805,31.7156854 13.9014013,30.9284608 15.1973661,29.2969072 C16.3967237,27.7818932 16.70363,26.0417914 16.7413546,25.8009351 Z" id="形状"></path>
            </g>
        </g>
    </g>
</svg>