<?xml version="1.0" encoding="UTF-8"?>
<svg width="95px" height="95px" viewBox="0 0 95 95" version="1.1" xmlns="http://www.w3.org/2000/svg" xmlns:xlink="http://www.w3.org/1999/xlink">
    <title>注意</title>
    <g id="pad" stroke="none" stroke-width="1" fill="none" fill-rule="evenodd">
        <g id="开卡-9" transform="translate(-896.000000, -441.000000)" fill-rule="nonzero">
            <g id="错误弹窗" transform="translate(543.000000, 403.000000)">
                <g id="注意" transform="translate(353.000000, 38.000000)">
                    <rect id="矩形" fill="#000000" opacity="0" x="0" y="0" width="95" height="95"></rect>
                    <path d="M47.7111112,2.11111115 C22.4833334,2.11111115 2.11111115,22.5888888 2.11111115,47.8166666 C2.11111115,73.0444444 22.5888889,93.4166666 47.8166666,93.4166666 C73.0444443,93.4166666 93.4166666,73.0444444 93.4166666,47.8166666 C93.4166666,22.4833334 72.9388888,2.11111115 47.7111112,2.11111115 Z" id="路径" fill="#FEB739"></path>
                    <path d="M52.4611112,76.5277778 C51.0888889,77.6888889 49.5055556,78.3222222 47.7111112,78.3222222 C45.9166667,78.3222222 44.3333334,77.6888888 43.0666666,76.4222222 C41.8,75.2611111 41.0611112,73.7833334 41.0611112,71.7777778 C41.0611112,69.8777778 41.6944445,68.2944444 43.0666666,67.1333334 C44.2277778,65.9722222 45.8111111,65.3388888 47.7111112,65.3388888 C49.6111112,65.3388888 51.3,65.9722222 52.4611112,67.1333334 C53.7277778,68.4 54.3611112,69.8777778 54.3611112,71.7777778 C54.3611112,73.6777778 53.7277778,75.2611112 52.4611112,76.5277778 Z M53.237734,22.9515671 L51.5821276,57.0570609 C51.4832545,59.0938465 49.8030728,60.6944444 47.7638889,60.6944444 C45.7247049,60.6944444 44.0445233,59.0938465 43.9456502,57.0570609 L42.2900437,22.9515671 C42.1432903,19.9284459 44.4750471,17.3587548 47.4981683,17.2120013 C47.5866767,17.2077048 47.6752763,17.2055556 47.7638889,17.2055556 C50.79057,17.2055556 53.2441798,19.6591654 53.2441798,22.6858465 C53.2441798,22.7744591 53.2420306,22.8630587 53.237734,22.9515671 Z" id="路径-2" fill="#FFFFFF"></path>
                </g>
            </g>
        </g>
    </g>
</svg>