<?xml version="1.0" encoding="UTF-8"?>
<svg width="60px" height="60px" viewBox="0 0 60 60" version="1.1" xmlns="http://www.w3.org/2000/svg" xmlns:xlink="http://www.w3.org/1999/xlink">
    <title>账户关联</title>
    <g id="pad" stroke="none" stroke-width="1" fill="none" fill-rule="evenodd">
        <g id="账户关联" fill-rule="nonzero">
            <rect id="矩形" fill="#000000" opacity="0" x="0" y="0" width="59.9936494" height="59.9936494"></rect>
            <g id="形状-28" transform="translate(6.000000, 5.000000)" fill="#FFFFFF" opacity="0.95656622">
                <path d="M22.253189,25.4160789 C29.2716454,25.4160789 34.9612285,19.7264958 34.9612285,12.7080394 C34.9612285,5.68958306 29.2716454,0 22.253189,0 C15.2347327,0 9.5451496,5.68958306 9.5451496,12.7080394 C9.5451496,19.7264958 15.2347327,25.4160789 22.253189,25.4160789 Z M37.2201283,29.7172615 C42.8206129,29.7172615 47.3614669,34.2581155 47.3614669,39.8586205 C47.3614669,45.4591868 42.8206333,50 37.2201283,50 C31.6196232,50 27.0787079,45.4591868 27.0787079,39.8586205 C27.0787079,34.2581155 31.6196232,29.7172615 37.2201283,29.7172615 Z M14.9107663,26.0656009 C17.1920508,27.0967198 19.6650044,27.6355736 22.1684688,27.6470458 C24.6628737,27.6358443 27.1266703,27.0968888 29.3979312,26.0656009 L29.3979312,26.0656009 L31.0640964,26.0656009 C32.7708974,26.0547523 34.4458781,26.3714736 36.0049554,26.9814044 C29.358935,27.5591146 24.1452749,33.1369845 24.1452749,39.9325701 C24.1452749,43.1153069 25.2889178,46.0309317 27.1876793,48.2909203 L4.7725748,48.2905499 C3.50680926,48.2905499 2.29288619,47.7877265 1.3978548,46.8926951 C0.502823401,45.9976637 0,44.7837406 0,43.5179751 L0,43.5179751 L0,39.3949223 C0,35.8548681 1.40820312,32.4602163 3.91404691,29.9596703 C6.41989071,27.4591243 9.8175152,26.0581008 13.3575614,26.0656009 L13.3575614,26.0656009 Z M38.3566076,38.5092146 C37.2721706,37.4607316 35.6702501,37.6550584 34.2762948,39.0031781 L34.2762948,39.0031781 L32.0330833,41.1733996 C31.4945092,41.6944969 31.1986702,42.3877893 31.1986702,43.1255903 C31.1986702,43.8622071 31.4945296,44.5554179 32.0330833,45.0766785 C32.587705,45.6126189 33.314338,45.8800786 34.0410935,45.8800786 C34.768972,45.8800786 35.49683,45.6126189 36.0514721,45.0766785 L36.0514721,45.0766785 L36.6606065,44.4861029 C36.9527093,44.202616 36.9552206,43.7421769 36.6642816,43.4574037 C36.3733833,43.1714872 35.9016742,43.170201 35.6082851,43.453647 L35.6082851,43.453647 L34.9992323,44.044141 C34.4718262,44.5542337 33.6127087,44.5542337 33.0841184,44.044141 C32.8303175,43.7977922 32.6916468,43.4722263 32.6916468,43.1255903 C32.6916468,42.7789543 32.8302971,42.4521634 33.0841184,42.2070396 L33.0841184,42.2070396 L35.3273299,40.0369202 C35.7927507,39.5862607 36.666752,38.925186 37.3042862,39.5417522 C37.5964911,39.8251574 38.0694048,39.8227686 38.3591189,39.5379546 C38.6499558,39.2532427 38.647465,38.7915174 38.3566076,38.5092146 Z M42.4071528,35.0243979 C41.2434783,33.8978207 39.6167309,33.837142 38.5397052,34.8796021 L38.5397052,34.8796021 L37.7796091,35.6148714 C37.4862405,35.8971741 37.4850155,36.3576337 37.7747091,36.6436114 C38.0655665,36.9283233 38.5384394,36.9295892 38.8306647,36.6473477 L38.8306647,36.6473477 L39.5895358,35.9119559 C40.1479142,35.3722793 40.8794472,35.5950263 41.3548518,36.0568741 C41.6099186,36.3019775 41.7484872,36.6288297 41.7484872,36.9754248 C41.7484872,37.3220608 41.6099186,37.648913 41.3548518,37.8940368 L41.3548518,37.8940368 L38.9619241,40.208952 C37.8687488,41.2673984 37.3537765,40.7710462 37.1358682,40.5593446 C36.8437654,40.2758577 36.3708517,40.277144 36.0811376,40.5618151 C35.7890349,40.8477724 35.7915461,41.3082523 36.0836489,41.5917393 C36.5862691,42.0770052 37.160695,42.3184948 37.7610911,42.3184948 C38.4977079,42.3184948 39.2751379,41.9568933 40.0141639,41.2414282 L40.0141639,41.2414282 L42.4071936,38.926411 C42.9444202,38.4052933 43.2414638,37.7132258 43.2414638,36.9754249 C43.2414638,36.2375831 42.9443794,35.5455156 42.4071528,35.0243979 Z" id="形状"></path>
            </g>
        </g>
    </g>
</svg>