<?xml version="1.0" encoding="UTF-8"?>
<svg width="60px" height="60px" viewBox="0 0 60 60" version="1.1" xmlns="http://www.w3.org/2000/svg" xmlns:xlink="http://www.w3.org/1999/xlink">
    <title>账户余额查询</title>
    <g id="pad" stroke="none" stroke-width="1" fill="none" fill-rule="evenodd">
        <g id="账户余额查询" fill-rule="nonzero">
            <rect id="矩形" fill="#000000" opacity="0" x="0" y="0" width="60" height="60"></rect>
            <path d="M52.4317254,43.3400359 L52.4317254,15.2411522 C52.4317254,14.5465416 52.1633531,13.8835043 51.6792306,13.3888574 C51.2003704,12.8994727 50.5478574,12.6205761 49.8585091,12.6205761 L16.4330086,12.6205761 L16.4330086,10 L49.8585091,10 C52.7264086,10.026311 55.0312527,12.3785148 54.9996795,15.2464144 L54.9996795,43.3400359 L52.4317254,43.3400359 Z M47.1186657,15.2464144 C48.5552465,15.2516766 49.7129308,16.4251474 49.70781,17.8617282 L49.70781,47.7611687 C49.718193,49.1977495 48.5605087,50.3712203 47.1239279,50.3817448 L7.59426507,50.3817448 C6.90491675,50.3817448 6.24714163,50.1081103 5.76301914,49.6187256 C5.27363445,49.1240787 5.0052622,48.4557792 5,47.7611687 L5,17.8669904 L5.0052622,17.8669904 C4.9947378,16.4304096 6.15242201,15.2569388 7.58900287,15.2464144 L47.1186657,15.2464144 Z M35.05,28.0333333 C29.665075,28.0333333 25.3,32.3984083 25.3,37.7833333 C25.3,43.1682583 29.665075,47.5333333 35.05,47.5333333 C37.8014903,47.5333333 40.2867163,46.3936915 42.0582261,44.5610784 C42.127935,44.6231734 42.2044004,44.6796914 42.2873479,44.7295313 L42.2873479,44.7295313 L46.0017396,46.9613629 C46.7197302,47.3927752 47.6515054,47.1604576 48.0829177,46.4424669 C48.51433,45.7244763 48.2820124,44.7927011 47.5640217,44.3612888 L47.5640217,44.3612888 L43.8496301,42.1294571 C43.831623,42.1186374 43.8134815,42.1082351 43.7947993,42.1000856 C44.4383401,40.7988519 44.8,39.3333415 44.8,37.7833333 C44.8,32.3984083 40.434925,28.0333333 35.05,28.0333333 Z M35.05,30.2 C39.238275,30.2 42.6333333,33.5950583 42.6333333,37.7833333 C42.6333333,41.9716083 39.238275,45.3666667 35.05,45.3666667 C30.861725,45.3666667 27.4666667,41.9716083 27.4666667,37.7833333 C27.4666667,33.5950583 30.861725,30.2 35.05,30.2 Z M37.2763217,33.3808726 C36.9243021,33.2560766 36.5072187,33.4380292 36.3097,33.8223417 L36.3097,33.8223417 L35.9158,34.5857667 L35.9055625,34.6014885 L35.9055625,34.6014885 L35.895325,34.6208667 L35.4907,35.4047667 L35.4868,35.4047667 L35.076325,36.1993917 L34.664875,35.4047667 L34.660975,35.4047667 L34.25635,34.6208667 L34.235875,34.5857667 L33.841975,33.8223417 L33.7834908,33.7236861 C33.5502469,33.380362 33.1190125,33.2429479 32.781175,33.4225917 C32.41165,33.6205167 32.2888,34.1187417 32.5033,34.5379917 L32.5033,34.5379917 L32.9908,35.4856917 L33.40615,36.2890917 L32.28685,36.2890917 L32.1811817,36.2950961 C31.7656692,36.3426417 31.4425,36.6666417 31.4425,37.0554417 C31.4425,37.4785917 31.82275,37.8227667 32.28685,37.8227667 L32.28685,37.8227667 L34.3051,37.8227667 L34.3051,38.9274417 L32.28685,38.9274417 L32.1811817,38.9334625 C31.7656692,38.9811359 31.4425,39.3059667 31.4425,39.6947667 C31.4425,40.1179167 31.82275,40.4620917 32.28685,40.4620917 L32.28685,40.4620917 L34.3051,40.4620917 L34.3051,42.3145917 L34.3110361,42.4218483 C34.3580385,42.8437513 34.6783,43.1735667 35.0617,43.1735667 C35.476075,43.1735667 35.8183,42.7864917 35.8183,42.3155667 L35.8183,42.3155667 L35.8183,40.4581917 L37.84045,40.4581917 L37.9459266,40.4521708 C38.3608,40.4044974 38.6848,40.0796667 38.6848,39.6908667 C38.6848,39.2677167 38.30455,38.9235417 37.84045,38.9235417 L37.84045,38.9235417 L35.81635,38.9235417 L35.81635,37.8227667 L37.8424,37.8227667 L37.9480683,37.8167458 C38.3635808,37.7690724 38.68675,37.4442417 38.68675,37.0554417 C38.68675,36.6322917 38.3065,36.2890917 37.8424,36.2890917 L37.8424,36.2890917 L36.745525,36.2890917 L37.160875,35.4856917 L37.648375,34.5379917 L37.6950243,34.4317161 C37.840687,34.0374917 37.7092312,33.6022354 37.3705,33.4225917 L37.3705,33.4225917 Z M23,30 L12,30 C11.4477153,30 11,30.4477153 11,31 L11,31 L11,32 C11,32.5522847 11.4477153,33 12,33 L12,33 L23,33 C23.5522847,33 24,32.5522847 24,32 L24,32 L24,31 C24,30.4477153 23.5522847,30 23,30 L23,30 Z M30,23 L12,23 C11.4477153,23 11,23.4477153 11,24 L11,24 L11,25 C11,25.5522847 11.4477153,26 12,26 L12,26 L30,26 C30.5522847,26 31,25.5522847 31,25 L31,25 L31,24 C31,23.4477153 30.5522847,23 30,23 L30,23 Z" id="形状" fill="#FFFFFF"></path>
        </g>
    </g>
</svg>