<?xml version="1.0" encoding="UTF-8"?>
<svg width="60px" height="60px" viewBox="0 0 60 60" version="1.1" xmlns="http://www.w3.org/2000/svg" xmlns:xlink="http://www.w3.org/1999/xlink">
    <title>账户明细查询</title>
    <defs>
        <path d="M36.067018,0 C37.7238723,-3.04359188e-16 39.067018,1.34314575 39.067018,3 L39.067018,39 C39.067018,40.6568542 37.7238723,42 36.067018,42 L0,42 C2.16232574,41.5435038 3.24348861,40.8144489 3.24348861,39.812835 L3.24348861,3.00069264 L3.24348861,3.00069264 C3.24310615,1.34383843 4.58594176,0.000382614648 6.24279597,7.99584381e-08 L36.067018,0 Z M25.5278263,21.0168651 C21.4273139,21.0168651 18.0912998,24.3528792 18.0912998,28.4532075 C18.0912998,32.5535884 21.4273139,35.8895761 25.5278263,35.8895761 C27.1680312,35.8895761 28.6859375,35.3558139 29.9169512,34.4528765 L29.926,34.444 L33.4168764,37.9348747 C33.6054724,38.1233129 33.8441335,38.2310595 34.0900627,38.2579986 L34.2134348,38.2647336 C34.5017917,38.2647336 34.7899646,38.1547193 35.0099932,37.9348484 C35.4498927,37.4948963 35.4498927,36.7816837 35.0099932,36.3418105 L35.0099932,36.3418105 L31.52,32.852 L31.5277282,32.8421624 C32.3855523,31.6727449 32.910183,30.2444168 32.9605015,28.698291 L32.9644843,28.4532075 C32.9644843,24.3528792 29.6283387,21.0168651 25.5278263,21.0168651 Z M31.124828,32.4569083 L31.52,32.852 L31.389534,33.0246351 C31.0137419,33.5053815 30.5801962,33.9389103 30.099431,34.3146876 L29.926,34.444 L29.5316849,34.0499725 C29.0918117,33.6100993 29.0918117,32.8968867 29.5316849,32.4569083 C29.9717159,32.0171666 30.6848234,32.0171666 31.124828,32.4569083 Z M25.5278263,22.8472636 C28.6190631,22.8472636 31.1340069,25.3621021 31.1340069,28.4532075 C31.1340069,31.5443391 28.6190631,34.059204 25.5278263,34.059204 C22.4365632,34.059204 19.9217772,31.5443391 19.9217772,28.4532075 C19.9217772,25.3621021 22.4365632,22.8472636 25.5278263,22.8472636 Z M18.3023121,16.0588235 L7.94937096,16.0588235 C7.39708621,16.0588235 6.94937096,16.5065388 6.94937096,17.0588235 L6.94937096,17.0588235 L6.94937096,17.5294118 C6.94937096,18.0816965 7.39708621,18.5294118 7.94937096,18.5294118 L7.94937096,18.5294118 L18.3023121,18.5294118 C18.8545969,18.5294118 19.3023121,18.0816965 19.3023121,17.5294118 L19.3023121,17.5294118 L19.3023121,17.0588235 C19.3023121,16.5065388 18.8545969,16.0588235 18.3023121,16.0588235 L18.3023121,16.0588235 Z M25.7140768,7.41176471 L7.94937096,7.41176471 C7.39708621,7.41176471 6.94937096,7.85947996 6.94937096,8.41176471 L6.94937096,8.41176471 L6.94937096,8.88235294 C6.94937096,9.43463769 7.39708621,9.88235294 7.94937096,9.88235294 L7.94937096,9.88235294 L25.7140768,9.88235294 C26.2663616,9.88235294 26.7140768,9.43463769 26.7140768,8.88235294 L26.7140768,8.88235294 L26.7140768,8.41176471 C26.7140768,7.85947996 26.2663616,7.41176471 25.7140768,7.41176471 L25.7140768,7.41176471 Z" id="path-1"></path>
        <filter x="-1.3%" y="-1.2%" width="102.6%" height="102.4%" filterUnits="objectBoundingBox" id="filter-2">
            <feOffset dx="0" dy="-1" in="SourceAlpha" result="shadowOffsetInner1"></feOffset>
            <feComposite in="shadowOffsetInner1" in2="SourceAlpha" operator="arithmetic" k2="-1" k3="1" result="shadowInnerInner1"></feComposite>
            <feColorMatrix values="0 0 0 0 0   0 0 0 0 0   0 0 0 0 0  0 0 0 0.132921766 0" type="matrix" in="shadowInnerInner1"></feColorMatrix>
        </filter>
    </defs>
    <g id="pad" stroke="none" stroke-width="1" fill="none" fill-rule="evenodd">
        <g id="账户明细查询">
            <rect id="矩形" stroke="#979797" fill="#D8D8D8" opacity="0" x="0.5" y="0.5" width="59" height="59"></rect>
            <g id="矩形备份-37" transform="translate(10.000000, 9.000000)">
                <use fill="#FFFFFF" fill-rule="evenodd" xlink:href="#path-1"></use>
                <use fill="black" fill-opacity="1" filter="url(#filter-2)" xlink:href="#path-1"></use>
            </g>
        </g>
    </g>
</svg>