<?xml version="1.0" encoding="UTF-8"?>
<svg width="60px" height="60px" viewBox="0 0 60 60" version="1.1" xmlns="http://www.w3.org/2000/svg" xmlns:xlink="http://www.w3.org/1999/xlink">
    <title>账户维护</title>
    <defs>
        <linearGradient x1="50%" y1="0%" x2="50%" y2="100%" id="linearGradient-1">
            <stop stop-color="#FFFFFF" stop-opacity="0.862325175" offset="0%"></stop>
            <stop stop-color="#FFFFFF" offset="100%"></stop>
        </linearGradient>
    </defs>
    <g id="pad" stroke="none" stroke-width="1" fill="none" fill-rule="evenodd">
        <g id="账户维护" fill-rule="nonzero">
            <rect id="矩形" fill="#000000" opacity="0" x="0" y="0" width="60" height="60"></rect>
            <g id="形状-9" transform="translate(7.000000, 5.000000)" fill="url(#linearGradient-1)" opacity="0.95656622">
                <path d="M22.2324818,25.3924284 C29.2444073,25.3924284 34.928696,19.7081397 34.928696,12.6962142 C34.928696,5.68428873 29.2444073,0 22.2324818,0 C15.2205563,0 9.53626755,5.68428873 9.53626755,12.6962142 C9.53626755,19.7081397 15.2205563,25.3924284 22.2324818,25.3924284 Z M37.7192982,32.4561404 C37.7192982,32.4561404 39.0876695,33.7205941 41.5789474,34.4223485 C43.3198764,34.9127791 44.7007077,35.0149522 45.5479964,35.0149522 C46.1558014,35.0149522 46.4912281,34.9623704 46.4912281,34.9623704 C46.4912281,34.9623704 46.467803,37.2408293 45.7884769,41.2634569 C45.0637959,45.5599581 42.8060207,48.0347887 41.0516348,48.9817584 C39.1801236,49.9922747 37.7629087,50 37.7192982,50 C37.674691,50 36.2572269,49.9920255 34.3859649,48.9817584 C32.6315789,48.0345395 30.3735546,45.5599581 29.6491228,41.2634569 C29.0095551,37.4704588 28.952184,35.2284341 28.9477157,34.984588 L28.9473684,34.9623704 C28.9473684,34.9623704 29.2825459,35.0149522 29.8906001,35.0149522 C30.7391348,35.0149522 32.1189693,34.9125299 33.8596491,34.4223485 C36.350927,33.7205941 37.7192982,32.4561404 37.7192982,32.4561404 Z M37.7192982,41.2283194 L31.2627093,41.2280702 C31.4078768,42.0238893 31.630991,42.8034951 31.9288278,43.555622 C32.196621,44.2312068 32.5379215,44.8752821 32.946571,45.4762261 C33.8150419,46.742175 34.6952253,47.3367723 35.1437899,47.5784988 C36.5340909,48.3290969 37.597189,48.3991228 37.7192982,48.4051037 L37.7192982,48.4051037 L37.7192982,41.2283194 Z M14.8968913,26.041346 C17.1760531,27.0715055 19.6467055,27.6098578 22.1478404,27.6213194 C24.6399241,27.6101283 27.1014281,27.0716743 29.3705755,26.041346 L29.3705755,26.041346 L31.0351903,26.041346 C34.581699,26.0188042 37.9906943,27.411875 40.5064372,29.911729 C41.4912226,30.8902947 42.3072725,32.0068073 42.9357887,33.216054 C42.7447872,33.1690508 42.5497909,33.1172394 42.3508772,33.0612041 C39.3613437,32.2190989 37.7192982,30.7017544 37.7192982,30.7017544 C37.7192982,30.7017544 36.0772528,32.2190989 33.0877193,33.0612041 C30.9989035,33.6494219 29.3431021,33.7723285 28.3248604,33.7723285 C27.5951954,33.7723285 27.1929825,33.7092305 27.1929825,33.7092305 L27.1930436,33.7141001 L27.1937308,33.7528904 C27.2013037,34.1205154 27.2806531,36.7963103 28.0350877,41.2705343 C28.5545166,44.3511927 29.7309767,46.651293 31.0429567,48.246239 L4.76813377,48.245614 C3.50354607,48.245614 2.29075259,47.7432585 1.39655405,46.84906 C0.502355509,45.9548614 0,44.742068 0,43.4774803 L0,43.4774803 L0,39.3582641 C0,35.821504 1.40689275,32.4300111 3.91040478,29.9317919 C6.4139168,27.4335727 9.8083797,26.0338529 13.3451318,26.041346 L13.3451318,26.041346 Z M37.7192982,34.434061 L37.7192982,41.2280702 L44.1758872,41.2283194 C44.1901748,41.1520634 44.2037978,41.0754751 44.2167564,40.9985546 C44.5347388,39.1123405 44.7044458,37.619368 44.7946571,36.5876695 C43.8641348,36.5343401 42.616876,36.3716108 41.1465809,35.9574362 C39.9956004,35.6374337 38.8949558,35.1582398 37.8765451,34.533742 C37.8215544,34.500515 37.7691388,34.467288 37.7192982,34.434061 L37.7192982,34.434061 Z" id="形状"></path>
            </g>
        </g>
    </g>
</svg>