<?xml version="1.0" encoding="UTF-8"?>
<svg width="60px" height="60px" viewBox="0 0 60 60" version="1.1" xmlns="http://www.w3.org/2000/svg" xmlns:xlink="http://www.w3.org/1999/xlink">
    <title>账户查询</title>
    <defs>
        <linearGradient x1="50%" y1="0%" x2="50%" y2="100%" id="linearGradient-1">
            <stop stop-color="#FFFFFF" stop-opacity="0.862325175" offset="0%"></stop>
            <stop stop-color="#FFFFFF" offset="100%"></stop>
        </linearGradient>
    </defs>
    <g id="pad" stroke="none" stroke-width="1" fill="none" fill-rule="evenodd">
        <g id="账户查询" fill-rule="nonzero">
            <rect id="矩形" fill="#000000" opacity="0" x="0" y="0" width="60" height="60"></rect>
            <g id="形状-9" transform="translate(7.000000, 5.000000)" fill="url(#linearGradient-1)" opacity="0.95656622">
                <path d="M22.2324818,25.3924284 C29.2444073,25.3924284 34.928696,19.7081397 34.928696,12.6962142 C34.928696,5.68428873 29.2444073,0 22.2324818,0 C15.2205563,0 9.53626755,5.68428873 9.53626755,12.6962142 C9.53626755,19.7081397 15.2205563,25.3924284 22.2324818,25.3924284 Z M36.5,31 C41.7128205,31 46,35.3426056 46,40.6335964 C46,42.9796017 45.1717949,45.125947 43.7589744,46.8230573 L45.7564103,49.2688926 C46.0974359,49.6682127 46.0487179,50.3171078 45.6589744,50.6665129 L45.5128205,50.7663429 C45.1230769,51.1157479 44.4897436,51.0658329 44.1487179,50.6665129 L42.248718,48.3205075 C40.6410257,49.5683827 38.6923077,50.2671928 36.548718,50.2671928 C31.2871795,50.2172778 27,45.9245872 27,40.6335964 C27,35.3426056 31.2871795,31 36.5,31 Z M14.8968913,26.041346 C17.1760531,27.0715055 19.6467055,27.6098578 22.1478404,27.6213194 C24.6399241,27.6101283 27.1014281,27.0716743 29.3705755,26.041346 L29.3705755,26.041346 L31.0351903,26.041346 C34.581699,26.0188042 37.9906943,27.411875 40.5064372,29.911729 C40.5100794,29.9153481 40.5137193,29.9189692 40.5173568,29.9225921 C39.130457,29.3282061 37.6035568,29 36,29 C29.6487254,29 24.5,34.1487254 24.5,40.5 C24.5,43.4838594 25.636409,46.2022963 27.5000334,48.2461171 L4.76813377,48.245614 C3.50354607,48.245614 2.29075259,47.7432585 1.39655405,46.84906 C0.502355509,45.9548614 0,44.742068 0,43.4774803 L0,43.4774803 L0,39.3582641 C0,35.821504 1.40689275,32.4300111 3.91040478,29.9317919 C6.4139168,27.4335727 9.8083797,26.0338529 13.3451318,26.041346 L13.3451318,26.041346 Z M36.5,33.6335964 C32.7290211,33.6335964 29.5791446,36.8154146 29.5791446,40.6335964 C29.5791446,44.4517782 32.6402922,47.6335964 36.5,47.6335964 C40.3597078,47.6335964 43.4208554,44.5426873 43.4208554,40.6335964 C43.4208554,36.7245055 40.2709789,33.6335964 36.5,33.6335964 Z" id="形状"></path>
            </g>
        </g>
    </g>
</svg>