<?xml version="1.0" encoding="UTF-8"?>
<svg width="60px" height="60px" viewBox="0 0 60 60" version="1.1" xmlns="http://www.w3.org/2000/svg" xmlns:xlink="http://www.w3.org/1999/xlink">
    <title>账户对账</title>
    <defs>
        <path d="M39,0 C40.6568542,-3.04359188e-16 42,1.34314575 42,3 L42,39 C42,40.6568542 40.6568542,42 39,42 L2.93298198,42 C5.09530772,41.5435038 6.17647059,40.8144489 6.17647059,39.812835 L6.17647059,3.00069264 L6.17647059,3.00069264 C6.17608813,1.34383843 7.51892374,0.000382614648 9.17577795,7.99584381e-08 L39,0 Z M35.8572852,20 C35.506478,20 35.1875623,20.1307554 34.897349,20.3922663 L30.9746861,24.3149292 L27.0520231,20.6984254 C26.7618098,20.4082121 26.4428942,20.2615109 26.0920869,20.2615109 C25.7412796,20.2615109 25.422364,20.4082121 25.1321507,20.6984254 C24.8419374,20.9886386 24.6952362,21.3075543 24.6952362,21.6583616 C24.6952362,22.0091688 24.8419374,22.3280845 25.1321507,22.6182978 L27.9226629,25.1472992 L25.3936616,25.1472992 C24.9567471,25.1472992 24.6155073,25.2716763 24.3699422,25.5172414 C24.121188,25.7659956 24,26.1072354 24,26.5409607 C24,26.9746861 24.1243771,27.319115 24.3699422,27.5646801 C24.6155073,27.8134343 24.9599362,27.9346223 25.3936616,27.9346223 L29.5778354,27.9346223 L29.5778354,29.5929839 L25.3968507,29.5929839 C24.9599362,29.6216863 24.6186964,29.7620092 24.3731314,30.0075742 C24.1243771,30.2563285 24.0031892,30.5880008 24.0031892,31.0089695 C24.0031892,31.4299382 24.1275663,31.7647997 24.3731314,32.0103648 C24.6186964,32.259119 24.9631254,32.380307 25.3968507,32.380307 L29.5810245,32.380307 L29.5810245,34.6477975 C29.5810245,35.0560096 29.7054016,35.3813036 29.9509667,35.6300578 C30.1965318,35.878812 30.5409607,36 30.9746861,36 C31.4084114,36 31.7528403,35.8756229 31.9984054,35.6300578 C32.2439705,35.3844927 32.3683476,35.0560096 32.3683476,34.6477975 L32.3683476,32.380307 L36.5525214,32.380307 C36.9894359,32.380307 37.3306757,32.2559298 37.5762408,32.0103648 C37.8218059,31.7647997 37.946183,31.4299382 37.946183,31.0089695 C37.946183,30.5880008 37.8218059,30.2531393 37.5762408,30.0075742 C37.3274865,29.7620092 36.9862468,29.6216863 36.5525214,29.5929839 L32.3715368,29.5929839 L32.3715368,27.9346223 L36.5557106,27.9346223 C36.9926251,27.9346223 37.3338649,27.8102452 37.5794299,27.5646801 C37.824995,27.319115 37.9493721,26.9746861 37.9493721,26.5409607 C37.9493721,26.1072354 37.824995,25.7628065 37.5794299,25.5172414 C37.3306757,25.2716763 36.9894359,25.1472992 36.5557106,25.1472992 L34.0267092,25.1472992 L36.8172214,22.3567869 C37.1074347,22.0665736 37.2541359,21.7380905 37.2541359,21.3745266 C37.2541359,21.0109627 37.1074347,20.692047 36.8172214,20.4145904 C36.5270082,20.1371337 36.2080925,20 35.8572852,20 Z M21.2352941,25.0588235 L10.8823529,25.0588235 C10.3300682,25.0588235 9.88235294,25.5065388 9.88235294,26.0588235 L9.88235294,26.0588235 L9.88235294,26.5294118 C9.88235294,27.0816965 10.3300682,27.5294118 10.8823529,27.5294118 L10.8823529,27.5294118 L21.2352941,27.5294118 C21.7875789,27.5294118 22.2352941,27.0816965 22.2352941,26.5294118 L22.2352941,26.5294118 L22.2352941,26.0588235 C22.2352941,25.5065388 21.7875789,25.0588235 21.2352941,25.0588235 L21.2352941,25.0588235 Z M21.2352941,16.0588235 L10.8823529,16.0588235 C10.3300682,16.0588235 9.88235294,16.5065388 9.88235294,17.0588235 L9.88235294,17.0588235 L9.88235294,17.5294118 C9.88235294,18.0816965 10.3300682,18.5294118 10.8823529,18.5294118 L10.8823529,18.5294118 L21.2352941,18.5294118 C21.7875789,18.5294118 22.2352941,18.0816965 22.2352941,17.5294118 L22.2352941,17.5294118 L22.2352941,17.0588235 C22.2352941,16.5065388 21.7875789,16.0588235 21.2352941,16.0588235 L21.2352941,16.0588235 Z M28.6470588,7.41176471 L10.8823529,7.41176471 C10.3300682,7.41176471 9.88235294,7.85947996 9.88235294,8.41176471 L9.88235294,8.41176471 L9.88235294,8.88235294 C9.88235294,9.43463769 10.3300682,9.88235294 10.8823529,9.88235294 L10.8823529,9.88235294 L28.6470588,9.88235294 C29.1993436,9.88235294 29.6470588,9.43463769 29.6470588,8.88235294 L29.6470588,8.88235294 L29.6470588,8.41176471 C29.6470588,7.85947996 29.1993436,7.41176471 28.6470588,7.41176471 L28.6470588,7.41176471 Z" id="path-1"></path>
        <filter x="-1.3%" y="-1.2%" width="102.6%" height="102.4%" filterUnits="objectBoundingBox" id="filter-2">
            <feOffset dx="0" dy="-1" in="SourceAlpha" result="shadowOffsetInner1"></feOffset>
            <feComposite in="shadowOffsetInner1" in2="SourceAlpha" operator="arithmetic" k2="-1" k3="1" result="shadowInnerInner1"></feComposite>
            <feColorMatrix values="0 0 0 0 0   0 0 0 0 0   0 0 0 0 0  0 0 0 0.132921766 0" type="matrix" in="shadowInnerInner1"></feColorMatrix>
        </filter>
    </defs>
    <g id="pad" stroke="none" stroke-width="1" fill="none" fill-rule="evenodd">
        <g id="账户对账">
            <rect id="矩形" stroke="#979797" fill="#D8D8D8" opacity="0" x="0.5" y="0.5" width="59" height="59"></rect>
            <g id="明细查询" transform="translate(9.000000, 9.000000)">
                <path d="M2.3116016,23.83519 L3.25277807,23.9836388 C4.22502984,24.136989 4.94117647,24.9749446 4.94117647,25.9592158 C4.94117647,29.5264045 4.94117647,33.0935932 4.94117647,36.6607819 C4.94117647,38.9026156 6.58823529,39.4371435 9.88235294,38.2643655 L9.88235294,40 C9.88235294,41.1045695 8.98692244,42 7.88235294,42 L2,42 C0.8954305,42 -8.67738547e-17,41.1045695 0,40 L0,25.8107669 C-1.3527075e-16,24.7061974 0.8954305,23.8107669 2,23.8107669 C2.10434527,23.8107669 2.20853054,23.8189329 2.3116016,23.83519 Z" id="矩形" fill="#FFFFFF"></path>
                <g id="矩形备份-37">
                    <use fill="#FFFFFF" fill-rule="evenodd" xlink:href="#path-1"></use>
                    <use fill="black" fill-opacity="1" filter="url(#filter-2)" xlink:href="#path-1"></use>
                </g>
            </g>
        </g>
    </g>
</svg>