<?xml version="1.0" encoding="UTF-8"?>
<svg width="61px" height="61px" viewBox="0 0 61 61" version="1.1" xmlns="http://www.w3.org/2000/svg" xmlns:xlink="http://www.w3.org/1999/xlink">
    <title>借记卡申请</title>
    <g id="pad" stroke="none" stroke-width="1" fill="none" fill-rule="evenodd">
        <g id="借记卡申请" transform="translate(0.014617, 0.174024)" fill-rule="nonzero">
            <rect id="矩形" fill="#000000" opacity="0" x="0" y="0" width="60" height="60"></rect>
            <path d="M56.25,15 L56.25,18.75 L3.75,18.75 L3.75,15 C3.75,12.9375 5.4375,11.25 7.5,11.25 L52.5,11.25 C54.5625,11.25 56.25,12.9375 56.25,15 Z M48.5,31.5 C54.02275,31.5 58.5,35.97725 58.5,41.5 C58.5,47.02275 54.02275,51.5 48.5,51.5 C42.97725,51.5 38.5,47.02275 38.5,41.5 C38.5,35.97725 42.97725,31.5 48.5,31.5 Z M56.25,22.5 L56.2509146,32.3063927 C54.1277793,30.4057462 51.3238591,29.25 48.25,29.25 C41.622583,29.25 36.25,34.622583 36.25,41.25 C36.25,44.0883532 37.2354337,46.6965461 38.8828369,48.7511143 L7.5,48.75 C5.4375,48.75 3.75,47.0625 3.75,45 L3.75,22.5 L56.25,22.5 Z M48.5,37 C48.0857864,37 47.75,37.3357864 47.75,37.75 L47.75,40.75 L44.75,40.75 C44.3357864,40.75 44,41.0857864 44,41.5 C44,41.9142136 44.3357864,42.25 44.75,42.25 L47.75,42.25 L47.75,45.25 C47.75,45.6642135 48.0857864,46 48.5,46 C48.9142136,46 49.25,45.6642135 49.25,45.25 L49.25,42.25 L52.25,42.25 C52.6642135,42.25 53,41.9142136 53,41.5 C53,41.0857864 52.6642135,40.75 52.25,40.75 L49.25,40.75 L49.25,37.75 C49.25,37.3357864 48.9142136,37 48.5,37 Z M15,37.5 L7.5,37.5 L7.5,39.375 L15,39.375 L15,37.5 Z M22.5,33.75 L7.5,33.75 L7.5,35.625 L22.5,35.625 L22.5,33.75 Z" id="形状" fill="#FFFFFF" opacity="0.95656622"></path>
        </g>
    </g>
</svg>