<?xml version="1.0" encoding="UTF-8"?>
<svg width="60px" height="61px" viewBox="0 0 60 61" version="1.1" xmlns="http://www.w3.org/2000/svg" xmlns:xlink="http://www.w3.org/1999/xlink">
    <title>转账汇款备份 8</title>
    <g id="pad" stroke="none" stroke-width="1" fill="none" fill-rule="evenodd">
        <g id="转账汇款备份-8" transform="translate(0.000000, 0.448872)">
            <rect id="矩形" stroke="#979797" fill="#D8D8D8" opacity="0" x="0.5" y="0.5" width="59" height="59"></rect>
            <path d="M26.7575864,14.5720702 C26.7575864,14.7145273 26.8197008,14.8499038 26.9276925,14.9428115 L43.8637367,29.6981339 C43.9552812,29.7788719 44.0729776,29.8237086 44.1950374,29.8243437 L44.4001284,29.8243437 C44.5725154,29.7447145 44.6832267,29.5724971 44.6841004,29.3826094 L44.6841004,20.2577375 C49.3509825,20.5702604 52.5995432,23.3776452 54.6672108,27.2943115 L54.6666667,54.0183139 C54.6666667,55.6751681 53.3235209,57.0183139 51.6666667,57.0183139 L11,57.0183139 C9.34314575,57.0183139 8,55.6751681 8,54.0183139 L8,17.5511283 C8,15.8942741 9.34314575,14.5511283 11,14.5511283 L26.7580394,14.5510091 C26.757738,14.5580093 26.7575864,14.5650311 26.7575864,14.5720702 Z M49.3827967,41.7657714 L46.1071922,41.7657714 L46.1071922,44.9782208 L46.0996948,45.1359521 C46.0203326,45.9664837 45.3207153,46.6160231 44.4693899,46.6160231 L44.4693899,46.6160231 L35.6435166,46.6151077 L35.6435637,43.7843229 C35.6435637,43.0481087 35.0574127,42.5879748 34.5890192,42.9560819 L34.5890192,42.9560819 L28.8558118,47.457028 C28.3874182,47.8251351 28.3874182,48.7454029 28.8558118,49.1135101 L28.8558118,49.1135101 L34.5890192,53.6156513 C35.0574127,53.9837585 35.6435637,53.5236246 35.6435637,52.7874103 L35.6435637,52.7874103 L35.6435166,49.8911077 L44.4693899,49.8916276 L44.7006866,49.8862796 C47.3068971,49.7655049 49.3827967,47.614289 49.3827967,44.9782208 L49.3827967,44.9782208 L49.3827967,41.7657714 Z M43.6743122,29.7998869 C43.2216351,29.5375348 42.6988028,29.9865914 42.6988028,30.6819049 L42.6988028,30.6819049 L42.6985166,33.5131077 L33.5507082,33.513605 L33.3194116,33.518953 C30.7132011,33.6397277 28.6373015,35.7909436 28.6373015,38.4270118 L28.6373015,38.4270118 L28.6373015,41.6303128 L31.912906,41.6303128 L31.912906,38.4270118 L31.9204034,38.2692805 C31.9997655,37.4387489 32.6993829,36.7892095 33.5507082,36.7892095 L33.5507082,36.7892095 L42.6985166,36.7891077 L42.6988028,39.6849923 L42.7041094,39.8050437 C42.7635673,40.4697762 43.3109757,40.86089 43.7533474,40.5132333 L43.7533474,40.5132333 L49.4865548,36.011092 L49.5739882,35.9304357 C49.9528666,35.5227366 49.9237221,34.6981766 49.4865548,34.35461 L49.4865548,34.35461 L43.7533474,29.8536639 Z M16.745,22.4411283 L15.515,22.4411283 L12.505,29.9611283 L13.675,29.9611283 L14.425,28.0411283 L17.775,28.0411283 L18.515,29.9611283 L19.695,29.9611283 L16.745,22.4411283 Z M25.675,22.4411283 L19.815,22.4411283 L19.815,23.4411283 L22.185,23.4411283 L22.185,29.9611283 L23.305,29.9611283 L23.305,23.4411283 L25.675,23.4411283 L25.675,22.4411283 Z M28.215,22.4411283 L26.565,22.4411283 L26.565,29.9611283 L27.685,29.9611283 L27.685,24.1311283 L27.695,24.1311283 L30.115,29.9611283 L31.215,29.9611283 L33.595,24.1311283 L33.605,24.1311283 L33.615,29.9611283 L34.725,29.9611283 L34.725,22.4411283 L33.075,22.4411283 L30.675,28.4811283 L30.655,28.4811283 L28.215,22.4411283 Z M43.0567606,1.06856289 C43.2086686,0.977145704 43.3986555,0.977145704 43.5505635,1.06856289 C43.7140723,1.144091 43.8190818,1.30743899 43.8199105,1.48754714 L43.8199105,1.48754714 L43.8199105,9.5230666 C46.8631185,9.69416101 49.7815069,10.7905144 52.1846319,12.6654485 C57.178501,16.5392857 59.217349,23.1221938 57.2872616,29.140508 C57.22209,29.3318873 57.0404764,29.4590168 56.8383499,29.4548506 C56.6337445,29.4522 56.4533665,29.3199228 56.3894382,29.1255443 C54.71137,23.5308655 49.7375598,19.5649377 43.9096929,19.1746682 L43.9096929,19.1746682 L43.9096929,27.4795347 C43.9088641,27.6596428 43.8038547,27.8229908 43.6403458,27.8985189 L43.6403458,27.8985189 L43.4458174,27.8985189 C43.3300439,27.8979165 43.218409,27.855389 43.1315793,27.7788091 L43.1315793,27.7788091 L28.1678559,14.805261 C28.0654259,14.7171383 28.0065105,14.5887338 28.0065105,14.4536135 C28.0065105,14.3184931 28.0654259,14.1900887 28.1678559,14.101966 L28.1678559,14.101966 Z M16.135,23.7411283 L17.395,27.0411283 L14.815,27.0411283 L16.115,23.7411283 L16.135,23.7411283 Z" id="矩形-4" fill="#FFFFFF" opacity="0.961588542"></path>
        </g>
    </g>
</svg>