<?xml version="1.0" encoding="UTF-8"?>
<svg width="60px" height="61px" viewBox="0 0 60 61" version="1.1" xmlns="http://www.w3.org/2000/svg" xmlns:xlink="http://www.w3.org/1999/xlink">
    <title>卡折激活</title>
    <g id="pad" stroke="none" stroke-width="1" fill="none" fill-rule="evenodd">
        <g id="卡折激活" transform="translate(0.000000, 0.432480)" fill-rule="nonzero">
            <rect id="矩形" fill="#000000" opacity="0" x="0" y="0" width="60" height="60"></rect>
            <g id="形状-27" transform="translate(4.000000, 6.000000)" fill="#FFFFFF" opacity="0.95656622">
                <path d="M46.2685213,14.601041 L46.2685213,17.9059354 L0,17.9059354 L0,14.601041 C0,12.7833491 1.48720247,11.2961466 3.30489438,11.2961466 L42.9636269,11.2961466 C44.7813188,11.2961466 46.2685213,12.7833491 46.2685213,14.601041 Z M41.6374276,30.0824484 L43.6726532,32.117674 L46.5514304,32.117674 C47.064486,32.117674 47.4799666,32.5193052 47.4799666,33.0141049 L47.4793371,35.9243579 L49.5151922,37.9602129 C49.8777935,38.3228142 49.8878657,38.90071 49.5378548,39.250721 L47.4793371,41.3086091 L47.4793371,44.2194916 C47.4793371,44.7142912 47.0638565,45.1159225 46.5514304,45.1159225 L43.6726532,45.115293 L41.6141355,47.1738106 C41.2647541,47.5238216 40.6868583,47.5137493 40.3242571,47.1511481 L38.288402,45.115293 L35.4102543,45.115293 C34.8971987,45.115293 34.4817181,44.7142912 34.4817181,44.2194916 L34.4817181,41.3086091 L32.4464925,39.2733835 C32.0838912,38.9107823 32.073819,38.3328865 32.4238299,37.9828755 L34.4817181,35.9243579 L34.4817181,33.0141049 C34.4817181,32.5193052 34.8971987,32.117674 35.4102543,32.117674 L38.288402,32.117674 L40.3469196,30.0591563 C40.6969306,29.7097749 41.2748264,29.7192176 41.6374276,30.0824484 Z M46.2685213,21.2108298 L46.268843,28.2342301 C44.6107792,27.4055595 42.7400123,26.9393133 40.760364,26.9393133 C33.9462104,26.9393133 28.4220916,32.4634321 28.4220916,39.2775857 C28.4220916,41.0837983 28.8102214,42.7993719 29.5076257,44.3454513 L3.30489438,44.3450904 C1.48720247,44.3450904 0,42.8578879 0,41.040196 L0,21.2108298 L46.2685213,21.2108298 Z M43.4346961,35.8639243 L39.8747826,39.545964 L38.4690731,38.4002447 C38.0934164,38.094661 37.5436198,38.1396444 37.2226312,38.5022263 C36.9078731,38.8572734 36.940608,39.3999163 37.2956551,39.7146743 L37.3013207,39.7190809 L39.6947409,41.8052973 C39.8898909,41.9752667 40.185134,41.9607878 40.363287,41.7725625 L44.7573095,37.1204385 C45.1018636,36.7559494 45.0860879,36.1812633 44.7220566,35.8362256 C44.3580178,35.4906873 43.7835357,35.5030478 43.4346961,35.8639243 Z M9.91468313,34.4304073 L3.30489438,34.4304073 L3.30489438,36.0828545 L9.91468313,36.0828545 L9.91468313,34.4304073 Z M16.5244719,31.1255129 L3.30489438,31.1255129 L3.30489438,32.7779601 L16.5244719,32.7779601 L16.5244719,31.1255129 Z M19.5915927,0.161131247 L19.7874076,0.209878439 L47.4592883,7.62440897 C50.6507154,8.4796061 52.5886104,11.7119901 51.8390995,14.929878 L51.7895261,15.125693 C50.8514311,18.6283526 50.1478598,21.2553472 49.6788123,23.006677 C49.6368072,23.1635157 48.9502657,25.2159183 48.2903026,27.255012 L48.1327653,27.7431616 C47.950369,28.3100909 47.7742656,28.8640043 47.6191875,29.3629983 C47.3294546,29.0890799 46.9684986,28.6346091 46.7519007,28.4723243 L46.7510121,25.7008053 C46.7509622,25.608514 46.7509098,25.5165937 46.7508549,25.425153 L46.7500666,24.3578325 C46.7499895,24.2719653 46.7499094,24.1870119 46.7498261,24.1030809 L46.7492881,23.6126306 C46.7491919,23.533223 46.7490923,23.4550548 46.7489892,23.3782345 L46.748328,22.9343566 C46.7482105,22.8633622 46.7480893,22.7939329 46.7479642,22.7261772 L46.747167,22.340594 C46.7457585,21.7343212 46.7439429,21.317114 46.7416027,21.1975142 C47.1540964,19.6581892 47.772837,17.3492016 48.5978244,14.2705516 C48.9855228,12.8241492 48.1750726,11.3269568 46.7520409,10.8607268 L46.6033206,10.8161107 L18.9322662,3.40158018 C17.4858639,3.01388178 15.9886715,3.82433196 15.5224415,5.24736369 L15.4778254,5.39608394 L13.8972596,11.2961466 L42.9960284,11.2961466 L43.1505322,11.301104 C44.5859669,11.3801741 45.7322825,12.5261339 45.8117984,13.9615439 L45.8159295,14.116874 L4.68899768,14.1160478 C4.68899768,12.5586594 5.95151042,11.2961466 7.50889881,11.2961466 L10.4750415,11.2953204 L12.2852974,4.5401163 C13.140856,1.34862744 16.3736795,-0.5889463 19.5915927,0.161131247 Z" id="形状"></path>
            </g>
        </g>
    </g>
</svg>