<?xml version="1.0" encoding="UTF-8"?>
<svg width="60px" height="60px" viewBox="0 0 60 60" version="1.1" xmlns="http://www.w3.org/2000/svg" xmlns:xlink="http://www.w3.org/1999/xlink">
    <title>吞卡通知及处理</title>
    <g id="pad" stroke="none" stroke-width="1" fill="none" fill-rule="evenodd">
        <g id="吞卡通知及处理" fill-rule="nonzero">
            <rect id="矩形" fill="#000000" opacity="0" x="0" y="0" width="60" height="60"></rect>
            <path d="M49.6289062,42.9550781 L45.0878906,33.8847656 C45.0410156,33.7851562 45.0117188,33.6796875 45.0117188,33.5683594 L45,23.5253906 C44.9941406,17.859375 41.15625,13.0898437 35.9472656,11.6660156 L35.9472656,11.6601562 C35.9472656,8.40234375 33.3046875,5.75976562 30.046875,5.75976562 C26.7949219,5.75976562 24.1582031,8.390625 24.1464844,11.6425781 C18.8789062,13.0429687 14.9941406,17.8476562 15,23.5546875 L15.0117188,33.5976562 C15.0117188,33.7089844 14.9882813,33.8144531 14.9355469,33.9140625 L10.4003906,42.9726562 C9.07617188,45.6210937 11.0039063,48.7441406 13.96875,48.7382895 L46.0722656,48.7148437 C49.03125,48.7207031 50.9589844,45.6035156 49.6289062,42.9550781 Z M24.6972656,50.4374627 C24.1054688,50.4374627 23.7832031,51.1230469 24.1523438,51.5859375 C25.5234375,53.296875 27.6328125,54.3925781 29.9941406,54.3925781 C32.3613281,54.3925781 34.4707031,53.296875 35.8476562,51.5800781 C36.2167969,51.1171875 35.8945312,50.4316406 35.3027344,50.4374627 L24.6972656,50.4374627 Z" id="形状" fill="#FFFFFF" opacity="0.962960379"></path>
        </g>
    </g>
</svg>