<?xml version="1.0" encoding="UTF-8"?>
<svg width="60px" height="61px" viewBox="0 0 60 61" version="1.1" xmlns="http://www.w3.org/2000/svg" xmlns:xlink="http://www.w3.org/1999/xlink">
    <title>卡折活期转定期</title>
    <g id="pad" stroke="none" stroke-width="1" fill="none" fill-rule="evenodd">
        <g id="卡折活期转定期" transform="translate(0.000000, 0.432480)" fill-rule="nonzero">
            <rect id="矩形" fill="#000000" opacity="0" x="0" y="0" width="60" height="60"></rect>
            <path d="M53.5,19.56752 L53.5,23.31752 L1,23.31752 L1,19.56752 C1,17.50502 2.6875,15.81752 4.75,15.81752 L49.75,15.81752 C51.8125,15.81752 53.5,17.50502 53.5,19.56752 Z M53.5,27.06752 L53.5007631,35.037036 C51.6192913,34.0966351 49.4964272,33.56752 47.25,33.56752 C39.5181111,33.56752 33.25,39.8356311 33.25,47.56752 C33.25,49.616824 33.69033,51.5632988 34.4815368,53.3174912 L4.75,53.31752 C2.6875,53.31752 1,51.63002 1,49.56752 L1,27.06752 L53.5,27.06752 Z M23.092574,43.9117664 C22.7885562,44.0872128 22.6184669,44.4046236 22.6184669,44.7314093 L22.6184669,46.0358735 L18.6193598,46.0358735 C18.1532883,46.0358735 17.7756097,46.4135521 17.7756097,46.8796235 L17.7756097,48.826945 C17.7756097,49.2930164 18.1532883,49.670695 18.6193598,49.670695 L22.6184669,49.670695 L22.6184669,50.8827485 C22.6184669,51.2403378 22.8046276,51.5898914 23.1367705,51.7814093 C23.4689133,51.9742664 23.8640026,51.9608735 24.1760562,51.7814093 L29.2010562,48.8805164 C29.5452526,48.6836414 29.7756097,48.31132 29.7756097,47.8854271 C29.7756097,47.4635521 29.5452526,47.0912307 29.2010562,46.8916771 L24.039449,43.9117664 C23.7568597,43.7483735 23.3965919,43.73632 23.092574,43.9117664 Z M12.25,42.06752 L4.75,42.06752 L4.75,43.94252 L12.25,43.94252 L12.25,42.06752 Z M19.75,38.31752 L4.75,38.31752 L4.75,40.19252 L19.75,40.19252 L19.75,38.31752 Z M23.2302029,3.18283252 L23.4523904,3.23814502 L54.8511404,11.65127 C58.4723912,12.6216457 60.6712834,16.2893696 59.8208279,19.940645 L59.7645779,20.1628325 C58.7001395,24.1372329 57.9018107,27.1180331 57.3695915,29.1052333 C57.3047707,29.3472613 55.8872579,33.56752 55.032575,36.3176286 C54.7038206,36.0068188 54.2942507,35.4911394 54.0484813,35.306998 L54.0480816,33.5860028 C54.0480498,33.4885789 54.0480161,33.3910439 54.0479805,33.2934934 L54.0471101,31.5565538 C54.0470477,31.4622578 54.0469828,31.3685198 54.0469152,31.2754352 L54.0462331,30.4578978 C54.0461487,30.3695941 54.0460614,30.2822306 54.045971,30.1959028 L54.0450723,29.4494982 C54.0447434,29.2117384 54.0443841,28.9858806 54.0439916,28.774505 L54.0431618,28.3718279 C54.0415564,27.6717908 54.0394805,27.1895858 54.0367963,27.0524111 C54.504845,25.3057687 55.206918,22.685805 56.1430154,19.19252 C56.5829293,17.5513152 55.6633271,15.8524797 54.0486404,15.3234575 L53.8798904,15.2728325 L22.4820779,6.85970752 C20.840873,6.41979361 19.1420376,7.33939582 18.6130154,8.95408252 L18.5623904,9.12283252 L16.7689529,15.81752 L49.7867654,15.81752 L49.9620779,15.823145 C51.590838,15.9128644 52.8915402,17.2131628 52.9817654,18.841895 L52.9864529,19.018145 L6.32051537,19.0172075 C6.32051537,17.2500689 7.75306425,15.81752 9.52020287,15.81752 L12.8858279,15.8165825 L14.9398904,8.15158252 C15.9106762,4.53026159 19.5788988,2.33173398 23.2302029,3.18283252 Z M49.0148618,37.7765176 C49.3373581,37.8425169 49.6593544,37.9265159 49.9733508,38.0230148 C50.2873472,38.1195137 50.5923437,38.2325124 50.8923402,38.3590109 C51.1923368,38.4855095 51.4833334,38.6260079 51.7663302,38.7800061 C52.049327,38.9340043 52.3248238,39.1015024 52.5903207,39.2800003 C53.6547242,39.9990066 54.5712834,40.9155658 55.2902897,41.9799693 C55.4697876,42.2454662 55.6402856,42.522963 55.7902839,42.8044598 C55.9402822,43.0859565 56.0862805,43.3819531 56.2112791,43.6789497 C56.3362776,43.9759464 56.4512763,44.2874428 56.5477752,44.5974392 C56.6442741,44.9074356 56.7282731,45.2334319 56.7942724,45.5559281 C56.8609185,45.8841948 56.9109814,46.2156112 56.9442706,46.5489167 C57.0132862,47.2288287 57.0132862,47.9139813 56.9442706,48.5938932 C56.9109814,48.9271987 56.8609185,49.2586151 56.7942724,49.5868818 C56.7282731,49.9088781 56.6442741,50.2313744 56.5477752,50.5453708 C56.4512763,50.8593672 56.3382776,51.1648637 56.2112791,51.4638602 C55.9600046,52.0586654 55.6515605,52.6276627 55.2902897,53.1628407 C54.5712834,54.2272442 53.6547242,55.1438034 52.5903207,55.8628096 C52.3248238,56.0423076 52.047327,56.2128056 51.7663302,56.3628039 C51.4853334,56.5128021 51.1888368,56.6583005 50.8923402,56.783799 C50.5958436,56.9092976 50.2833472,57.0232963 49.9733508,57.1202952 C49.6633544,57.217294 49.3373581,57.3007931 49.0148618,57.3667923 C48.6923656,57.4327916 48.3548694,57.484291 48.0223732,57.5167906 C47.6825978,57.5505913 47.3413372,57.5672788 46.999885,57.5668005 C46.6584328,57.5672788 46.3171722,57.5505913 45.9773968,57.5167906 C45.3151636,57.452087 44.6613751,57.3192181 44.0264192,57.1202952 C43.097232,56.8311295 42.2153895,56.4074745 41.4089493,55.8628096 C40.3446882,55.1436307 39.4281592,54.2271018 38.7089804,53.1628407 C38.5294824,52.8973437 38.3589844,52.6198469 38.2089861,52.3383502 C38.0589878,52.0568534 37.9129895,51.7608568 37.7874909,51.4638602 C37.5325555,50.8587028 37.3374611,50.2300466 37.2049976,49.5868818 C37.1383881,49.2586086 37.0883255,48.9271941 37.0549994,48.5938932 C36.9859838,47.9139813 36.9859838,47.2288287 37.0549994,46.5489167 C37.0883255,46.2156159 37.1383881,45.8842013 37.2049976,45.5559281 C37.2709969,45.2339319 37.3549959,44.9114355 37.4514948,44.5974392 C37.5479937,44.2834428 37.6609924,43.9779463 37.7874909,43.6789497 C37.9139895,43.3799532 38.0544879,43.0879565 38.2089861,42.8044598 C38.3634843,42.520963 38.5304824,42.2454662 38.7089804,41.9799693 C39.4281592,40.9157082 40.3446882,39.9991792 41.4089493,39.2800003 C41.6749462,39.1005024 41.952443,38.9300044 42.2334398,38.7800061 C42.5144366,38.6300078 42.8109332,38.4845095 43.1074298,38.3590109 C43.712489,38.1038064 44.3411719,37.9087036 44.9844082,37.7765176 C45.3125912,37.7093996 45.6440318,37.6593331 45.9773968,37.6265193 C46.9916476,37.5227386 48.0157707,37.5733126 49.0148618,37.7765176 Z M51.3554687,46.1964263 L41.6875,46.1964263 L41.6875,47.44252 L45.9414062,47.44252 L45.9414062,51.1378325 C44.609375,50.88002 44.609375,50.88002 44.09375,49.5909575 C44.2548828,49.043106 44.2548828,49.043106 44.3676758,48.4710845 L44.4375,48.0870513 L43.0625,47.958145 C42.6757812,50.3214263 42.6757812,50.3214263 41.4296875,51.56752 C41.8164062,52.0401763 41.8164062,52.0401763 42.2460937,52.7276763 C43.0195312,51.9972075 43.0195312,51.9972075 43.5351562,51.051895 C44.1796875,52.1690825 44.1796875,52.1690825 45.640625,52.2979888 C46.7578125,52.4698638 46.7578125,52.4698638 51.140625,52.4698638 C51.1835937,52.3409575 51.1835937,52.3409575 51.2695312,52.0401763 C51.484375,51.5245513 51.484375,51.5245513 51.6132812,51.1808013 C50.9042969,51.2130278 50.9042969,51.2130278 50.1469727,51.2210845 L49.6367187,51.22377 L47.4023437,51.22377 L47.4023437,49.8058013 L50.796875,49.8058013 L50.796875,48.5597075 L47.4023437,48.5597075 L47.4023437,47.44252 L51.3554687,47.44252 L51.3554687,46.1964263 Z M47.0585937,42.63002 L45.46875,43.0167388 C45.5654297,43.2745513 45.5654297,43.2745513 45.7104492,43.6048735 L45.8125,43.833145 L41.859375,43.833145 L41.859375,45.8526763 L43.2773437,45.8526763 L43.2773437,45.0792388 L49.765625,45.0792388 L49.765625,45.8526763 L51.1835937,45.8526763 L51.1835937,43.833145 L47.4882812,43.833145 C47.2949219,43.3497466 47.2949219,43.3497466 47.1499023,42.914688 L47.0585937,42.63002 Z" id="形状" fill="#FFFFFF" opacity="0.959984189"></path>
        </g>
    </g>
</svg>