<?xml version="1.0" encoding="UTF-8"?>
<svg width="60px" height="60px" viewBox="0 0 60 60" version="1.1" xmlns="http://www.w3.org/2000/svg" xmlns:xlink="http://www.w3.org/1999/xlink">
    <title>补卡换卡</title>
    <g id="pad" stroke="none" stroke-width="1" fill="none" fill-rule="evenodd">
        <g id="补卡换卡" fill-rule="nonzero">
            <rect id="矩形" fill="#000000" opacity="0" x="0" y="0" width="60" height="60"></rect>
            <path d="M20.2434375,4.03125 L20.465625,4.0865625 L51.864375,12.4996875 C55.4856259,13.4700632 57.684518,17.1377871 56.8340625,20.7890625 L56.7778125,21.01125 L54.3290947,30.1545998 C53.2617433,29.4809032 52.1035103,28.9381075 50.8769422,28.5487591 L53.15625,20.0409375 C53.5961639,18.3997326 52.6765617,16.7008972 51.061875,16.171875 L50.893125,16.12125 L19.4953125,7.708125 C17.8541076,7.26821109 16.1552722,8.1878133 15.62625,9.8025 L15.575625,9.97125 L13.7821875,16.6659375 L46.8,16.6659375 L46.9753125,16.6715625 C48.6040726,16.7612819 49.9047749,18.0615803 49.995,19.6903125 L49.9996875,19.8665625 L49.9993008,28.2995106 C48.8261981,28.0048834 47.5982463,27.8484175 46.3337499,27.8484175 C38.0494786,27.8484175 31.3337499,34.5641462 31.3337499,42.8484175 C31.3337499,46.1449745 32.397172,49.1931559 34.1996851,51.6686306 L6.5334375,51.6675 C5.68466516,51.6675 4.87067001,51.3302624 4.27058525,50.7300018 C3.67050049,50.1297412 3.33374986,49.3156473 3.33374986,48.466875 L3.33374986,19.865625 C3.33374986,18.0984864 4.76629889,16.6659375 6.5334375,16.6659375 L9.8990625,16.665 L11.953125,9 C12.9239108,5.37867906 16.5921334,3.18015145 20.2434375,4.03125 Z M45.2990625,20.43 L8.0334375,20.43 C7.51567055,20.43 7.0959375,20.849733 7.0959375,21.3675 L7.0959375,25.055625 L46.2365625,25.055625 L46.2365625,21.3675 C46.2365625,20.849733 45.8168295,20.43 45.2990625,20.43 Z M46.3181249,29.8484175 C53.4778124,29.8484175 59.3024999,35.6815425 59.3024999,42.8327925 C59.3024999,49.99248 53.4778124,55.8171675 46.3181249,55.8171675 C39.1574999,55.8171675 33.3337499,49.99248 33.3337499,42.8327925 C33.3337499,35.6721675 39.1574999,29.8484175 46.3181249,29.8484175 Z M46.3341918,33.8484175 C41.3712652,33.8484175 37.3337499,37.8859328 37.3337499,42.8488594 C37.3337499,47.811786 41.3712652,51.8484175 46.3341918,51.8484175 C51.2971184,51.8484175 55.3346337,47.811786 55.3346337,42.8488594 C55.3346337,37.8921199 51.2971184,33.8484175 46.3341918,33.8484175 Z M46.5675409,36.540004 C48.2522122,36.540004 49.7879942,37.1766913 50.9486735,38.2222076 L52.0073513,37.1643524 C52.111808,37.059866 52.2689265,37.028604 52.4054236,37.0851476 C52.5419206,37.1416912 52.630878,37.2749016 52.630878,37.4226468 L52.630878,41.0831875 C52.6310956,41.1801954 52.5927124,41.2733049 52.5241945,41.3419771 C52.4556766,41.4106493 52.3626537,41.4492427 52.2656456,41.4492427 L48.6051048,41.4492427 C48.4572099,41.4496049 48.3236944,41.3607409 48.2669395,41.2241689 C48.2101847,41.0875968 48.2413948,40.9302783 48.3459879,40.8257158 L49.4030205,39.7686832 C48.3547536,38.8728672 46.944822,38.5250829 45.600212,38.8306539 C44.255602,39.136225 43.134461,40.0592115 42.5763176,41.3200944 L40.2631848,41.3200944 C41.0559571,38.4940847 43.6324397,36.5408796 46.5675409,36.5408266 L46.5675409,36.540004 Z M46.326521,48.540004 C44.7083871,48.5423721 43.1471565,47.9430941 41.946211,46.858616 L40.8875333,47.9164712 C40.7832365,48.0221432 40.6253487,48.054161 40.4881258,47.9974663 C40.3509029,47.9407716 40.2616575,47.8066487 40.2623581,47.6581768 L40.2623581,43.9976361 C40.2623581,43.7952781 40.4268809,43.6315779 40.6284163,43.6315779 L44.2889571,43.6315779 C44.4372146,43.6308815 44.5711857,43.7198747 44.6280163,43.8568092 C44.6848468,43.9937438 44.6532595,44.151447 44.548074,44.2559304 L43.4918641,45.3121404 C44.5401309,46.2079564 45.9500625,46.5557407 47.2946725,46.2501696 C48.6392826,45.9445985 49.7604235,45.021612 50.3185669,43.7607291 L52.6316997,43.7607291 C51.8388449,46.5870327 49.2619274,48.5403127 46.326521,48.540004 L46.326521,48.540004 Z" id="形状" fill="#FFFFFF" opacity="0.95656622"></path>
        </g>
    </g>
</svg>