<?xml version="1.0" encoding="UTF-8"?>
<svg width="60px" height="61px" viewBox="0 0 60 61" version="1.1" xmlns="http://www.w3.org/2000/svg" xmlns:xlink="http://www.w3.org/1999/xlink">
    <title>卡折定期转活期</title>
    <g id="pad" stroke="none" stroke-width="1" fill="none" fill-rule="evenodd">
        <g id="卡折定期转活期" transform="translate(0.000000, 0.432480)" fill-rule="nonzero">
            <rect id="矩形" fill="#000000" opacity="0" x="0" y="0" width="60" height="60"></rect>
            <path d="M53.5,19.56752 L53.5,23.31752 L1,23.31752 L1,19.56752 C1,17.50502 2.6875,15.81752 4.75,15.81752 L49.75,15.81752 C51.8125,15.81752 53.5,17.50502 53.5,19.56752 Z M53.5,27.06752 L53.5007631,35.037036 C51.6192913,34.0966351 49.4964272,33.56752 47.25,33.56752 C39.5181111,33.56752 33.25,39.8356311 33.25,47.56752 C33.25,49.616824 33.69033,51.5632988 34.4815368,53.3174912 L4.75,53.31752 C2.6875,53.31752 1,51.63002 1,49.56752 L1,27.06752 L53.5,27.06752 Z M23.092574,43.9117664 C22.7885562,44.0872128 22.6184669,44.4046236 22.6184669,44.7314093 L22.6184669,46.0358735 L18.6193598,46.0358735 C18.1532883,46.0358735 17.7756097,46.4135521 17.7756097,46.8796235 L17.7756097,48.826945 C17.7756097,49.2930164 18.1532883,49.670695 18.6193598,49.670695 L22.6184669,49.670695 L22.6184669,50.8827485 C22.6184669,51.2403378 22.8046276,51.5898914 23.1367705,51.7814093 C23.4689133,51.9742664 23.8640026,51.9608735 24.1760562,51.7814093 L29.2010562,48.8805164 C29.5452526,48.6836414 29.7756097,48.31132 29.7756097,47.8854271 C29.7756097,47.4635521 29.5452526,47.0912307 29.2010562,46.8916771 L24.039449,43.9117664 C23.7568597,43.7483735 23.3965919,43.73632 23.092574,43.9117664 Z M12.25,42.06752 L4.75,42.06752 L4.75,43.94252 L12.25,43.94252 L12.25,42.06752 Z M19.75,38.31752 L4.75,38.31752 L4.75,40.19252 L19.75,40.19252 L19.75,38.31752 Z M23.2302029,3.18283252 L23.4523904,3.23814502 L54.8511404,11.65127 C58.4723912,12.6216457 60.6712834,16.2893696 59.8208279,19.940645 L59.7645779,20.1628325 C58.7001395,24.1372329 57.9018107,27.1180331 57.3695915,29.1052333 C57.3047707,29.3472613 55.8872579,33.56752 55.032575,36.3176286 C54.7038206,36.0068188 54.2942507,35.4911394 54.0484813,35.306998 L54.0480816,33.5860028 C54.0480498,33.4885789 54.0480161,33.3910439 54.0479805,33.2934934 L54.0471101,31.5565538 C54.0470477,31.4622578 54.0469828,31.3685198 54.0469152,31.2754352 L54.0462331,30.4578978 C54.0461487,30.3695941 54.0460614,30.2822306 54.045971,30.1959028 L54.0450723,29.4494982 C54.0447434,29.2117384 54.0443841,28.9858806 54.0439916,28.774505 L54.0431618,28.3718279 C54.0415564,27.6717908 54.0394805,27.1895858 54.0367963,27.0524111 C54.504845,25.3057687 55.206918,22.685805 56.1430154,19.19252 C56.5829293,17.5513152 55.6633271,15.8524797 54.0486404,15.3234575 L53.8798904,15.2728325 L22.4820779,6.85970752 C20.840873,6.41979361 19.1420376,7.33939582 18.6130154,8.95408252 L18.5623904,9.12283252 L16.7689529,15.81752 L49.7867654,15.81752 L49.9620779,15.823145 C51.590838,15.9128644 52.8915402,17.2131628 52.9817654,18.841895 L52.9864529,19.018145 L6.32051537,19.0172075 C6.32051537,17.2500689 7.75306425,15.81752 9.52020287,15.81752 L12.8858279,15.8165825 L14.9398904,8.15158252 C15.9106762,4.53026159 19.5788988,2.33173398 23.2302029,3.18283252 Z M49.0148618,37.7765176 C49.3373581,37.8425169 49.6593544,37.9265159 49.9733508,38.0230148 C50.2873472,38.1195137 50.5923437,38.2325124 50.8923402,38.3590109 C51.1923368,38.4855095 51.4833334,38.6260079 51.7663302,38.7800061 C52.049327,38.9340043 52.3248238,39.1015024 52.5903207,39.2800003 C53.6547242,39.9990066 54.5712834,40.9155658 55.2902897,41.9799693 C55.4697876,42.2454662 55.6402856,42.522963 55.7902839,42.8044598 C55.9402822,43.0859565 56.0862805,43.3819531 56.2112791,43.6789497 C56.3362776,43.9759464 56.4512763,44.2874428 56.5477752,44.5974392 C56.6442741,44.9074356 56.7282731,45.2334319 56.7942724,45.5559281 C56.8609185,45.8841948 56.9109814,46.2156112 56.9442706,46.5489167 C57.0132862,47.2288287 57.0132862,47.9139813 56.9442706,48.5938932 C56.9109814,48.9271987 56.8609185,49.2586151 56.7942724,49.5868818 C56.7282731,49.9088781 56.6442741,50.2313744 56.5477752,50.5453708 C56.4512763,50.8593672 56.3382776,51.1648637 56.2112791,51.4638602 C55.9600046,52.0586654 55.6515605,52.6276627 55.2902897,53.1628407 C54.5712834,54.2272442 53.6547242,55.1438034 52.5903207,55.8628096 C52.3248238,56.0423076 52.047327,56.2128056 51.7663302,56.3628039 C51.4853334,56.5128021 51.1888368,56.6583005 50.8923402,56.783799 C50.5958436,56.9092976 50.2833472,57.0232963 49.9733508,57.1202952 C49.6633544,57.217294 49.3373581,57.3007931 49.0148618,57.3667923 C48.6923656,57.4327916 48.3548694,57.484291 48.0223732,57.5167906 C47.6825978,57.5505913 47.3413372,57.5672788 46.999885,57.5668005 C46.6584328,57.5672788 46.3171722,57.5505913 45.9773968,57.5167906 C45.3151636,57.452087 44.6613751,57.3192181 44.0264192,57.1202952 C43.097232,56.8311295 42.2153895,56.4074745 41.4089493,55.8628096 C40.3446882,55.1436307 39.4281592,54.2271018 38.7089804,53.1628407 C38.5294824,52.8973437 38.3589844,52.6198469 38.2089861,52.3383502 C38.0589878,52.0568534 37.9129895,51.7608568 37.7874909,51.4638602 C37.5325555,50.8587028 37.3374611,50.2300466 37.2049976,49.5868818 C37.1383881,49.2586086 37.0883255,48.9271941 37.0549994,48.5938932 C36.9859838,47.9139813 36.9859838,47.2288287 37.0549994,46.5489167 C37.0883255,46.2156159 37.1383881,45.8842013 37.2049976,45.5559281 C37.2709969,45.2339319 37.3549959,44.9114355 37.4514948,44.5974392 C37.5479937,44.2834428 37.6609924,43.9779463 37.7874909,43.6789497 C37.9139895,43.3799532 38.0544879,43.0879565 38.2089861,42.8044598 C38.3634843,42.520963 38.5304824,42.2454662 38.7089804,41.9799693 C39.4281592,40.9157082 40.3446882,39.9991792 41.4089493,39.2800003 C41.6749462,39.1005024 41.952443,38.9300044 42.2334398,38.7800061 C42.5144366,38.6300078 42.8109332,38.4845095 43.1074298,38.3590109 C43.712489,38.1038064 44.3411719,37.9087036 44.9844082,37.7765176 C45.3125912,37.7093996 45.6440318,37.6593331 45.9773968,37.6265193 C46.9916476,37.5227386 48.0157707,37.5733126 49.0148618,37.7765176 Z M51.4257812,43.4492188 C48.3320312,43.6640625 48.3320312,43.6640625 44.8945312,43.7929688 C45.0019531,44.3300781 45.0019531,44.3300781 45.0496962,44.688151 L45.0664062,44.8242188 L45.0664062,44.953125 C45.4960937,44.9101562 45.4960937,44.9101562 46.3554687,44.9101562 C47.0920759,44.8733259 47.0920759,44.8733259 47.5129943,44.8680644 L47.6445312,44.8671875 L47.6445312,46.0703125 L44.765625,46.0703125 L44.765625,47.2734375 L47.6445312,47.2734375 L47.6445312,48.5625 L45.1523437,48.5625 L45.1523437,53.1601562 L46.5273437,53.1601562 L46.5273437,52.6445312 L50.1367187,52.6445312 L50.1367187,53.1171875 L51.5546875,53.1171875 L51.5546875,48.5625 L49.0625,48.5625 L49.0625,47.2734375 L51.9414062,47.2734375 L51.9414062,46.0703125 L49.0625,46.0703125 L49.0625,44.78125 C50.0292969,44.7490234 50.0292969,44.7490234 50.9719238,44.668457 L51.5976562,44.609375 L51.4257812,43.4492188 Z M43.21875,48.8203125 C42.6171875,51.140625 42.6171875,51.140625 42.1015625,52.6445312 C42.7460937,52.8164062 42.7460937,52.8164062 43.4765625,53.0742188 C43.9492187,51.7421875 43.9492187,51.7421875 44.59375,49.25 C43.8632812,49.078125 43.8632812,49.078125 43.21875,48.8203125 Z M50.1367187,49.8085938 L50.1367187,51.484375 L46.5273437,51.484375 L46.5273437,49.8085938 L50.1367187,49.8085938 Z M42.7460937,45.8984375 L41.8867187,46.9296875 C42.7460937,47.6171875 42.7460937,47.6171875 43.6914062,48.5195312 L44.6367187,47.4882812 C44.1210937,47.015625 44.1210937,47.015625 43.0898437,46.15625 C42.9287109,46.0273438 42.9287109,46.0273438 42.815918,45.9467773 L42.7460937,45.8984375 Z M43.1328125,43.40625 L42.2734375,44.3085938 C42.6601562,44.6523438 42.6601562,44.6523438 43.3046875,45.2109375 C43.7773437,45.5976562 43.7773437,45.5976562 43.9492187,45.7695312 L44.8945312,44.78125 C44.2757812,44.265625 44.2757812,44.265625 43.5195312,43.695 L43.1328125,43.40625 Z" id="形状" fill="#FFFFFF" opacity="0.959984189"></path>
        </g>
    </g>
</svg>