<?xml version="1.0" encoding="UTF-8"?>
<svg width="60px" height="61px" viewBox="0 0 60 61" version="1.1" xmlns="http://www.w3.org/2000/svg" xmlns:xlink="http://www.w3.org/1999/xlink">
    <title>卡折销户</title>
    <g id="pad" stroke="none" stroke-width="1" fill="none" fill-rule="evenodd">
        <g id="卡折销户" transform="translate(0.000000, 0.432480)" fill-rule="nonzero">
            <rect id="矩形" fill="#000000" opacity="0" x="0" y="0" width="60" height="60"></rect>
            <g id="形状-29" transform="translate(4.000000, 5.000000)" fill="#FFFFFF" opacity="0.95656622">
                <path d="M46.2685213,14.601041 L46.2685213,17.9059354 L0,17.9059354 L0,14.601041 C0,12.7833491 1.48720247,11.2961466 3.30489438,11.2961466 L42.9636269,11.2961466 C44.7813188,11.2961466 46.2685213,12.7833491 46.2685213,14.601041 Z M40.9675809,30.010772 C46.3217728,30.010772 50.6619377,34.3509369 50.6619377,39.7051289 C50.6619377,45.0589161 46.3217728,49.3994857 40.9675809,49.3994857 C35.613389,49.3994857 31.273224,45.0593208 31.273224,39.7051289 C31.273224,34.3509369 35.613389,30.010772 40.9675809,30.010772 Z M40.967657,32.6543754 C37.0732199,32.6543754 33.9168274,35.8111561 33.9168274,39.7048167 C33.9168274,43.5988656 37.0736082,46.7552581 40.967657,46.7552581 C44.8613176,46.7552581 48.0177101,43.5988656 48.0177101,39.7048167 C48.0177101,35.8107679 44.8613176,32.6543754 40.967657,32.6543754 Z M46.2685213,21.2108298 L46.268843,28.2342301 C44.6107792,27.4055595 42.7400123,26.9393133 40.760364,26.9393133 C33.9462104,26.9393133 28.4220916,32.4634321 28.4220916,39.2775857 C28.4220916,41.0837983 28.8102214,42.7993719 29.5076257,44.3454513 L3.30489438,44.3450904 C1.48720247,44.3450904 0,42.8578879 0,41.040196 L0,21.2108298 L46.2685213,21.2108298 Z M43.6642829,38.8420832 C44.39438,38.8420832 44.9862406,39.4339439 44.9862406,40.164041 C44.9862406,40.8941381 44.39438,41.4859987 43.6642829,41.4859987 L38.2708789,41.4859987 C37.5407817,41.4859987 36.9489211,40.8941381 36.9489211,40.164041 C36.9489211,39.4339439 37.5407817,38.8420832 38.2708789,38.8420832 L43.6642829,38.8420832 Z M9.91468313,34.4304073 L3.30489438,34.4304073 L3.30489438,36.0828545 L9.91468313,36.0828545 L9.91468313,34.4304073 Z M16.5244719,31.1255129 L3.30489438,31.1255129 L3.30489438,32.7779601 L16.5244719,32.7779601 L16.5244719,31.1255129 Z M19.5915927,0.161131247 L19.7874076,0.209878439 L47.4592883,7.62440897 C50.6507154,8.4796061 52.5886104,11.7119901 51.8390995,14.929878 L51.7895261,15.125693 C50.8514311,18.6283526 50.1478598,21.2553472 49.6788123,23.006677 C49.6368072,23.1635157 48.9502657,25.2159183 48.2903026,27.255012 L48.1327653,27.7431616 C47.950369,28.3100909 47.7742656,28.8640043 47.6191875,29.3629983 C47.3294546,29.0890799 46.9684986,28.6346091 46.7519007,28.4723243 L46.7510121,25.7008053 C46.7509622,25.608514 46.7509098,25.5165937 46.7508549,25.425153 L46.7500666,24.3578325 C46.7499895,24.2719653 46.7499094,24.1870119 46.7498261,24.1030809 L46.7492881,23.6126306 C46.7491919,23.533223 46.7490923,23.4550548 46.7489892,23.3782345 L46.748328,22.9343566 C46.7482105,22.8633622 46.7480893,22.7939329 46.7479642,22.7261772 L46.747167,22.340594 C46.7457585,21.7343212 46.7439429,21.317114 46.7416027,21.1975142 C47.1540964,19.6581892 47.772837,17.3492016 48.5978244,14.2705516 C48.9855228,12.8241492 48.1750726,11.3269568 46.7520409,10.8607268 L46.6033206,10.8161107 L18.9322662,3.40158018 C17.4858639,3.01388178 15.9886715,3.82433196 15.5224415,5.24736369 L15.4778254,5.39608394 L13.8972596,11.2961466 L42.9960284,11.2961466 L43.1505322,11.301104 C44.5859669,11.3801741 45.7322825,12.5261339 45.8117984,13.9615439 L45.8159295,14.116874 L4.68899768,14.1160478 C4.68899768,12.5586594 5.95151042,11.2961466 7.50889881,11.2961466 L10.4750415,11.2953204 L12.2852974,4.5401163 C13.140856,1.34862744 16.3736795,-0.5889463 19.5915927,0.161131247 Z" id="形状"></path>
            </g>
        </g>
    </g>
</svg>