<?xml version="1.0" encoding="UTF-8"?>
<svg width="60px" height="60px" viewBox="0 0 60 60" version="1.1" xmlns="http://www.w3.org/2000/svg" xmlns:xlink="http://www.w3.org/1999/xlink">
    <title>综合解约</title>
    <g id="pad" stroke="none" stroke-width="1" fill="none" fill-rule="evenodd">
        <g id="综合解约" fill-rule="nonzero">
            <rect id="矩形" fill="#000000" opacity="0" x="0" y="0" width="60" height="60"></rect>
            <path d="M42,35 C47.5228475,35 52,39.4771525 52,45 C52,50.5228475 47.5228475,55 42,55 C36.4771525,55 32,50.5228475 32,45 C32,39.4771525 36.4771525,35 42,35 Z M43.625,6 C46.7316017,6 49.25,8.51839828 49.25,11.625 L49.25,26.19375 C49.1703029,26.2825554 49.1269008,28.3051095 49.1197937,32.2614124 L49.1190128,32.8541878 C49.1189258,32.9552844 49.1188604,33.0575314 49.1188166,33.1609287 L49.118813,33.795117 C49.1188554,33.9027855 49.1189193,34.0115973 49.1190047,34.1215524 C47.074396,32.7799682 44.6282837,32 42,32 C34.8202983,32 29,37.8202983 29,45 C29,48.8830382 30.7024554,52.3684465 33.4016701,54.750529 L13.625,54.75 C10.5183983,54.75 8,52.2316017 8,49.125 L8,11.625 C8,8.51839828 10.5183983,6 13.625,6 L43.625,6 Z M38.375,42.375 L37.375,42.375 C37.1097835,42.375 36.8554296,42.4803568 36.6678932,42.6678932 C36.4803568,42.8554296 36.375,43.1097835 36.375,43.375 L36.375,43.375 L36.375,50.375 C36.375,50.9272847 36.8227153,51.375 37.375,51.375 L37.375,51.375 L44.375,51.375 C44.9272847,51.375 45.375,50.9272847 45.375,50.375 L45.375,50.375 L45.375,49.375 L38.375,49.375 L38.375,42.375 Z M47.375,39.375 L40.375,39.375 C40.1097835,39.375 39.8554296,39.4803568 39.6678932,39.6678932 C39.4803568,39.8554296 39.375,40.1097835 39.375,40.375 L39.375,40.375 L39.375,47.375 C39.375,47.6402165 39.4803568,47.8945704 39.6678932,48.0821068 C39.8554296,48.2696432 40.1097835,48.375 40.375,48.375 L40.375,48.375 L47.375,48.375 C47.9272847,48.375 48.375,47.9272847 48.375,47.375 L48.375,47.375 L48.375,40.375 C48.375,39.8227153 47.9272847,39.375 47.375,39.375 L47.375,39.375 Z M27.0649523,37.125 L18.5,37.125 C17.4644661,37.125 16.625,37.9644661 16.625,39 C16.625,40.0355339 17.4644661,40.875 18.5,40.875 L27.0649523,40.875 C28.1004862,40.875 28.9399523,40.0355339 28.9399523,39 C28.9399523,37.9644661 28.1004862,37.125 27.0649523,37.125 Z M38.375,26.25 L18.5,26.25 C17.4644661,26.25 16.625,27.0894661 16.625,28.125 C16.625,29.1605339 17.4644661,30 18.5,30 L38.375,30 C39.4105339,30 40.25,29.1605339 40.25,28.125 C40.25,27.0894661 39.4105339,26.25 38.375,26.25 Z M38.375,15.375 L18.5,15.375 C17.4644661,15.375 16.625,16.2144661 16.625,17.25 C16.625,18.2855339 17.4644661,19.125 18.5,19.125 L38.375,19.125 C39.4105339,19.125 40.25,18.2855339 40.25,17.25 C40.25,16.2144661 39.4105339,15.375 38.375,15.375 Z" id="形状" fill="#FFFFFF"></path>
        </g>
    </g>
</svg>