<?xml version="1.0" encoding="UTF-8"?>
<svg width="60px" height="60px" viewBox="0 0 60 60" version="1.1" xmlns="http://www.w3.org/2000/svg" xmlns:xlink="http://www.w3.org/1999/xlink">
    <title>签约信息变更</title>
    <g id="pad" stroke="none" stroke-width="1" fill="none" fill-rule="evenodd">
        <g id="签约信息变更" fill-rule="nonzero">
            <rect id="矩形" fill="#000000" opacity="0" x="0" y="0" width="60" height="60"></rect>
            <path d="M43.625,6 C46.7316017,6 49.25,8.51839828 49.25,11.625 L49.25,26.19375 C49.1703029,26.2825554 49.1269008,28.3051095 49.1197937,32.2614124 L49.1190128,32.8541878 C49.1189258,32.9552844 49.1188604,33.0575314 49.1188166,33.1609287 L49.118813,33.795117 C49.1188554,33.9027855 49.1189193,34.0115973 49.1190047,34.1215524 C47.074396,32.7799682 44.6282837,32 42,32 C34.8202983,32 29,37.8202983 29,45 C29,48.8830382 30.7024554,52.3684465 33.4016701,54.750529 L13.625,54.75 C10.5183983,54.75 8,52.2316017 8,49.125 L8,11.625 C8,8.51839828 10.5183983,6 13.625,6 L43.625,6 Z M49.1428571,44.9375 L46.2857143,41.3660714 L47.7598214,41.3660714 C46.7078571,39.2494643 44.5240179,37.7946429 42,37.7946429 C39.5718304,37.7946429 37.4686607,39.1560714 36.375,41.1428571 C36.1813839,41.7023214 35.6163839,42.0803571 34.9910714,42.0803571 C34.2020982,42.0803571 33.5624984,41.4407589 33.5624984,40.6517857 C33.5620738,40.3685704 33.6462353,40.0916802 33.8041964,39.8566071 C35.3668304,36.9297321 38.4503571,34.9375 42,34.9375 C46.1313839,34.9375 49.6319643,37.6358482 50.8371429,41.3660714 L52,41.3660714 L49.1428571,44.9375 Z M37.7142857,47.7946429 L36.2401786,47.7946429 C37.2921429,49.91125 39.4759821,51.3660714 42,51.3660714 C44.355,51.3660714 46.4160268,50.0853125 47.5357143,48.1964286 C47.8169643,47.4576339 48.3136607,47.0803571 49.0089286,47.0803571 C49.7979018,47.0803571 50.4375018,47.7199554 50.4375018,48.5089286 C50.4379545,48.7942136 50.352573,49.0730372 50.1924554,49.3091518 C48.6289286,52.2330804 45.5475,54.2232143 42,54.2232143 C37.8686161,54.2232143 34.3680357,51.5248661 33.1628571,47.7946429 L32,47.7946429 L34.8571429,44.2232143 L37.7142857,47.7946429 Z M27.0649523,37.125 L18.5,37.125 C17.4644661,37.125 16.625,37.9644661 16.625,39 C16.625,40.0355339 17.4644661,40.875 18.5,40.875 L27.0649523,40.875 C28.1004862,40.875 28.9399523,40.0355339 28.9399523,39 C28.9399523,37.9644661 28.1004862,37.125 27.0649523,37.125 Z M38.375,26.25 L18.5,26.25 C17.4644661,26.25 16.625,27.0894661 16.625,28.125 C16.625,29.1605339 17.4644661,30 18.5,30 L38.375,30 C39.4105339,30 40.25,29.1605339 40.25,28.125 C40.25,27.0894661 39.4105339,26.25 38.375,26.25 Z M38.375,15.375 L18.5,15.375 C17.4644661,15.375 16.625,16.2144661 16.625,17.25 C16.625,18.2855339 17.4644661,19.125 18.5,19.125 L38.375,19.125 C39.4105339,19.125 40.25,18.2855339 40.25,17.25 C40.25,16.2144661 39.4105339,15.375 38.375,15.375 Z" id="形状" fill="#FFFFFF"></path>
        </g>
    </g>
</svg>