<?xml version="1.0" encoding="UTF-8"?>
<svg width="60px" height="60px" viewBox="0 0 60 60" version="1.1" xmlns="http://www.w3.org/2000/svg" xmlns:xlink="http://www.w3.org/1999/xlink">
    <title>信用卡账户查询</title>
    <g id="pad" stroke="none" stroke-width="1" fill="none" fill-rule="evenodd">
        <g id="信用卡账户查询" fill-rule="nonzero">
            <rect id="矩形" fill="#000000" opacity="0" x="0" y="0" width="60" height="60"></rect>
            <g id="形状-16" transform="translate(5.000000, 9.000000)" fill="#FFFFFF" opacity="0.95610119">
                <path d="M50,17.3468793 L50.0010356,26.8822667 C48.2742052,25.4616697 46.0628009,24.6086957 43.6521739,24.6086957 C40.3976146,24.6086957 37.5061862,26.1634443 35.6800973,28.570733 L31.6326017,28.5713306 L29.5917924,35.7142776 L33.7126214,35.7145067 C33.9764565,38.1128745 35.088428,40.255916 36.7420782,41.8371736 L5.10202333,41.8367055 C2.28446247,41.8367055 0,39.5527576 0,36.7347394 L0,17.3468793 L50,17.3468793 Z M9.02285714,30.0323809 L8.60380952,30.0323809 C7.64872109,30.0303575 6.73205741,30.4083472 6.05599211,31.0829832 C5.37992682,31.7576192 5,32.6734809 5,33.6285714 L5,34.7409524 C5,35.0824502 5.13565947,35.4099611 5.37713489,35.6514365 C5.6186103,35.892912 5.94612124,36.0285714 6.28761904,36.0285714 L15.712381,36.0285714 C16.4235133,36.0285714 17,35.4520847 17,34.7409524 L17,33.6285714 C17,32.6708289 16.6180001,31.7526427 15.9386319,31.0775653 C15.2592637,30.4024878 14.3386755,30.0262936 13.3809524,30.0323809 L12.9314286,30.0323809 C12.3186527,30.3106177 11.6539315,30.4560255 10.9809524,30.4590476 C10.305529,30.4559525 9.63833736,30.3105722 9.02285714,30.0323809 Z M11.0038095,23 C9.1102618,23 7.57523809,24.5350237 7.57523809,26.4285714 C7.57523809,28.3221191 9.1102618,29.8571429 11.0038095,29.8571429 C12.8973572,29.8571429 14.4323809,28.3221191 14.4323809,26.4285714 C14.4323809,24.5350237 12.8973572,23 11.0038095,23 Z M44.0869565,26.3478261 C48.6198439,26.3478261 52.3478261,30.1240049 52.3478261,34.7248664 C52.3478261,36.7648711 51.6276477,38.6312583 50.3991081,40.1070063 L52.1360089,42.2338197 C52.432553,42.5810545 52.3901895,43.1453111 52.0512821,43.4491416 L51.9241918,43.5359503 C51.5852843,43.8397808 51.0345597,43.7963764 50.7380156,43.4491416 L49.0858417,41.409137 C47.6878484,42.4942458 45.993311,43.1019068 44.12932,43.1019068 C39.5540691,43.0585024 35.826087,39.325728 35.826087,34.7248664 C35.826087,30.1240049 39.5540691,26.3478261 44.0869565,26.3478261 Z M44.0869565,28.6379099 C40.8078445,28.6379099 38.0688214,31.4047083 38.0688214,34.7248664 C38.0688214,38.0450245 40.7306889,40.8118229 44.0869565,40.8118229 C47.4432242,40.8118229 50.1050916,38.1240759 50.1050916,34.7248664 C50.1050916,31.3256569 47.3660686,28.6379099 44.0869565,28.6379099 Z M44.8979767,0 C47.7155375,0 50,2.28446247 50,5.10202333 L50,10.204161 L0,10.204161 L0,5.10202333 C0,2.28446247 2.28446247,0 5.10202333,0 L44.8979767,0 Z" id="形状"></path>
            </g>
        </g>
    </g>
</svg>