<?xml version="1.0" encoding="UTF-8"?>
<svg width="60px" height="60px" viewBox="0 0 60 60" version="1.1" xmlns="http://www.w3.org/2000/svg" xmlns:xlink="http://www.w3.org/1999/xlink">
    <title>信用卡激活</title>
    <g id="pad" stroke="none" stroke-width="1" fill="none" fill-rule="evenodd">
        <g id="信用卡激活" fill-rule="nonzero">
            <rect id="矩形" fill="#000000" opacity="0" x="0" y="0" width="60" height="60"></rect>
            <g id="形状-17" transform="translate(5.000469, 5.000469)" fill="#FFFFFF" opacity="0.95610119">
                <path d="M49.9765599,21.9636297 C49.9359311,21.033855 49.8953022,20.1025177 49.8546734,19.1743057 C49.6671559,17.9929449 49.7359123,16.7881445 49.5265177,15.6521005 C49.4280709,15.0239166 49.3311869,14.3926074 49.2343028,13.7644236 C48.8905206,12.1908386 48.5576769,10.7000738 48.0154385,9.34369666 C47.0106568,6.82783582 45.4605115,4.71044983 43.3009341,3.34938474 C38.6739378,0.435049049 31.7920427,-0.019681078 24.2210205,0.000633326249 C23.4662623,0.0131344981 22.7099414,0.0240730235 21.9551831,0.0365741954 C21.4926397,0.0537633067 21.0300964,0.0693897716 20.5659904,0.0865788829 C20.2378346,0.102205348 19.9081162,0.117831813 19.5783978,0.135020924 C18.689252,0.203777369 17.7985435,0.272533815 16.9109603,0.342852906 C16.4281025,0.400670826 15.9436821,0.455363453 15.4608243,0.513181373 C14.3779103,0.71476277 13.3059348,0.828835963 12.2933399,1.08510999 C7.62258955,2.27272131 4.8879582,4.02444802 2.72838076,7.73417078 C1.65484263,9.57653098 1.20323779,11.843931 0.681313867,14.2519693 C0.571928613,15.0645454 0.462543359,15.875559 0.353158105,16.6881351 C0.276588428,17.6538507 0.198456104,18.6211288 0.121886426,19.5868444 C0.109385254,19.9150001 0.0984467285,20.2447185 0.0843829102,20.5744369 C0.0562552734,21.4635828 0.0281276367,22.3542913 0,23.2418745 L0,25.9577541 C0.0156264648,26.7937699 0.0328155762,27.6313485 0.0500046875,28.4658017 C0.0687564453,29.0471062 0.0906334961,29.6284107 0.1109479,30.2081525 C0.134387598,30.6019394 0.160952588,30.9957263 0.184392285,31.3895133 C0.353158105,32.4474249 0.312529297,33.525651 0.500046875,34.5460592 C0.789136475,36.1055803 0.979779346,37.6135342 1.41419507,39.0042896 C2.59086787,42.7812061 4.36290898,45.3080055 7.48195137,47.1409898 C8.87426938,47.9598166 10.5400505,48.4848658 12.2949025,48.9317827 C12.9449635,49.0614823 13.5934618,49.191182 14.2435227,49.3224443 C15.0560989,49.4318296 15.868675,49.5412148 16.6796886,49.6506001 C17.7188485,49.7318577 18.759571,49.8131153 19.798731,49.8943729 C20.1518891,49.9068741 20.5066098,49.9178126 20.8582053,49.9303138 C21.6067129,49.9506282 22.353658,49.9709426 23.100603,49.991257 C23.4740755,49.9959449 23.847548,50.0006329 24.2210205,50.0037582 L25.7789791,50.0037582 C26.7946993,49.9881317 27.8104195,49.9725053 28.8261397,49.9537535 C29.1183546,49.9412523 29.4121321,49.9303138 29.7027844,49.9178126 C30.5716158,49.8615573 31.4420099,49.8037394 32.3108414,49.7459215 C33.0546611,49.6646639 33.7969182,49.5834063 34.5407379,49.5021487 C36.211207,49.1927447 37.8051064,48.9692862 39.2802447,48.5036176 C42.4805447,47.4941479 44.85733,45.8799341 46.5903049,43.4109527 C47.924805,41.5123372 48.6108068,39.099611 49.1983619,36.443112 C49.3249363,35.6195973 49.4515106,34.7945199 49.5749597,33.9710053 C49.6655932,32.9896633 49.7531014,32.005196 49.8437349,31.0222913 C49.8593614,30.6691332 49.8765505,30.3159751 49.8937396,29.962817 C49.9249925,29.1596167 49.9578081,28.3548538 49.9921863,27.5500908 L49.9921863,26.9031552 C49.9968743,26.5296827 50,26.1562102 50.0046875,25.781175 L50.0046875,23.1012363 C49.9953116,22.7199506 49.9874984,22.3386648 49.9796852,21.9573791 L49.9765599,21.9636297 Z M9.37119097,15.2411245 C9.37119097,13.7331706 10.6166202,12.5002426 12.1386379,12.5002426 L37.3331872,12.5002426 C38.8567675,12.5002426 40.1037594,13.7331706 40.1037594,15.2411245 L40.1037594,18.3039116 L9.36962832,18.3039116 L9.36962832,15.2411245 L9.37119097,15.2411245 Z M25.1929866,36.6837595 L12.1386379,36.6837595 C10.6181829,36.6837595 9.37119097,35.4492688 9.37119097,33.941315 L9.37119097,21.9901947 L40.105322,21.9901947 L40.105322,26.9000299 C38.4739191,25.4733337 36.3362187,24.6060649 33.9953743,24.6060649 C28.8839576,24.6060649 24.7382565,28.7314516 24.7382565,33.8194285 C24.7382565,34.8195223 24.8992091,35.7821125 25.1945493,36.6821969 L25.1929866,36.6837595 Z M34.0172513,25.7686739 C35.1298556,25.7686739 36.1783914,25.9780685 37.165984,26.4062336 C38.1598271,26.8328361 39.022408,27.4157032 39.7662277,28.1454592 C40.5037969,28.8767777 41.0960399,29.7346706 41.524205,30.7066367 C41.9586208,31.6848534 42.1758286,32.7224507 42.1758286,33.8194285 C42.1758286,34.9429714 41.9586208,35.9915072 41.524205,36.9650359 L41.524205,36.9665986 C41.0960399,37.9448153 40.5037969,38.7980202 39.7662277,39.5340267 C39.022408,40.26222 38.1582645,40.8357113 37.165984,41.2513752 C36.1768288,41.6686018 35.1298556,41.8733085 34.0172513,41.8733085 C32.8765194,41.8733085 31.8139198,41.6686018 30.8247646,41.2513752 C29.8356093,40.8341486 28.9683405,40.26222 28.2307714,39.5340267 C27.4869517,38.7980202 26.8993966,37.9448153 26.4649809,36.9665986 C26.0305651,35.9946324 25.8149199,34.944534 25.8149199,33.8209912 C25.8149199,32.7224507 26.0321278,31.6864161 26.4649809,30.7081994 C26.8993966,29.7362333 27.4869517,28.8767777 28.2307714,28.1454592 C28.9699032,27.4157032 29.8387346,26.8328361 30.8247646,26.4062336 C31.8107945,25.9796311 32.878082,25.7686739 34.0172513,25.7686739 Z M34.4465401,28.1894881 C34.1996781,27.9421975 33.8062417,27.9357688 33.5679513,28.1736307 L33.5679513,28.1736307 L32.1664951,29.5750869 L30.2070279,29.5750869 C29.8577353,29.5750869 29.5748726,29.8485208 29.5748726,30.1853846 L29.5748726,30.1853846 L29.5748726,32.1667094 L28.1738449,33.5681656 C27.9355545,33.806456 27.9424118,34.1998923 28.1892738,34.4467544 L28.1892738,34.4467544 L29.5748726,35.8323531 L29.5748726,37.8141065 C29.5748726,38.1509703 29.8577353,38.4239756 30.2070279,38.4239756 L30.2070279,38.4239756 L32.1664951,38.4239756 L33.5525224,39.810003 C33.7993844,40.056865 34.1928208,40.0637223 34.4306826,39.8254319 L34.4306826,39.8254319 L35.8321388,38.4239756 L37.7920346,38.4244042 C38.1408986,38.4244042 38.4237614,38.1509703 38.4237614,37.8141065 L38.4237614,37.8141065 L38.4237614,35.8323531 L39.8252176,34.4313255 C40.063508,34.1930351 40.0566507,33.7995987 39.8097887,33.5527367 L39.8097887,33.5527367 L38.4237614,32.1667094 L38.4241899,30.1853846 C38.4241899,29.8485208 38.1413272,29.5750869 37.7920346,29.5750869 L37.7920346,29.5750869 L35.8321388,29.5750869 Z M35.6701356,32.1255657 C35.9076286,31.8798779 36.2987408,31.8714628 36.5465815,32.1067082 C36.7944171,32.3416128 36.8051573,32.7328639 36.570582,32.9810112 L36.570582,32.9810112 L33.5790944,36.1482165 C33.4578063,36.2763619 33.2568023,36.2862192 33.1239426,36.1705026 L33.1239426,36.1705026 L31.4944819,34.7501889 C31.2489056,34.5328989 31.2266194,34.1634631 31.4409094,33.921744 C31.6594411,33.6748952 32.0337473,33.6442701 32.2894975,33.8523141 L32.2894975,33.8523141 L33.2465164,34.6323294 Z" id="形状"></path>
            </g>
        </g>
    </g>
</svg>