<?xml version="1.0" encoding="UTF-8"?>
<svg width="60px" height="60px" viewBox="0 0 60 60" version="1.1" xmlns="http://www.w3.org/2000/svg" xmlns:xlink="http://www.w3.org/1999/xlink">
    <title>客户信息维护</title>
    <g id="pad" stroke="none" stroke-width="1" fill="none" fill-rule="evenodd">
        <g id="客户信息维护" fill-rule="nonzero">
            <rect id="矩形" fill="#000000" opacity="0" x="0" y="0" width="60" height="60"></rect>
            <path d="M48,37 C48,37 49.5599432,38.4414773 52.4,39.2414773 C54.3846591,39.8005682 55.9588068,39.9170455 56.9247159,39.9170455 C57.5021307,39.9170455 57.8639126,39.8754182 57.9684672,39.8615425 L58,39.8571023 C58,39.8571023 57.9999824,39.85881 57.9999352,39.8622152 L57.9991978,39.9029335 C57.9914672,40.2684743 57.9137238,42.807299 57.1988636,47.0403409 C56.3727273,51.9383523 53.7988636,54.7596591 51.7988636,55.8392045 C49.6653409,56.9911932 48.0497159,57 48,57 C47.9491477,57 46.3332386,56.9909091 44.2,55.8392045 C42.2,54.759375 39.6258523,51.9383523 38.8,47.0403409 C38.0861888,42.8070367 38.0085261,40.268434 38.0008017,39.9029288 L38,39.8571023 C38,39.8571023 38.3821023,39.9170455 39.0752841,39.9170455 C40.0426136,39.9170455 41.615625,39.8002841 43.6,39.2414773 C46.4400568,38.4414773 48,37 48,37 Z M48.1570505,46.7809607 L41,46.7806753 C41.1609164,47.692068 41.4082358,48.5848927 41.7383842,49.446248 C42.0352298,50.2199452 42.4135573,50.9575568 42.8665402,51.6457735 C43.8292297,53.0955711 44.8049023,53.7765193 45.3021307,54.0533507 C46.8432626,54.9129551 48.0216939,54.9931506 48.1570505,55 L48.1570505,55 L48.1570505,46.7809607 Z M43.491475,5 C47.884795,5 51.4294056,8.54461053 51.4294056,12.9379306 L51.4294056,12.9379306 L51.4290341,36.5239979 C49.3283613,35.5851619 48.2011561,34.5435595 48.2011561,34.5435595 C48.2011561,34.5435595 46.2512272,36.3454061 42.7011561,37.3454061 C40.2206874,38.0439146 38.2544232,38.1898663 37.0452613,38.1898663 C36.178784,38.1898663 35.7011561,38.1149373 35.7011561,38.1149373 L35.7018317,38.1561509 C35.7057445,38.3571238 35.7307162,39.2893265 35.8751859,40.8695867 L35.8976991,41.1107842 L35.8976991,41.1107842 L15.6338316,41.1117599 C14.1860329,41.1117599 13.0377788,42.260014 13.0377788,43.7078127 C13.0377788,45.1556114 14.1860329,46.3038655 15.6338316,46.3038655 L15.6338316,46.3038655 L36.5710624,46.3029205 C36.6124312,46.5610741 36.6557647,46.8247887 36.7011561,47.0939856 C37.1979516,50.0404081 38.2008691,52.3855536 39.3863517,54.1762043 L12.9379306,54.1752306 C8.54461053,54.1752306 5,50.6306201 5,46.2373 L5,46.2373 L5,12.9379306 C5,8.54461053 8.54461053,5 12.9379306,5 L12.9379306,5 Z M48.1570505,39 L48.1570505,46.7806753 L55.314101,46.7809607 C55.3299387,46.6936304 55.3450397,46.6059195 55.3594041,46.5178282 C55.7118838,44.3576869 55.9000018,42.6478961 56,41.4663682 C54.9685273,41.405294 53.5859561,41.2189323 51.9561518,40.7446087 C50.6803038,40.3781336 49.4602526,39.8293483 48.3313567,39.1141573 C48.2704002,39.0761049 48.2122981,39.0380524 48.1570505,39 L48.1570505,39 Z M40.795574,29.5293705 L15.6338316,29.5293705 C14.1860329,29.5293705 13.0377788,30.6776247 13.0377788,32.1254233 C13.0377788,33.573222 14.1860329,34.7214761 15.6338316,34.7214761 L15.6338316,34.7214761 L40.795574,34.7214761 C42.2433726,34.7214761 43.3916268,33.573222 43.3916268,32.1254233 C43.3916268,30.6776247 42.2433726,29.5293705 40.795574,29.5293705 L40.795574,29.5293705 Z M17.4509101,19.8740706 L16.9860085,19.8740706 C15.9264102,19.8718737 14.9094412,20.2822583 14.159398,21.0147127 C13.4093548,21.747167 12.9878547,22.7415208 12.9878547,23.7784655 L12.9878547,24.9861809 C12.9878547,25.3569461 13.1383586,25.7125257 13.4062573,25.9746963 C13.674156,26.2368668 14.0375046,26.3841528 14.4163705,26.3841528 L24.8724301,26.3841528 C25.6613776,26.3841528 26.3009459,25.7582594 26.3009459,24.9861809 L26.3009459,23.7784655 C26.3009459,22.7386416 25.8771459,21.741764 25.1234384,21.0088304 C24.3697308,20.2758968 23.348408,19.8674616 22.2858867,19.8740706 L21.787174,19.8740706 C21.1073456,20.1761531 20.3698878,20.3340228 19.6232684,20.3373039 C18.8739374,20.3339435 18.1337388,20.1761037 17.4509101,19.8740706 Z M40.8288567,16.1330725 L31.4431274,16.1330725 C29.9953287,16.1330725 28.8470746,17.2813266 28.8470746,18.7291253 C28.8470746,20.176924 29.9953287,21.3251781 31.4431274,21.3251781 L31.4431274,21.3251781 L40.8288567,21.3251781 C42.2267313,21.3251781 43.4249095,20.176924 43.4249095,18.7291253 C43.4249095,17.2813266 42.2766554,16.1330725 40.8288567,16.1330725 L40.8288567,16.1330725 Z M19.6486267,12.2389933 C17.5478789,12.2389933 15.8448864,13.9055732 15.8448864,15.9614037 C15.8448864,18.0172342 17.5478789,19.6838141 19.6486267,19.6838141 C21.7493745,19.6838141 23.452367,18.0172342 23.452367,15.9614037 C23.452367,13.9055732 21.7493745,12.2389933 19.6486267,12.2389933 Z" id="形状" fill="#FFFFFF" opacity="0.95656622"></path>
        </g>
    </g>
</svg>