<?xml version="1.0" encoding="UTF-8"?>
<svg width="60px" height="60px" viewBox="0 0 60 60" version="1.1" xmlns="http://www.w3.org/2000/svg" xmlns:xlink="http://www.w3.org/1999/xlink">
    <title>客户资产图查询</title>
    <g id="pad" stroke="none" stroke-width="1" fill="none" fill-rule="evenodd">
        <g id="客户资产图查询" fill-rule="nonzero">
            <rect id="矩形" fill="#000000" opacity="0" x="0" y="0" width="60" height="60"></rect>
            <g id="编组-72" transform="translate(8.000000, 7.000000)" fill="#FFFFFF" opacity="0.95656622">
                <path d="M0,13.5001483 L0,42.7501483 C0,43.992789 1.00735932,45.0001483 2.25000001,45.0001483 L42.75,45.0001483 C43.9926407,45.0001483 45,43.992789 45,42.7501483 L45,13.5001483 L0,13.5001483 Z M29.25,27.0001483 L40.275,27.0001483 L40.275,31.5001483 L29.25,31.5001483 L29.25,27.0001483 Z M19.6875,28.7776483 L19.6875,31.9951483 L15.1875,31.9951483 L15.1875,33.2551483 L19.6875,33.2551483 L19.6875,36.4951483 L15.1875,36.4951483 L15.1875,40.2751483 L11.25,40.2751483 L11.25,36.4951483 L6.54750002,36.4951483 L6.54750002,33.2551483 L11.25,33.2551483 L11.25,31.9951483 L6.54750002,31.9951483 L6.54750002,28.7776483 L10.125,28.7776483 L5.15250002,20.2501483 L9.405,20.2501483 L9.58500002,20.6101483 C11.2725,23.6926483 12.4875,25.9876484 13.23,27.3601483 L14.0625,25.7626483 L17.1,20.2501483 L21.195,20.2501483 L16.1775,28.7776483 L19.6875,28.7776483 Z M40.5,36.0001483 L40.5,40.5001483 L24.75,40.5001483 L24.75,36.0001483 L40.5,36.0001483 Z M21.3075,0.000148325485 L21.3075,11.2501483 L0,11.2501483 L6.86249998,0.990148319 C7.28603924,0.363435595 7.99614086,-0.00852238683 8.7525,0.000148325485 L8.7525,0.000148325485 L21.3075,0.000148325485 Z M36.2025,0.000148325485 C36.955168,0.00404228266 37.6560372,0.384031593 38.07,1.01264831 L45,11.2501483 L23.625,11.2501483 L23.625,0.000148325485 L36.2025,0.000148325485 Z" id="形状"></path>
            </g>
        </g>
    </g>
</svg>