<?xml version="1.0" encoding="UTF-8"?>
<svg width="60px" height="60px" viewBox="0 0 60 60" version="1.1" xmlns="http://www.w3.org/2000/svg" xmlns:xlink="http://www.w3.org/1999/xlink">
    <title>客户积分权益查询</title>
    <g id="pad" stroke="none" stroke-width="1" fill="none" fill-rule="evenodd">
        <g id="客户积分权益查询" fill-rule="nonzero">
            <rect id="矩形" fill="#000000" opacity="0" x="0" y="0" width="60" height="60"></rect>
            <g id="形状-8" transform="translate(7.000000, 7.000000)" fill="#FFFFFF" opacity="0.95656622">
                <path d="M33.750425,28 C39.0913307,28 43.4838514,32.3426056 43.4838514,37.6335964 C43.4838514,39.9796017 42.6352962,42.125947 41.187761,43.8230573 L43.2342763,46.2688926 C43.5836814,46.6682127 43.5337664,47.3171078 43.1344463,47.6665129 L42.9847013,47.7663429 C42.5853812,48.1157479 41.9364862,48.0658329 41.5870811,47.6665129 L39.6403958,45.3205075 C37.9932006,46.5683827 35.9966003,47.2671928 33.80034,47.2671928 C28.4095192,47.2172778 24.0169986,42.9245872 24.0169986,37.6335964 C24.0169986,32.3426056 28.4095192,28 33.750425,28 Z M17.5140437,0 C18.5958538,0 19.6520285,0.369148462 20.4979938,1.04592064 C21.0004458,1.45095854 21.4208649,1.94828355 21.7233616,2.51226037 C21.8207757,2.6968346 22.010477,2.80962996 22.2155595,2.80962996 L22.2155595,2.80962996 L26.0352207,2.80962996 C27.0093625,2.80962996 27.8707089,3.31720909 28.3577798,4.09139545 C28.460321,4.25546144 28.6397682,4.34774855 28.8294695,4.34774855 L28.8294695,4.34774855 L30.6700847,4.34774855 C33.0695497,4.34774855 35.0280874,6.30115916 35.0280874,8.70575123 L35.0280874,8.70575123 L35.0283398,23.0050276 C35.0306895,23.1901254 35.0492419,23.9540941 35.0756719,25.0981964 C34.5597849,25.0334598 34.0337999,25 33.5,25 C30.1186546,25 27.050889,26.3425944 24.8007118,28.5237745 C25.0006851,28.1836115 25.0672042,27.8545136 25.0672042,27.5667804 C25.0672042,27.1820139 24.9433713,26.6866822 24.4922656,26.1913505 C24.9389487,25.704864 25.0672042,25.2183775 25.0672042,24.8159205 C25.0672042,24.4223087 24.9389487,23.9181318 24.46573,23.4139549 C24.9301035,22.9186232 25.0672042,22.4232915 25.0672042,22.0119893 C25.0672042,21.6272227 24.9433713,21.1363136 24.4922656,20.6365593 C24.9345261,20.1500728 25.0672042,19.6680089 25.0672042,19.2611293 C25.0716268,18.8984758 24.9610617,18.4385249 24.5674499,17.9697288 C24.9522165,17.5142006 25.0716268,17.0586723 25.0716268,16.6783284 C25.0716268,15.8689917 24.5453369,14.7323824 22.0332976,13.9274684 C20.4146244,13.4100237 18.282929,13.1225544 16.0274008,13.1225544 C13.7364917,13.1225544 11.5738381,13.4144463 9.9463197,13.9495814 C7.49177424,14.7544954 6.97875213,15.877837 6.97875213,16.6783284 C6.97875213,17.0586723 7.09373985,17.5142006 7.48292904,17.9697288 C7.08931724,18.4429475 6.97875213,18.9028984 6.97875213,19.2611293 C6.97875213,19.6635863 7.11143026,20.1500728 7.55369071,20.6365593 C7.10258506,21.131891 6.97875213,21.6272227 6.97875213,22.0119893 C6.97875213,22.4232915 7.11585287,22.9230458 7.58022633,23.4139549 C7.10700766,23.9225544 6.97875213,24.4267313 6.97875213,24.8159205 C6.97875213,25.1653062 7.08489464,25.6783284 7.55369071,26.1913505 C7.09816245,26.6866822 6.97875213,27.1820139 6.97875213,27.5667804 C6.97875213,28.3761171 7.50504206,29.5127264 10.0170814,30.3176404 C11.6357546,30.8350851 13.7674499,31.1225544 16.0229782,31.1225544 C18.2785064,31.1225544 20.4102018,30.8395077 22.028875,30.3176404 C22.9057566,30.0366678 23.5406727,29.7152777 23.995701,29.3814993 C22.1275786,31.5658032 21,34.4012216 21,37.5 C21,40.7479008 22.2387147,43.7064843 24.2694833,45.9290898 L4.92197949,45.9282211 C2.20463665,45.9282211 0,43.7235845 0,41.0062416 L0,41.0062416 L0,8.70575123 C0,6.30115916 1.95341061,4.34774855 4.35800267,4.34774855 L4.35800267,4.34774855 L6.19349086,4.34774855 C6.38319215,4.34774855 6.56263932,4.25033437 6.66518056,4.09139545 C7.15225145,3.31720909 8.01359786,2.80962996 8.98773963,2.80962996 L8.98773963,2.80962996 L12.8074008,2.80962996 C13.0124833,2.80962996 13.2021846,2.69170753 13.2995988,2.51226037 C13.6020954,1.94828355 14.0225145,1.45095854 14.5249666,1.04592064 C15.3709318,0.374275524 16.4322336,0 17.5140437,0 Z M33.750425,30.6335964 C29.8867886,30.6335964 26.6595159,33.8154146 26.6595159,37.6335964 C26.6595159,41.4517782 29.7958795,44.6335964 33.750425,44.6335964 C37.7049704,44.6335964 40.8413341,41.5426873 40.8413341,37.6335964 C40.8413341,33.7245055 37.6140613,30.6335964 33.750425,30.6335964 Z M7.18301382,9.59273295 L6.75746768,9.59273295 C5.79358003,9.59273295 5.00913955,10.3771734 5.00913955,11.3410611 L5.00913955,40.5499331 C5.00913955,41.5138208 5.79358003,42.2982613 6.75746768,42.2982613 L19.90749,42.2982613 C20.1740972,42.2982613 20.3945609,42.0777976 20.3945609,41.8111904 C20.3945609,41.5445831 20.1740972,41.3241195 19.90749,41.3241195 L6.75746768,41.3241195 C6.33192153,41.3241195 5.98840838,40.9806063 5.98840838,40.5550602 L5.98840838,11.3410611 C5.98840838,10.9155149 6.33192153,10.5720018 6.75746768,10.5720018 L6.78823005,10.5720018 C7.15225145,10.5720018 7.45987517,10.8283549 7.54190816,11.1872492 C7.67521177,11.7614802 8.19304503,12.1921534 8.80829247,12.1921534 L26.0659831,12.1921534 C26.6812305,12.1921534 27.1990638,11.7614802 27.3323674,11.1872492 C27.4144004,10.8334819 27.7220241,10.5720018 28.0860455,10.5720018 L28.1168078,10.5720018 C28.542354,10.5720018 28.8858671,10.9155149 28.8858671,11.3410611 L28.8858671,24.1843513 L28.8807401,24.1843513 L28.8807401,24.3894338 C28.8807401,24.656041 29.1012037,24.8765047 29.367811,24.8765047 C29.6344182,24.8765047 29.8548819,24.656041 29.8548819,24.3894338 L29.8548819,11.3410611 C29.8548819,10.3771734 29.0704414,9.59273295 28.1065537,9.59273295 L27.6810076,9.59273295 C27.0657601,9.59273295 26.5479269,10.0234062 26.4146233,10.5976371 C26.3325903,10.9514044 26.0249666,11.2128845 25.6609452,11.2128845 L9.20307624,11.2128845 C8.83905484,11.2128845 8.53143112,10.9565314 8.44939813,10.5976371 C8.31609452,10.0234062 7.79826126,9.59273295 7.18301382,9.59273295 Z M16.027145,14.1636202 C18.0217673,14.1636202 19.906881,14.4178367 21.3383159,14.8754266 C23.5597776,15.587233 24.0251895,16.5923662 24.0251895,17.3080836 C24.0251895,17.6444317 23.9195918,18.0472672 23.5793327,18.4501027 C23.9274139,18.8646712 24.0251895,19.2714178 24.0212785,19.5921217 C24.0212785,19.951936 23.9039477,20.3782376 23.5128453,20.8084503 C23.9117698,21.250396 24.0212785,21.6845197 24.0212785,22.0247788 C24.0212785,22.388504 23.9000367,22.8265388 23.4893792,23.2645735 C23.9078588,23.7104302 24.0212785,24.156287 24.0212785,24.5043681 C24.0212785,24.8602713 23.9078588,25.290484 23.5128453,25.7206967 C23.9117698,26.1587314 24.0212785,26.5967661 24.0212785,26.9370252 C24.0212785,27.6527426 23.5558666,28.6578758 21.3344048,29.3696822 C19.90297,29.8311831 18.0178563,30.0814886 16.023234,30.0814886 C14.0286116,30.0814886 12.143498,29.8272721 10.7120631,29.3696822 C8.49060136,28.6578758 8.02518948,27.6527426 8.02518948,26.9370252 C8.02518948,26.5967661 8.13078713,26.1587314 8.53362262,25.7206967 C8.11905406,25.2670179 8.02518948,24.813339 8.02518948,24.5043681 C8.02518948,24.160198 8.13860918,23.7143412 8.55708877,23.2645735 C8.14643123,22.8304498 8.02518948,22.388504 8.02518948,22.0247788 C8.02518948,21.6845197 8.13469816,21.246485 8.53362262,20.8084503 C8.1425202,20.3782376 8.02518948,19.9480249 8.02518948,19.5921217 C8.02518948,19.2753288 8.12296508,18.8685823 8.47104624,18.4501027 C8.12687611,18.0472672 8.02518948,17.6444317 8.02518948,17.3080836 C8.02518948,16.6001882 8.47886829,15.6067881 10.6494867,14.8949817 C12.0887436,14.4217477 14.0012345,14.1636202 16.027145,14.1636202 Z M22.0227451,26.6867196 C21.8154608,26.7727622 21.5847104,26.8548937 21.3344048,26.9370252 C19.90297,27.398526 18.0178563,27.6488316 16.023234,27.6488316 C14.4353581,27.6488316 12.9178808,27.4884796 11.6272428,27.1873307 C11.017123,27.0465339 10.4813127,26.8783598 10.0237228,26.6867196 C9.90248109,26.7688511 9.83208266,26.8392496 9.78906139,26.8861819 C9.76168422,26.9174701 9.76168422,26.9644024 9.78906139,26.9956906 C9.94159134,27.1638646 10.4070032,27.5041237 11.4864459,27.8130946 C12.7223295,28.1689978 14.3336715,28.364549 16.023234,28.364549 C17.7127964,28.364549 19.3241384,28.1689978 20.560022,27.8130946 C21.6433757,27.5041237 22.1087876,27.1677756 22.2574065,26.9956906 C22.2847837,26.9644024 22.2847837,26.9174701 22.2574065,26.8861819 C22.2143853,26.8392496 22.1439868,26.7688511 22.0227451,26.6867196 Z M21.9758128,24.2266854 C21.7802616,24.3088169 21.5690663,24.3870374 21.3344048,24.4613469 C19.90297,24.9228477 18.0178563,25.1731533 16.023234,25.1731533 C14.0286116,25.1731533 12.143498,24.9189367 10.7120631,24.4613469 C10.4813127,24.3831264 10.2662063,24.3088169 10.0706551,24.2266854 C9.92594724,24.32055 9.83990471,24.3987705 9.79297242,24.4535248 C9.76559525,24.484813 9.76559525,24.5317453 9.79297242,24.5630335 C9.82426061,24.5943217 9.82426061,24.645165 9.79297242,24.6764532 L9.79297242,24.6764532 L9.8172941,24.6565314 C9.84479349,24.6429651 9.8799927,24.6480983 9.90639212,24.6686312 C10.6651308,25.3061281 12.9687241,25.931892 16.023234,25.931892 C17.7127964,25.931892 19.3241384,25.7363408 20.560022,25.3765265 C21.6433757,25.0675556 22.1087876,24.7312075 22.2574065,24.5591225 C22.2847837,24.5278343 22.2847837,24.480902 22.2534955,24.4574358 C22.2065632,24.4026815 22.1244317,24.324461 21.9758128,24.2266854 Z M22.0188341,21.7705622 C21.8115498,21.8605158 21.5807994,21.9426473 21.3304938,22.0247788 C19.8990589,22.4862796 18.0139453,22.7365852 16.0193229,22.7365852 C14.0247006,22.7365852 12.1395869,22.4823686 10.7081521,22.0247788 C10.4578465,21.9426473 10.2270961,21.8566048 10.0198118,21.7705622 C9.90248109,21.8526937 9.83208266,21.9230922 9.78906139,21.9700245 C9.76168422,22.0013126 9.76168422,22.0482449 9.78123934,22.0795331 C9.93376929,22.2477072 10.3991812,22.5879663 11.4786238,22.8969372 C12.7145075,23.2528404 14.3258495,23.4483916 16.0154119,23.4483916 C17.7049744,23.4483916 19.3163163,23.2528404 20.5522,22.8969372 C21.6355537,22.5879663 22.1009656,22.2516182 22.2495845,22.0795331 C22.2769617,22.0482449 22.2769617,22.0013126 22.2495845,21.9700245 C22.2065632,21.9191811 22.1361648,21.8526937 22.0188341,21.7705622 Z M22.1478979,19.4317697 C21.9054144,19.5373674 21.6355537,19.639054 21.3344048,19.7368296 C19.90297,20.1983305 18.0178563,20.448636 16.023234,20.448636 C14.0286116,20.448636 12.143498,20.1944195 10.7120631,19.7368296 C10.4070032,19.639054 10.1410536,19.5373674 9.89857007,19.4317697 C9.84772676,19.474791 9.81252754,19.5099902 9.78906139,19.5373674 C9.76168422,19.5686556 9.76168422,19.6155879 9.78906139,19.6468761 C9.94159134,19.8150501 10.4070032,20.1553092 11.4864459,20.4642801 C12.7223295,20.8201833 14.3336715,21.0157345 16.023234,21.0157345 C17.7127964,21.0157345 19.3241384,20.8201833 20.560022,20.4642801 C21.6433757,20.1553092 22.1087876,19.8189611 22.2574065,19.6468761 C22.2847837,19.6155879 22.2847837,19.5686556 22.2574065,19.5373674 C22.2339404,19.5099902 22.1987412,19.474791 22.1478979,19.4317697 Z M16.023234,15.8805598 C14.2006967,15.8805598 12.4329138,16.1152212 11.181386,16.5219677 C10.3092276,16.8074725 9.92203622,17.0968883 9.78906139,17.2494182 C9.76168422,17.2807064 9.76168422,17.3276387 9.78906139,17.3589269 C9.93768031,17.531012 10.4030922,17.8673601 11.4864459,18.180242 C12.7223295,18.5361452 14.3336715,18.7316964 16.023234,18.7316964 C17.7127964,18.7316964 19.3241384,18.5361452 20.560022,18.180242 C21.6433757,17.8673601 22.1087876,17.531012 22.2574065,17.3589269 C22.2847837,17.3276387 22.2847837,17.2846175 22.2574065,17.2533293 C22.1087876,17.0812442 21.6433757,16.7448961 20.560022,16.4320142 C19.3241384,16.076111 17.7127964,15.8805598 16.023234,15.8805598 Z M17.5242978,2.66094516 C16.3502006,2.66094516 15.39144,3.61457869 15.39144,4.78867588 C15.39144,5.01426661 15.4273295,5.23985733 15.5042354,5.460321 C15.5042354,5.46544806 15.5042354,5.47057512 15.4991083,5.47057512 L9.81319661,5.47057512 C9.3158716,5.47057512 8.9108337,5.87561302 8.9108337,6.37293803 L8.9108337,9.98238966 C8.9108337,10.4797147 9.3158716,10.8847526 9.81319661,10.8847526 L25.230272,10.8847526 C25.727597,10.8847526 26.1326349,10.4797147 26.1326349,9.98238966 L26.1326349,6.37293803 C26.1326349,5.87561302 25.727597,5.47057512 25.230272,5.47057512 L19.5443602,5.47057512 C19.5392332,5.47057512 19.5341061,5.46544806 19.5392332,5.460321 C19.611012,5.23985733 19.6520285,5.01426661 19.6520285,4.78867588 C19.6520285,3.61457869 18.698395,2.66094516 17.5242978,2.66094516 Z M17.5242978,3.63508694 C18.1600535,3.63508694 18.6727597,4.1529202 18.6727597,4.78867588 C18.6727597,4.93223362 18.6419973,5.07579135 18.5855996,5.21934909 C18.4574231,5.54235399 18.5240749,5.91150245 18.7753009,6.17298261 C18.949621,6.35242978 19.19572,6.4447169 19.441819,6.4447169 L25.148239,6.4447169 C25.153366,6.4447169 25.153366,6.44984396 25.153366,6.44984396 L25.153366,9.89010254 C25.153366,9.8952296 25.148239,9.8952296 25.148239,9.8952296 L9.8952296,9.8952296 L9.89074342,9.89266607 L9.89010254,6.44984396 C9.89010254,6.4447169 9.8952296,6.4447169 9.8952296,6.4447169 L15.6016496,6.44984396 C15.8528756,6.44984396 16.0989746,6.35755684 16.2732947,6.17298261 C16.5193937,5.91150245 16.5860455,5.54235399 16.4578689,5.21934909 C16.4014712,5.08091841 16.3707089,4.93223362 16.3707089,4.78867588 C16.3707089,4.1529202 16.8885421,3.63508694 17.5242978,3.63508694 Z" id="形状"></path>
            </g>
        </g>
    </g>
</svg>