<?xml version="1.0" encoding="UTF-8"?>
<svg width="60px" height="60px" viewBox="0 0 60 60" version="1.1" xmlns="http://www.w3.org/2000/svg" xmlns:xlink="http://www.w3.org/1999/xlink">
    <title>存单激活</title>
    <g id="pad" stroke="none" stroke-width="1" fill="none" fill-rule="evenodd">
        <g id="存单激活" fill-rule="nonzero">
            <rect id="矩形" fill="#000000" opacity="0" x="0" y="0" width="60" height="60"></rect>
            <path d="M47.8945312,3.75585938 C49.8398438,3.75585938 51.4277344,5.31445312 51.46875,7.265625 L51.46875,7.265625 L51.46875,52.6640625 C51.46875,54.6386719 49.8632812,56.2441406 47.8945312,56.2441406 L47.8945312,56.2441406 L12.1054688,56.2441406 C10.1308594,56.2441406 8.52539062,54.6386719 8.52539062,52.6640625 L8.52539062,52.6640625 L8.52539062,7.27148438 C8.61328125,7.265625 8.68945312,7.25976562 8.77148438,7.25976562 L8.77148438,7.25976562 L8.52539062,7.25976562 C8.56640625,5.31445312 10.1484375,3.75585938 12.0996094,3.75585938 L12.0996094,3.75585938 Z M41.4470088,39.1899569 C41.2001468,38.9426663 40.8067105,38.9362376 40.5684201,39.1740994 L40.5684201,39.1740994 L39.1669639,40.5755556 L37.2074966,40.5755556 C36.858204,40.5755556 36.5753413,40.8489896 36.5753413,41.1858534 L36.5753413,41.1858534 L36.5753413,43.1671781 L35.1743137,44.5686344 C34.9360233,44.8069248 34.9428806,45.2003611 35.1897426,45.4472231 L35.1897426,45.4472231 L36.5753413,46.8328219 L36.5753413,48.8145752 C36.5753413,49.151439 36.858204,49.4244444 37.2074966,49.4244444 L37.2074966,49.4244444 L39.1669639,49.4244444 L40.5529912,50.8104717 C40.7998532,51.0573337 41.1932895,51.064191 41.4311514,50.8259006 L41.4311514,50.8259006 L42.8326076,49.4244444 L44.7925034,49.424873 C45.1413674,49.424873 45.4242301,49.151439 45.4242301,48.8145752 L45.4242301,48.8145752 L45.4242301,46.8328219 L46.8256863,45.4317942 C47.0639767,45.1935038 47.0571194,44.8000675 46.8102574,44.5532055 L46.8102574,44.5532055 L45.4242301,43.1671781 L45.4246587,41.1858534 C45.4246587,40.8489896 45.141796,40.5755556 44.7925034,40.5755556 L44.7925034,40.5755556 L42.8326076,40.5755556 Z M42.6706044,43.1260345 C42.9080973,42.8803467 43.2992096,42.8719316 43.5470502,43.107177 C43.7948858,43.3420815 43.8056261,43.7333327 43.5710507,43.9814799 L43.5710507,43.9814799 L40.5795631,47.1486852 C40.458275,47.2768306 40.2572711,47.286688 40.1244113,47.1709714 L40.1244113,47.1709714 L38.4949506,45.7506577 C38.2493743,45.5333677 38.2270882,45.1639318 38.4413781,44.9222128 C38.6599099,44.6753639 39.034216,44.6447389 39.2899663,44.8527828 L39.2899663,44.8527828 L40.2469852,45.6327982 Z M26.1796875,40.6640625 L17.625,40.6640625 C16.59375,40.6640625 15.75,41.5078125 15.75,42.5390625 C15.75,43.5703125 16.59375,44.4140625 17.625,44.4140625 L17.625,44.4140625 L26.1796875,44.4140625 C27.2109375,44.4140625 28.0546875,43.5703125 28.0546875,42.5390625 C28.0546875,41.5078125 27.2109375,40.6640625 26.1796875,40.6640625 L26.1796875,40.6640625 Z M33.2124066,21.9013709 L29.5407833,21.9013709 L32.4064387,28.5282579 L29.5407833,28.5282579 L29.6302829,30.8566256 L33.1228707,30.8566256 L33.5706045,31.6625935 L33.5706045,32.3790255 L29.5407833,32.3790255 L29.5407833,34.6178029 L33.5706045,34.6178029 L33.5706045,37.7521565 L37.0631923,37.7521565 L37.0631923,34.6178029 L41.0034775,34.6178029 L41.0034775,32.3790255 L37.0631923,32.3790255 L37.0631923,31.6625935 L37.510926,30.8566256 L41.0034594,30.8566256 L41.0034594,28.5282579 L38.675128,28.5282579 L41.5407833,21.9013709 L37.9587141,21.9013709 L35.5407833,28.7969018 L33.2124066,21.9013709 Z M26.4650342,28.125 L17.625,28.125 C16.59375,28.125 15.75,28.96875 15.75,30 C15.75,31.03125 16.59375,31.875 17.625,31.875 L17.625,31.875 L26.4650342,31.875 C27.4962842,31.875 28.3400342,31.03125 28.3400342,30 C28.3400342,28.96875 27.4962842,28.125 26.4650342,28.125 L26.4650342,28.125 Z M36.375,15.5859375 L17.625,15.5859375 C16.59375,15.5859375 15.75,16.4296875 15.75,17.4609375 C15.75,18.4921875 16.59375,19.3359375 17.625,19.3359375 L17.625,19.3359375 L36.375,19.3359375 C37.40625,19.3359375 38.25,18.4921875 38.25,17.4609375 C38.25,16.4296875 37.40625,15.5859375 36.375,15.5859375 L36.375,15.5859375 Z" id="形状" fill="#FFFFFF" opacity="0.962425595"></path>
        </g>
    </g>
</svg>