<?xml version="1.0" encoding="UTF-8"?>
<svg width="60px" height="60px" viewBox="0 0 60 60" version="1.1" xmlns="http://www.w3.org/2000/svg" xmlns:xlink="http://www.w3.org/1999/xlink">
    <title>存单现金开立</title>
    <g id="pad" stroke="none" stroke-width="1" fill="none" fill-rule="evenodd">
        <g id="存单现金开立" fill-rule="nonzero">
            <rect id="矩形" fill="#000000" opacity="0" x="0" y="0" width="60" height="60"></rect>
            <path d="M47.8945312,3.75585938 C49.8398438,3.75585938 51.4277344,5.31445312 51.46875,7.265625 L51.46875,7.265625 L51.46875,52.6640625 C51.46875,54.6386719 49.8632812,56.2441406 47.8945312,56.2441406 L47.8945312,56.2441406 L12.1054688,56.2441406 C10.1308594,56.2441406 8.52539062,54.6386719 8.52539062,52.6640625 L8.52539062,52.6640625 L8.52539062,7.27148438 C8.61328125,7.265625 8.68945312,7.25976562 8.77148438,7.25976562 L8.77148438,7.25976562 L8.52539062,7.25976562 C8.56640625,5.31445312 10.1484375,3.75585938 12.0996094,3.75585938 L12.0996094,3.75585938 Z M26.1796875,40.6640625 L17.625,40.6640625 C16.59375,40.6640625 15.75,41.5078125 15.75,42.5390625 C15.75,43.5703125 16.59375,44.4140625 17.625,44.4140625 L17.625,44.4140625 L26.1796875,44.4140625 C27.2109375,44.4140625 28.0546875,43.5703125 28.0546875,42.5390625 C28.0546875,41.5078125 27.2109375,40.6640625 26.1796875,40.6640625 L26.1796875,40.6640625 Z M35.2124066,26.9013709 L31.5407833,26.9013709 L34.4064387,33.5282579 L31.5407833,33.5282579 L31.6302829,35.8566256 L35.1228707,35.8566256 L35.5706045,36.6625935 L35.5706045,37.3790255 L31.5407833,37.3790255 L31.5407833,39.6178029 L35.5706045,39.6178029 L35.5706045,42.7521565 L39.0631923,42.7521565 L39.0631923,39.6178029 L43.0034775,39.6178029 L43.0034775,37.3790255 L39.0631923,37.3790255 L39.0631923,36.6625935 L39.510926,35.8566256 L43.0034594,35.8566256 L43.0034594,33.5282579 L40.675128,33.5282579 L43.5407833,26.9013709 L39.9587141,26.9013709 L37.5407833,33.7969018 L35.2124066,26.9013709 Z M26.4650342,28.125 L17.625,28.125 C16.59375,28.125 15.75,28.96875 15.75,30 C15.75,31.03125 16.59375,31.875 17.625,31.875 L17.625,31.875 L26.4650342,31.875 C27.4962842,31.875 28.3400342,31.03125 28.3400342,30 C28.3400342,28.96875 27.4962842,28.125 26.4650342,28.125 L26.4650342,28.125 Z M36.375,15.5859375 L17.625,15.5859375 C16.59375,15.5859375 15.75,16.4296875 15.75,17.4609375 C15.75,18.4921875 16.59375,19.3359375 17.625,19.3359375 L17.625,19.3359375 L36.375,19.3359375 C37.40625,19.3359375 38.25,18.4921875 38.25,17.4609375 C38.25,16.4296875 37.40625,15.5859375 36.375,15.5859375 L36.375,15.5859375 Z" id="形状" fill="#FFFFFF" opacity="0.962425595"></path>
        </g>
    </g>
</svg>