<?xml version="1.0" encoding="UTF-8"?>
<svg width="60px" height="60px" viewBox="0 0 60 60" version="1.1" xmlns="http://www.w3.org/2000/svg" xmlns:xlink="http://www.w3.org/1999/xlink">
    <title>存单挂失销户</title>
    <g id="pad" stroke="none" stroke-width="1" fill="none" fill-rule="evenodd">
        <g id="存单挂失销户" fill-rule="nonzero">
            <rect id="矩形" fill="#000000" opacity="0" x="0" y="0" width="60" height="60"></rect>
            <path d="M45,37 C51.0752984,37 56,41.9247016 56,48 C56,54.0748393 51.0752984,59 45,59 C38.9247016,59 34,54.0752984 34,48 C34,41.9247016 38.9247016,37 45,37 Z M47.8945312,3.75585938 C49.8398438,3.75585938 51.4277344,5.31445312 51.46875,7.265625 L51.46875,7.265625 L51.4689443,35.5963329 C49.4225378,34.4252356 47.0521348,33.7558594 44.5253906,33.7558594 C36.7934041,33.7558594 30.5253906,40.0238729 30.5253906,47.7558594 C30.5253906,50.9476457 31.5934991,53.889962 33.3917799,56.2448718 L12.1054688,56.2441406 C10.1308594,56.2441406 8.52539062,54.6386719 8.52539062,52.6640625 L8.52539062,52.6640625 L8.52539062,7.27148438 C8.61328125,7.265625 8.68945312,7.25976562 8.77148438,7.25976562 L8.77148438,7.25976562 L8.52539062,7.25976562 C8.56640625,5.31445312 10.1484375,3.75585938 12.0996094,3.75585938 L12.0996094,3.75585938 Z M45.0000864,39.9996458 C40.5811436,39.9996458 36.9996458,43.5815842 36.9996458,47.9996458 C36.9996458,52.418148 40.5815842,55.9996458 45.0000864,55.9996458 C49.418148,55.9996458 52.9996458,52.418148 52.9996458,47.9996458 C52.9996458,43.5811436 49.418148,39.9996458 45.0000864,39.9996458 Z M48.0598958,47.0207188 C48.8883229,47.0207188 49.5598958,47.6922916 49.5598958,48.5207188 C49.5598958,49.3491459 48.8883229,50.0207188 48.0598958,50.0207188 L41.9401042,50.0207188 C41.111677,50.0207188 40.4401042,49.3491459 40.4401042,48.5207188 C40.4401042,47.6922916 41.111677,47.0207188 41.9401042,47.0207188 L48.0598958,47.0207188 Z M26.1796875,40.6640625 L17.625,40.6640625 C16.59375,40.6640625 15.75,41.5078125 15.75,42.5390625 C15.75,43.5703125 16.59375,44.4140625 17.625,44.4140625 L17.625,44.4140625 L26.1796875,44.4140625 C27.2109375,44.4140625 28.0546875,43.5703125 28.0546875,42.5390625 C28.0546875,41.5078125 27.2109375,40.6640625 26.1796875,40.6640625 L26.1796875,40.6640625 Z M32.5520601,21.9013709 L29.5407833,21.9013709 L31.8910467,27.3364032 L29.5407833,27.3364032 L29.6141863,29.2460107 L32.4786274,29.2460107 L32.8458356,29.9070241 L32.8458356,30.4946048 L29.5407833,30.4946048 L29.5407833,32.330735 L32.8458356,32.330735 L32.8458356,34.9013709 L35.7102766,34.9013709 L35.7102766,32.330735 L38.9418962,32.330735 L38.9418962,30.4946048 L35.7102766,30.4946048 L35.7102766,29.9070241 L36.0774848,29.2460107 L38.9418813,29.2460107 L38.9418813,27.3364031 L37.0323035,27.3364032 L39.3825668,21.9013709 L36.4447376,21.9013709 L34.4616825,27.5567311 L32.5520601,21.9013709 Z M26.4650342,28.125 L17.625,28.125 C16.59375,28.125 15.75,28.96875 15.75,30 C15.75,31.03125 16.59375,31.875 17.625,31.875 L17.625,31.875 L26.4650342,31.875 C27.4962842,31.875 28.3400342,31.03125 28.3400342,30 C28.3400342,28.96875 27.4962842,28.125 26.4650342,28.125 L26.4650342,28.125 Z M22.140625,24.515625 L19.25,24.515625 L19.25,27.25 L22.140625,27.25 L22.140625,24.515625 Z M15.6412468,14.9562608 L15.578125,15.21875 L17.0253534,15.684855 C16.2858198,15.9364074 15.75,16.6391369 15.75,17.4609375 C15.75,18.4921875 16.59375,19.3359375 17.625,19.3359375 L17.625,19.3359375 L20.5419198,19.3360811 C19.5102826,20.5309941 19.5102826,20.5309941 19.4826172,22.0173828 L19.484375,22.25 L19.484375,22.953125 L21.90625,22.953125 L21.90625,22.328125 C21.75,21 21.75,21 23.3125,19.984375 C23.7726065,19.6658397 23.7726065,19.6658397 24.1614511,19.3366152 L36.375,19.3359375 C37.40625,19.3359375 38.25,18.4921875 38.25,17.4609375 C38.25,16.4296875 37.40625,15.5859375 36.375,15.5859375 L36.375,15.5859375 L26.2801097,15.5865165 C26.2856611,15.4424429 26.2856611,15.4424429 26.28125,15.296875 C25.890625,11.078125 25.890625,11.078125 21.515625,10.84375 C16.738511,10.6920956 16.738511,10.6920956 15.6412468,14.9562608 Z M21.359375,13.1875 C23.390625,13.34375 23.390625,13.34375 23.625,15.21875 C23.6514851,15.4041457 23.6514851,15.4041457 23.6480412,15.5865485 L18.091154,15.5861557 C18.7506793,13.0425725 18.7506793,13.0425725 21.359375,13.1875 Z" id="形状" fill="#FFFFFF" opacity="0.962425595"></path>
        </g>
    </g>
</svg>