<?xml version="1.0" encoding="UTF-8"?>
<svg width="60px" height="60px" viewBox="0 0 60 60" version="1.1" xmlns="http://www.w3.org/2000/svg" xmlns:xlink="http://www.w3.org/1999/xlink">
    <title>存单挂失补开</title>
    <g id="pad" stroke="none" stroke-width="1" fill="none" fill-rule="evenodd">
        <g id="存单挂失补开" fill-rule="nonzero">
            <rect id="矩形" fill="#000000" opacity="0" x="0" y="0" width="60" height="60"></rect>
            <path d="M47.8945312,3.75585938 C49.8398438,3.75585938 51.4277344,5.31445312 51.46875,7.265625 L51.46875,7.265625 L51.46875,52.6640625 C51.46875,54.6386719 49.8632812,56.2441406 47.8945312,56.2441406 L47.8945312,56.2441406 L12.1054688,56.2441406 C10.1308594,56.2441406 8.52539062,54.6386719 8.52539062,52.6640625 L8.52539062,52.6640625 L8.52539062,7.27148438 C8.61328125,7.265625 8.68945312,7.25976562 8.77148438,7.25976562 L8.77148438,7.25976562 L8.52539062,7.25976562 C8.56640625,5.31445312 10.1484375,3.75585938 12.0996094,3.75585938 L12.0996094,3.75585938 Z M45.1833742,36.5721173 L37.8825766,44.1233755 L34.9996975,41.7736935 C34.2292873,41.1469916 33.101745,41.2392451 32.44345,41.982841 C31.797933,42.7109842 31.8650668,43.8238556 32.59321,44.4693726 L32.6048293,44.4784099 L37.5133408,48.7568968 C37.9135614,49.105476 38.5190564,49.0757822 38.884419,48.689763 L47.8958368,39.1490212 C48.6024607,38.4015141 48.5701073,37.2229274 47.8235389,36.5153118 C47.0769552,35.8066694 45.8987869,35.8320188 45.1833742,36.5721173 Z M26.1796875,40.6640625 L17.625,40.6640625 C16.59375,40.6640625 15.75,41.5078125 15.75,42.5390625 C15.75,43.5703125 16.59375,44.4140625 17.625,44.4140625 L17.625,44.4140625 L26.1796875,44.4140625 C27.2109375,44.4140625 28.0546875,43.5703125 28.0546875,42.5390625 C28.0546875,41.5078125 27.2109375,40.6640625 26.1796875,40.6640625 L26.1796875,40.6640625 Z M34.5520601,27.9013709 L31.5407833,27.9013709 L33.8910467,33.3364032 L31.5407833,33.3364032 L31.6141863,35.2460107 L34.4786274,35.2460107 L34.8458356,35.9070241 L34.8458356,36.4946048 L31.5407833,36.4946048 L31.5407833,38.330735 L34.8458356,38.330735 L34.8458356,40.9013709 L37.7102766,40.9013709 L37.7102766,38.330735 L40.9418962,38.330735 L40.9418962,36.4946048 L37.7102766,36.4946048 L37.7102766,35.9070241 L38.0774848,35.2460107 L40.9418813,35.2460107 L40.9418813,33.3364031 L39.0323035,33.3364032 L41.3825668,27.9013709 L38.4447376,27.9013709 L36.4616825,33.5567311 L34.5520601,27.9013709 Z M26.4650342,28.125 L17.625,28.125 C16.59375,28.125 15.75,28.96875 15.75,30 C15.75,31.03125 16.59375,31.875 17.625,31.875 L17.625,31.875 L26.4650342,31.875 C27.4962842,31.875 28.3400342,31.03125 28.3400342,30 C28.3400342,28.96875 27.4962842,28.125 26.4650342,28.125 L26.4650342,28.125 Z M23.140625,23.515625 L20.25,23.515625 L20.25,26.25 L23.140625,26.25 L23.140625,23.515625 Z M16.6412468,13.9562608 L16.578125,14.21875 L19,15 C19.546875,12.03125 19.546875,12.03125 22.359375,12.1875 C24.390625,12.34375 24.390625,12.34375 24.625,14.21875 C24.7258163,14.9244639 24.7258163,14.9244639 24.3929719,15.5868118 L17.625,15.5859375 C16.59375,15.5859375 15.75,16.4296875 15.75,17.4609375 C15.75,18.4921875 16.59375,19.3359375 17.625,19.3359375 L17.625,19.3359375 L20.878616,19.3357976 C20.4992465,20.1239344 20.4992465,20.1239344 20.4826172,21.0173828 L20.484375,21.25 L20.484375,21.953125 L22.90625,21.953125 L22.90625,21.328125 C22.7763431,20.2239161 22.7763431,20.2239161 23.8344931,19.3357176 L36.375,19.3359375 C37.40625,19.3359375 38.25,18.4921875 38.25,17.4609375 C38.25,16.4296875 37.40625,15.5859375 36.375,15.5859375 L36.375,15.5859375 L27.1164266,15.5862345 C27.3012513,14.9569167 27.3012513,14.9569167 27.28125,14.296875 C26.890625,10.078125 26.890625,10.078125 22.515625,9.84375 C17.738511,9.69209559 17.738511,9.69209559 16.6412468,13.9562608 Z" id="形状" fill="#FFFFFF" opacity="0.962425595"></path>
        </g>
    </g>
</svg>