<?xml version="1.0" encoding="UTF-8"?>
<svg width="60px" height="60px" viewBox="0 0 60 60" version="1.1" xmlns="http://www.w3.org/2000/svg" xmlns:xlink="http://www.w3.org/1999/xlink">
    <title>存单补开</title>
    <g id="pad" stroke="none" stroke-width="1" fill="none" fill-rule="evenodd">
        <g id="存单补开" fill-rule="nonzero">
            <rect id="矩形" fill="#000000" opacity="0" x="0" y="0" width="60" height="60"></rect>
            <path d="M47.8945312,3.75585938 C49.8398438,3.75585938 51.4277344,5.31445312 51.46875,7.265625 L51.46875,7.265625 L51.46875,52.6640625 C51.46875,54.6386719 49.8632812,56.2441406 47.8945312,56.2441406 L47.8945312,56.2441406 L12.1054688,56.2441406 C10.1308594,56.2441406 8.52539062,54.6386719 8.52539062,52.6640625 L8.52539062,52.6640625 L8.52539062,7.27148438 C8.61328125,7.265625 8.68945312,7.25976562 8.77148438,7.25976562 L8.77148438,7.25976562 L8.52539062,7.25976562 C8.56640625,5.31445312 10.1484375,3.75585938 12.0996094,3.75585938 L12.0996094,3.75585938 Z M41.6777344,38.4785156 C40.6464844,38.4785156 39.8027344,39.3222656 39.8027344,40.3535156 L39.8027344,40.3535156 L39.8023906,42.7558594 L37.4003906,42.7558594 C36.4182478,42.7558594 35.6061729,43.5211655 35.5310596,44.4848843 L35.5253906,44.6308594 C35.5253906,45.6621094 36.3691406,46.5058594 37.4003906,46.5058594 L37.4003906,46.5058594 L39.8023906,46.5058594 L39.8027344,48.9082031 C39.8027344,49.890346 40.5680405,50.7024208 41.5317593,50.7775342 L41.6777344,50.7832031 C42.7089844,50.7832031 43.5527344,49.9394531 43.5527344,48.9082031 L43.5527344,48.9082031 L43.5523906,46.5058594 L45.9550781,46.5058594 C46.937221,46.5058594 47.7492958,45.7405533 47.8244092,44.7768344 L47.8300781,44.6308594 C47.8300781,43.5996094 46.9863281,42.7558594 45.9550781,42.7558594 L45.9550781,42.7558594 L43.5523906,42.7558594 L43.5527344,40.3535156 C43.5527344,39.3713728 42.7874283,38.5592979 41.8237094,38.4841846 Z M26.1796875,42.6640625 L17.625,42.6640625 C16.59375,42.6640625 15.75,43.5078125 15.75,44.5390625 C15.75,45.5703125 16.59375,46.4140625 17.625,46.4140625 L17.625,46.4140625 L26.1796875,46.4140625 C27.2109375,46.4140625 28.0546875,45.5703125 28.0546875,44.5390625 C28.0546875,43.5078125 27.2109375,42.6640625 26.1796875,42.6640625 L26.1796875,42.6640625 Z M35.2124066,21.9013709 L31.5407833,21.9013709 L34.4064387,28.5282579 L31.5407833,28.5282579 L31.6302829,30.8566256 L35.1228707,30.8566256 L35.5706045,31.6625935 L35.5706045,32.3790255 L31.5407833,32.3790255 L31.5407833,34.6178029 L35.5706045,34.6178029 L35.5706045,37.7521565 L39.0631923,37.7521565 L39.0631923,34.6178029 L43.0034775,34.6178029 L43.0034775,32.3790255 L39.0631923,32.3790255 L39.0631923,31.6625935 L39.510926,30.8566256 L43.0034594,30.8566256 L43.0034594,28.5282579 L40.675128,28.5282579 L43.5407833,21.9013709 L39.9587141,21.9013709 L37.5407833,28.7969018 L35.2124066,21.9013709 Z M26.4650342,28.125 L17.625,28.125 C16.59375,28.125 15.75,28.96875 15.75,30 C15.75,31.03125 16.59375,31.875 17.625,31.875 L17.625,31.875 L26.4650342,31.875 C27.4962842,31.875 28.3400342,31.03125 28.3400342,30 C28.3400342,28.96875 27.4962842,28.125 26.4650342,28.125 L26.4650342,28.125 Z M36.375,13.5859375 L17.625,13.5859375 C16.59375,13.5859375 15.75,14.4296875 15.75,15.4609375 C15.75,16.4921875 16.59375,17.3359375 17.625,17.3359375 L17.625,17.3359375 L36.375,17.3359375 C37.40625,17.3359375 38.25,16.4921875 38.25,15.4609375 C38.25,14.4296875 37.40625,13.5859375 36.375,13.5859375 L36.375,13.5859375 Z" id="形状" fill="#FFFFFF" opacity="0.962425595"></path>
        </g>
    </g>
</svg>