<?xml version="1.0" encoding="UTF-8"?>
<svg width="60px" height="60px" viewBox="0 0 60 60" version="1.1" xmlns="http://www.w3.org/2000/svg" xmlns:xlink="http://www.w3.org/1999/xlink">
    <title>存单转账开立</title>
    <g id="pad" stroke="none" stroke-width="1" fill="none" fill-rule="evenodd">
        <g id="存单转账开立" fill-rule="nonzero">
            <rect id="矩形" fill="#000000" opacity="0" x="0" y="0" width="60" height="60"></rect>
            <path d="M47.8945312,3.75585938 C49.8398438,3.75585938 51.4277344,5.31445312 51.46875,7.265625 L51.46875,7.265625 L51.46875,52.6640625 C51.46875,54.6386719 49.8632812,56.2441406 47.8945312,56.2441406 L47.8945312,56.2441406 L12.1054688,56.2441406 C10.1308594,56.2441406 8.52539062,54.6386719 8.52539062,52.6640625 L8.52539062,52.6640625 L8.52539062,7.27148438 C8.61328125,7.265625 8.68945312,7.25976562 8.77148438,7.25976562 L8.77148438,7.25976562 L8.52539062,7.25976562 C8.56640625,5.31445312 10.1484375,3.75585938 12.0996094,3.75585938 L12.0996094,3.75585938 Z M48.2030918,35.4036155 C47.8591921,35.1230764 47.3917498,35.0473159 46.976846,35.2048723 C46.5619422,35.3624286 46.2626105,35.7293652 46.1916064,36.1674607 C45.3270733,41.5116664 40.6913872,45.4934873 35.218992,45.4934873 C30.5418983,45.4934873 26.4759882,42.5849209 24.8532458,38.4031118 L24.8532458,38.4031118 L27.6051385,37.8021238 L27.6755365,37.7772046 C27.763458,37.7329847 27.825583,37.64702 27.8375937,37.5460945 C27.852607,37.4199376 27.7860176,37.2981273 27.6717175,37.2426616 L27.6717175,37.2426616 L23.5289146,35.2164743 L23.5305665,35.2331101 C23.3160553,35.1361961 23.0716547,35.0990812 22.8218855,35.1394613 C22.1446487,35.2489497 21.6843977,35.8867166 21.7938861,36.5639534 C22.8521939,43.1065809 28.5223385,47.9777778 35.218992,47.9777778 L35.218992,47.9777778 C41.9156456,47.9767841 47.5857902,43.1055872 48.644098,36.5649471 C48.7151021,36.1268517 48.5469915,35.6841546 48.2030918,35.4036155 Z M19.9776819,40.6640625 L17.625,40.6640625 C16.59375,40.6640625 15.75,41.5078125 15.75,42.5390625 C15.75,43.5703125 16.59375,44.4140625 17.625,44.4140625 L17.625,44.4140625 L19.9776819,44.4140625 C21.0089319,44.4140625 21.8526819,43.5703125 21.8526819,42.5390625 C21.8526819,41.5078125 21.0089319,40.6640625 19.9776819,40.6640625 L19.9776819,40.6640625 Z M33.2124066,26.9013709 L29.5407833,26.9013709 L32.4064387,33.5282579 L29.5407833,33.5282579 L29.6302829,35.8566256 L33.1228707,35.8566256 L33.5706045,36.6625935 L33.5706045,37.3790255 L29.5407833,37.3790255 L29.5407833,39.6178029 L33.5706045,39.6178029 L33.5706045,42.7521565 L37.0631923,42.7521565 L37.0631923,39.6178029 L41.0034775,39.6178029 L41.0034775,37.3790255 L37.0631923,37.3790255 L37.0631923,36.6625935 L37.510926,35.8566256 L41.0034594,35.8566256 L41.0034594,33.5282579 L38.675128,33.5282579 L41.5407833,26.9013709 L37.9587141,26.9013709 L35.5407833,33.7969018 L33.2124066,26.9013709 Z M35.218992,20.7787715 C28.5223385,20.7787715 22.8521939,25.6499683 21.7938861,32.1916021 C21.722882,32.6296976 21.8909926,33.0723947 22.2348923,33.3529338 C22.578792,33.6334729 23.0462343,33.7092334 23.4611381,33.551677 C23.8760419,33.3941207 24.1753736,33.027184 24.2463777,32.5890886 C25.1109108,27.2438891 29.7465969,23.2620683 35.218992,23.2620683 C39.8961377,23.2620683 43.9620861,26.1699732 45.5847923,30.3522664 L45.5847923,30.3522664 L42.8338393,30.9534317 L42.7633489,30.9782018 C42.6752858,31.0222469 42.6129531,31.1081347 42.6007593,31.2090918 C42.5855171,31.3352883 42.6519703,31.4572684 42.7662666,31.512894 L42.7662666,31.512894 L46.9090695,33.5390813 L46.9084003,33.5228889 C47.122675,33.6194726 47.3667107,33.6564127 47.6160986,33.6160943 C48.2933354,33.5066059 48.7535864,32.868839 48.644098,32.1916021 C47.5857902,25.6489746 41.9156456,20.7777778 35.218992,20.7787715 Z M20.2630287,28.125 L17.625,28.125 C16.59375,28.125 15.75,28.96875 15.75,30 C15.75,31.03125 16.59375,31.875 17.625,31.875 L17.625,31.875 L20.2630287,31.875 C21.2942787,31.875 22.1380287,31.03125 22.1380287,30 C22.1380287,28.96875 21.2942787,28.125 20.2630287,28.125 L20.2630287,28.125 Z M36.349602,14.5859375 L17.625,14.5859375 C16.59375,14.5859375 15.75,15.4296875 15.75,16.4609375 C15.75,17.4921875 16.59375,18.3359375 17.625,18.3359375 L17.625,18.3359375 L36.349602,18.3359375 C37.380852,18.3359375 38.224602,17.4921875 38.224602,16.4609375 C38.224602,15.4296875 37.380852,14.5859375 36.349602,14.5859375 L36.349602,14.5859375 Z" id="形状" fill="#FFFFFF" opacity="0.962425595"></path>
        </g>
    </g>
</svg>