<?xml version="1.0" encoding="UTF-8"?>
<svg width="60px" height="60px" viewBox="0 0 60 60" version="1.1" xmlns="http://www.w3.org/2000/svg" xmlns:xlink="http://www.w3.org/1999/xlink">
    <title>存单转存</title>
    <g id="pad" stroke="none" stroke-width="1" fill="none" fill-rule="evenodd">
        <g id="存单转存" fill-rule="nonzero">
            <rect id="矩形" fill="#000000" opacity="0" x="0" y="0" width="60" height="60"></rect>
            <path d="M47.8945312,3.75585938 C49.8398438,3.75585938 51.4277344,5.31445312 51.46875,7.265625 L51.46875,7.265625 L51.46875,52.6640625 C51.46875,54.6386719 49.8632812,56.2441406 47.8945312,56.2441406 L47.8945312,56.2441406 L12.1054688,56.2441406 C10.1308594,56.2441406 8.52539062,54.6386719 8.52539062,52.6640625 L8.52539062,52.6640625 L8.52539062,7.27148438 C8.61328125,7.265625 8.68945312,7.25976562 8.77148438,7.25976562 L8.77148438,7.25976562 L8.52539062,7.25976562 C8.56640625,5.31445312 10.1484375,3.75585938 12.0996094,3.75585938 L12.0996094,3.75585938 Z M33.2124066,21.9013709 L29.5407833,21.9013709 L32.4064387,28.5282579 L29.5407833,28.5282579 L29.6302829,30.8566256 L33.1228707,30.8566256 L33.5706045,31.6625935 L33.5706045,32.3790255 L29.5407833,32.3790255 L29.5407833,34.6178029 L33.5706045,34.6178029 L33.5706045,37.7521565 L37.0631923,37.7521565 L37.0631923,34.6178029 L40.7519672,34.6170645 C40.7181569,34.7034695 40.6995885,34.7981814 40.6995885,34.8977072 L40.6995885,38.0135214 C34.6678424,39.0246914 30.4115226,43.6102293 30,49.5008818 C30.0235156,49.7477954 30.223398,49.9476778 30.4585538,49.9476778 C30.5291005,49.9476778 30.5996473,49.9278366 30.6602734,49.8980746 L30.7172252,49.8653733 L30.7172252,49.8653733 C31.7636684,49.101117 32.6572604,48.5249853 33.3627278,48.148736 C35.0676073,47.1728395 37.7131099,46.3968254 40.6878307,46.0793651 L40.6878307,48.9717813 C40.6878307,49.3833039 41.005291,49.712522 41.4050558,49.712522 C41.5696649,49.712522 41.7225161,49.6419753 41.8518518,49.547913 L49.7413286,42.4932392 L49.7413286,42.4932392 C49.9059377,42.3521458 50,42.1522634 50,41.9288654 C50,41.7172251 49.9059377,41.5173427 49.7648442,41.388007 L41.8753674,34.3333333 C41.7460318,34.2275132 41.5931805,34.1569665 41.4168137,34.1569665 C41.2620801,34.1569665 41.1196771,34.2062888 41.003241,34.2906153 L41.0034775,32.3790255 L37.0631923,32.3790255 L37.0631923,31.6625935 L37.510926,30.8566256 L41.0034594,30.8566256 L41.0034594,28.5282579 L38.675128,28.5282579 L41.5407833,21.9013709 L37.9587141,21.9013709 L35.5407833,28.7969018 L33.2124066,21.9013709 Z M26.1796875,40.6640625 L17.625,40.6640625 C16.59375,40.6640625 15.75,41.5078125 15.75,42.5390625 C15.75,43.5703125 16.59375,44.4140625 17.625,44.4140625 L17.625,44.4140625 L26.1796875,44.4140625 C27.2109375,44.4140625 28.0546875,43.5703125 28.0546875,42.5390625 C28.0546875,41.5078125 27.2109375,40.6640625 26.1796875,40.6640625 L26.1796875,40.6640625 Z M35.7495591,42.4226925 C35.808348,42.1875367 36.0787772,42.0582011 36.313933,42.175779 L36.313933,42.175779 L36.3806062,42.2178739 C36.5056569,42.3149528 36.5776434,42.4848408 36.537331,42.6460905 C36.4902998,42.8694885 36.4667842,42.9753086 36.4550264,43.1281599 C36.4432687,43.3162845 36.2786596,43.4691358 36.0787772,43.4691358 L36.0787772,43.4691358 L36.0082304,43.4691358 C35.7730747,43.4691358 35.5967078,43.2574956 35.6319812,43.0223398 C35.6554968,42.8106996 35.7025279,42.6108172 35.7495591,42.4226925 Z M39.1240447,39.4832451 C39.3474427,39.4479718 39.5708407,39.6243386 39.5825985,39.8712522 L39.5825985,39.8712522 L39.5825985,39.9300411 C39.5825985,40.1299236 39.4297472,40.2945326 39.2416226,40.3180482 C38.0658437,40.4708995 37.5132275,41.0235156 37.0546737,41.5878895 C36.9135803,41.7524985 36.6666667,41.7877719 36.4902998,41.6466784 L36.4902998,41.6466784 L36.4785421,41.6466784 C36.3021752,41.5055849 36.2669018,41.2351558 36.4079953,41.0587889 C37.2310406,39.9653145 38.4656085,39.600823 39.1240447,39.4832451 Z M26.4650342,28.125 L17.625,28.125 C16.59375,28.125 15.75,28.96875 15.75,30 C15.75,31.03125 16.59375,31.875 17.625,31.875 L17.625,31.875 L26.4650342,31.875 C27.4962842,31.875 28.3400342,31.03125 28.3400342,30 C28.3400342,28.96875 27.4962842,28.125 26.4650342,28.125 L26.4650342,28.125 Z M36.375,15.5859375 L17.625,15.5859375 C16.59375,15.5859375 15.75,16.4296875 15.75,17.4609375 C15.75,18.4921875 16.59375,19.3359375 17.625,19.3359375 L17.625,19.3359375 L36.375,19.3359375 C37.40625,19.3359375 38.25,18.4921875 38.25,17.4609375 C38.25,16.4296875 37.40625,15.5859375 36.375,15.5859375 L36.375,15.5859375 Z" id="形状" fill="#FFFFFF" opacity="0.962425595"></path>
        </g>
    </g>
</svg>