<?xml version="1.0" encoding="UTF-8"?>
<svg width="60px" height="60px" viewBox="0 0 60 60" version="1.1" xmlns="http://www.w3.org/2000/svg" xmlns:xlink="http://www.w3.org/1999/xlink">
    <title>综合签约</title>
    <g id="pad" stroke="none" stroke-width="1" fill="none" fill-rule="evenodd">
        <g id="综合签约" fill-rule="nonzero">
            <rect id="矩形" fill="#000000" opacity="0" x="0" y="0" width="60" height="60"></rect>
            <path d="M41.25,5.625 C44.3566017,5.625 46.875,8.14339828 46.875,11.25 L46.875,25.81875 C46.6125,26.11125 46.37625,26.43375 46.17375,26.78625 L36.735,43.1325 C36.1262452,44.1872238 35.8762219,45.4110222 36.0225,46.62 L36.51,50.65125 C36.6869742,52.1208923 37.4361204,53.4615406 38.595,54.3825 L11.25,54.375 C8.14339828,54.375 5.625,51.8566017 5.625,48.75 L5.625,11.25 C5.625,8.14339828 8.14339828,5.625 11.25,5.625 L41.25,5.625 Z M29.7055803,33.2624024 L22.34,44.604 L17.0466788,40.7592249 C16.2089142,40.1505533 15.0363461,40.3362699 14.4276745,41.1740344 C13.819003,42.0117989 14.0047195,43.184367 14.8424841,43.7930386 L21.560038,48.6736272 C22.3229206,49.2278939 23.3634303,49.1234354 24.0029539,48.4677334 C24.251569,48.3781125 24.4613263,48.2231396 24.6032038,48.0046674 L32.8505949,35.3047988 C33.2803032,34.643106 32.9246151,33.649492 32.0561433,33.0854998 C31.1876715,32.5215076 30.1352886,32.6007096 29.7055803,33.2624024 Z M36,25.875 L16.125,25.875 C15.0894661,25.875 14.25,26.7144661 14.25,27.75 C14.25,28.7855339 15.0894661,29.625 16.125,29.625 L36,29.625 C37.0355339,29.625 37.875,28.7855339 37.875,27.75 C37.875,26.7144661 37.0355339,25.875 36,25.875 Z M36,15 L16.125,15 C15.0894661,15 14.25,15.8394661 14.25,16.875 C14.25,17.9105339 15.0894661,18.75 16.125,18.75 L36,18.75 C37.0355339,18.75 37.875,17.9105339 37.875,16.875 C37.875,15.8394661 37.0355339,15 36,15 Z M39.285,44.17125 L48.72,27.82125 C49.0187593,27.3044605 49.5106346,26.9275719 50.0873533,26.7735458 C50.6640719,26.6195198 51.2783604,26.7009817 51.795,27 L56.0175,29.4375 C56.534926,29.735632 56.9126099,30.22723 57.0673538,30.8040026 C57.2220976,31.3807753 57.1412067,31.9954056 56.8425,32.5125 L47.40375,48.85875 C47.1597764,49.2793309 46.7861262,49.609564 46.33875,49.8 L42.60375,51.3975 C41.9522312,51.676619 41.2072774,51.6324211 40.5933332,51.2782225 C39.979389,50.9240239 39.5682363,50.3012373 39.48375,49.5975 L38.99625,45.5625 C38.9396978,45.0797347 39.0410012,44.5916368 39.285,44.17125 L39.285,44.17125 Z" id="形状" fill="#FFFFFF"></path>
        </g>
    </g>
</svg>