<?xml version="1.0" encoding="UTF-8"?>
<svg width="60px" height="61px" viewBox="0 0 60 61" version="1.1" xmlns="http://www.w3.org/2000/svg" xmlns:xlink="http://www.w3.org/1999/xlink">
    <title>定期存款转定期一本通</title>
    <g id="pad" stroke="none" stroke-width="1" fill="none" fill-rule="evenodd">
        <g id="定期存款转定期一本通" transform="translate(0.000000, 0.432480)" fill-rule="nonzero">
            <rect id="矩形" fill="#000000" opacity="0" x="0" y="0" width="60" height="60"></rect>
            <path d="M53.5,19.56752 L53.5,23.31752 L1,23.31752 L1,19.56752 C1,17.50502 2.6875,15.81752 4.75,15.81752 L49.75,15.81752 C51.8125,15.81752 53.5,17.50502 53.5,19.56752 Z M53.5,27.06752 L53.5007631,35.037036 C51.6192913,34.0966351 49.4964272,33.56752 47.25,33.56752 C39.5181111,33.56752 33.25,39.8356311 33.25,47.56752 C33.25,49.616824 33.69033,51.5632988 34.4815368,53.3174912 L4.75,53.31752 C2.6875,53.31752 1,51.63002 1,49.56752 L1,27.06752 L53.5,27.06752 Z M12.25,42.06752 L4.75,42.06752 L4.75,43.94252 L12.25,43.94252 L12.25,42.06752 Z M19.75,38.31752 L4.75,38.31752 L4.75,40.19252 L19.75,40.19252 L19.75,38.31752 Z M39.8571429,47.8532343 L42.7142857,51.4246629 L41.2401786,51.4246629 C42.2921429,53.54127 44.4759821,54.9960915 47,54.9960915 C49.355,54.9960915 51.4160268,53.7153325 52.5357143,51.8264486 C52.8169643,51.087654 53.3136607,50.7103772 54.0089286,50.7103772 C54.7979018,50.7103772 55.4375018,51.3499754 55.4375018,52.1389486 C55.4379545,52.4242336 55.352573,52.7030573 55.1924554,52.9391718 C53.6289286,55.8631004 50.5475,57.8532343 47,57.8532343 C42.8686161,57.8532343 39.3680357,55.1548861 38.1628571,51.4246629 L37,51.4246629 L39.8571429,47.8532343 Z M47,38.56752 C51.1313839,38.56752 54.6319643,41.2658682 55.8371429,44.9960915 L57,44.9960915 L54.1428571,48.56752 L51.2857143,44.9960915 L52.7598214,44.9960915 C51.7078571,42.8794843 49.5240179,41.4246629 47,41.4246629 C44.5718304,41.4246629 42.4686607,42.7860915 41.375,44.7728772 C41.1813839,45.3323415 40.6163839,45.7103772 39.9910714,45.7103772 C39.2020982,45.7103772 38.5624984,45.070779 38.5624984,44.2818057 C38.5620738,43.9985904 38.6462353,43.7217003 38.8041964,43.4866272 C40.3668304,40.5597522 43.4503571,38.56752 47,38.56752 Z M23.2302029,3.18283252 L23.4523904,3.23814502 L54.8511404,11.65127 C58.4723912,12.6216457 60.6712834,16.2893696 59.8208279,19.940645 L59.7645779,20.1628325 C58.7001395,24.1372329 57.9018107,27.1180331 57.3695915,29.1052333 C57.3047707,29.3472613 55.8872579,33.56752 55.032575,36.3176286 C54.7038206,36.0068188 54.2942507,35.4911394 54.0484813,35.306998 L54.0480816,33.5860028 C54.0480498,33.4885789 54.0480161,33.3910439 54.0479805,33.2934934 L54.0471101,31.5565538 C54.0470477,31.4622578 54.0469828,31.3685198 54.0469152,31.2754352 L54.0462331,30.4578978 C54.0461487,30.3695941 54.0460614,30.2822306 54.045971,30.1959028 L54.0450723,29.4494982 C54.0447434,29.2117384 54.0443841,28.9858806 54.0439916,28.774505 L54.0431618,28.3718279 C54.0415564,27.6717908 54.0394805,27.1895858 54.0367963,27.0524111 C54.504845,25.3057687 55.206918,22.685805 56.1430154,19.19252 C56.5829293,17.5513152 55.6633271,15.8524797 54.0486404,15.3234575 L53.8798904,15.2728325 L22.4820779,6.85970752 C20.840873,6.41979361 19.1420376,7.33939582 18.6130154,8.95408252 L18.5623904,9.12283252 L16.7689529,15.81752 L49.7867654,15.81752 L49.9620779,15.823145 C51.590838,15.9128644 52.8915402,17.2131628 52.9817654,18.841895 L52.9864529,19.018145 L6.32051537,19.0172075 C6.32051537,17.2500689 7.75306425,15.81752 9.52020287,15.81752 L12.8858279,15.8165825 L14.9398904,8.15158252 C15.9106762,4.53026159 19.5788988,2.33173398 23.2302029,3.18283252 Z" id="形状" fill="#FFFFFF" opacity="0.959984189"></path>
        </g>
    </g>
</svg>