<?xml version="1.0" encoding="UTF-8"?>
<svg width="60px" height="60px" viewBox="0 0 60 60" version="1.1" xmlns="http://www.w3.org/2000/svg" xmlns:xlink="http://www.w3.org/1999/xlink">
    <title>定期一本通子账户开立</title>
    <g id="pad" stroke="none" stroke-width="1" fill="none" fill-rule="evenodd">
        <g id="定期一本通子账户开立">
            <rect id="矩形" stroke="#979797" fill="#D8D8D8" opacity="0" x="0.5" y="0.5" width="59" height="59"></rect>
            <path d="M48.485125,33 C53.1714583,33 56.97025,36.7987917 56.97025,41.485125 C56.97025,46.1711042 53.1714583,49.97025 48.485125,49.97025 C43.7987917,49.97025 40,46.1714583 40,41.485125 C40,36.7987917 43.7987917,33 48.485125,33 Z M38.0027463,41.7336667 L38,41.5 C38,44.7526281 39.4789562,47.6598276 41.801078,49.5858076 L6,49.5855856 C4.34314575,49.5855856 3,48.2424398 3,46.5855856 L2.99974627,41.7336667 L38.0027463,41.7336667 Z M48.485125,35.0531042 C44.9324792,35.0531042 42.0531042,37.9328333 42.0531042,41.4847708 C42.0531042,45.0370625 44.9328333,47.9164375 48.485125,47.9164375 C52.0370625,47.9164375 54.9164375,45.0370625 54.9164375,41.4847708 C54.9164375,37.9324792 52.0370625,35.0531042 48.485125,35.0531042 Z M50.6904133,37.7121716 C50.8685446,37.358392 51.2851505,37.1818896 51.6700734,37.3144292 C52.0899893,37.4590178 52.3131862,37.9166391 52.1685975,38.336555 L52.1685975,38.336555 L49.7230855,45.4388375 L49.6794402,45.5419339 C49.62938,45.6405039 49.5607126,45.725153 49.4791726,45.7928021 C49.2708314,45.9728986 48.9749216,46.0403326 48.6910352,45.942566 L48.6910352,45.942566 L44.5943934,44.5031152 L44.4936704,44.4599597 C44.1401811,44.2794311 43.9647469,43.8618452 44.0975298,43.4762157 C44.2412125,43.0589308 44.6959666,42.8371324 45.1179952,42.9824652 L45.1179952,42.9824652 L48.463,44.157 L50.6479476,37.8129533 Z M53.3333333,10.6666667 C54.9901876,10.6666667 56.3333333,12.0098124 56.3333333,13.6666667 L56.3340243,34.5085583 C54.4111676,32.3554685 51.6138771,31 48.5,31 C43.4782677,31 39.2799087,34.5252798 38.2446841,39.2360782 L2.99974627,39.2356667 L3,13.6666667 C3,12.0098124 4.34314575,10.6666667 6,10.6666667 L53.3333333,10.6666667 Z M16.3744715,19.58 C13.9549593,19.58 11.9881301,21.5468293 11.9881301,23.9663415 C11.9881301,25.0590244 12.3939837,26.0580488 13.0495935,26.8229268 C11.3013008,27.9312195 10.1461789,29.882439 10.1461789,32.0834146 C10.1461789,32.7702439 10.7081301,33.3321951 11.3949593,33.3321951 C12.0817886,33.3321951 12.6437398,32.7702439 12.6437398,32.0834146 C12.6437398,30.0229268 14.3139837,28.3526829 16.3744715,28.3526829 C18.4349593,28.3526829 20.1052033,30.0229268 20.1052033,32.0834146 C20.1052033,32.7702439 20.6671545,33.3321951 21.3539837,33.3321951 C22.040813,33.3321951 22.6027642,32.7702439 22.6027642,32.0834146 C22.6027642,29.8668293 21.4476423,27.9312195 19.6993496,26.8229268 C20.3549593,26.0580488 20.760813,25.0590244 20.760813,23.9663415 C20.760813,21.5468293 18.7939837,19.58 16.3744715,19.58 Z M32.5855856,26.8468468 L25.4333094,26.8468468 C24.7926687,26.8468468 24.4723484,27.1671672 24.4723484,27.8078078 C24.4723484,28.4484485 24.7926687,28.7687688 25.4333094,28.7687688 L25.4333094,28.7687688 L32.5855856,28.7687688 C33.2262262,28.7687688 33.5465465,28.4484485 33.5465465,27.8078078 C33.5465465,27.1671672 33.2262262,26.8468468 32.5855856,26.8468468 L32.5855856,26.8468468 Z M16.3588618,22.077561 C17.4047154,22.077561 18.2476423,22.9204878 18.2476423,23.9663415 C18.2476423,25.0121951 17.4047154,25.855122 16.3588618,25.855122 C15.3286179,25.8707317 14.4700813,25.0121951 14.4700813,23.9663415 C14.4700813,22.9204878 15.3130081,22.077561 16.3588618,22.077561 Z M34.5075075,21.0810811 L25.4333094,21.0810811 C24.7926687,21.0810811 24.4723484,21.4014014 24.4723484,22.0420421 C24.4723484,22.6826827 24.7926687,23.003003 25.4333094,23.003003 L25.4333094,23.003003 L34.5075075,23.003003 C35.1481482,23.003003 35.4684685,22.6826827 35.4684685,22.0420421 C35.4684685,21.4014014 35.1481482,21.0810811 34.5075075,21.0810811 L34.5075075,21.0810811 Z" id="矩形-2" fill="#FFFFFF" opacity="0.959984189"></path>
        </g>
    </g>
</svg>