<?xml version="1.0" encoding="UTF-8"?>
<svg width="60px" height="60px" viewBox="0 0 60 60" version="1.1" xmlns="http://www.w3.org/2000/svg" xmlns:xlink="http://www.w3.org/1999/xlink">
    <title>电子现金圈提</title>
    <g id="pad" stroke="none" stroke-width="1" fill="none" fill-rule="evenodd">
        <g id="电子现金圈提" fill-rule="nonzero">
            <rect id="矩形" fill="#000000" opacity="0" x="0" y="0" width="60" height="60"></rect>
            <path d="M37,9 C42.5228475,9 47,13.4771525 47,19 C47,24.5228475 42.5228475,29 37,29 C35.7186751,29 34.4936359,28.7590126 33.3677339,28.3198895 C32.4371646,31.4222949 30.5285007,34.1018091 28.0001792,36.000964 L43.5299206,36.000977 C43.6764706,36.0083045 44.3382353,36.0705882 45,36.6 C45.6,37.35 56.4,46.35 57.3,46.95 C58.0434783,47.4456522 57.5586011,48.1460302 57.3674612,48.3746486 L57.3186406,48.4303731 C57.3068053,48.4431947 57.3,48.45 57.3,48.45 L48,57.9 C48,57.9 47.1,59.1 45.45,57.9 C45.1354839,57.6483871 44.3725286,57.0274714 43.5925548,56.391239 L43.2329294,56.0977946 C42.3983149,55.4165688 41.6209392,54.7807391 41.4396361,54.6324259 L41.4,54.6 C41.4,54.6 40.35,53.7 38.7,53.55 L18,53.55 C18,53.55 17.1,53.85 16.35,53.25 C15.9565574,52.9352459 13.0038027,50.4739721 9.87375045,47.8584086 L9.28536948,47.3666688 L8.69632238,46.8742311 C6.2454179,44.8250067 3.86803279,42.8336066 2.7,41.85 C2.1,41.1 2.7,39.9 2.7,39.9 C2.7,39.9 4.65,36.45 9.9,39.9 C10.621875,40.415625 11.4382812,40.9942708 12.267981,41.5799737 L12.7213745,41.8998115 C12.8726196,42.0064331 13.0238159,42.1129517 13.1744751,42.2190308 L13.624353,42.5356133 C15.2131645,43.6530685 16.6855371,44.6824243 17.4506126,45.2166452 L17.6412893,45.3497599 C17.8709595,45.5100627 18,45.6 18,45.6 L30,45.6 L33.45,43.35 C33.45,43.35 34.35,42.75 33.45,42.75 C32.694,42.708 31.85568,42.65424 31.0074816,42.5920128 L30.2797248,42.5366784 C28.3416,42.384 26.46,42.192 25.5,42 C23.7,41.7 22.65,40.2 22.65,38.7 L22.654517,38.5516736 C21.4847491,38.8445135 20.2605325,39 19,39 C10.7157288,39 4,32.2842712 4,24 C4,15.7157288 10.7157288,9 19,9 C22.8814452,9 26.4185606,10.474251 29.0819421,12.893349 C30.9094878,10.5250798 33.7766432,9 37,9 Z M15.0777778,18.2352924 C14.8505476,18.4236793 14.7076135,18.6947377 14.6805145,18.9886574 C14.6572868,19.2405886 14.7207989,19.4915675 14.8584109,19.7009326 L14.9333333,19.8019591 L16.8111111,22.0519591 L15.1111111,22.0519591 C14.5,22.0519591 14,22.5519591 14,23.1630702 C14,23.7334405 14.4355556,24.2070208 14.9904856,24.2676298 L15.1111111,24.2741813 L18.0722222,24.2741813 L18.0722222,26.1241813 L15.1111111,26.1241813 C14.5,26.1241813 14,26.6241813 14,27.2352924 C14,27.8056628 14.4355556,28.279243 14.9904856,28.3398521 L15.1111111,28.3464035 L18.0722222,28.3464035 L18.0722222,31.3075146 C18.0722222,31.9186258 18.5722222,32.4186258 19.1833333,32.4186258 C19.7537037,32.4186258 20.2272839,31.9830702 20.287893,31.4281401 L20.2944444,31.3075146 L20.2944444,28.3464035 L23.2555556,28.3464035 C23.8666667,28.3464035 24.3666667,27.8464036 24.3666667,27.2352924 C24.3666667,26.664922 23.9311111,26.1913418 23.3761811,26.1307327 L23.2555556,26.1241813 L20.2944444,26.1241813 L20.2944444,24.2741813 L23.2611111,24.2741813 C23.8722222,24.2741813 24.3722222,23.7741813 24.3722222,23.1630702 C24.3722222,22.5926998 23.9366666,22.1191196 23.3817366,22.0585105 L23.2611111,22.0519591 L21.5611111,22.0519591 L23.4388889,19.8019591 C23.8277778,19.3297369 23.7666667,18.6241813 23.2944444,18.2352924 C22.8559524,17.8741813 22.2210601,17.9010804 21.8167841,18.2848531 L21.7277778,18.3797369 L19.1833333,21.4297369 L16.6444444,18.3797369 C16.4560576,18.1525067 16.1849991,18.0095726 15.8910794,17.9824736 C15.5971597,17.9553746 15.3045362,18.0463381 15.0777778,18.2352924 Z M38.8950191,15.174114 L38.8185185,15.2531579 L37.1222222,17.2864912 L35.4296296,15.2531579 C35.3040384,15.1016711 35.1233327,15.0063817 34.9273863,14.9883157 C34.7314398,14.9702498 34.5363575,15.0308921 34.3851852,15.1568616 C34.2336984,15.2824528 34.138409,15.4631585 34.120343,15.659105 C34.1058902,15.8158621 34.1418107,15.9720663 34.2212535,16.1056778 L34.2888889,16.2013061 L35.5407407,17.7013061 L34.4074074,17.7013061 C34,17.7013061 33.6666667,18.0346394 33.6666667,18.4420468 C33.6666667,18.8155036 33.9467593,19.1267176 34.3072488,19.1759931 L34.4074074,19.1827875 L36.3814815,19.1827875 L36.3814815,20.4161209 L34.4074074,20.4161209 C34.0671939,20.4161209 33.7786353,20.6485679 33.6927056,20.9624879 C33.7347951,21.1692273 33.7730049,21.3772086 33.8068784,21.5866428 C33.9219265,21.7492236 34.1014918,21.8626829 34.3072488,21.8908079 L34.4074074,21.8976023 L36.3814815,21.8976023 L36.3814815,23.8716764 C36.3814815,24.2790838 36.7148148,24.6124172 37.1222222,24.6124172 C37.495679,24.6124172 37.806893,24.3323246 37.8561685,23.971835 L37.862963,23.8716764 L37.862963,21.8976023 L39.837037,21.8976023 C40.2444444,21.8976023 40.5777778,21.564269 40.5777778,21.1568616 C40.5777778,20.7834048 40.2976852,20.4721908 39.9371957,20.4229153 L39.837037,20.4161209 L37.862963,20.4161209 L37.862963,19.1827875 L39.8407407,19.1827875 C40.2481482,19.1827875 40.5814815,18.8494542 40.5814815,18.4420468 C40.5814815,18.06859 40.3013889,17.757376 39.9408993,17.7081005 L39.8407407,17.7013061 L38.7074074,17.7013061 L39.9592593,16.2013061 C40.2185185,15.8864912 40.1777778,15.4161209 39.862963,15.1568616 C39.5767677,14.9211714 39.165075,14.933415 38.8950191,15.174114 Z" id="形状" fill="#FFFFFF" opacity="0.961983817"></path>
        </g>
    </g>
</svg>