<?xml version="1.0" encoding="UTF-8"?>
<svg width="60px" height="60px" viewBox="0 0 60 60" version="1.1" xmlns="http://www.w3.org/2000/svg" xmlns:xlink="http://www.w3.org/1999/xlink">
    <title>电子现金余额查询</title>
    <g id="pad" stroke="none" stroke-width="1" fill="none" fill-rule="evenodd">
        <g id="电子现金余额查询" fill-rule="nonzero">
            <rect id="矩形" fill="#000000" opacity="0" x="0" y="0" width="60" height="60"></rect>
            <g id="形状-11" transform="translate(5.000000, 5.000000)" fill="#FFFFFF" opacity="0.961983817">
                <path d="M19.7127645,0.153468111 C17.0921037,0.487473895 13.3923473,1.74641878 11.0029213,3.13382742 C7.07193017,5.44617516 3.19232452,9.96809963 1.52229559,14.2330966 C-0.507431865,19.3973399 -0.507431865,25.614986 1.52229559,30.7792293 C3.65479407,36.2260928 8.69057359,41.2875651 14.1117444,43.3943708 C20.4064688,45.8608751 27.8059816,45.34702 33.5611582,42.0326549 L35.2825726,41.0306376 L39.0337145,44.8588577 C43.9410302,49.8689445 44.4034998,50.1772575 46.9470823,50.0487938 C47.9490996,49.9717155 49.9017488,48.0190663 49.9788271,47.017049 C50.1072909,44.4734664 49.7989778,44.0109969 44.7888911,39.1036811 L40.9606709,35.3525392 L41.9626883,33.6311248 C45.8679867,26.8482381 45.7909084,17.9328529 41.8085318,11.072888 C40.2669666,8.45222722 36.6185957,4.75247084 34.100706,3.28798393 C29.732938,0.693015917 24.543002,-0.4374652 19.7127645,0.153468111 Z M28.5253786,4.95801286 C31.4800452,6.03710847 33.3042306,7.19328234 35.5395001,9.40285907 C37.7490768,11.6124358 39.1107927,13.7963198 40.0871173,16.7252936 C40.7294361,18.5751718 40.7808217,19.1404123 40.7808217,22.5061629 C40.7808217,25.8719135 40.7294361,26.4371541 40.0871173,28.2870323 C39.1107927,31.2160061 37.7490768,33.39989 35.5138074,35.6094668 C33.2785379,37.8447363 31.0946539,39.2064521 28.2170656,40.157084 C26.3671874,40.7994028 25.8019469,40.8507883 22.4361963,40.8507883 C19.0704457,40.8507883 18.5052051,40.7994028 16.6553269,40.157084 C13.7263531,39.1807594 11.5424691,37.8190435 9.3328924,35.583774 C7.09762292,33.3485045 5.73590703,31.1646206 4.78527518,28.2870323 C4.14295637,26.4114613 4.09157086,25.8719135 4.09157086,22.3776992 C4.09157086,18.7036355 4.11726361,18.4210152 4.86235344,16.4169805 C5.99283456,13.4109285 7.14900843,11.6124358 9.3328924,9.40285907 C11.4653909,7.2703606 13.3409618,6.06280122 15.9616226,5.11216937 C18.5822834,4.13584477 19.4558369,4.03307376 23.0785151,4.11015202 C26.0074889,4.18723028 26.6755004,4.29000129 28.5253786,4.95801286 Z M20.2523123,6.31972875 C23.3868281,5.88295195 26.4442657,6.42249976 29.630167,7.91267941 C32.7132973,9.37716631 35.5651929,12.2290619 37.0296798,15.3121922 C38.3143174,18.035624 38.6997087,19.7056529 38.6997087,22.5061629 C38.6997087,25.306673 38.3143174,26.9767019 37.0296798,29.7001337 C35.5651929,32.783264 32.7132973,35.6351595 29.630167,37.0996464 C26.9067352,38.3842841 25.2367063,38.7696754 22.4361963,38.7696754 C19.6356862,38.7696754 17.9656573,38.3842841 15.2422255,37.0996464 C12.1590952,35.6351595 9.30719965,32.783264 7.84271275,29.7001337 C6.55807512,26.9767019 6.17268383,25.306673 6.17268383,22.5061629 C6.17268383,17.9842385 7.71424898,14.2844821 10.9772286,11.072888 C13.7777386,8.27237795 16.6553269,6.80789105 20.2523123,6.31972875 Z M17.151799,12.0078264 C16.6619329,11.9626614 16.1742271,12.1142672 15.7962963,12.4291911 C15.4175794,12.7431692 15.1793558,13.1949333 15.1341909,13.6847994 C15.0890259,14.1746656 15.2406317,14.6623714 15.5555556,15.0403022 L15.5555556,15.0403022 L18.6851852,18.7903022 L15.8518518,18.7903022 C14.8333333,18.7903022 14,19.6236355 14,20.642154 C14,21.6606725 14.8333333,22.4940058 15.8518518,22.4940058 L15.8518518,22.4940058 L20.7870371,22.4940058 L20.7870371,25.5773392 L15.8518518,25.5773392 C14.8333333,25.5773392 14,26.4106726 14,27.4291911 C14,28.4477096 14.8333333,29.2810429 15.8518518,29.2810429 L15.8518518,29.2810429 L20.7870371,29.2810429 L20.7870371,34.2162281 C20.7870371,35.2347466 21.6203704,36.06808 22.6388889,36.06808 C23.6574074,36.06808 24.4907407,35.2347466 24.4907407,34.2162281 L24.4907407,34.2162281 L24.4907407,29.2810429 L29.4259259,29.2810429 C30.4444444,29.2810429 31.2777778,28.4477096 31.2777778,27.4291911 C31.2777778,26.4106725 30.4444444,25.5773392 29.4259259,25.5773392 L29.4259259,25.5773392 L24.4907407,25.5773392 L24.4907407,22.4940058 L29.4351852,22.4940058 C30.4537037,22.4940058 31.2870371,21.6606725 31.2870371,20.642154 C31.2870371,19.6236355 30.4537037,18.7903022 29.4351852,18.7903022 L29.4351852,18.7903022 L26.6018518,18.7903022 L29.7314815,15.0403022 C30.3796296,14.2532651 30.2777778,13.0773392 29.4907407,12.4291911 C28.7037037,11.7810429 27.537037,11.8828947 26.8796296,12.6699318 L26.8796296,12.6699318 L22.6388889,17.7532651 L18.4074074,12.6699318 C18.0934293,12.2912149 17.6416652,12.0529914 17.151799,12.0078264 Z" id="形状"></path>
            </g>
        </g>
    </g>
</svg>