<?xml version="1.0" encoding="UTF-8"?>
<svg width="60px" height="60px" viewBox="0 0 60 60" version="1.1" xmlns="http://www.w3.org/2000/svg" xmlns:xlink="http://www.w3.org/1999/xlink">
    <title>电费缴费</title>
    <g id="pad" stroke="none" stroke-width="1" fill="none" fill-rule="evenodd">
        <g id="电费缴费">
            <rect id="矩形" fill="#000000" fill-rule="nonzero" opacity="0" x="0" y="0" width="60" height="60"></rect>
            <path d="M30,3 C44.9116882,3 57,15.0883118 57,30 C57,44.9116882 44.9116882,57 30,57 C15.0883118,57 3,44.9116882 3,30 C3,15.0883118 15.0883118,3 30,3 Z M36.3403461,10.156181 C35.8982493,9.91602968 35.355264,9.96433199 34.9625,10.27875 L34.9625,10.27875 L13.9725,27.08375 C13.5976354,27.3844953 13.4283879,27.8735242 13.5371549,28.3416491 C13.645922,28.809774 14.0134404,29.1740873 14.4825,29.27875 L14.4825,29.27875 L26.675,31.99125 L25.0125,48.62125 C24.9625249,49.1218744 25.2175571,49.6036676 25.6596539,49.843819 C26.1017507,50.0839703 26.644736,50.035668 27.0375,49.72125 L27.0375,49.72125 L48.0275,32.91625 C48.4023646,32.6155047 48.5716121,32.1264758 48.4628451,31.6583509 C48.354078,31.190226 47.9865596,30.8259127 47.5175,30.72125 L47.5175,30.72125 L35.325,28.00875 L36.9875,11.37875 C37.0374751,10.8781256 36.7824429,10.3963324 36.3403461,10.156181 Z M27.56875,19.05875 C27.9157022,18.7771765 28.3865689,18.7022158 28.803805,18.8621327 C29.2210412,19.0220496 29.5211845,19.3925203 29.5910628,19.8338551 C29.6609411,20.27519 29.4899258,20.7202611 29.1425,21.00125 L29.1425,21.00125 L23.31375,25.72125 C22.9667987,26.0028328 22.4959268,26.0777998 22.0786849,25.9178835 C21.6614429,25.7579672 21.3612958,25.3874917 21.2914192,24.9461513 C21.2215427,24.504811 21.3925653,24.0597361 21.74,23.77875 L21.74,23.77875 Z" id="椭圆形-5" fill="#FFFFFF" opacity="0.961983817"></path>
        </g>
    </g>
</svg>