<?xml version="1.0" encoding="UTF-8"?>
<svg width="60px" height="60px" viewBox="0 0 60 60" version="1.1" xmlns="http://www.w3.org/2000/svg" xmlns:xlink="http://www.w3.org/1999/xlink">
    <title>电子现金圈存</title>
    <g id="pad" stroke="none" stroke-width="1" fill="none" fill-rule="evenodd">
        <g id="电子现金圈存" fill-rule="nonzero">
            <rect id="矩形" fill="#000000" opacity="0" x="0" y="0" width="60" height="60"></rect>
            <path d="M30,5 C43.8071187,5 55,16.1928813 55,30 C55,43.8071187 43.8071187,55 30,55 C16.1928813,55 5,43.8071187 5,30 C5,16.1928813 16.1928813,5 30,5 Z M24.8184657,19.9707894 C24.3285995,19.9256244 23.8408937,20.0772301 23.4629629,20.392154 C23.084246,20.7061321 22.8460225,21.1578962 22.8008575,21.6477624 C22.7556926,22.1376286 22.9072983,22.6253344 23.2222222,23.0032651 L23.2222222,23.0032651 L26.3518518,26.7532651 L23.5185185,26.7532651 C22.5,26.7532651 21.6666667,27.5865985 21.6666667,28.605117 C21.6666667,29.6236355 22.5,30.4569688 23.5185185,30.4569688 L23.5185185,30.4569688 L28.4537037,30.4569688 L28.4537037,33.5403021 L23.5185185,33.5403021 C22.5,33.5403022 21.6666667,34.3736355 21.6666667,35.392154 C21.6666667,36.4106725 22.5,37.2440059 23.5185185,37.2440059 L23.5185185,37.2440059 L28.4537037,37.2440059 L28.4537037,42.179191 C28.4537037,43.1977096 29.2870371,44.0310429 30.3055556,44.0310429 C31.3240741,44.0310429 32.1574074,43.1977095 32.1574074,42.179191 L32.1574074,42.179191 L32.1574074,37.2440059 L37.0925926,37.2440059 C38.1111111,37.2440059 38.9444444,36.4106726 38.9444444,35.392154 C38.9444444,34.3736355 38.1111111,33.5403021 37.0925926,33.5403021 L37.0925926,33.5403021 L32.1574074,33.5403021 L32.1574074,30.4569688 L37.1018518,30.4569688 C38.1203704,30.4569688 38.9537037,29.6236355 38.9537037,28.605117 C38.9537037,27.5865985 38.1203703,26.7532651 37.1018518,26.7532651 L37.1018518,26.7532651 L34.2685185,26.7532651 L37.3981482,23.0032651 C38.0462963,22.2162281 37.9444444,21.0403022 37.1574074,20.392154 C36.3703703,19.7440059 35.2037037,19.8458577 34.5462963,20.6328948 L34.5462963,20.6328948 L30.3055556,25.7162281 L26.0740741,20.6328948 C25.760096,20.2541778 25.3083319,20.0159543 24.8184657,19.9707894 Z" id="形状" fill="#FFFFFF" opacity="0.961983817"></path>
        </g>
    </g>
</svg>