<?xml version="1.0" encoding="UTF-8"?>
<svg width="60px" height="60px" viewBox="0 0 60 60" version="1.1" xmlns="http://www.w3.org/2000/svg" xmlns:xlink="http://www.w3.org/1999/xlink">
    <title>电子现金</title>
    <defs>
        <rect id="path-1" x="0" y="0" width="60" height="60"></rect>
    </defs>
    <g id="pad" stroke="none" stroke-width="1" fill="none" fill-rule="evenodd">
        <g id="电子现金">
            <mask id="mask-2" fill="white">
                <use xlink:href="#path-1"></use>
            </mask>
            <use id="矩形" fill-opacity="0" fill="#D8D8D8" xlink:href="#path-1"></use>
            <g id="编组-10" mask="url(#mask-2)" fill="#FFFFFF" opacity="0.962960379">
                <g transform="translate(5.000000, 5.000000)" id="椭圆形-3">
                    <path d="M25,0 C38.8071187,0 50,11.1928813 50,25 C50,38.8071187 38.8071187,50 25,50 C11.1928813,50 0,38.8071187 0,25 C0,11.1928813 11.1928813,0 25,0 Z M19.0988104,14.2553267 C18.7432824,13.798325 18.0324633,13.4935784 17.3468277,13.8236861 C16.7121212,14.1284032 16.5343572,14.9662642 16.7882339,15.524858 L16.7882339,15.524858 L21.9934008,22.5074574 L15.5440045,22.5074574 C14.8076172,22.5074574 14.1982422,22.9898793 14.1982422,23.548473 C14.1982422,24.2340791 14.8076764,24.6657197 15.5440045,24.6657197 L15.5440045,24.6657197 L23.034446,24.6657197 L23.034446,27.9920099 L15.5440045,27.9920099 C14.8076172,27.9920099 14.1982422,28.44913 14.1982422,29.0584754 C14.1982422,29.6678208 14.8076764,30.1757221 15.5440045,30.1757221 L15.5440045,30.1757221 L23.0090554,30.1757221 L23.0090554,36.5743371 C23.0090554,37.1329309 23.6692708,37.7930871 24.4564098,37.7930871 C25.3196023,37.7930871 25.8528646,37.1329309 25.8528646,36.5743371 L25.8528646,36.5743371 L25.8528646,30.1757221 L33.6480232,30.1757221 C34.3843217,30.1757221 35.044478,29.6678504 35.044478,29.1092566 C35.044478,28.4490116 34.3843513,27.9920099 33.6480232,27.9920099 L33.6481712,27.9921875 L25.8530125,27.9668265 L25.8530125,24.6405362 L33.3434541,24.6405362 C34.0797526,24.6405362 34.7399089,24.2089252 34.7399089,23.5740708 C34.7399089,22.9392164 34.0797822,22.4822147 33.3434541,22.4822147 L33.3434541,22.4822147 L26.9956203,22.4822147 L32.4039714,15.8804155 C32.4039714,15.8804155 33.0133168,14.737719 32.0484434,14.1537642 C31.1343513,13.6205315 30.3726326,14.2806581 30.0171046,14.7885594 L30.0171046,14.7885594 L24.5071615,21.5426432 Z"></path>
                </g>
            </g>
        </g>
    </g>
</svg>