<?xml version="1.0" encoding="UTF-8"?>
<svg width="60px" height="60px" viewBox="0 0 60 60" version="1.1" xmlns="http://www.w3.org/2000/svg" xmlns:xlink="http://www.w3.org/1999/xlink">
    <title>刷脸取款</title>
    <g id="pad" stroke="none" stroke-width="1" fill="none" fill-rule="evenodd">
        <g id="刷脸取款">
            <rect id="矩形" stroke="#979797" fill="#D8D8D8" opacity="0" x="0.5" y="0.5" width="59" height="59"></rect>
            <path d="M6.66666667,18.6666667 L27.8750379,5.3681935 C29.1745125,4.55337241 30.8254875,4.55337241 32.1249621,5.3681935 L53.3333333,18.6666667 L53.3333333,18.6666667 L53.3333333,51.6666667 C53.3333333,53.3235209 51.9901876,54.6666667 50.3333333,54.6666667 L9.66666667,54.6666667 C8.00981242,54.6666667 6.66666667,53.3235209 6.66666667,51.6666667 L6.66666667,18.6666667 L6.66666667,18.6666667 Z M29.6179088,42.8613293 C25.9094452,42.8613293 23.3036195,41.0250998 23.1415992,40.9080852 C22.3359985,40.3275126 22.155976,39.202372 22.7365486,38.3967713 C23.3171212,37.5956711 24.4377613,37.4111481 25.243362,37.9872201 C25.4368862,38.122237 29.3928807,40.8045723 34.0509629,37.9197116 C34.8970687,37.3976464 36.0042071,37.658679 36.5307729,38.5047848 C37.0528381,39.3508905 36.7918055,40.4580289 35.9456998,40.9845948 C33.6684151,42.3887703 31.5036445,42.8613293 29.6179088,42.8613293 Z M13.3978813,30.2282502 C12.403257,30.2282502 11.5976562,29.4226495 11.5976562,28.4280252 L11.5976562,23.5134109 C11.5976562,19.7734434 14.059464,16.7265625 17.0883426,16.7265625 L23.2991189,16.7265625 C24.2937433,16.7265625 25.099344,17.5321632 25.099344,18.5267875 C25.099344,19.5214119 24.2937433,20.3270126 23.2991189,20.3270126 L17.0883426,20.3270126 C16.1972312,20.3270126 15.1981063,21.690683 15.1981063,23.5134109 L15.1981063,28.4280252 C15.1981063,29.4226495 14.3925056,30.2282502 13.3978813,30.2282502 Z M23.2991189,52.7220619 L17.0883426,52.7220619 C14.059464,52.7220619 11.5976562,49.6796816 11.5976562,45.9352136 L11.5976562,41.0250998 C11.5976562,40.0304755 12.403257,39.2248748 13.3978813,39.2248748 C14.3925056,39.2248748 15.1981063,40.0304755 15.1981063,41.0250998 L15.1981063,45.9397141 C15.1981063,47.762442 16.1972312,49.1261124 17.0883426,49.1261124 L23.2991189,49.1261124 C24.2937433,49.1261124 25.099344,49.9317131 25.099344,50.9263375 C25.099344,51.9164612 24.2892427,52.7220619 23.2991189,52.7220619 Z M45.7929307,30.2282502 C44.7983063,30.2282502 43.9927056,29.4226495 43.9927056,28.4280252 L43.9927056,23.5134109 C43.9927056,21.690683 42.9845796,20.3270126 42.0844671,20.3270126 L35.8961936,20.3270126 C34.9015692,20.3270126 34.0959685,19.5214119 34.0959685,18.5267875 C34.0959685,17.5321632 34.9015692,16.7265625 35.8961936,16.7265625 L42.0889677,16.7265625 C45.1268474,16.7265625 47.5976562,19.7689428 47.5976562,23.5134109 L47.5976562,28.4280252 C47.5931557,29.4226495 46.787555,30.2282502 45.7929307,30.2282502 Z M45.7974312,39.2248748 C46.7920555,39.2248748 47.5976562,40.0304755 47.5976562,41.0250998 L47.5976562,45.9397141 C47.5931557,49.6796816 45.1223468,52.7220619 42.0889677,52.7220619 L35.8961936,52.7220619 C34.9015692,52.7220619 34.0959685,51.9164612 34.0959685,50.9218369 C34.0959685,49.9272126 34.9015692,49.1216119 35.8961936,49.1216119 L42.0889677,49.1216119 C42.9890802,49.1216119 43.9972062,47.7579414 43.9972062,45.9352136 L43.9972062,41.0250998 C43.9972062,40.0304755 44.8028069,39.2248748 45.7974312,39.2248748 Z M24.1992314,27.7529408 C25.1934683,27.7529408 25.9994565,28.760426 25.9994565,30.0032221 C25.9994565,31.2460181 25.1934683,32.2535034 24.1992314,32.2535034 C23.2049946,32.2535034 22.3990064,31.2460181 22.3990064,30.0032221 C22.3990064,28.760426 23.2049946,27.7529408 24.1992314,27.7529408 Z M34.9960811,27.7529408 C35.9903179,27.7529408 36.7963061,28.760426 36.7963061,30.0032221 C36.7963061,31.2460181 35.9903179,32.2535034 34.9960811,32.2535034 C34.0018442,32.2535034 33.195856,31.2460181 33.195856,30.0032221 C33.195856,28.760426 34.0018442,27.7529408 34.9960811,27.7529408 Z" id="矩形-4" fill="#FFFFFF" opacity="0.958844866"></path>
        </g>
    </g>
</svg>