<?xml version="1.0" encoding="UTF-8"?>
<svg width="60px" height="60px" viewBox="0 0 60 60" version="1.1" xmlns="http://www.w3.org/2000/svg" xmlns:xlink="http://www.w3.org/1999/xlink">
    <title>理财产品兑付明细</title>
    <defs>
        <path d="M36.067018,0 C37.7238723,-3.04359188e-16 39.067018,1.34314575 39.067018,3 L39.067018,39 C39.067018,40.6568542 37.7238723,42 36.067018,42 L0,42 C2.16232574,41.5435038 3.24348861,40.8144489 3.24348861,39.812835 L3.24348861,3.00069264 L3.24348861,3.00069264 C3.24310615,1.34383843 4.58594176,0.000382614648 6.24279597,7.99584381e-08 L36.067018,0 Z M28.0203947,19.5690879 L19.9796053,19.5690879 C19.3823561,19.5702588 18.8330554,19.8963182 18.546,20.4200616 L18.546,20.4200616 L14.4969474,27.7621668 C14.2202992,28.2645465 14.2202992,28.8736293 14.4969474,29.376009 L14.4969474,29.376009 L18.546,36.7181142 C18.8330554,37.2418576 19.3823561,37.567917 19.9796053,37.5690879 L19.9796053,37.5690879 L28.0203947,37.5690879 C28.6176439,37.567917 29.1669446,37.2418576 29.454,36.7181142 L29.454,36.7181142 L33.5030526,29.376009 C33.7797008,28.8736293 33.7797008,28.2645465 33.5030526,27.7621668 L33.5030526,27.7621668 L29.454,20.4200616 C29.1669446,19.8963182 28.6176439,19.5702588 28.0203947,19.5690879 L28.0203947,19.5690879 Z M19.9877451,22.5430332 C20.3409306,22.3729877 20.7070887,22.5299692 20.8902287,22.7653805 L20.8902287,22.7653805 L23.6761855,26.5192324 L26.5144745,23.04006 L26.5603924,22.9786072 C26.7584448,22.7297521 27.1262127,22.4595132 27.5608604,22.7130635 C28.0578872,23.0138711 27.7440004,23.6024984 27.7440004,23.6024984 L27.7440004,23.6024984 L24.9580436,27.0032257 L28.227948,27.0032257 L28.3301937,27.0089543 C28.6662624,27.0467849 28.9472915,27.2683667 28.9472915,27.565664 C28.9472915,27.892691 28.607231,28.1150231 28.227948,28.1150231 L28.227948,28.1150231 L24.369462,28.1150231 L24.369462,29.828466 L28.3849142,29.84153 L28.4870838,29.847177 C28.8231524,29.8851058 29.1041816,30.1077686 29.1041816,30.4169561 C29.1041816,30.7046996 28.764121,30.9663151 28.384838,30.9663151 L28.384838,30.9663151 L24.3693858,30.9663151 L24.3693858,34.262378 L24.3626539,34.3418558 C24.3180367,34.6091403 24.0542684,34.8901821 23.6500422,34.8901821 C23.2445702,34.8901821 22.9044792,34.5501215 22.9044792,34.262378 L22.9044792,34.262378 L22.9044792,30.9663151 L19.0590725,30.9663151 L18.9574349,30.9599857 C18.62529,30.9183141 18.3658417,30.6761492 18.3658417,30.3907976 C18.3658417,30.0769108 18.6797437,29.8414385 19.0590725,29.8414385 L19.0590725,29.8414385 L22.9175584,29.8414385 L22.9175584,28.1279956 L19.0590725,28.1279956 L18.9574349,28.1225516 C18.62529,28.0864877 18.3658417,27.8735419 18.3658417,27.5524781 C18.3658417,27.2647345 18.6797437,27.0162287 19.0590725,27.0162287 L19.0590725,27.0162287 L22.3812939,27.0162287 L19.7000016,23.4193431 L19.6674518,23.3291228 C19.5898921,23.0480259 19.6934894,22.6843029 19.9877451,22.5430332 Z M18.3023121,16.0588235 L7.94937096,16.0588235 C7.39708621,16.0588235 6.94937096,16.5065388 6.94937096,17.0588235 L6.94937096,17.0588235 L6.94937096,17.5294118 C6.94937096,18.0816965 7.39708621,18.5294118 7.94937096,18.5294118 L7.94937096,18.5294118 L18.3023121,18.5294118 C18.8545969,18.5294118 19.3023121,18.0816965 19.3023121,17.5294118 L19.3023121,17.5294118 L19.3023121,17.0588235 C19.3023121,16.5065388 18.8545969,16.0588235 18.3023121,16.0588235 L18.3023121,16.0588235 Z M25.7140768,7.41176471 L7.94937096,7.41176471 C7.39708621,7.41176471 6.94937096,7.85947996 6.94937096,8.41176471 L6.94937096,8.41176471 L6.94937096,8.88235294 C6.94937096,9.43463769 7.39708621,9.88235294 7.94937096,9.88235294 L7.94937096,9.88235294 L25.7140768,9.88235294 C26.2663616,9.88235294 26.7140768,9.43463769 26.7140768,8.88235294 L26.7140768,8.88235294 L26.7140768,8.41176471 C26.7140768,7.85947996 26.2663616,7.41176471 25.7140768,7.41176471 L25.7140768,7.41176471 Z" id="path-1"></path>
        <filter x="-1.3%" y="-1.2%" width="102.6%" height="102.4%" filterUnits="objectBoundingBox" id="filter-2">
            <feOffset dx="0" dy="-1" in="SourceAlpha" result="shadowOffsetInner1"></feOffset>
            <feComposite in="shadowOffsetInner1" in2="SourceAlpha" operator="arithmetic" k2="-1" k3="1" result="shadowInnerInner1"></feComposite>
            <feColorMatrix values="0 0 0 0 0   0 0 0 0 0   0 0 0 0 0  0 0 0 0.132921766 0" type="matrix" in="shadowInnerInner1"></feColorMatrix>
        </filter>
    </defs>
    <g id="pad" stroke="none" stroke-width="1" fill="none" fill-rule="evenodd">
        <g id="理财产品兑付明细">
            <rect id="矩形" stroke="#979797" fill="#D8D8D8" opacity="0" x="0.5" y="0.5" width="59" height="59"></rect>
            <g id="明细查询" transform="translate(10.000000, 9.000000)" opacity="0.958449591">
                <g id="矩形备份-37">
                    <use fill="#FFFFFF" fill-rule="evenodd" xlink:href="#path-1"></use>
                    <use fill="black" fill-opacity="1" filter="url(#filter-2)" xlink:href="#path-1"></use>
                </g>
            </g>
        </g>
    </g>
</svg>