<?xml version="1.0" encoding="UTF-8"?>
<svg width="60px" height="60px" viewBox="0 0 60 60" version="1.1" xmlns="http://www.w3.org/2000/svg" xmlns:xlink="http://www.w3.org/1999/xlink">
    <title>理财购买</title>
    <g id="pad" stroke="none" stroke-width="1" fill="none" fill-rule="evenodd">
        <g id="理财购买" fill-rule="nonzero">
            <rect id="矩形" fill="#000000" opacity="0" x="0" y="0" width="60" height="60"></rect>
            <path d="M21.9978708,12.6578074 C21.9978708,15.6810233 19.5694001,18.1310419 16.574583,18.1310419 C13.581054,18.1310419 11.1527004,15.6810116 11.1527004,12.6578074 C11.1527004,9.63418167 13.5810657,7.18392885 16.574583,7.18392885 C19.5693299,7.18392885 21.9978708,9.63418167 21.9978708,12.6578074 Z M37.9506642,36.8700829 C33.3868327,36.8700829 29.6880787,40.6035594 29.6880787,45.2108966 C29.6880787,49.8186437 33.3868327,53.5519445 37.9506642,53.5519445 C42.5150812,53.5519445 46.2150063,49.8186437 46.2150063,45.2108966 C46.2150063,40.6035594 42.5150813,36.8700829 37.9506642,36.8700829 Z M37.9506642,49.049829 C35.8503187,49.049829 34.147684,47.3304478 34.147684,45.2108966 C34.147684,43.0915913 35.8503187,41.3723156 37.9506642,41.3723156 C40.0521808,41.3723156 41.7537615,43.0915913 41.7537615,45.2108966 C41.7537615,47.3304361 40.0521808,49.049829 37.9506642,49.049829 Z M54.1747502,18.3129693 L54.1747502,46.3318436 L48.0652089,46.3318436 C48.1002242,46.3318436 48.1179075,45.4840395 48.1179075,45.1272111 C48.1179075,39.3845695 43.5079354,34.5854678 37.8202058,34.5854678 C32.1323707,34.5854678 27.5215203,39.3366138 27.5215203,45.0770303 C27.5215203,45.4336245 27.5394378,46.3315509 27.574219,46.3315509 L27.574219,46.3315509 L25.6236079,46.3315509 C23.5951785,46.3315509 21.0672128,44.0161949 21.0672128,41.9684426 L21.0672128,41.9684426 L21.0672128,35.3471389 C21.0672128,30.6667848 23.6683711,30.6667848 25.0463235,29.7844924 L25.0463235,29.7844924 L36.6847374,25.2799175 C36.6847374,25.2799175 37.8582386,24.8041269 40.2052411,23.8525455 L40.2052411,23.8525455 L54.1747502,18.3129693 Z M31.0029802,30.6667965 C31.0029802,30.6667965 21.9508988,30.91003 24.1807073,35.2802233 L24.1807073,35.2802233 Z M41.8134423,7 C42.6014793,7.00154498 43.3262511,7.43176223 43.7050048,8.12281249 L49.0475048,17.8103125 C49.4125266,18.4731746 49.4125266,19.2768254 49.0475048,19.9396875 L43.7050048,29.6271875 C43.3262511,30.3182378 42.6014793,30.748455 41.8134423,30.75 L31.2040673,30.75 C30.4160302,30.748455 29.6912584,30.3182378 29.3125048,29.6271875 L27.6936369,26.6907509 C27.3994588,28.8217633 20.6254693,29.7845018 20.6254693,29.7844924 C15.859802,29.9615598 15.23099,27.3123872 15.23099,27.3123872 C12.6351621,29.930965 12.4916867,36.6507029 12.4845476,37.614269 L12.4842664,49.9142624 C8.80572525,53.7531362 6.35335281,49.9142624 6.35335281,49.9142624 L6.35335281,49.9142624 L6.35335281,37.9070166 C3.90101547,30.9495424 5.53066838,25.6594064 5.53066838,25.6594064 C7.51526688,17.8778688 11.9952641,17.5294418 12.392479,17.5138406 L12.4207469,17.5131093 C17.1864728,19.1463691 16.3913088,27.19727 21.0195498,25.1063049 C24.5339639,23.5166209 26.5120485,24.8846192 26.5120485,24.8846192 C26.6306941,24.9710322 26.7395057,25.0562178 26.8389066,25.1401828 L23.9700048,19.9396875 C23.6049829,19.2768254 23.6049829,18.4731746 23.9700048,17.8103125 L29.3125048,8.12281249 C29.6912584,7.43176224 30.4160302,7.00154499 31.2040673,7 L41.8134423,7 Z M33.081616,13.7277384 C32.8333752,13.8469166 32.7439925,14.1514447 32.8056489,14.3902663 L32.8358347,14.476254 L35.1261082,17.5485978 L32.2883738,17.5485978 C31.9643634,17.5485978 31.6962384,17.7608634 31.6962384,18.0066446 C31.6962384,18.2781446 31.9134407,18.4591314 32.1930658,18.4926137 L32.2883738,18.4982332 L35.5841681,18.4982332 L35.5841681,19.9618009 L32.2883738,19.9618009 C31.9643634,19.9618009 31.6962384,20.1629337 31.6962384,20.4310457 C31.6962384,20.6723465 31.9134407,20.8774926 32.1930658,20.9161088 L32.2883738,20.9226342 L35.5729962,20.9226342 L35.5729962,23.7380249 C35.5729962,23.9838061 35.863491,24.2742749 36.2098321,24.2742749 C36.5516563,24.2742749 36.7758935,24.0389952 36.8173226,23.8127647 L36.8242722,23.7380249 L36.8242722,20.9226342 L40.254142,20.9226342 C40.5781134,20.9226342 40.8685821,20.6991707 40.8685821,20.4533894 C40.8685821,20.1919324 40.633313,20.0029113 40.3500745,19.9677217 L40.2542071,19.961879 L36.8243373,19.9507202 L36.8243373,18.4871525 L40.1201316,18.4871525 C40.444103,18.4871525 40.7345717,18.2972436 40.7345717,18.0179077 C40.7345717,17.7665053 40.4993026,17.5784897 40.2160641,17.5434006 L40.1201316,17.537491 L37.3270847,17.537491 L39.7067592,14.6326993 C39.7067592,14.6326993 39.9748712,14.1299129 39.5503269,13.8729728 C39.1816431,13.6579022 38.8692951,13.8840432 38.6993047,14.0953608 L38.6565379,14.1522827 L36.2321629,17.1240795 L33.8524884,13.9176603 C33.6960561,13.7165795 33.3832957,13.582491 33.081616,13.7277384 Z" id="形状" fill="#FFFFFF" opacity="0.958449591"></path>
        </g>
    </g>
</svg>