<?xml version="1.0" encoding="UTF-8"?>
<svg width="60px" height="60px" viewBox="0 0 60 60" version="1.1" xmlns="http://www.w3.org/2000/svg" xmlns:xlink="http://www.w3.org/1999/xlink">
    <title>理财撤单</title>
    <g id="pad" stroke="none" stroke-width="1" fill="none" fill-rule="evenodd">
        <g id="理财撤单" fill-rule="nonzero">
            <rect id="矩形" fill="#000000" opacity="0" x="0" y="0" width="60" height="60"></rect>
            <path d="M40.2344078,6.66666667 C41.8104819,6.66975662 43.2600255,7.53019112 44.0175328,8.91229165 L54.7025328,28.2872917 C55.4325765,29.6130158 55.4325765,31.2203175 54.7025328,32.5460417 L44.0175328,51.9210416 C43.2600255,53.3031422 41.8104819,54.1635767 40.2344078,54.1666667 L19.0156578,54.1666667 C17.4395837,54.1635767 15.9900401,53.3031422 15.2325328,51.9210416 L4.54753278,32.5460417 C3.81748907,31.2203175 3.81748907,29.6130158 4.54753278,28.2872917 L15.2325328,8.91229165 C15.9900401,7.53019114 17.4395837,6.66975664 19.0156578,6.66666667 L40.2344078,6.66666667 Z M32.6197219,13 L22.5124875,21.7749415 C21.9185738,22.2564931 21.827614,23.1232861 22.3091657,23.7171999 C22.368022,23.7921079 22.4375795,23.8616654 22.5124875,23.9205217 L29.800389,30.2470874 C29.5181321,30.3508261 29.2929243,30.5808491 29.1547381,30.7782595 L29.1547381,30.7782595 L25.2693782,35.5409304 L21.4556565,30.4022482 C21.2049544,30.0799915 20.7037173,29.8650981 20.2202384,30.097875 C19.7726725,30.3127475 19.6473215,30.9035688 19.8263437,31.2974636 L19.8263437,31.2974636 L23.4967892,36.2212732 L18.94897,36.2212732 C18.4297034,36.2212732 18,36.5614551 18,36.9553498 C18,37.4388078 18.4297451,37.7431811 18.94897,37.7431811 L18.94897,37.7431811 L24.2308867,37.7431811 L24.2308867,40.0887288 L18.94897,40.0887288 C18.4297034,40.0887288 18,40.4110689 18,40.8407514 C18,41.2704339 18.4297451,41.6285827 18.94897,41.6285827 L18.94897,41.6285827 L24.2129824,41.6285827 L24.2129824,46.1405933 C24.2129824,46.534488 24.6785361,47 25.2335905,47 C25.8422743,47 26.2183065,46.534488 26.2183065,46.1405933 L26.2183065,46.1405933 L26.2183065,41.6285827 L31.7150958,41.6285827 C32.2342998,41.6285827 32.6998118,41.2704548 32.6998118,40.87656 C32.6998118,40.4109854 32.2343207,40.0887288 31.7150958,40.0887288 L31.7152001,40.088854 L26.2184109,40.0709705 L26.2184109,37.7254228 L31.5003275,37.7254228 C32.0195316,37.7254228 32.4850436,37.4210705 32.4850436,36.9734002 C32.4850436,36.5257299 32.0195524,36.2034733 31.5003275,36.2034733 L31.5003275,36.2034733 L27.0241255,36.2034733 L30.8378473,31.5481865 C30.8378473,31.5481865 30.9057558,31.4208386 30.9448309,31.2415244 L32.6197219,32.6954632 L32.6197219,26.9489466 C38.3394856,26.9489466 43.6526057,28.1795786 48.1417373,34.3327388 C46.097818,22.8450563 37.5208478,18.741166 32.6197219,18.741166 L32.6197219,13 Z" id="路径-20" fill="#FFFFFF" opacity="0.958449591"></path>
        </g>
    </g>
</svg>