<?xml version="1.0" encoding="UTF-8"?>
<svg width="60px" height="60px" viewBox="0 0 60 60" version="1.1" xmlns="http://www.w3.org/2000/svg" xmlns:xlink="http://www.w3.org/1999/xlink">
    <title>流量缴费</title>
    <g id="pad" stroke="none" stroke-width="1" fill="none" fill-rule="evenodd">
        <g id="流量缴费" fill-rule="nonzero">
            <rect id="矩形" fill="#000000" opacity="0" x="0" y="0" width="60" height="60"></rect>
            <g id="形状-23" transform="translate(7.000000, 7.000000)" fill="#FFFFFF" opacity="0.961983817">
                <path d="M42.3684211,0 C44.3740867,0 46,1.62591327 46,3.63157894 L46,3.63157894 L46,42.3684211 C46,44.3740867 44.3740867,46 42.3684211,46 L42.3684211,46 L3.63157894,46 C1.62591327,46 0,44.3740867 0,42.3684211 L0,42.3684211 L0,3.63157894 C0,1.62591327 1.62591327,0 3.63157894,0 L3.63157894,0 Z M12.1052631,32.0144996 L8.47368421,32.0144996 L8.47368421,39.7294737 L12.1052631,39.7294737 L12.1052631,32.0144996 Z M20.5789474,27.7248036 L16.9473684,27.7248036 L16.9473684,39.7294737 L20.5789474,39.7294737 L20.5789474,27.7248036 Z M29.0526316,23.4373808 L25.4210526,23.4373808 L25.4210526,39.7294737 L29.0526316,39.7294737 L29.0526316,23.4373808 Z M37.5263158,19.1505263 L33.8947369,19.1505263 L33.8947369,39.7294737 L37.5263158,39.7294737 L37.5263158,19.1505263 Z M13.9275,7.5775 L6.74,7.5775 L5.9275,14.64 L7.49,14.9525 C8.0525,13.5775 8.0525,13.5775 10.0525,13.5775 C12.4275,13.64 12.4275,13.64 12.49,16.14 C12.4275,18.8275 12.4275,18.8275 9.99,18.89 C8.02125,18.89 8.02125,18.89 7.59007748,16.8398967 L7.5525,16.64 L5.49,17.0775 C6.24,20.64 6.24,20.64 10.115,20.64 C14.49,20.515 14.49,20.515 14.615,16.015 C14.365,11.89 14.365,11.89 10.3025,11.64 C9.065,11.69625 9.065,11.69625 8.33375,12.208125 L8.1775,12.3275 L8.49,9.4525 L13.9275,9.4525 L13.9275,7.5775 Z M22.6775,7.265 C16.49,7.515 16.49,7.515 16.24,14.015 C16.49,20.39 16.49,20.39 22.9275,20.64 C26.7608333,20.64 26.7608333,20.64 28.5277604,18.5161936 L28.6775,18.3275 L28.6775,13.39 L22.49,13.39 L22.49,15.265 L26.5525,15.265 L26.5525,17.515 C25.4275,18.8275 25.4275,18.8275 22.865,18.8275 C18.74,18.515 18.74,18.515 18.49,14.015 C18.74,9.515 18.74,9.515 22.615,9.2025 C25.3052174,9.26228261 25.3052174,9.26228261 26.2227505,11.4950331 L26.3025,11.7025 L28.5525,11.0775 C27.0525,7.3275 27.0525,7.3275 22.6775,7.265 Z" id="形状"></path>
            </g>
        </g>
    </g>
</svg>