<?xml version="1.0" encoding="UTF-8"?>
<svg width="60px" height="60px" viewBox="0 0 60 60" version="1.1" xmlns="http://www.w3.org/2000/svg" xmlns:xlink="http://www.w3.org/1999/xlink">
    <title>基金业务</title>
    <g id="pad" stroke="none" stroke-width="1" fill="none" fill-rule="evenodd">
        <g id="基金业务">
            <rect id="矩形" stroke="#979797" fill="#D8D8D8" opacity="0" x="0.5" y="0.5" width="59" height="59"></rect>
            <g id="铜钱" transform="translate(3.733333, 3.733333)" fill="#FFFFFF" fill-rule="nonzero" opacity="0.958844866">
                <path d="M25.3333333,0 C39.324547,0 50.6666666,11.3421197 50.6666666,25.3333333 C50.6666666,34.3840617 45.8381608,42.7472797 38,47.272644 C30.1618394,51.7980082 20.5048272,51.7980082 12.6666665,47.272644 C4.82850582,42.7472797 0,34.3840617 0,25.3333333 C0,11.3421197 11.3421197,0 25.3333333,0 Z M27.2227417,12.7411948 C26.2229995,11.7414526 24.6020972,11.7414526 23.602355,12.7411948 L23.602355,12.7411948 L12.7411948,23.602355 C11.7414526,24.6020972 11.7414526,26.2229995 12.7411948,27.2227417 L12.7411948,27.2227417 L23.602355,38.0839019 C24.6020972,39.083644 26.2229995,39.083644 27.2227417,38.0839019 L27.2227417,38.0839019 L38.0839019,27.2227417 C39.083644,26.2229995 39.083644,24.6020972 38.0839019,23.602355 L38.0839019,23.602355 Z M25.4125483,16.3605798 L34.4635151,25.4115466 L25.4125483,34.4625134 L16.3615815,25.4115466 L25.4125483,16.3605798 Z" id="路径-21"></path>
            </g>
        </g>
    </g>
</svg>