<?xml version="1.0" encoding="UTF-8"?>
<svg width="60px" height="60px" viewBox="0 0 60 60" version="1.1" xmlns="http://www.w3.org/2000/svg" xmlns:xlink="http://www.w3.org/1999/xlink">
    <title>基金购买</title>
    <g id="pad" stroke="none" stroke-width="1" fill="none" fill-rule="evenodd">
        <g id="基金购买">
            <rect id="矩形" fill="#000000" fill-rule="nonzero" opacity="0" x="0" y="0" width="60" height="60"></rect>
            <path d="M21.9978708,12.4738786 C21.9978708,15.4970945 19.5694001,17.947113 16.574583,17.947113 C13.581054,17.947113 11.1527004,15.4970828 11.1527004,12.4738786 C11.1527004,9.45025281 13.5810657,7 16.574583,7 C19.5693299,7 21.9978708,9.45025281 21.9978708,12.4738786 Z M37.9506642,36.6861541 C33.3868327,36.6861541 29.6880787,40.4196306 29.6880787,45.0269678 C29.6880787,49.6347148 33.3868327,53.3680156 37.9506642,53.3680156 C42.5150812,53.3680156 46.2150063,49.6347148 46.2150063,45.0269678 C46.2150063,40.4196306 42.5150813,36.6861541 37.9506642,36.6861541 Z M37.9506642,48.8659001 C35.8503187,48.8659001 34.147684,47.146519 34.147684,45.0269678 C34.147684,42.9076625 35.8503187,41.1883867 37.9506642,41.1883867 C40.0521808,41.1883867 41.7537615,42.9076625 41.7537615,45.0269678 C41.7537615,47.1465072 40.0521808,48.8659001 37.9506642,48.8659001 Z M54.1747502,18.1290405 L54.1747502,46.1479148 L48.0652089,46.1479148 C48.1002242,46.1479148 48.1179075,45.3001107 48.1179075,44.9432823 C48.1179075,39.2006407 43.5079354,34.401539 37.8202058,34.401539 C32.1323707,34.401539 27.5215203,39.1526849 27.5215203,44.8931015 C27.5215203,45.2496957 27.5394378,46.147622 27.574219,46.147622 L27.574219,46.147622 L25.6236079,46.147622 C23.5951785,46.147622 21.0672128,43.832266 21.0672128,41.7845138 L21.0672128,41.7845138 L21.0672128,35.16321 C21.0672128,30.482856 23.6683711,30.482856 25.0463235,29.6005635 L25.0463235,29.6005635 L36.6847374,25.0959887 C36.6847374,25.0959887 37.8582386,24.620198 40.2052411,23.6686166 L40.2052411,23.6686166 L54.1747502,18.1290405 Z M31.0029802,30.4828677 C31.0029802,30.4828677 21.9508988,30.7261012 24.1807073,35.0962945 L24.1807073,35.0962945 Z M12.4207469,17.3291804 C17.1864728,18.9624403 16.3913088,27.0133411 21.0195498,24.922376 C24.5339639,23.3326921 26.5120485,24.7006904 26.5120485,24.7006904 C31.1800477,28.1005259 20.6254693,29.6005752 20.6254693,29.6005635 C15.859802,29.777631 15.23099,27.1284583 15.23099,27.1284583 C12.6351621,29.7470362 12.4916867,36.4667741 12.4845476,37.4303402 L12.4842664,49.7303335 C8.80572525,53.5692074 6.35335281,49.7303335 6.35335281,49.7303335 L6.35335281,49.7303335 L6.35335281,37.7230877 C3.90101547,30.7656135 5.53066838,25.4754776 5.53066838,25.4754776 C7.60829494,17.3291804 12.4207469,17.3291804 12.4207469,17.3291804 Z M38.7333333,5.73333333 C45.3607503,5.73333333 50.7333333,11.1059163 50.7333333,17.7333333 C50.7333333,22.0205205 48.4461464,25.9820448 44.7333333,28.1256384 C41.0205204,30.269232 36.4461462,30.269232 32.7333333,28.1256384 C29.0205203,25.9820448 26.7333333,22.0205205 26.7333333,17.7333333 C26.7333333,11.1059163 32.1059163,5.73333333 38.7333333,5.73333333 Z M38.0118574,11.6802379 L37.9133962,11.7686361 L32.7686361,16.9133962 C32.3266449,17.3553875 32.2971788,18.0536891 32.6802379,18.5298551 L32.7686361,18.6283163 L37.9133962,23.7730763 C38.3553875,24.2150676 39.0536891,24.2445337 39.5298551,23.8614746 L39.6283163,23.7730763 L44.7730763,18.6283163 C45.2150676,18.186325 45.2445337,17.4880234 44.8614746,17.0118574 L44.7730763,16.9133962 L39.6283163,11.7686361 C39.186325,11.3266449 38.4880234,11.2971788 38.0118574,11.6802379 Z M38.7708562,13.4830817 L43.0581563,17.7703817 L38.7708562,22.0576818 L34.4835562,17.7703817 L38.7708562,13.4830817 Z" id="形状" fill="#FFFFFF" fill-rule="nonzero" opacity="0.958449591"></path>
            <g id="铜钱" transform="translate(26.733333, 5.733333)"></g>
        </g>
    </g>
</svg>