<?xml version="1.0" encoding="UTF-8"?>
<svg width="60px" height="60px" viewBox="0 0 60 60" version="1.1" xmlns="http://www.w3.org/2000/svg" xmlns:xlink="http://www.w3.org/1999/xlink">
    <title>基金撤单</title>
    <g id="pad" stroke="none" stroke-width="1" fill="none" fill-rule="evenodd">
        <g id="基金撤单">
            <rect id="矩形" stroke="#979797" fill="#D8D8D8" opacity="0" x="0.5" y="0.5" width="59" height="59"></rect>
            <g id="铜钱" transform="translate(4.733333, 4.733333)" fill="#FFFFFF" fill-rule="nonzero" opacity="0.958449591">
                <path d="M25.3333333,0 C39.324547,0 50.6666666,11.3421197 50.6666666,25.3333333 C50.6666666,34.3840617 45.8381608,42.7472797 38,47.272644 C30.1618394,51.7980082 20.5048272,51.7980082 12.6666665,47.272644 C4.82850582,42.7472797 0,34.3840617 0,25.3333333 C0,11.3421197 11.3421197,0 25.3333333,0 Z M23.8740339,17.9387936 L23.8740339,24.4038049 L18.283,19.521 L14.1297349,23.6756764 C13.2928971,24.5125142 13.2530477,25.844537 14.0101866,26.7285353 L14.1297349,26.8576569 L23.6756764,36.4035985 C24.5543561,37.2822781 25.9789773,37.2822781 26.8576569,36.4035985 L26.8576569,36.4035985 L36.4035985,26.8576569 C37.2822781,25.9789773 37.2822781,24.5543561 36.4035985,23.6756764 L36.4035985,23.6756764 L31.5865008,18.8580627 C29.1421765,18.1275109 26.5742779,17.9387936 23.8740339,17.9387936 L23.8740339,17.9387936 Z M22.8863886,2.26666667 L12.7791542,11.0416081 C12.1852405,11.5231598 12.0942807,12.3899528 12.5758324,12.9838665 C12.6346887,13.0587746 12.7042461,13.128332 12.7791542,13.1871883 L22.8863886,21.9621298 L22.8863886,16.2156133 C28.6061523,16.2156133 33.9192723,17.4462453 38.408404,23.5994055 C36.3644847,12.111723 27.7875144,8.00783265 22.8863886,8.00783265 L22.8863886,2.26666667 Z" id="路径-21"></path>
            </g>
        </g>
    </g>
</svg>