<?xml version="1.0" encoding="UTF-8"?>
<svg width="60px" height="60px" viewBox="0 0 60 60" version="1.1" xmlns="http://www.w3.org/2000/svg" xmlns:xlink="http://www.w3.org/1999/xlink">
    <title>基金产品当前委托</title>
    <g id="pad" stroke="none" stroke-width="1" fill="none" fill-rule="evenodd">
        <g id="基金产品当前委托">
            <rect id="矩形" fill="#000000" fill-rule="nonzero" opacity="0" x="0" y="0" width="59.9999997" height="59.9999997"></rect>
            <g id="形状-21" transform="translate(7.000000, 6.000000)">
                <path d="M25.2868636,0.0137851197 C26.3836276,0.0419072604 27.4897657,0.182518057 28.5865298,0.276258589 C30.4613401,0.444991527 32.3080283,0.819953605 34.1172202,1.30740425 C35.354595,1.64487012 36.5732217,2.06670242 37.7356041,2.60102337 C38.7292536,3.06035192 39.6760328,3.58529881 40.5571937,4.24148239 C41.7664463,5.14139136 42.7225996,6.26627755 43.4725237,7.56927074 C44.2974403,9.00350062 44.9348758,10.5033489 45.3754562,12.0875636 C45.7316702,13.3530606 46.0128917,14.6466797 46.2753652,15.9402989 C46.4722203,16.9058262 46.603457,17.8901016 46.7253197,18.8650029 C46.8003121,19.408698 46.8284342,19.961767 46.8471824,20.514836 C46.8940526,22.2209134 46.959671,23.9269908 46.9502969,25.6236942 C46.9409228,26.6454658 46.8096861,27.6578634 46.7346937,28.679635 C46.7253196,28.7358793 46.7346937,28.7921236 46.7346937,28.8483679 C46.7253196,29.2983224 46.7253196,29.3076965 46.3128614,29.213956 C44.4567992,28.8014977 42.6476072,28.2296805 40.9134077,27.4516342 C38.9448568,26.5704734 37.0138022,25.595572 35.0733735,24.6581668 C34.3796936,24.320701 33.6485176,24.0676016 32.8798454,24.0863497 C32.1861656,24.1050978 31.4831118,24.2269605 30.80818,24.3863193 C29.1395988,24.7612814 27.4897657,25.2206099 25.8211846,25.5861979 C24.1151071,25.951786 22.3902817,26.2517556 20.6654561,26.5704734 C19.9811504,26.692336 19.2780965,26.7673285 18.5844167,26.8516949 C18.2656989,26.8891911 18.096966,27.0954203 18.0407217,27.5360007 C17.8532407,29.045223 18.9593787,30.4419567 20.2904941,30.863789 C20.7404486,31.0043998 21.2466473,31.032522 21.724724,31.0512701 C22.5590146,31.0793922 23.3933052,31.0887663 24.2182217,31.0512701 C25.2212452,31.0043998 26.2148947,30.9106593 27.2179182,30.8356669 C27.8553537,30.7887966 28.4834152,30.7231782 29.1208507,30.6575599 C29.4864387,30.6200637 29.8426527,30.5919416 30.2082407,30.5450713 C30.8831724,30.4607048 30.9394167,30.8919112 30.80818,31.407484 C30.6488211,32.0261714 30.2082407,32.4480037 29.7020419,32.8042177 C28.5584076,33.6010121 27.2647884,34.0790887 25.9430472,34.5009211 C25.174375,34.7446464 24.3963287,35.0164939 23.6089083,35.1289825 C22.7558696,35.2414711 21.8653347,35.222723 21.002922,35.1852268 C20.3373643,35.1571047 19.6718067,35.0071198 19.015623,34.9133793 C18.1157141,34.7915166 17.3095456,34.4446767 16.5127513,34.0134704 C15.5097277,33.4604014 14.478582,32.9448285 13.4193142,32.4854999 C12.0788248,31.9043087 10.7195874,31.3793618 9.34160178,30.8825371 C8.62917387,30.6200637 7.88862378,30.4232086 7.10120347,30.4325826 C5.64822546,30.4607048 4.93579756,31.4449802 5.0014159,32.7385993 C5.01078996,32.8323399 5.11390451,32.9448285 5.20764504,33.0010728 C6.74498951,34.0040963 8.28233398,35.0164939 9.83842653,35.9913953 C11.4226413,36.9850447 13.0349781,37.941198 14.6285669,38.9348475 C15.369117,39.4035501 16.0815449,39.9191229 16.822095,40.3971995 C17.9657293,41.1471236 19.1187376,41.8876737 20.449853,42.2907579 C21.1997771,42.5157352 21.9590753,42.5907276 22.7183735,42.4501168 C24.9681459,42.0282845 27.2085442,41.587704 29.4489425,41.1471237 L32.0924251,40.6138443 C32.5330055,40.5263531 32.9735859,40.4409451 33.4141663,40.3597033 C34.445312,40.1722223 35.4952058,40.0597336 36.5357255,39.8910007 C37.3681413,39.7485151 38.1645608,39.8820016 38.9585804,40.056284 L39.5541702,40.1909704 L39.5541702,40.1909704 C40.6603083,40.4346957 41.7570723,40.7159173 42.8632104,40.9783907 C42.9475768,41.0065129 43.0038212,41.0346351 43.0788136,41.0627572 C42.4413781,41.9907883 41.7476982,42.7969567 40.8852855,43.4812625 C39.3291929,44.7186373 37.5668712,45.5435539 35.701435,46.1809894 C34.1172202,46.7246844 32.4955093,47.1465167 30.8363021,47.380868 C29.8707748,47.5214788 28.9052475,47.6714636 27.9303461,47.7745782 C27.0960556,47.8683187 26.2523909,47.915189 25.4087263,47.9433111 C24.3400844,47.9808073 23.2620684,48.0183035 22.1840525,47.9901813 C21.1622809,47.9620592 20.1498833,47.8683187 19.1281117,47.7745782 C18.3406913,47.6995858 17.5438969,47.6339674 16.7658507,47.4839826 C15.4534835,47.2402572 14.1411162,46.9684097 12.8474971,46.6496919 C11.3663969,46.2841039 9.95091514,45.740409 8.59167767,45.0561032 C7.47616554,44.4936601 6.43564578,43.8187284 5.52636279,42.9656897 C4.23274366,41.747063 3.36095688,40.2659628 2.63915487,38.672374 C2.00171936,37.2568922 1.51426868,35.7945402 1.16742878,34.2853179 C0.904955363,33.1510576 0.689352159,32.0074233 0.511245159,30.863789 C0.351886284,29.8420174 0.258145752,28.8108717 0.164405221,27.779726 C0.098786877,27.0954203 0.0706646895,26.4111145 0.0519166113,25.7268087 C0.0237944706,24.8362738 -0.0137017325,23.955113 0.00504634561,23.0739521 C0.0331684863,21.967814 0.0706646895,20.861676 0.173779283,19.7555379 C0.380008424,17.5151395 0.7174743,15.3028633 1.29866547,13.1280833 C1.67362755,11.7313497 2.13295605,10.3721122 2.74226946,9.05974495 C3.25784229,7.9629809 3.85778159,6.92246118 4.61707976,5.97568194 C5.39512606,5.00078056 6.36065337,4.23210833 7.42929523,3.57592475 C8.81665489,2.73226011 10.297755,2.11357269 11.8444736,1.626122 C13.3255737,1.15741943 14.834796,0.791831418 16.3721405,0.566854199 C17.2251792,0.444991527 18.0688439,0.323128855 18.9218826,0.229388323 C19.7186769,0.145021854 20.5248454,0.0887775261 21.3310138,0.0606553854 C22.6527551,0.0231591823 23.9744963,-0.0237110834 25.2868636,0.0137851197 Z M17.7333333,5.73333333 C12.2104858,5.73333333 7.73333333,10.2104858 7.73333333,15.7333333 C7.73333333,19.3059893 9.63932247,22.6072596 12.7333333,24.3935875 C15.8273441,26.1799155 19.6393226,26.1799155 22.7333333,24.3935875 C25.8273442,22.6072596 27.7333333,19.3059893 27.7333333,15.7333333 C27.7333333,10.2104858 23.2561808,5.73333333 17.7333333,5.73333333 Z M17.1452514,10.6786881 C17.541672,10.3704524 18.1148739,10.3984738 18.4791524,10.7627523 L18.4791524,10.7627523 L22.7664525,15.0500524 L22.8505168,15.1452514 C23.1587525,15.541672 23.130731,16.1148739 22.7664525,16.4791524 L22.7664525,16.4791524 L18.4791524,20.7664525 L18.3839534,20.8505168 C17.9875329,21.1587525 17.4143309,21.130731 17.0500524,20.7664525 L17.0500524,20.7664525 L12.7627523,16.4791524 L12.6786881,16.3839534 C12.3704524,15.9875329 12.3984738,15.4143309 12.7627523,15.0500524 L12.7627523,15.0500524 L17.0500524,10.7627523 Z" id="形状" fill="#FFFFFF" fill-rule="nonzero" opacity="0.958449591"></path>
                <g id="现金业务备份-2" transform="translate(3.733333, 3.733333)"></g>
            </g>
        </g>
    </g>
</svg>