<?xml version="1.0" encoding="UTF-8"?>
<svg width="60px" height="60px" viewBox="0 0 60 60" version="1.1" xmlns="http://www.w3.org/2000/svg" xmlns:xlink="http://www.w3.org/1999/xlink">
    <title>燃气缴费</title>
    <g id="pad" stroke="none" stroke-width="1" fill="none" fill-rule="evenodd">
        <g id="燃气缴费" fill-rule="nonzero">
            <rect id="矩形" fill="#000000" opacity="0" x="0" y="0" width="60" height="60"></rect>
            <g id="路径-27" transform="translate(5.000000, 5.000000)" fill="#FFFFFF" opacity="0.961983817">
                <path d="M25.3917726,0.00547155505 C39.2049098,0.294042733 50.0351632,11.2096896 49.9999142,25.1582786 C49.9674373,38.977305 38.4128114,50.1609109 24.8617439,49.937121 C10.927878,49.7044973 -0.223337258,38.3854396 0.00339724558,24.701865 C0.230131749,10.879894 11.6758074,-0.283099623 25.3917726,0.00547155505 Z M22.6739032,7.50832247 C22.6503464,7.55249151 22.6091219,7.59371599 22.6150111,7.63788503 C22.6209003,7.78217062 22.6297341,7.92940081 22.6562356,8.07074179 C23.6073426,12.961729 21.5431752,16.6248163 17.9330908,19.6577584 C16.8465319,20.5735303 15.74525,21.4686899 14.6586912,22.3874063 C8.38668477,27.6876934 9.03155301,36.1180946 16.0691565,40.3494905 C17.6209628,41.2829299 19.2934978,42.0249701 21.4224465,42.2045909 C19.4642849,39.1480921 17.7269686,36.2299895 18.377726,32.7052986 C19.0432065,29.1011033 21.6226796,26.9809884 24.7174583,25.0934973 C24.7233475,26.4951288 24.5172252,27.6582474 24.9029684,28.8125321 C25.4153294,30.3496154 26.3576027,31.5627922 27.485386,32.6817417 C29.7350635,34.9137516 30.4918267,37.4372772 28.913519,40.3936595 C28.5837233,41.014971 28.3098751,41.668673 27.9535781,42.4313254 C30.0648591,42.2310924 31.8227877,41.4919968 33.4629321,40.5320559 C37.2968065,38.2882677 39.5523731,34.8106904 39.6613234,30.464455 C39.7673292,26.2742835 37.7208295,22.761371 34.5553802,19.9522188 C33.8692875,19.3456304 33.5630486,19.5134728 33.1537487,20.2025101 C32.7356149,20.9062705 32.2762567,21.6247539 31.3663741,21.8426546 C31.8699014,14.1807951 28.8722945,9.2485834 22.6739032,7.50832247 Z" id="路径-26"></path>
            </g>
        </g>
    </g>
</svg>