<?xml version="1.0" encoding="UTF-8"?>
<svg width="60px" height="60px" viewBox="0 0 60 60" version="1.1" xmlns="http://www.w3.org/2000/svg" xmlns:xlink="http://www.w3.org/1999/xlink">
    <title>耕保兑付</title>
    <g id="pad" stroke="none" stroke-width="1" fill="none" fill-rule="evenodd">
        <g id="耕保兑付" fill="#FFFFFF" fill-rule="nonzero">
            <rect id="矩形" opacity="0" x="0" y="0" width="60" height="60"></rect>
            <path d="M32.7857143,39.8785714 L32.5928572,39.8785714 L24.5357143,36.8357143 C23.9851891,36.6237961 23.5822952,36.14371 23.4691178,35.5647643 C23.3559405,34.9858186 23.5483804,34.3893514 23.9785714,33.9857143 L30.4071428,27.9642857 C30.8686293,27.5378664 31.5264211,27.3980856 32.1214286,27.6 L39,29.9571428 C39.5342034,30.1368754 39.9439188,30.5706917 40.0928572,31.1142857 C44.373261,29.0394879 49.4217776,29.3231124 53.4428572,31.8642857 C55.5857143,26.4428572 56.8071429,21.4285714 56.55,19.5 C55.9071428,14.6571428 35.4642857,8.78571428 28.1571428,10.05 C20.1857143,11.2928572 2.01428572,23.4642857 3.45,35.1428572 C3.94285717,39.2357143 22.2214286,47.0571429 33.7285714,49.6714286 C32.2045309,46.6311438 31.8683659,43.1319715 32.7857143,39.8571428 L32.7857143,39.8785714 Z M36.2785714,22.5428572 L40.2857143,18.8357143 C40.7426982,18.4172719 41.3899184,18.2779967 41.9785714,18.4714286 L46.9714286,20.0785714 C47.5111031,20.2538265 47.929094,20.6847677 48.0878063,21.2295367 C48.2465186,21.7743058 48.1253869,22.3623142 47.7642857,22.8 L44.4428572,26.85 C43.9884663,27.4058039 43.2358793,27.619607 42.5571428,27.3857207 L36.8785714,25.4357143 C36.3003301,25.2453591 35.866415,24.7626212 35.7385594,24.1674312 C35.6107038,23.5722412 35.8080887,22.9538906 36.2571428,22.5428572 L36.2785714,22.5428572 Z M23.7642857,18.2571428 L27.75,14.8285714 C28.2019829,14.4331723 28.8279123,14.3031091 29.4,14.4857143 L34.2857143,16.0285714 C34.8673217,16.2137907 35.3065744,16.6942932 35.4389861,17.2901459 C35.5713979,17.8859987 35.3769936,18.5073139 34.9285714,18.9214286 L31.1357143,22.5 C30.6742278,22.9264193 30.016436,23.0662001 29.4214286,22.8642857 L24.3214286,21.1071428 C23.7406721,20.9104946 23.309162,20.4186458 23.1897646,19.8172369 C23.0703672,19.2158279 23.2812647,18.5964422 23.7428572,18.1928572 L23.7642857,18.2571428 Z M17.3357143,34.1142857 L11.7,31.9714286 C11.1289693,31.7599517 10.7129797,31.2614288 10.6071562,30.6617623 C10.5013327,30.0620958 10.7215601,29.4512994 11.1857143,29.0571428 L17.6142857,23.4857143 C18.0667075,23.0751171 18.703463,22.9363371 19.2857143,23.1214286 L24.7285714,24.9857143 C25.2978654,25.179734 25.7238421,25.6579069 25.851061,26.2457459 C25.9782799,26.8335848 25.7881308,27.4450983 25.35,27.8571428 L19.0714286,33.7071428 C18.5922736,34.1508737 17.902624,34.2838182 17.2928572,34.05 L17.3357143,34.1142857 Z M39.0252974,35.5227244 C42.7604795,32.2610714 48.245791,31.9887013 52.2857143,34.8642857 C55.0835931,36.8255819 56.760121,40.0189683 56.7857143,43.4357143 C56.8585759,48.394006 53.5194982,52.7544402 48.7136907,53.9768069 C43.9078832,55.1991735 38.89121,52.9640411 36.5861791,48.573506 C34.2811482,44.1829709 35.2901152,38.7843773 39.0252974,35.5227244 Z M44.0664062,39.0195312 L42.90625,39.75 C42.9921875,39.8359375 42.9921875,39.8359375 43.1210938,40.0078125 C43.4893973,40.4866071 43.4893973,40.4866071 43.6682876,40.7759885 L43.7226562,40.8671875 L41.703125,40.8671875 L41.703125,45.421875 L43.765625,45.421875 C43.4648438,47.3125 43.4648438,47.3125 40.8867188,47.9570312 C41.1875,48.1289062 41.1875,48.1289062 41.7460938,49.03125 C41.7890625,49.1171875 41.7890625,49.1171875 41.8320312,49.1601562 C44.8380534,48.171875 44.8380534,48.171875 45.20008,45.6445516 L45.2265625,45.421875 L46.515625,45.421875 L46.515625,47.4414062 C46.515625,48.8568474 46.515625,48.8568474 47.7336181,48.9401087 L47.890625,48.9453125 L49.0507812,48.9453125 C50.46875,48.9453125 50.46875,48.9453125 50.7265625,48.1289062 C50.9414062,47.6992188 50.9414062,47.6992188 51.1132812,46.796875 C50.8984375,46.7109375 50.8984375,46.7109375 50.3398438,46.4960938 C49.9101562,46.3242188 49.9101562,46.3242188 49.6953125,46.2382812 C49.6666667,46.4960938 49.6666667,46.4960938 49.6427951,46.687066 L49.6130883,46.9119888 C49.5855035,47.1072049 49.5855035,47.1072049 49.5664062,47.1835938 C49.5234375,47.2695312 49.5234375,47.2695312 49.5234375,47.3125 C49.4852431,47.7326389 49.4852431,47.7326389 49.0056906,47.779321 L48.8789062,47.7851562 L48.4921875,47.7851562 C48.028125,47.7851562 48.028125,47.7851562 47.9817187,47.3326953 L47.9765625,47.2265625 L47.9765625,45.421875 L50.2539062,45.421875 L50.2539062,40.8671875 L48.3632812,40.8671875 C48.5351562,40.6523438 48.5351562,40.6523438 48.8359375,40.3085938 C49.0865885,39.9863281 49.0865885,39.9863281 49.2178819,39.8132595 L49.265625,39.75 L47.8476562,39.0625 C47.4351562,39.784375 47.4351562,39.784375 46.9126562,40.50625 L46.6445312,40.8671875 L44.8398438,40.8671875 L45.3554688,40.5234375 C44.9085937,39.9390625 44.9085937,39.9390625 44.3517188,39.3271875 L44.0664062,39.0195312 Z M48.75,42.15625 L48.75,44.1328125 L43.2070312,44.1328125 L43.2070312,42.15625 L48.75,42.15625 Z" id="形状"></path>
        </g>
    </g>
</svg>