<?xml version="1.0" encoding="UTF-8"?>
<svg width="60px" height="60px" viewBox="0 0 60 60" version="1.1" xmlns="http://www.w3.org/2000/svg" xmlns:xlink="http://www.w3.org/1999/xlink">
    <title>耕保查询</title>
    <g id="pad" stroke="none" stroke-width="1" fill="none" fill-rule="evenodd">
        <g id="耕保查询" fill-rule="nonzero">
            <rect id="矩形" fill="#000000" opacity="0" x="0" y="0" width="60" height="60"></rect>
            <path d="M44.6303741,28.1241592 C51.2578027,28.1241592 56.6303741,33.4967307 56.6303741,40.1241592 C56.6303741,46.7515878 51.2578027,52.1241592 44.6303741,52.1241592 C38.0029456,52.1241592 32.6303741,46.7515878 32.6303741,40.1241592 C32.6303741,33.4967307 38.0029456,28.1241592 44.6303741,28.1241592 Z M46.8604149,34.6822817 C44.7452313,32.567098 41.3036802,32.567098 39.1884966,34.6822817 C37.0733129,36.7974654 37.0733129,40.2390164 39.1884966,42.3542001 C41.1033537,44.2690572 44.105068,44.4502817 46.2258843,42.8983633 L46.2258843,42.8983633 L50.2684149,46.9408939 C50.5554353,47.2279143 51.0204966,47.2279143 51.307517,46.9408939 L51.307517,46.9408939 L51.4471088,46.8013021 C51.7341292,46.5142817 51.7341292,46.0492205 51.4471088,45.7622001 L51.4471088,45.7622001 L47.4045782,41.7196694 C48.9564966,39.5988531 48.7752721,36.5971388 46.8604149,34.6822817 Z M27.787517,8.17415923 C35.0946598,6.90987351 55.537517,12.7813021 56.1803741,17.6241592 C56.4048095,19.3074246 55.5028881,23.3413477 53.845049,27.9449702 C48.8802829,25.0050273 42.7483143,24.9956165 37.8093362,27.7991781 L31.7518027,25.7241592 C31.1567953,25.5222449 30.4990035,25.6620256 30.037517,26.088445 L30.037517,26.088445 L23.6089456,32.1098735 C23.1787546,32.5135107 22.9863146,33.1099778 23.0994919,33.6889235 C23.2126693,34.2678692 23.6155633,34.7479553 24.1660884,34.9598735 L24.1660884,34.9598735 L30.3291894,37.2871368 C29.4147148,40.4641766 29.4881753,43.9045713 30.6415133,47.1163732 C19.1889469,44.0196616 3.53595983,37.0503584 3.08037413,33.2670164 C1.64465985,21.588445 19.8160884,9.4170164 27.787517,8.17415923 Z M42.020874,34.7735144 C43.3587977,34.4150009 44.7863547,34.7975023 45.7657886,35.7769313 C46.7452518,36.756331 47.127803,38.1838746 46.7693362,39.5218109 C46.4108695,40.8597472 45.3658456,41.9048076 44.0279218,42.2633211 C42.689998,42.6218345 41.262441,42.2393332 40.2830071,41.2599041 C39.3035439,40.2805045 38.9209927,38.8529608 39.2794595,37.5150245 C39.6379262,36.1770882 40.6829502,35.1320278 42.020874,34.7735144 Z M18.9160884,21.2455878 C18.3338371,21.0604963 17.6970816,21.1992764 17.2446598,21.6098735 L17.2446598,21.6098735 L10.8160884,27.1813021 C10.3519342,27.5754586 10.1317068,28.1862551 10.2375303,28.7859216 C10.3433538,29.3855881 10.7593434,29.8841109 11.3303741,30.0955878 L11.3303741,30.0955878 L16.9660884,32.238445 L16.9232313,32.1741592 C17.5329981,32.4079775 18.2226477,32.2750329 18.7018027,31.8313021 L18.7018027,31.8313021 L24.9803741,25.9813021 C25.418505,25.5692576 25.608654,24.9577441 25.4814351,24.3699051 C25.3542162,23.7820661 24.9282396,23.3038932 24.3589456,23.1098735 L24.3589456,23.1098735 Z M41.6089456,16.5955878 C41.0202925,16.4021559 40.3730723,16.5414312 39.9160884,16.9598735 L39.9160884,16.9598735 L35.9089456,20.6670164 L35.887517,20.6670164 C35.4384628,21.0780499 35.2410779,21.6964004 35.3689335,22.2915904 C35.4967892,22.8867804 35.9307042,23.3695184 36.5089456,23.5598735 L36.5089456,23.5598735 L42.187517,25.50988 C42.8662535,25.7437662 43.6188404,25.5299631 44.0732313,24.9741592 L44.0732313,24.9741592 L47.3946598,20.9241592 C47.755761,20.4864734 47.8768927,19.8984651 47.7181804,19.353696 C47.5594682,18.8089269 47.1414772,18.3779858 46.6018027,18.2027307 L46.6018027,18.2027307 Z M29.0303741,12.6098735 C28.4582864,12.4272683 27.8323571,12.5573316 27.3803741,12.9527307 L27.3803741,12.9527307 L23.3946598,16.3813021 L23.3732313,16.3170164 C22.9116388,16.7206015 22.7007414,17.3399871 22.8201387,17.9413961 C22.9395361,18.5428051 23.3710463,19.0346539 23.9518027,19.2313021 L23.9518027,19.2313021 L29.0518027,20.988445 C29.6468101,21.1903593 30.3046019,21.0505786 30.7660884,20.6241592 L30.7660884,20.6241592 L34.5589456,17.0455878 C35.0073677,16.6314731 35.201772,16.0101579 35.0693603,15.4143052 C34.9369485,14.8184524 34.4976958,14.3379499 33.9160884,14.1527307 L33.9160884,14.1527307 Z" id="形状" fill="#FFFFFF" opacity="0.961983817"></path>
        </g>
    </g>
</svg>