<?xml version="1.0" encoding="UTF-8"?>
<svg width="60px" height="60px" viewBox="0 0 60 60" version="1.1" xmlns="http://www.w3.org/2000/svg" xmlns:xlink="http://www.w3.org/1999/xlink">
    <title>耕林保基金交易明细</title>
    <g id="pad" stroke="none" stroke-width="1" fill="none" fill-rule="evenodd">
        <g id="耕林保基金交易明细" fill-rule="nonzero">
            <rect id="矩形" fill="#000000" opacity="0" x="0" y="0" width="60" height="60"></rect>
            <path d="M30.1241238,3.65019924 L30.1602398,3.65626224 C30.735825,3.76472145 33.2217857,4.75071431 55.8214286,13.7142857 C56.5714286,14.0357143 57.1071428,14.7857143 57.2142857,15.6428572 C57.2142857,16.484599 57.834249,35.9252385 53.7977018,44.4368169 C53.838698,44.0110574 53.859375,43.5798005 53.859375,43.1437143 C53.859375,35.6878702 47.8152191,29.6437143 40.359375,29.6437143 C32.9035309,29.6437143 26.859375,35.6878702 26.859375,43.1437143 C26.859375,50.076959 32.0859245,55.7894776 38.8139787,56.5562253 C34.6361138,58.5908796 31.1807538,59.8003969 30.8571428,59.8928572 C30.4285714,60 30.2142857,60 30,60 C29.7857143,60 29.5714286,60 29.25,59.8928572 C28.5,59.6785714 10.9285714,53.3571429 6.53571428,44.8928572 C3.32142857,38.7053572 2.87946427,25.828125 2.859375,19.4146206 L2.85953001,18.4078079 C2.86495536,16.8370536 2.89285716,15.8214286 2.89285717,15.6428572 C2.89285717,14.7857143 3.42857145,14.0357143 4.28571428,13.7142857 L29.25,3.75 C29.4214286,3.66428573 29.6614286,3.64714288 29.8602857,3.64371431 L30.0642991,3.6441161 C30.0823098,3.64512324 30.1017005,3.6469361 30.1241238,3.65019924 Z M40.3640898,32.2643392 C46.1995012,32.2643392 50.9875312,37.0523691 50.9875312,42.8877805 C50.9875312,44.9825436 50.3890274,46.9276808 49.3416459,48.5735661 L53.9800499,52.6134663 C54.5785537,53.5112219 54.5785537,54.7082294 53.9800499,55.4563591 L53.3815462,56.0548629 C52.7830424,56.6533666 51.2867831,56.6533666 50.6882793,56.0548629 L46.0498753,51.8653367 C44.40399,52.9127182 42.4588529,53.511222 40.3640898,53.5112219 C34.5286783,53.5112219 29.7406484,48.723192 29.7406484,42.8877805 C29.7406484,37.0523691 34.5286783,32.2643392 40.3640898,32.2643392 Z M40.3640898,36.9027432 C37.0723192,36.9027432 34.3790524,39.59601 34.3790524,42.8877805 C34.3790524,46.1795511 37.0723192,48.8728179 40.3640898,48.8728179 C43.6558603,48.8728179 46.3491272,46.1795511 46.3491272,42.8877805 C46.3491272,39.59601 43.6558604,36.9027432 40.3640898,36.9027432 Z M22.6059851,32.7206983 L19.4638404,32.7206983 C18.2668329,32.7206983 17.2194514,33.7680798 17.0698254,35.1147132 C17.0698254,36.4613466 18.1172069,37.5087282 19.4638404,37.5087282 L19.4638404,37.5087282 L22.6059851,37.5087282 C23.9526184,37.5087282 25,36.4613467 25,35.1147132 C25,33.7680798 23.9526185,32.7206983 22.6059851,32.7206983 L22.6059851,32.7206983 Z M35.1745636,23.2942643 L19.4638404,23.2942643 C18.2668329,23.2942643 17.0698254,24.3416458 17.0698254,25.6882793 C17.0698254,27.0349127 18.1172069,28.0822943 19.4638404,28.0822943 L19.4638404,28.0822943 L35.1745636,28.0822943 C36.521197,28.0822943 37.5685786,27.0349127 37.5685786,25.6882793 C37.5685786,24.3416459 36.521197,23.2942643 35.1745636,23.2942643 L35.1745636,23.2942643 Z" id="形状" fill="#FFFFFF" opacity="0.961983817"></path>
        </g>
    </g>
</svg>