<?xml version="1.0" encoding="UTF-8"?>
<svg width="60px" height="60px" viewBox="0 0 60 60" version="1.1" xmlns="http://www.w3.org/2000/svg" xmlns:xlink="http://www.w3.org/1999/xlink">
    <title>耕林保基金账户信息查询</title>
    <g id="pad" stroke="none" stroke-width="1" fill="none" fill-rule="evenodd">
        <g id="耕林保基金账户信息查询" fill="#FFFFFF" fill-rule="nonzero">
            <rect id="矩形" opacity="0" x="0" y="0" width="60" height="60"></rect>
            <path d="M30.1241238,3.65019924 L30.1602398,3.65626224 C30.735825,3.76472145 33.2217857,4.75071431 55.8214286,13.7142857 C56.5714286,14.0357143 57.1071428,14.7857143 57.2142857,15.6428572 C57.2142857,16.3202285 57.6157637,29.0419385 55.6690063,38.4201686 C53.337461,34.9371294 49.3662459,32.6437143 44.859375,32.6437143 C43.8703853,32.6437143 42.9071897,32.7541517 41.9814475,32.9633669 C41.3305579,32.3959494 40.1215169,31.9330078 38.2258065,31.0580645 C36.9870967,30.4387096 33.116129,28.7354838 33.116129,28.7354838 C33.116129,28.7354838 32.8064516,27.9612903 33.116129,27.1870968 C33.8903225,26.7225806 34.8193548,24.4 34.9741935,23.4709677 C35.7483871,23.0064516 36.0580645,21.4580645 36.0580645,21.1483871 C36.2129032,20.8387096 36.0580645,20.0645161 35.4387097,20.0645161 C35.5935483,19.6 35.7483871,19.1354839 35.7483871,18.516129 L35.7483871,18.516129 L35.7483871,17.8967742 C35.7483871,14.9548387 33.2709677,13.4064516 30.1741935,13.4064516 C27.0774193,13.4064516 24.6,14.9548387 24.6,17.8967742 L24.6,17.8967742 L24.6,18.516129 C24.6,18.9806451 24.7548387,19.6 24.9096774,20.0645161 C24.2903226,20.0645161 24.2903227,20.8387097 24.2903226,21.1483871 C24.2903225,21.4580645 24.6,23.1612903 25.3741935,23.4709677 C25.3741935,24.4 26.3032258,26.7225806 27.2322581,27.1870968 C27.3870968,27.8064516 27.2322581,28.7354838 27.2322581,28.7354838 C27.2322581,28.7354838 26.1834677,29.2161794 25.0145035,29.7596931 L24.5984501,29.9534494 C23.6927419,30.3759576 22.7806451,30.8064516 22.2774193,31.0580645 C21.6693942,31.3488592 21.1335841,31.5854925 20.6630538,31.7933939 L20.2755672,31.9651519 C18.2925102,32.8499933 17.6322581,33.2862313 17.6322581,35.7032258 L17.6322581,35.7032258 L17.6322581,36.1677419 L35.9603567,36.166979 C34.7509013,37.3031476 33.7589948,38.6682198 33.0538084,40.1930243 L17.9419355,40.1935484 C16.8580645,40.1935484 15.9290323,41.1225806 15.9290323,42.2064516 C15.9290323,43.2903226 16.8580645,44.2193548 17.9419355,44.2193548 L17.9419355,44.2193548 L31.9365239,44.2192462 C31.8855395,44.6870615 31.859375,45.1623324 31.859375,45.6437143 C31.859375,50.4054055 34.4194629,54.569156 38.2383117,56.8336391 C34.3230618,58.7004161 31.1657805,59.804675 30.8571428,59.8928572 C30.4285714,60 30.2142857,60 30,60 C29.7857143,60 29.5714286,60 29.25,59.8928572 C28.5,59.6785714 10.9285714,53.3571429 6.53571428,44.8928572 C3.32142857,38.7053572 2.87946427,25.828125 2.859375,19.4146206 L2.85953001,18.4078079 C2.86495536,16.8370536 2.89285716,15.8214286 2.89285717,15.6428572 C2.89285717,14.7857143 3.42857145,14.0357143 4.28571428,13.7142857 L29.25,3.75 C29.4214286,3.66428573 29.6614286,3.64714288 29.8602857,3.64371431 L30.0642991,3.6441161 C30.0823098,3.64512324 30.1017005,3.6469361 30.1241238,3.65019924 Z M45.8258065,35.5612903 C51.7096775,35.5612903 56.3548387,40.3612903 56.3548387,46.0903226 C56.3548387,48.2580645 55.7354839,50.116129 54.6516129,51.8193548 L59.1419355,55.8451613 C59.916129,56.3096774 59.7612903,57.5483871 59.1419355,58.3225806 L58.5225807,58.9419355 C57.9032258,59.5612903 56.5096775,59.5612903 55.8903226,58.9419355 L51.4,54.916129 C49.6967742,56 47.8387097,56.6193548 45.8258065,56.6193548 C39.9419355,56.6193548 35.2967742,51.8193548 35.2967742,46.0903226 C35.2967742,40.2064516 39.9419355,35.5612903 45.8258065,35.5612903 Z M45.8258065,40.0516129 C42.5741935,40.0516129 39.9419355,42.683871 39.9419355,46.0903226 C39.9419355,49.3419355 42.5741935,52.1290322 45.8258065,52.1290322 C49.0774194,52.1290322 51.7096774,49.4967742 51.7096774,46.0903226 C51.7096774,42.683871 49.0774193,40.0516129 45.8258065,40.0516129 Z" id="形状"></path>
        </g>
    </g>
</svg>