<?xml version="1.0" encoding="UTF-8"?>
<svg width="60px" height="60px" viewBox="0 0 60 60" version="1.1" xmlns="http://www.w3.org/2000/svg" xmlns:xlink="http://www.w3.org/1999/xlink">
    <title>国债产品查询</title>
    <g id="pad" stroke="none" stroke-width="1" fill="none" fill-rule="evenodd">
        <g id="国债产品查询" fill-rule="nonzero">
            <rect id="矩形" fill="#000000" opacity="0" x="0" y="0" width="60" height="60"></rect>
            <g id="形状-19" transform="translate(8.000000, 6.000000)" fill="#FFFFFF" opacity="0.958449591">
                <path d="M41.8361387,42.6654777 L41.8361387,5.32917178 C41.8361387,4.622896 41.5632594,3.94872367 41.0710066,3.4457697 C40.5841043,2.94816631 39.9206332,2.66458589 39.2197079,2.66458589 L5.23286144,2.66458589 L5.23286144,0 L39.2197079,0 C42.1357708,0.0267528704 44.4793223,2.41845948 44.4475447,5.33452235 L44.4475447,42.6654777 L41.8361387,42.6654777 Z M36.5872255,5.33452235 C38.0479322,5.33987292 39.2250585,6.53305094 39.2197803,7.99375766 L39.2197803,45.3354141 C39.2304091,46.7961208 38.0532828,47.9892989 36.5925761,48 L2.63783302,48 C1.93690781,48 1.26808606,47.7217701 0.77583324,47.2241668 C0.278229852,46.7212128 0.00535057407,46.0416899 0,45.3354141 L0,7.99910824 L0.00535057407,7.99910824 C-0.00535057407,6.53840152 1.17177572,5.3452235 2.63248244,5.33452235 L36.5872255,5.33452235 Z M32.1046138,25.2640793 C31.1749023,17.6921866 24.2764904,12.2308457 16.8164664,13.1468215 C9.35644246,14.0627973 3.98416076,21.0307898 4.91387229,28.6026826 C5.84358382,36.1745753 12.7332249,41.5644832 20.2717396,40.7113799 C23.339413,40.3347169 26.0054149,38.9922348 28.0868983,36.9239138 L28.0868983,36.9239138 L31.2182031,39.9474022 C31.7764089,40.4589421 32.6915379,40.4190883 33.1879006,39.8505735 L33.1879006,39.8505735 L33.3795184,39.682026 C33.8758812,39.1135112 33.8315798,38.1763223 33.2733739,37.6647824 L33.2733739,37.6647824 L29.9850878,34.5155492 C31.7087541,31.8385737 32.5168444,28.621428 32.1046138,25.2640793 Z M17.2792313,16.9157393 C22.6758478,16.2531181 27.7267318,20.1230088 28.4136214,25.7172762 C29.1005111,31.3115436 25.2628504,36.2728103 19.7392548,36.9510226 C14.2156591,37.6292348 9.27578015,33.6136538 8.60486466,28.1494857 C7.93394917,22.6853175 11.8826149,17.5783605 17.2792313,16.9157393 Z M18.1170438,21.2578308 L11.268309,22.6717692 L11.268309,25.146152 L12.3496862,25.1460773 L12.3496862,29.7414237 L11.268309,29.7414237 L11.268309,32.2158065 L24.9657786,32.2158065 L24.9657786,29.7413864 L23.8843634,29.7413864 L23.8843634,25.146152 L24.9657786,25.146152 L24.9657786,22.6717692 L18.1170438,21.2578308 Z M16.7472968,24.9104894 L16.7472968,29.4763126 L14.9209676,29.4763126 L14.9209676,24.9104894 L16.7472968,24.9104894 Z M21.3131201,24.9104894 L21.3131201,29.4763126 L19.4867908,29.4763126 L19.4867908,24.9104894 L21.3131201,24.9104894 Z" id="形状"></path>
            </g>
        </g>
    </g>
</svg>