<?xml version="1.0" encoding="UTF-8"?>
<svg width="60px" height="60px" viewBox="0 0 60 60" version="1.1" xmlns="http://www.w3.org/2000/svg" xmlns:xlink="http://www.w3.org/1999/xlink">
    <title>国债撤销</title>
    <g id="pad" stroke="none" stroke-width="1" fill="none" fill-rule="evenodd">
        <g id="国债撤销" fill-rule="nonzero">
            <rect id="矩形" fill="#000000" opacity="0" x="0" y="0" width="60" height="60"></rect>
            <path d="M49.8361387,48.6654777 L49.8361387,11.3291718 C49.8361387,10.622896 49.5632594,9.94872367 49.0710066,9.4457697 C48.5841043,8.94816631 47.9206332,8.66458589 47.2197079,8.66458589 L13.2328614,8.66458589 L13.2328614,6 L47.2197079,6 C50.1357708,6.02675287 52.4793223,8.41845948 52.4475447,11.3345223 L52.4475447,48.6654777 L49.8361387,48.6654777 Z M44.5872255,11.3345223 C46.0479322,11.3398729 47.2250585,12.5330509 47.2197803,13.9937577 L47.2197803,51.3354141 C47.2304091,52.7961208 46.0532828,53.9892989 44.5925761,54 L10.637833,54 C9.93690781,54 9.26808606,53.7217701 8.77583324,53.2241668 C8.27822985,52.7212128 8.00535057,52.0416899 8,51.3354141 L8,13.9991082 L8.00535057,13.9991082 C7.99464943,12.5384015 9.17177572,11.3452235 10.6324824,11.3345223 L44.5872255,11.3345223 Z M24.382031,34.5631479 L15.6156504,36.4087145 L15.6156504,39.6384439 L16.9998132,39.6383465 L16.9998132,45.6364989 L15.6156504,45.6364989 L15.6156504,48.8662283 L33.1484115,48.8662283 L33.1484115,45.6364502 L31.7642001,45.6364502 L31.7642001,39.6384439 L33.1484115,39.6384439 L33.1484115,36.4087145 L24.382031,34.5631479 Z M22.7671663,39.6384439 L22.7671663,45.6364502 L20.2294939,45.6364502 L20.2294939,39.6384439 L22.7671663,39.6384439 Z M28.5345194,39.6384439 L28.5345194,45.6364502 L25.996847,45.6364502 L25.996847,39.6384439 L28.5345194,39.6384439 Z M26.4648311,14.6928993 L16.3575967,23.4678408 C15.763683,23.9493925 15.6727232,24.8161855 16.1542749,25.4100992 C16.2131312,25.4850072 16.2826887,25.5545647 16.3575967,25.613421 L26.4648311,34.3883625 L26.4648311,28.6418459 C32.1845948,28.6418459 37.4977149,29.872478 41.9868465,36.0256382 C39.9429272,24.5379556 31.365957,20.4340653 26.4648311,20.4340653 L26.4648311,14.6928993 Z" id="形状" fill="#FFFFFF" opacity="0.958449591"></path>
        </g>
    </g>
</svg>