<?xml version="1.0" encoding="UTF-8"?>
<svg width="60px" height="60px" viewBox="0 0 60 60" version="1.1" xmlns="http://www.w3.org/2000/svg" xmlns:xlink="http://www.w3.org/1999/xlink">
    <title>国债兑付</title>
    <g id="pad" stroke="none" stroke-width="1" fill="none" fill-rule="evenodd">
        <g id="国债兑付" fill-rule="nonzero">
            <rect id="矩形" fill="#000000" opacity="0" x="0" y="0" width="60" height="60"></rect>
            <path d="M39.78,28.38 L39.78,23.55 C39.72,22.56 39.21,22.02 38.28,21.93 L22.2,21.93 C21.3,21.99 20.82,22.56 20.76,23.61 L20.76,28.35 C20.79,29.52 21.36,30.09 22.53,30.12 L38.19,30.12 C39.21,30.03 39.75,29.46 39.78,28.38 L39.78,28.38 Z" id="路径" fill="#FFFFFF"></path>
            <path d="M29.37,3.84 C37.29,3.84 44.49,4.29 49.32,7.35 C51.57,8.79 53.19,10.98 54.24,13.62 C54.78,15.03 55.14,16.59 55.5,18.24 C55.59,18.9 55.71,19.56 55.8,20.22 C56.01,21.42 55.92,22.68 56.13,23.91 C56.16,24.87 56.19,25.86 56.25,26.82 C56.25,27.21 56.25,27.63 56.28,28.05 L56.28,28.05 L56.28,32.7 L56.19,35.22 C56.16,35.58 56.16,35.97 56.13,36.33 C56.04,37.35 55.95,38.4 55.86,39.42 C55.74,40.29 55.59,41.13 55.47,42 L55.5816181,41.2466408 C53.8996512,37.3288312 50.0091608,34.59 45.47,34.59 C41.9509015,34.59 38.8216874,36.2361787 36.8092184,38.8016753 L36.81,32.76 L39.9,32.76 C41.94,32.52 43.08,31.44 43.26,29.52 L43.26,29.52 L43.26,22.8 C43.14,20.58 41.97,19.41 39.75,19.26 L39.75,19.26 L37.26,19.26 C37.89,17.76 38.49,16.17 39,14.49 L39,14.49 L35.43,14.49 C35.1,15.69 34.53,17.28 33.69,19.26 L33.69,19.26 L26.85,19.26 C26.19,17.58 25.62,16.02 25.14,14.49 L25.14,14.49 L21.63,14.49 C22.08,16.11 22.65,17.7 23.28,19.26 L23.28,19.26 L20.58,19.26 C18.6,19.47 17.49,20.64 17.28,22.77 L17.28,22.77 L17.28,29.16 C17.43,31.35 18.54,32.52 20.64,32.7 L20.64,32.7 L23.82,32.7 C23.67,36.54 20.61,40.2 14.61,43.65 L14.61,43.65 L17.01,45.9 C23.67,42.21 27.06,37.83 27.24,32.73 L27.24,32.73 L33.48,32.73 L33.48,41.85 C33.5599587,42.9854132 33.912702,43.8309928 34.5336859,44.4003708 C34.4914801,44.791116 34.47,45.1880143 34.47,45.59 C34.47,49.9617281 37.0105071,53.7317572 40.6979912,55.5065572 L40.26,55.59 C39.48,55.65 38.7,55.74 37.92,55.83 C37.02,55.89 36.09,55.95 35.19,56.01 C34.86,56.01 34.56,56.04 34.26,56.04 C33.21,56.07 32.13,56.07 31.08,56.1 L31.08,56.1 L28.29,56.1 L28.29,56.1 L25.95,56.04 C25.59,56.04 25.2,56.01 24.84,56.01 C23.73,55.92 22.65,55.83 21.57,55.74 C20.73,55.65 19.86,55.53 19.02,55.41 C18.33,55.26 17.67,55.14 16.98,54.99 C15.15,54.54 13.41,54 11.94,53.13 C8.7,51.21 6.84,48.57 5.61,44.61 C5.16,43.17 4.95,41.58 4.65,39.96 C4.44,38.88 4.5,37.77 4.32,36.66 C4.29,36.24 4.26,35.85 4.23,35.43 C4.2,34.83 4.2,34.2 4.17,33.6 C4.14,32.73 4.14,31.86 4.11,30.99 L4.11,30.99 L4.11,28.14 L4.2,25.35 C4.2,25.02 4.23,24.66 4.23,24.33 C4.32,23.31 4.38,22.32 4.47,21.3 C4.56,20.46 4.68,19.59 4.8,18.75 C5.34,16.23 5.82,13.86 6.93,11.94 C9.18,8.04 12.03,6.21 16.92,4.98 C17.97,4.71 19.08,4.59 20.22,4.38 L20.22,4.38 L21.75,4.2 L21.75,4.2 L24.54,3.99 C24.87,3.96 25.23,3.96 25.56,3.93 L25.56,3.93 L27,3.87 C27.78,3.87 28.59,3.84 29.37,3.84 Z M45.47,37.59 C49.8935294,37.59 53.47,41.1664706 53.47,45.59 C53.47,50.0135294 49.8935294,53.59 45.47,53.59 C41.0464706,53.59 37.47,50.0135294 37.47,45.59 C37.47,41.1664706 41.0464706,37.59 45.47,37.59 Z M45.5,41 L40,42.1612953 L40,44.1935543 L40.8684194,44.193493 L40.8684194,47.9677409 L40,47.9677409 L40,50 L51,50 L51,47.9677103 L50.13155,47.9677103 L50.13155,44.1935543 L51,44.1935543 L51,42.1612953 L45.5,41 Z M45,44 L45,48 L43,48 L43,44 L45,44 Z M48,44 L48,48 L46,48 L46,44 L48,44 Z" id="路径-23" fill="#FFFFFF" opacity="0.958449591"></path>
        </g>
    </g>
</svg>