<?xml version="1.0" encoding="UTF-8"?>
<svg width="60px" height="60px" viewBox="0 0 60 60" version="1.1" xmlns="http://www.w3.org/2000/svg" xmlns:xlink="http://www.w3.org/1999/xlink">
    <title>国债购买</title>
    <g id="pad" stroke="none" stroke-width="1" fill="none" fill-rule="evenodd">
        <g id="国债购买" fill-rule="nonzero">
            <rect id="矩形" fill="#000000" opacity="0" x="0" y="0" width="60" height="60"></rect>
            <g id="形状-15" transform="translate(6.000000, 9.000000)" fill="#FFFFFF" opacity="0.958449591">
                <path d="M42.6,0 C45.5823467,0 48,2.40352 48,5.36842667 L48,19.0877333 L46.2,19.0877333 C44.5432,19.0877333 43.2,20.4229867 43.2,22.0701333 C43.2,23.7173333 44.5431467,25.05264 46.2,25.05264 L48,25.05264 L48,37.5789333 C48,40.54384 45.5823467,42.94736 42.6,42.94736 L5.4,42.94736 C2.41765333,42.94736 0,40.54384 0,37.5789333 L0,24.45616 L1.8,24.45616 C3.4568,24.45616 4.8,23.1208533 4.8,21.4737067 C4.8,19.82656 3.45685333,18.4912533 1.8,18.4912533 L0,18.4912533 L0,5.36842667 C0,2.40352 2.41765333,0 5.4,0 L42.6,0 Z M24,13.64208 L14.4,15.6631467 L14.4,19.2 L15.9157867,19.1998933 L15.9157867,25.7684267 L14.4,25.7684267 L14.4,29.30528 L33.6,29.30528 L33.6,25.7683733 L32.08416,25.7683733 L32.08416,19.2 L33.6,19.2 L33.6,15.6631467 L24,13.64208 Z M22.2315733,19.2 L22.2315733,25.7683733 L19.4525867,25.7683733 L19.4525867,19.2 L22.2315733,19.2 Z M28.54736,19.2 L28.54736,25.7683733 L25.7683733,25.7683733 L25.7683733,19.2 L28.54736,19.2 Z" id="形状"></path>
            </g>
        </g>
    </g>
</svg>