<?xml version="1.0" encoding="UTF-8"?>
<svg width="60px" height="60px" viewBox="0 0 60 60" version="1.1" xmlns="http://www.w3.org/2000/svg" xmlns:xlink="http://www.w3.org/1999/xlink">
    <title>对公业务备份</title>
    <g id="pad" stroke="none" stroke-width="1" fill="none" fill-rule="evenodd">
        <g id="对公业务备份" fill-rule="nonzero">
            <rect id="矩形" fill="#000000" opacity="0" x="0" y="0" width="60" height="60"></rect>
            <g id="形状-10" transform="translate(4.000000, 8.000000)" fill="#FFFFFF" opacity="0.961588542">
                <path d="M26.7387962,0 C29.8845259,0.00570396668 32.4332232,2.55440125 32.4389272,5.70013096 L32.4389272,5.70013096 L32.4389272,10.0633221 C33.2398789,9.64916873 34.1282057,9.432417 35.0298958,9.43112579 L35.0298958,9.43112579 L41.455498,9.43112579 C44.6012277,9.43682976 47.149925,11.985527 47.155629,15.1312568 L47.155629,15.1312568 L47.155,17.633 L21.0303324,17.6337528 C19.3230813,17.6337528 17.8656425,18.7033262 17.2915379,20.2089509 L15.027618,20.2095553 C14.1690466,20.2095553 13.4730369,20.905565 13.4730369,21.7641365 C13.4730369,22.6227079 14.1690466,23.3187176 15.027618,23.3187176 L17.03,23.318 L17.0303324,40.6337528 C17.0303324,41.5242376 17.3213161,42.3467594 17.8133859,43.0114206 L1.55458117,43.0100792 C0.696009696,43.0100792 0,42.3140695 0,41.455498 C0,40.5969265 0.696009696,39.9009168 1.55458117,39.9009168 L1.55458117,39.9009168 L6.21832471,39.9009168 L6.21832471,5.70013096 C6.22402868,2.55440125 8.77272596,0.00570396668 11.9184557,0 L11.9184557,0 Z M48.6007476,22.0148435 C49.5022854,22.0148435 50.3668985,22.372978 51.004382,23.0104615 C51.6418655,23.647945 52,24.5125581 52,25.4140959 L52,39.0518965 C52,40.9292518 50.4781029,42.4511489 48.6007476,42.4511489 L24.8603689,42.4511489 C22.9830136,42.4511489 21.4611165,40.9292518 21.4611165,39.0518965 L21.4611165,25.4140959 C21.4611165,23.5367407 22.9830136,22.0148435 24.8603689,22.0148435 L48.6007476,22.0148435 Z M47.4721958,34.088988 L42.4141083,34.088988 C42.0680026,34.088988 41.7893201,34.3362064 41.7415109,34.6671929 L41.7342578,34.7688385 L41.7342578,38.5624042 C41.7342578,38.9085098 41.9814761,39.1871924 42.3124627,39.2350015 L42.4141083,39.2422546 L47.4721958,39.2422546 C47.8183015,39.2422546 48.096984,38.9950363 48.1447932,38.6640497 L48.1520463,38.5624042 L48.1520463,34.7688385 C48.1520463,34.3881223 47.8529121,34.088988 47.4721958,34.088988 Z M46.8059423,35.448689 L46.8059423,37.8825537 L43.1075558,37.8825537 L43.1075558,35.448689 L46.8059423,35.448689 Z M51.3201495,30.0098852 L22.140967,30.0098852 C21.7602507,30.0098852 21.4611165,30.3090194 21.4611165,30.6897356 C21.4611165,31.0358413 21.7083348,31.3145238 22.0393214,31.362333 L22.140967,31.3695861 L51.3201495,31.3695861 C51.6662552,31.3695861 51.9449377,31.1223677 51.9927469,30.7913812 L52,30.689 L51.9927469,30.5880901 C51.9449377,30.2571035 51.6662552,30.0098852 51.3201495,30.0098852 Z M51.3201495,26.5562447 L22.140967,26.5562447 C21.7602507,26.5562447 21.4611165,26.855379 21.4611165,27.2360952 C21.4611165,27.5822009 21.7083348,27.8608834 22.0393214,27.9086926 L22.140967,27.9159457 L51.3201495,27.9159457 C51.6662552,27.9159457 51.9449377,27.6687273 51.9927469,27.3377408 L52,27.236 L51.9927469,27.1344496 C51.9449377,26.8034631 51.6662552,26.5562447 51.3201495,26.5562447 Z M23.3187176,13.9912306 L15.027618,13.9912306 C14.1690466,13.9912306 13.4730369,14.6872403 13.4730369,15.5458118 C13.4730369,16.4043832 14.1690466,17.1003929 15.027618,17.1003929 L23.3187176,17.1003929 C24.1772891,17.1003929 24.8732988,16.4043832 24.8732988,15.5458118 C24.8732988,14.6872403 24.1772891,13.9912306 23.3187176,13.9912306 Z M23.3187176,7.77290588 L15.027618,7.77290588 C14.1690466,7.77290588 13.4730369,8.46891557 13.4730369,9.32748704 C13.4730369,10.1860585 14.1690466,10.8820682 15.027618,10.8820682 L23.3187176,10.8820682 C24.1772891,10.8820682 24.8732988,10.1860585 24.8732988,9.32748704 C24.8732988,8.46891557 24.1772891,7.77290588 23.3187176,7.77290588 Z" id="形状"></path>
            </g>
        </g>
    </g>
</svg>