<?xml version="1.0" encoding="UTF-8"?>
<svg width="60px" height="60px" viewBox="0 0 60 60" version="1.1" xmlns="http://www.w3.org/2000/svg" xmlns:xlink="http://www.w3.org/1999/xlink">
    <title>利率及收费标准查询</title>
    <g id="pad" stroke="none" stroke-width="1" fill="none" fill-rule="evenodd">
        <g id="利率及收费标准查询" fill-rule="nonzero">
            <rect id="矩形" fill="#000000" opacity="0" x="0" y="0" width="60" height="60"></rect>
            <path d="M29.9707031,3.75 C44.3496094,3.75 56.0449219,15.4453125 56.0449219,29.8242188 C56.0449219,44.203125 44.3496094,55.8984375 29.9707031,55.8984375 C15.5917969,55.8984375 3.89648438,44.203125 3.89648438,29.8242188 C3.89648438,15.4453125 15.5917969,3.75 29.9707031,3.75 Z M38.3320312,31.1015625 C34.5820312,31.1015625 31.5292969,34.1542969 31.5292969,37.9042969 C31.5292969,41.6542969 34.5820312,44.7070312 38.3320312,44.7070312 C42.0820312,44.7070312 45.1347656,41.6542969 45.1347656,37.9042969 C45.1347656,34.1542969 42.0820312,31.1015625 38.3320312,31.1015625 Z M42.6269531,17.1679688 C41.7421875,16.2832031 40.3066406,16.2832031 39.421875,17.1679688 L39.421875,17.1679688 L17.3144531,39.28125 C16.4296875,40.1660156 16.4296875,41.6015625 17.3144531,42.4863281 C17.7597656,42.9257812 18.3398437,43.1484375 18.9199219,43.1484375 C19.5,43.1484375 20.0800781,42.9257812 20.5195312,42.4804688 L20.5195312,42.4804688 L42.6269531,20.3730469 C43.5117187,19.4882812 43.5117187,18.0527344 42.6269531,17.1679688 Z M38.3320312,35.6367188 C39.5800781,35.6367188 40.5996094,36.65625 40.5996094,37.9042969 C40.5996094,39.1523438 39.5800781,40.171875 38.3320312,40.171875 C37.0839844,40.171875 36.0644531,39.1523438 36.0644531,37.9042969 C36.0644531,36.65625 37.0839844,35.6367188 38.3320312,35.6367188 Z M22.4589844,15.2285156 C18.7089844,15.2285156 15.65625,18.28125 15.65625,22.03125 C15.65625,25.78125 18.7089844,28.8339844 22.4589844,28.8339844 C26.2089844,28.8339844 29.2617188,25.78125 29.2617188,22.03125 C29.2617188,18.28125 26.2089844,15.2285156 22.4589844,15.2285156 Z M22.4589844,19.7636719 C23.7128906,19.7636719 24.7265625,20.7773438 24.7265625,22.03125 C24.7265625,23.2851562 23.7070312,24.2988281 22.4589844,24.2988281 C21.2109375,24.2988281 20.1914062,23.2792969 20.1914062,22.03125 C20.1914062,20.7832031 21.2109375,19.7636719 22.4589844,19.7636719 Z" id="形状" fill="#FFFFFF" opacity="0.962960379"></path>
        </g>
    </g>
</svg>