<?xml version="1.0" encoding="UTF-8"?>
<svg width="60px" height="60px" viewBox="0 0 60 60" version="1.1" xmlns="http://www.w3.org/2000/svg" xmlns:xlink="http://www.w3.org/1999/xlink">
    <title>信用卡已出账单查询</title>
    <g id="pad" stroke="none" stroke-width="1" fill="none" fill-rule="evenodd">
        <g id="信用卡已出账单查询" fill-rule="nonzero">
            <rect id="矩形" fill="#000000" opacity="0" x="0" y="0" width="60" height="60"></rect>
            <g id="形状-17" transform="translate(5.000469, 5.000469)" fill="#FFFFFF" opacity="0.95610119">
                <path d="M24.2210205,0.000633326249 C31.7920427,-0.019681078 38.6739378,0.435049049 43.3009341,3.34938474 C45.4605115,4.71044983 47.0106568,6.82783582 48.0154385,9.34369666 C48.5576769,10.7000738 48.8905206,12.1908386 49.2343028,13.7644236 C49.3311869,14.3926074 49.4280709,15.0239166 49.5265177,15.6521005 C49.7359123,16.7881445 49.6671559,17.9929449 49.8546734,19.1743057 C49.8953022,20.1025177 49.9359311,21.033855 49.9765599,21.9636297 L49.9765599,21.9636297 C49.9874984,22.3386648 49.9953116,22.7199506 50.0046875,23.1012363 L50.0046875,23.1012363 L50.0046875,25.781175 L50.0046875,25.781175 L49.9921863,26.9031552 L49.9921863,27.5500908 C49.9578081,28.3548538 49.9249925,29.1596167 49.8937396,29.962817 L49.8937396,29.962817 L49.8437349,31.0222913 C49.7531014,32.005196 49.6655932,32.9896633 49.5749597,33.9710053 C49.4515106,34.7945199 49.3249363,35.6195973 49.1983619,36.443112 C48.6108068,39.099611 47.924805,41.5123372 46.5903049,43.4109527 C44.85733,45.8799341 42.4805447,47.4941479 39.2802447,48.5036176 C37.8051064,48.9692862 36.211207,49.1927447 34.5407379,49.5021487 C33.7969182,49.5834063 33.0546611,49.6646639 32.3108414,49.7459215 C31.4420099,49.8037394 30.5716158,49.8615573 29.7027844,49.9178126 C29.4121321,49.9303138 29.1183546,49.9412523 28.8261397,49.9537535 C27.8104195,49.9725053 26.7946993,49.9881317 25.7789791,50.0037582 L25.7789791,50.0037582 L24.2210205,50.0037582 C23.847548,50.0006329 23.4740755,49.9959449 23.100603,49.991257 C22.353658,49.9709426 21.6067129,49.9506282 20.8582053,49.9303138 C20.5066098,49.9178126 20.1518891,49.9068741 19.798731,49.8943729 C18.759571,49.8131153 17.7188485,49.7318577 16.6796886,49.6506001 C15.868675,49.5412148 15.0560989,49.4318296 14.2435227,49.3224443 C13.5934618,49.191182 12.9449635,49.0614823 12.2949025,48.9317827 C10.5400505,48.4848658 8.87426938,47.9598166 7.48195137,47.1409898 C4.36290898,45.3080055 2.59086787,42.7812061 1.41419507,39.0042896 C0.979779346,37.6135342 0.789136475,36.1055803 0.500046875,34.5460592 C0.312529297,33.525651 0.353158105,32.4474249 0.184392285,31.3895133 C0.160952588,30.9957263 0.134387598,30.6019394 0.1109479,30.2081525 C0.0906334961,29.6284107 0.0687564453,29.0471062 0.0500046875,28.4658017 C0.0328155762,27.6313485 0.0156264648,26.7937699 0,25.9577541 L0,25.9577541 L0,23.2418745 C0.0281276367,22.3542913 0.0562552734,21.4635828 0.0843829102,20.5744369 C0.0984467285,20.2447185 0.109385254,19.9150001 0.121886426,19.5868444 L0.121886426,19.5868444 L0.353158105,16.6881351 C0.462543359,15.875559 0.571928613,15.0645454 0.681313867,14.2519693 C1.20323779,11.843931 1.65484263,9.57653098 2.72838076,7.73417078 C4.8879582,4.02444802 7.62258955,2.27272131 12.2933399,1.08510999 C13.3059348,0.828835963 14.3779103,0.71476277 15.4608243,0.513181373 C15.9436821,0.455363453 16.4281025,0.400670826 16.9109603,0.342852906 C17.7985435,0.272533815 18.689252,0.203777369 19.5783978,0.135020924 C19.9081162,0.117831813 20.2378346,0.102205348 20.5659904,0.0865788829 C21.0300964,0.0693897716 21.4926397,0.0537633067 21.9551831,0.0365741954 L21.9551831,0.0365741954 Z M17.5223907,11.3852816 L13.1571704,11.3852816 C12.4706958,11.3852816 11.9140932,11.9418244 11.9140932,12.6283589 L11.9140932,12.6283589 L11.9140932,37.3173998 C11.9140932,38.0039942 12.4706358,38.5605369 13.1571704,38.5605369 L13.1571704,38.5605369 L36.6290964,38.5605369 C37.315571,38.5605369 37.8722935,38.0039942 37.8722935,37.3173997 L37.8722935,37.3173997 L37.8722935,12.6283588 C37.8722935,11.9418243 37.3158107,11.3852816 36.6292762,11.3852816 L36.6292762,11.3852816 L32.2516442,11.3852816 C31.8641869,11.424495 31.7007377,11.866995 31.7007377,11.866995 L31.7007377,11.866995 L30.3159166,14.1368761 C30.3159166,14.1368761 30.213566,14.2778405 30.1623607,14.3065611 C30.1182906,14.3312644 29.9914166,14.33762 29.9914166,14.33762 L29.9914166,14.33762 L19.7437646,14.33762 C19.7437646,14.33762 19.64723,14.3265275 19.6116142,14.3065611 C19.5854719,14.291871 19.5181376,14.2353893 19.5181376,14.2353893 L19.5181376,14.2353893 L18.0732972,11.8669951 C18.0732972,11.8669951 17.909848,11.4244951 17.5223907,11.3852816 L17.5223907,11.3852816 Z M31.9522073,30.9449203 C32.1581677,30.9449203 32.3251545,31.111907 32.3251545,31.3177475 L32.3251545,31.3177475 L32.3251545,32.2068247 C32.3251545,32.412905 32.1582276,32.5798318 31.9522073,32.5798318 L31.9522073,32.5798318 L17.8945584,32.5798318 C17.688598,32.5798318 17.5216712,32.412905 17.5216712,32.2068247 L17.5216712,32.2068247 L17.5216712,31.3177475 C17.5216712,31.1119071 17.688598,30.9449203 17.8945584,30.9449203 L17.8945584,30.9449203 Z M31.9522073,25.8171969 C32.1581677,25.8171969 32.3251545,25.9841237 32.3251545,26.1900841 L32.3251545,26.1900841 L32.3251545,27.0791613 C32.3251545,27.2852416 32.1582276,27.4521684 31.9522073,27.4521684 L31.9522073,27.4521684 L17.8945584,27.4521684 C17.688598,27.4521684 17.5216712,27.2852415 17.5216712,27.0791613 L17.5216712,27.0791613 L17.5216712,26.1900841 C17.5216712,25.9841237 17.688598,25.8171969 17.8945584,25.8171969 L17.8945584,25.8171969 Z M31.9522073,20.6895334 C32.1581677,20.6895334 32.3251545,20.8564602 32.3251545,21.0624206 L32.3251545,21.0624206 L32.3251545,21.9514379 C32.3251545,22.1573982 32.1582276,22.324385 31.9522073,22.324385 L31.9522073,22.324385 L17.8945584,22.324385 C17.688598,22.324385 17.5216712,22.1574582 17.5216712,21.9514379 L17.5216712,21.9514379 L17.5216712,21.0624206 C17.5216712,20.8564602 17.688598,20.6895334 17.8945584,20.6895334 L17.8945584,20.6895334 Z M28.8445144,11.3663945 L21.0023114,11.3663945 C20.796351,11.3663945 20.6293642,11.5333213 20.6293642,11.7392817 L20.6293642,11.7392817 L20.6293642,12.6283589 C20.6293642,12.8343193 20.7962911,13.0012461 21.0023114,13.0012461 L21.0023114,13.0012461 L28.8445144,13.0012461 C29.0505347,13.0012461 29.2174615,12.8343193 29.2174615,12.6283589 L29.2174615,12.6283589 L29.2174615,11.7392817 C29.2174615,11.5333213 29.0505347,11.3663945 28.8445144,11.3663945 L28.8445144,11.3663945 Z" id="形状"></path>
            </g>
        </g>
    </g>
</svg>