<?xml version="1.0" encoding="UTF-8"?>
<svg width="60px" height="60px" viewBox="0 0 60 60" version="1.1" xmlns="http://www.w3.org/2000/svg" xmlns:xlink="http://www.w3.org/1999/xlink">
    <title>大额存单凭证式转电子式</title>
    <defs>
        <path d="M54.5965575,4.86106728e-07 C56.2534118,4.86106724e-07 57.5965575,1.34314624 57.5965575,3.00000049 L57.5965575,35.8541512 C57.5965575,37.5110055 56.2534118,38.8541512 54.5965575,38.8541512 L1.832425,38.8541512 C4.16636389,38.3614252 5.33333333,37.5745087 5.33333333,36.4934017 L5.33333333,2.99795466 L5.33333333,2.99795466 C5.33446382,1.34123963 6.67830849,-0.000932489043 8.33502364,4.86106728e-07 L54.5965575,4.86106728e-07 Z M32.2064162,28.1874846 L15.6666667,28.1874846 C15.1143819,28.1874846 14.6666667,28.6351998 14.6666667,29.1874846 L14.6666667,29.1874846 L14.6666667,29.8541512 C14.6666667,30.406436 15.1143819,30.8541512 15.6666667,30.8541512 L15.6666667,30.8541512 L32.2064162,30.8541512 C32.7587009,30.8541512 33.2064162,30.406436 33.2064162,29.8541512 L33.2064162,29.8541512 L33.2064162,29.1874846 C33.2064162,28.6351998 32.7587009,28.1874846 32.2064162,28.1874846 L32.2064162,28.1874846 Z M45.8927251,22.8541512 L15.6666667,22.8541512 C15.1143819,22.8541512 14.6666667,23.3018665 14.6666667,23.8541512 L14.6666667,23.8541512 L14.6666667,24.5208179 C14.6666667,25.0731026 15.1143819,25.5208179 15.6666667,25.5208179 L15.6666667,25.5208179 L45.8927251,25.5208179 C46.4450099,25.5208179 46.8927251,25.0731026 46.8927251,24.5208179 L46.8927251,24.5208179 L46.8927251,23.8541512 C46.8927251,23.3018665 46.4450099,22.8541512 45.8927251,22.8541512 L45.8927251,22.8541512 Z M45.8786667,10.5588338 C45.8087192,10.6036722 45.7637533,10.6769755 45.7540484,10.7573942 L45.7535417,14.4418338 L39.5220417,14.4418338 C39.5220417,14.4418338 36.1629167,14.5270838 35.3145417,11.9558338 C35.4954092,13.8366217 36.4659432,15.552298 37.9847917,16.6762088 C38.6310417,17.1258338 39.3927917,17.3609588 40.1696667,17.3499588 L45.7122917,17.3499588 L45.7122917,20.9744588 C45.7177917,21.0817088 45.7755417,21.1807088 45.8662917,21.2315838 C45.956919,21.2835515 46.0686711,21.2819701 46.1577917,21.2274588 L53.5236667,16.1289588 C53.6006268,16.0767274 53.646514,15.9895933 53.6460453,15.8965838 C53.6460453,15.8040607 53.6002226,15.7175426 53.5236667,15.6655838 L46.1577917,10.5643338 C46.0742735,10.5066859 45.9643909,10.5045208 45.8786667,10.5588338 Z M22.380674,8.37478217 C22.0422095,8.09064269 21.5370727,8.1347284 21.2529332,8.47347726 L21.2529332,8.47347726 L18.6666667,11.5608987 L16.0804001,8.47347726 C15.7962607,8.1347284 15.2914082,8.09064269 14.9526594,8.37478217 C14.6139105,8.65892165 14.5698248,9.16377407 14.8539643,9.50252294 L14.8539643,9.50252294 L17.4669667,12.6220843 L15.4671822,12.6220843 C15.0254719,12.6220843 14.6673822,12.980174 14.6673822,13.4218843 C14.6673822,13.8635946 15.0254719,14.2216843 15.4671822,14.2216843 L15.4671822,14.2216843 L17.8668667,14.2216843 L17.8668667,15.4694519 L15.4671822,15.4694519 C15.0254719,15.4694519 14.6673822,15.8275416 14.6673822,16.269252 C14.6673822,16.7109623 15.0254719,17.069052 15.4671822,17.069052 L15.4671822,17.069052 L17.8668667,17.069052 L17.8668667,19.804641 C17.8668667,20.2463514 18.2249563,20.604441 18.6666667,20.604441 C19.108377,20.604441 19.4664667,20.2463514 19.4664667,19.804641 L19.4664667,19.804641 L19.4664667,17.069052 L21.8661511,17.069052 C22.3078614,17.069052 22.6659511,16.7109623 22.6659511,16.269252 C22.6659511,15.8275416 22.3078614,15.4694519 21.8661511,15.4694519 L21.8661511,15.4694519 L19.4664667,15.4694519 L19.4664667,14.2216843 L21.8661511,14.2216843 C22.3078614,14.2216843 22.6659511,13.8635946 22.6659511,13.4218843 C22.6659511,12.980174 22.3078614,12.6220843 21.8661511,12.6220843 L21.8661511,12.6220843 L19.8663667,12.6220843 L22.4793691,9.50252294 C22.7635085,9.16377407 22.7194228,8.65892165 22.380674,8.37478217 Z M33.2415417,3.39658382 L33.2401667,3.39795882 L25.8770417,8.49645882 C25.8000815,8.5486902 25.7541943,8.63582437 25.7546631,8.72883382 C25.7546631,8.82233382 25.8014167,8.91033382 25.8770417,8.96120882 L33.2401667,14.0583338 C33.3254167,14.1160838 33.4326667,14.1188338 33.5192917,14.0652088 C33.6072508,14.0095128 33.6562164,13.9089204 33.6457917,13.8053338 L33.6457917,10.1822088 L39.8772917,10.1822088 C39.8772917,10.1822088 43.2350417,10.0997088 44.0847917,12.6695838 C43.9039242,10.788796 42.9333901,9.07311961 41.4145417,7.94920882 C40.7743419,7.50119441 40.00962,7.2655254 39.2282917,7.27545882 L33.6499167,7.27545882 L33.6499167,3.64958382 C33.660885,3.54552615 33.6118508,3.44425979 33.5234167,3.38833382 C33.4364947,3.33361083 33.3251143,3.33687074 33.2415417,3.39658382 Z" id="path-1"></path>
        <filter x="-0.9%" y="-1.3%" width="101.8%" height="102.6%" filterUnits="objectBoundingBox" id="filter-2">
            <feOffset dx="0" dy="-1" in="SourceAlpha" result="shadowOffsetInner1"></feOffset>
            <feComposite in="shadowOffsetInner1" in2="SourceAlpha" operator="arithmetic" k2="-1" k3="1" result="shadowInnerInner1"></feComposite>
            <feColorMatrix values="0 0 0 0 0   0 0 0 0 0   0 0 0 0 0  0 0 0 0.132921766 0" type="matrix" in="shadowInnerInner1"></feColorMatrix>
        </filter>
    </defs>
    <g id="pad" stroke="none" stroke-width="1" fill="none" fill-rule="evenodd">
        <g id="大额存单凭证式转电子式">
            <rect id="矩形" fill="#FFFFFF" opacity="0" x="0" y="0" width="60" height="60"></rect>
            <g id="明细查询备份" transform="translate(1.333333, 10.666666)">
                <path d="M2.02777205,9.5489783 L2.38259716,9.55390589 C3.47623073,9.56909358 4.3548251,10.459974 4.3548251,11.5537131 C4.3548251,19.5531849 4.3548251,27.5526567 4.3548251,35.5521286 C4.3548251,36.6057736 5.38823457,36.9441391 7.4550535,36.5672251 L7.4550535,36.8541512 C7.4550535,37.9587207 6.559623,38.8541512 5.4550535,38.8541512 L2,38.8541512 C0.8954305,38.8541512 1.3527075e-16,37.9587207 0,36.8541512 L0,11.5487855 C-1.3527075e-16,10.444216 0.8954305,9.54878547 2,9.54878547 C2.00925769,9.54878547 2.01851526,9.54884975 2.02777205,9.5489783 Z" id="矩形" fill="#FFFFFF"></path>
                <g id="矩形备份-34" opacity="0.962425595">
                    <use fill="#FFFFFF" fill-rule="evenodd" xlink:href="#path-1"></use>
                    <use fill="black" fill-opacity="1" filter="url(#filter-2)" xlink:href="#path-1"></use>
                </g>
            </g>
        </g>
    </g>
</svg>