<?xml version="1.0" encoding="UTF-8"?>
<svg width="60px" height="60px" viewBox="0 0 60 60" version="1.1" xmlns="http://www.w3.org/2000/svg" xmlns:xlink="http://www.w3.org/1999/xlink">
    <title>大额存单开立</title>
    <defs>
        <path d="M54.5965575,4.86106728e-07 C56.2534118,4.86106724e-07 57.5965575,1.34314624 57.5965575,3.00000049 L57.5965575,35.8541512 C57.5965575,37.5110055 56.2534118,38.8541512 54.5965575,38.8541512 L1.832425,38.8541512 C4.16636389,38.3614252 5.33333333,37.5745087 5.33333333,36.4934017 L5.33333333,2.99795466 L5.33333333,2.99795466 C5.33446382,1.34123963 6.67830849,-0.000932489043 8.33502364,4.86106728e-07 L54.5965575,4.86106728e-07 Z M32.2064162,28.1874846 L15.6666667,28.1874846 C15.1143819,28.1874846 14.6666667,28.6351998 14.6666667,29.1874846 L14.6666667,29.1874846 L14.6666667,29.8541512 C14.6666667,30.406436 15.1143819,30.8541512 15.6666667,30.8541512 L15.6666667,30.8541512 L32.2064162,30.8541512 C32.7587009,30.8541512 33.2064162,30.406436 33.2064162,29.8541512 L33.2064162,29.8541512 L33.2064162,29.1874846 C33.2064162,28.6351998 32.7587009,28.1874846 32.2064162,28.1874846 L32.2064162,28.1874846 Z M45.8927251,22.8541512 L15.6666667,22.8541512 C15.1143819,22.8541512 14.6666667,23.3018665 14.6666667,23.8541512 L14.6666667,23.8541512 L14.6666667,24.5208179 C14.6666667,25.0731026 15.1143819,25.5208179 15.6666667,25.5208179 L15.6666667,25.5208179 L45.8927251,25.5208179 C46.4450099,25.5208179 46.8927251,25.0731026 46.8927251,24.5208179 L46.8927251,24.5208179 L46.8927251,23.8541512 C46.8927251,23.3018665 46.4450099,22.8541512 45.8927251,22.8541512 L45.8927251,22.8541512 Z M22.380674,8.37478217 C22.0422095,8.09064269 21.5370727,8.1347284 21.2529332,8.47347726 L21.2529332,8.47347726 L18.6666667,11.5608987 L16.0804001,8.47347726 C15.7962607,8.1347284 15.2914082,8.09064269 14.9526594,8.37478217 C14.6139105,8.65892165 14.5698248,9.16377407 14.8539643,9.50252294 L14.8539643,9.50252294 L17.4669667,12.6220843 L15.4671822,12.6220843 C15.0254719,12.6220843 14.6673822,12.980174 14.6673822,13.4218843 C14.6673822,13.8635946 15.0254719,14.2216843 15.4671822,14.2216843 L15.4671822,14.2216843 L17.8668667,14.2216843 L17.8668667,15.4694519 L15.4671822,15.4694519 C15.0254719,15.4694519 14.6673822,15.8275416 14.6673822,16.269252 C14.6673822,16.7109623 15.0254719,17.069052 15.4671822,17.069052 L15.4671822,17.069052 L17.8668667,17.069052 L17.8668667,19.804641 C17.8668667,20.2463514 18.2249563,20.604441 18.6666667,20.604441 C19.108377,20.604441 19.4664667,20.2463514 19.4664667,19.804641 L19.4664667,19.804641 L19.4664667,17.069052 L21.8661511,17.069052 C22.3078614,17.069052 22.6659511,16.7109623 22.6659511,16.269252 C22.6659511,15.8275416 22.3078614,15.4694519 21.8661511,15.4694519 L21.8661511,15.4694519 L19.4664667,15.4694519 L19.4664667,14.2216843 L21.8661511,14.2216843 C22.3078614,14.2216843 22.6659511,13.8635946 22.6659511,13.4218843 C22.6659511,12.980174 22.3078614,12.6220843 21.8661511,12.6220843 L21.8661511,12.6220843 L19.8663667,12.6220843 L22.4793691,9.50252294 C22.7635085,9.16377407 22.7194228,8.65892165 22.380674,8.37478217 Z" id="path-1"></path>
        <filter x="-0.9%" y="-1.3%" width="101.8%" height="102.6%" filterUnits="objectBoundingBox" id="filter-2">
            <feOffset dx="0" dy="-1" in="SourceAlpha" result="shadowOffsetInner1"></feOffset>
            <feComposite in="shadowOffsetInner1" in2="SourceAlpha" operator="arithmetic" k2="-1" k3="1" result="shadowInnerInner1"></feComposite>
            <feColorMatrix values="0 0 0 0 0   0 0 0 0 0   0 0 0 0 0  0 0 0 0.132921766 0" type="matrix" in="shadowInnerInner1"></feColorMatrix>
        </filter>
    </defs>
    <g id="pad" stroke="none" stroke-width="1" fill="none" fill-rule="evenodd">
        <g id="大额存单开立">
            <rect id="矩形" fill-opacity="0" fill="#D8D8D8" x="0" y="0" width="60" height="60"></rect>
            <g id="明细查询备份" transform="translate(1.333333, 10.666666)">
                <path d="M2.02777205,9.5489783 L2.38259716,9.55390589 C3.47623073,9.56909358 4.3548251,10.459974 4.3548251,11.5537131 C4.3548251,19.5531849 4.3548251,27.5526567 4.3548251,35.5521286 C4.3548251,36.6057736 5.38823457,36.9441391 7.4550535,36.5672251 L7.4550535,36.8541512 C7.4550535,37.9587207 6.559623,38.8541512 5.4550535,38.8541512 L2,38.8541512 C0.8954305,38.8541512 1.3527075e-16,37.9587207 0,36.8541512 L0,11.5487855 C-1.3527075e-16,10.444216 0.8954305,9.54878547 2,9.54878547 C2.00925769,9.54878547 2.01851526,9.54884975 2.02777205,9.5489783 Z" id="矩形" fill="#FFFFFF"></path>
                <g id="矩形备份-34" opacity="0.962425595">
                    <use fill="#FFFFFF" fill-rule="evenodd" xlink:href="#path-1"></use>
                    <use fill="black" fill-opacity="1" filter="url(#filter-2)" xlink:href="#path-1"></use>
                </g>
            </g>
        </g>
    </g>
</svg>