<?xml version="1.0" encoding="UTF-8"?>
<svg width="60px" height="60px" viewBox="0 0 60 60" version="1.1" xmlns="http://www.w3.org/2000/svg" xmlns:xlink="http://www.w3.org/1999/xlink">
    <title>林保兑付</title>
    <g id="pad" stroke="none" stroke-width="1" fill="none" fill-rule="evenodd">
        <g id="林保兑付" fill-rule="nonzero">
            <rect id="矩形" fill="#000000" opacity="0" x="0" y="0" width="60" height="60"></rect>
            <path d="M12.3164062,38.5664062 L12.3164062,40.4121094 C12.3164062,41.5722656 12.3222656,42.7324219 12.3164062,43.8925781 C12.3105469,44.8183594 11.8125,45.3691406 10.9980469,45.375 C10.5117187,45.375 10.0253906,45.3808594 9.53320312,45.375 C8.81835937,45.3691406 8.3203125,44.8183594 8.3203125,44.0039062 C8.31445312,42.3457031 8.30859375,40.6816406 8.32617187,39.0234375 C8.33203125,38.6777344 8.25585937,38.5605469 7.92773437,38.5664062 C6.26367187,38.5839844 4.59960937,38.5722656 2.9296875,38.5722656 L2.46679687,38.5722656 C4.24804687,36 6.27539062,33.7265625 7.78710937,30.9082031 L3.88476562,30.9082031 C5.4375,28.6816406 7.16015625,26.7363281 8.4375,24.3046875 L3.97265625,24.3046875 C3.94921875,24.2636719 3.92578125,24.2285156 3.90234375,24.1875 C6.3046875,21.2636719 8.35546875,18.0351562 10.3066406,14.6308594 C12.2753906,18.0234375 14.296875,21.2636719 16.7167969,24.1699219 C16.6992187,24.2050781 16.6875,24.2402344 16.6699219,24.2753906 L12.1699219,24.2753906 C13.4472656,26.7246094 15.1699219,28.6757812 16.7226562,30.890625 L12.8203125,30.890625 C14.3320312,33.7265625 16.3652344,35.9941406 18.1523437,38.5722656 C16.1777344,38.5664062 14.2734375,38.5664062 12.3164062,38.5664062 Z M29.9941406,3.328125 C33.4101562,9.2109375 36.9199219,14.8359375 41.1152344,19.8808594 L41.0332031,20.0625 L41.0332031,20.0625 L33.2285156,20.0625 C35.4492187,24.3105469 38.4316406,27.6914062 41.1269531,31.5351563 L34.359375,31.5351563 C35.9034926,34.4303768 37.7578125,36.9849832 39.6539936,39.5066731 L40.7945788,41.0181987 C41.7456747,42.2786143 42.6938189,43.5461857 43.6054687,44.859375 C40.1953125,44.8535156 36.890625,44.8535156 33.4921875,44.8535156 L33.4921875,48.0585938 C33.4921875,50.0742188 33.5039062,52.0839844 33.4863281,54.0996094 C33.4746094,55.7109375 32.6132812,56.6601563 31.1953125,56.6660156 C30.3515625,56.6660156 29.5019531,56.671875 28.6582031,56.6660156 C27.4160156,56.6542969 26.5546875,55.6992188 26.5488281,54.2871094 C26.5371094,51.4042969 26.53125,48.5273438 26.5546875,45.6445313 C26.5605469,45.0410156 26.4257812,44.8417969 25.8691406,44.8476562 C22.9804687,44.8828125 20.0917969,44.8652344 17.203125,44.8652344 L16.3945312,44.8652344 C19.4882812,40.4003906 22.9980469,36.4628906 25.6289062,31.5703125 L18.8554687,31.5703125 C21.5507812,27.7089844 24.5332031,24.328125 26.7539062,20.109375 L19.0019531,20.109375 C18.9609375,20.0449219 18.9199219,19.9746094 18.8789062,19.9101562 C23.0449219,14.8359375 26.6015625,9.24023438 29.9941406,3.328125 Z M50.0507812,14.6308594 C52.0195312,18.0234375 54.0410156,21.2636719 56.4609375,24.1699219 C56.4433594,24.2050781 56.4316406,24.2402344 56.4140625,24.2753906 L51.9140625,24.2753906 C53.1914062,26.7246094 54.9140625,28.6757812 56.4667969,30.890625 L52.5644531,30.890625 C54.0761719,33.7265625 56.109375,35.9941406 57.8964844,38.5722656 C55.9277344,38.5664062 54.0234375,38.5664062 52.0605469,38.5664062 L52.0605469,40.4121094 C52.0605469,41.5722656 52.0664062,42.7324219 52.0605469,43.8925781 C52.0546875,44.8183594 51.5566406,45.3691406 50.7421875,45.375 C50.2558594,45.375 49.7695312,45.3808594 49.2773437,45.375 C48.5625,45.3691406 48.0644531,44.8183594 48.0644531,44.0039062 C48.0585937,42.3457031 48.0527344,40.6816406 48.0703125,39.0234375 C48.0761719,38.6777344 48,38.5605469 47.671875,38.5664062 C46.0078125,38.5839844 44.34375,38.5722656 42.6738281,38.5722656 L42.2109375,38.5722656 C43.9921875,36 46.0195312,33.7265625 47.53125,30.9082031 L43.6289062,30.9082031 C45.1816406,28.6816406 46.9042969,26.7363281 48.1816406,24.3046875 L43.7167969,24.3046875 C43.6933594,24.2636719 43.6699219,24.2285156 43.6464844,24.1875 C46.0488281,21.2636719 48.0996094,18.0351562 50.0507812,14.6308594 Z" id="形状" fill="#FFFFFF" opacity="0.961983817"></path>
        </g>
    </g>
</svg>