<?xml version="1.0" encoding="UTF-8"?>
<svg width="60px" height="60px" viewBox="0 0 60 60" version="1.1" xmlns="http://www.w3.org/2000/svg" xmlns:xlink="http://www.w3.org/1999/xlink">
    <title>林保查询</title>
    <g id="pad" stroke="none" stroke-width="1" fill="none" fill-rule="evenodd">
        <g id="林保查询" fill="#FFFFFF" fill-rule="nonzero">
            <rect id="矩形" opacity="0" x="0" y="0" width="60" height="60"></rect>
            <path d="M12.3164062,38.5664062 L12.3164062,40.4121094 C12.3164062,41.5722656 12.3222656,42.7324219 12.3164062,43.8925781 C12.3105469,44.8183594 11.8125,45.3691406 10.9980469,45.375 C10.5117187,45.375 10.0253906,45.3808594 9.53320312,45.375 C8.81835938,45.3691406 8.3203125,44.8183594 8.3203125,44.0039062 C8.31445312,42.3457031 8.30859375,40.6816406 8.32617188,39.0234375 C8.33203125,38.6777344 8.25585938,38.5605469 7.92773438,38.5664062 C6.26367187,38.5839844 4.59960938,38.5722656 2.9296875,38.5722656 L2.46679688,38.5722656 C4.24804688,36 6.27539062,33.7265625 7.78710938,30.9082031 L3.88476563,30.9082031 C5.4375,28.6816406 7.16015625,26.7363281 8.4375,24.3046875 L3.97265625,24.3046875 C3.94921875,24.2636719 3.92578125,24.2285156 3.90234375,24.1875 C6.3046875,21.2636719 8.35546875,18.0351562 10.3066406,14.6308594 C12.2753906,18.0234375 14.296875,21.2636719 16.7167969,24.1699219 C16.6992188,24.2050781 16.6875,24.2402344 16.6699219,24.2753906 L12.1699219,24.2753906 C13.4472656,26.7246094 15.1699219,28.6757812 16.7226562,30.890625 L12.8203125,30.890625 C14.3320312,33.7265625 16.3652344,35.9941406 18.1523438,38.5722656 C16.1777344,38.5664062 14.2734375,38.5664062 12.3164062,38.5664062 Z M44,30.6445312 C51.9283203,30.6445312 58.3554688,37.0716797 58.3554688,45 C58.3554688,52.9283203 51.9283203,59.3554688 44,59.3554688 C36.0716797,59.3554688 29.6445312,52.9283203 29.6445312,45 C29.6445312,37.0716797 36.0716797,30.6445312 44,30.6445312 Z M30.2930705,56.6675963 L31.1953125,56.6660156 C30.3515625,56.6660156 29.5019531,56.671875 28.6582031,56.6660156 C27.4160156,56.6542969 26.5546875,55.6992188 26.5488281,54.2871094 C26.5421929,52.6548503 26.5374362,51.0244696 26.5388122,49.3938402 C27.2233134,52.1175571 28.5273616,54.5952763 30.2930705,56.6675963 Z M46.6677734,38.4899414 C44.1374023,35.9595703 40.0203125,35.9595703 37.4899414,38.4899414 C34.9595703,41.0203125 34.9595703,45.1374023 37.4899414,47.6677734 C39.7806641,49.9584961 43.371582,50.175293 45.9086914,48.31875 L45.9086914,48.31875 L50.7447266,53.1547852 C51.0880859,53.4981445 51.6444336,53.4981445 51.987793,53.1547852 L51.987793,53.1547852 L52.1547852,52.987793 C52.4981445,52.6444336 52.4981445,52.0880859 52.1547852,51.7447266 L52.1547852,51.7447266 L47.31875,46.9086914 C49.175293,44.371582 48.9584961,40.7806641 46.6677734,38.4899414 Z M40.8782835,38.5990821 C42.4788271,38.1701964 44.1865979,38.6277785 45.3582839,39.7994588 C46.5300051,40.9711039 46.9876468,42.6788588 46.558817,44.2794173 C46.1299871,45.8799759 44.8798364,47.1301702 43.2792928,47.5590559 C41.6787492,47.9879416 39.9709784,47.5303595 38.7992924,46.3586792 C37.6275713,45.1870341 37.1699295,43.4792793 37.5987594,41.8787207 C38.0275892,40.2781621 39.2777399,39.0279678 40.8782835,38.5990821 Z M29.9941406,3.328125 C33.4101562,9.2109375 36.9199219,14.8359375 41.1152344,19.8808594 L41.0332031,20.0625 L41.0332031,20.0625 L33.2285156,20.0625 C34.7251201,22.9253977 36.567686,25.3944316 38.4351772,27.8767258 C31.2629306,30.2053749 26.0647067,36.9167413 26.0005996,44.8515262 C25.9607215,44.8481418 25.9164551,44.8471582 25.8691406,44.8476562 C22.9804688,44.8828125 20.0917969,44.8652344 17.203125,44.8652344 L16.3945312,44.8652344 C19.4882812,40.4003906 22.9980469,36.4628906 25.6289062,31.5703125 L18.8554688,31.5703125 C21.5507812,27.7089844 24.5332031,24.328125 26.7539062,20.109375 L19.0019531,20.109375 C18.9609375,20.0449219 18.9199219,19.9746094 18.8789062,19.9101562 C23.0449219,14.8359375 26.6015625,9.24023438 29.9941406,3.328125 Z M50.0507812,14.6308594 C52.0195312,18.0234375 54.0410156,21.2636719 56.4609375,24.1699219 C56.4433594,24.2050781 56.4316406,24.2402344 56.4140625,24.2753906 L51.9140625,24.2753906 C53.1914062,26.7246094 54.9140625,28.6757812 56.4667969,30.890625 L55.177827,30.8903612 C52.6963708,28.921873 49.6835959,27.5941408 46.3895545,27.157217 C47.0348807,26.2542312 47.6472336,25.3220219 48.1816406,24.3046875 L43.7167969,24.3046875 C43.6933594,24.2636719 43.6699219,24.2285156 43.6464844,24.1875 C46.0488281,21.2636719 48.0996094,18.0351562 50.0507812,14.6308594 Z" id="形状"></path>
        </g>
    </g>
</svg>