<?xml version="1.0" encoding="UTF-8"?>
<svg width="60px" height="60px" viewBox="0 0 60 60" version="1.1" xmlns="http://www.w3.org/2000/svg" xmlns:xlink="http://www.w3.org/1999/xlink">
    <title>我的理财</title>
    <g id="pad" stroke="none" stroke-width="1" fill="none" fill-rule="evenodd">
        <g id="我的理财" fill-rule="nonzero">
            <rect id="矩形" fill="#000000" opacity="0" x="0" y="0" width="60" height="60"></rect>
            <path d="M40.2344078,6.66666667 C41.8104819,6.66975662 43.2600255,7.53019112 44.0175328,8.91229165 L54.7025328,28.2872917 C55.4325765,29.6130158 55.4325765,31.2203175 54.7025328,32.5460417 L44.0175328,51.9210416 C43.2600255,53.3031422 41.8104819,54.1635767 40.2344078,54.1666667 L19.0156578,54.1666667 C17.4395837,54.1635767 15.9900401,53.3031422 15.2325328,51.9210416 L4.54753278,32.5460417 C3.81748907,31.2203175 3.81748907,29.6130158 4.54753278,28.2872917 L15.2325328,8.91229165 C15.9900401,7.53019114 17.4395837,6.66975664 19.0156578,6.66666667 L40.2344078,6.66666667 Z M24.3125,20.5019872 C23.9996354,20.0998258 23.3741146,19.8316487 22.7707552,20.1221435 C22.2122135,20.3902945 22.0557812,21.1276122 22.2791927,21.6191747 L22.2791927,21.6191747 L26.8597396,27.7638622 L21.1842708,27.7638622 C20.53625,27.7638622 20,28.1883935 20,28.679956 C20,29.2832893 20.5363021,29.663133 21.1842708,29.663133 L21.1842708,29.663133 L27.7758594,29.663133 L27.7758594,32.5902685 L21.1842708,32.5902685 C20.53625,32.5902685 20,32.9925341 20,33.528758 C20,34.064982 20.5363021,34.5119351 21.1842708,34.5119351 L21.1842708,34.5119351 L27.7535156,34.5119351 L27.7535156,40.1427164 C27.7535156,40.6342789 28.3345052,41.2152164 29.0271875,41.2152164 C29.7867969,41.2152164 30.2560677,40.6342789 30.2560677,40.1427164 L30.2560677,40.1427164 L30.2560677,34.5119351 L37.1158073,34.5119351 C37.76375,34.5119351 38.3446875,34.065008 38.3446875,33.5734455 C38.3446875,32.9924299 37.763776,32.5902685 37.1158073,32.5902685 L37.1159375,32.5904247 L30.2561979,32.568107 L30.2561979,29.6409716 L36.8477865,29.6409716 C37.4957292,29.6409716 38.0766667,29.2611539 38.0766667,28.702482 C38.0766667,28.1438101 37.4957552,27.7416487 36.8477865,27.7416487 L36.8477865,27.7416487 L31.2616927,27.7416487 L36.0210417,21.9320653 C36.0210417,21.9320653 36.5572656,20.9264924 35.7081771,20.4126122 C34.903776,19.9433674 34.2334635,20.5242789 33.920599,20.971232 L33.920599,20.971232 L29.071849,26.9148258 Z" id="路径-20" fill="#FFFFFF" opacity="0.958449591"></path>
        </g>
    </g>
</svg>