<?xml version="1.0" encoding="UTF-8"?>
<svg width="60px" height="60px" viewBox="0 0 60 60" version="1.1" xmlns="http://www.w3.org/2000/svg" xmlns:xlink="http://www.w3.org/1999/xlink">
    <title>无卡无折存款</title>
    <g id="pad" stroke="none" stroke-width="1" fill="none" fill-rule="evenodd">
        <g id="无卡无折存款">
            <rect id="矩形" stroke="#979797" fill="#D8D8D8" opacity="0" x="0.5" y="0.5" width="59" height="59"></rect>
            <path d="M53.6666667,15.0199877 L53.6666667,50.630907 C53.6666667,52.2877613 52.3235209,53.630907 50.6666667,53.630907 L10,53.630907 C8.34314575,53.630907 7,52.2877613 7,50.630907 L7,15.0199877 L28.237167,28.0870936 C29.522686,28.8780659 31.1439807,28.8780659 32.4294996,28.0870936 L53.6666667,15.0199877 Z M25.6458333,29.4662276 C25.3329688,29.0640661 24.7074479,28.795889 24.1040885,29.0863838 C23.5455469,29.3545348 23.3891146,30.0918526 23.612526,30.5834151 L23.612526,30.5834151 L28.1930729,36.7281026 L22.5176042,36.7281026 C21.8695833,36.7281026 21.3333333,37.1526338 21.3333333,37.6441963 C21.3333333,38.2475296 21.8696354,38.6273734 22.5176042,38.6273734 L22.5176042,38.6273734 L29.1091927,38.6273734 L29.1091927,41.5545088 L22.5176042,41.5545088 C21.8695833,41.5545088 21.3333333,41.9567744 21.3333333,42.4929984 C21.3333333,43.0292223 21.8696354,43.4761755 22.5176042,43.4761755 L22.5176042,43.4761755 L29.086849,43.4761755 L29.086849,49.1069567 C29.086849,49.5985192 29.6678385,50.1794567 30.3605208,50.1794567 C31.1201302,50.1794567 31.589401,49.5985192 31.589401,49.1069567 L31.589401,49.1069567 L31.589401,43.4761755 L38.4491406,43.4761755 C39.0970833,43.4761755 39.6780208,43.0292484 39.6780208,42.5376859 C39.6780208,41.9566703 39.0971094,41.5545088 38.4492708,41.5546651 L38.4492708,41.5546651 L31.5895313,41.5323473 L31.5895313,38.6052119 L38.1811198,38.6052119 C38.8290625,38.6052119 39.41,38.2253942 39.41,37.6667223 C39.41,37.1080505 38.8290885,36.705889 38.1811198,36.705889 L38.1811198,36.705889 L32.595026,36.705889 L37.354375,30.8963057 C37.354375,30.8963057 37.890599,29.8907328 37.0415104,29.3768526 C36.2371094,28.9076078 35.5667969,29.4885192 35.2539323,29.9354723 L35.2539323,29.9354723 L30.4051823,35.8790661 Z M50.6666667,7 C52.3235209,7 53.6666667,8.34314575 53.6666667,10 L53.6666667,12.7157764 L32.4582954,26.0142495 C31.1588208,26.8290706 29.5078458,26.8290706 28.2083712,26.0142495 L7,12.7157764 L7,10 C7,8.34314575 8.34314575,7 10,7 L50.6666667,7 Z" id="矩形-4" fill="#FFFFFF" opacity="0.958844866"></path>
        </g>
    </g>
</svg>