<?xml version="1.0" encoding="UTF-8"?>
<svg width="60px" height="60px" viewBox="0 0 60 60" version="1.1" xmlns="http://www.w3.org/2000/svg" xmlns:xlink="http://www.w3.org/1999/xlink">
    <title>存折开户</title>
    <g id="pad" stroke="none" stroke-width="1" fill="none" fill-rule="evenodd">
        <g id="存折开户">
            <rect id="矩形" stroke="#979797" fill="#D8D8D8" opacity="0" x="0.5" y="0.5" width="59" height="59"></rect>
            <path d="M51.6666667,12 C53.3235209,12 54.6666667,13.3431458 54.6666667,15 L54.6666667,45 C54.6666667,46.6568542 53.3235209,48 51.6666667,48 L8.33333333,48 C6.67647908,48 5.33333333,46.6568542 5.33333333,45 L5.33333333,15 C5.33333333,13.3431458 6.67647908,12 8.33333333,12 L51.6666667,12 Z M24.6666667,35.047619 L12.2222222,35.047619 C11.1851852,35.047619 10.6666667,35.4285715 10.6666667,36.1904762 L10.6666667,36.1904762 L10.6720492,36.3209755 C10.729463,36.9958807 11.2461874,37.3333333 12.2222222,37.3333333 L12.2222222,37.3333333 L24.6666667,37.3333333 C25.7037037,37.3333333 26.2222222,36.952381 26.2222222,36.1904762 L26.2222222,36.1904762 L26.2168397,36.0599769 C26.1594258,35.3850717 25.6427015,35.047619 24.6666667,35.047619 L24.6666667,35.047619 Z M24.6666667,28.1904762 L12.2222222,28.1904762 C11.1851852,28.1904762 10.6666667,28.5714286 10.6666667,29.3333334 L10.6666667,29.3333334 L10.6720492,29.4638326 C10.729463,30.1387379 11.2461874,30.4761905 12.2222222,30.4761905 L12.2222222,30.4761905 L24.6666667,30.4761905 C25.7037037,30.4761905 26.2222222,30.0952381 26.2222222,29.3333334 L26.2222222,29.3333334 L26.2168397,29.2028341 C26.1594258,28.5279288 25.6427015,28.1904762 24.6666667,28.1904762 L24.6666667,28.1904762 Z M27.7777778,21.3333333 L12.2222222,21.3333333 C11.1851852,21.3333333 10.6666667,21.7142858 10.6666667,22.4761905 L10.6666667,22.4761905 L10.6720492,22.6066898 C10.729463,23.281595 11.2461874,23.6190476 12.2222222,23.6190476 L12.2222222,23.6190476 L27.7777778,23.6190476 C28.8148148,23.6190476 29.3333333,23.2380953 29.3333333,22.4761905 L29.3333333,22.4761905 L29.3279508,22.3456912 C29.270537,21.670786 28.7538126,21.3333333 27.7777778,21.3333333 L27.7777778,21.3333333 Z M41.0279311,40.9074627 C35.5552016,40.9074627 31.11799,36.4698115 31.11799,30.997102 C31.11799,25.5239727 35.5552016,21.0867612 41.0279311,21.0867612 C46.50152,21.0867612 50.9379121,25.5239727 50.9379121,30.997102 C50.9379121,36.4698115 46.50154,40.9074627 41.0279311,40.9074627 Z M46.2245176,26.0664444 C46.3830552,25.8556353 46.6817354,25.8136585 46.8921394,25.9726163 L46.8921394,25.9726163 L48.0352491,26.8336397 C48.2456409,26.9917919 48.2877261,27.291244 48.1291357,27.5016771 L48.1291357,27.5016771 L45.6889996,30.7394243 L44.2537642,32.6440226 L42.04299,35.5757612 L41.7407733,35.9945598 C41.6034789,36.1839997 41.3522362,36.2424253 41.1483842,36.1442832 L41.0744762,36.1000909 L40.1777137,35.4620613 L38.2483572,34.0602842 L34.9681552,31.6770431 C34.7550186,31.5222252 34.7078387,31.2243428 34.8626898,31.0111605 L34.8626898,31.0111605 L35.7036122,29.8532011 C35.8584301,29.6400645 36.1571613,29.5927501 36.3699291,29.7476668 L36.3699291,29.7476668 L39.6501342,32.1309277 L40.94499,33.0717612 L42.3491659,31.2087872 L43.7843815,29.3041917 Z" id="矩形-2" fill="#FFFFFF" opacity="0.958844866"></path>
        </g>
    </g>
</svg>