<?xml version="1.0" encoding="UTF-8"?>
<svg width="60px" height="60px" viewBox="0 0 60 60" version="1.1" xmlns="http://www.w3.org/2000/svg" xmlns:xlink="http://www.w3.org/1999/xlink">
    <title>存折补磁</title>
    <g id="pad" stroke="none" stroke-width="1" fill="none" fill-rule="evenodd">
        <g id="存折补磁">
            <rect id="矩形" stroke="#979797" fill="#D8D8D8" opacity="0" x="0.5" y="0.5" width="59" height="59"></rect>
            <path d="M51.6666667,12 C53.3235209,12 54.6666667,13.3431458 54.6666667,15 L54.6666667,45 C54.6666667,46.6568542 53.3235209,48 51.6666667,48 L8.33333333,48 C6.67647908,48 5.33333333,46.6568542 5.33333333,45 L5.33333333,15 C5.33333333,13.3431458 6.67647908,12 8.33333333,12 L51.6666667,12 Z M37.470625,26 L35.8235937,26 C35.369375,26 35,26.3695313 35,26.8235938 L35,26.8235938 L35,33.8235938 C35,37.2292188 37.770625,40 41.1764062,40 C44.5820312,40 47.3528125,37.2292188 47.3529687,33.8235938 L47.3529687,33.8235938 L47.3529687,26.8235938 C47.3529687,26.369375 46.9835937,26 46.529375,26 L46.529375,26 L44.8823437,26 C44.428125,26 44.05875,26.3695313 44.05875,26.8235938 L44.05875,26.8235938 L44.05875,33.8235938 C44.05875,35.4129688 42.7657812,36.7059375 41.1764062,36.7059375 C39.5870312,36.7059375 38.2942187,35.4129688 38.2942187,33.8235938 L38.2942187,33.8235938 L38.2942187,26.8235938 C38.2942187,26.369375 37.9246875,26 37.470625,26 L37.470625,26 Z M24.6666667,37.047619 L12.2222222,37.047619 C11.1851852,37.047619 10.6666667,37.4285715 10.6666667,38.1904762 L10.6666667,38.1904762 L10.6720492,38.3209755 C10.729463,38.9958807 11.2461874,39.3333333 12.2222222,39.3333333 L12.2222222,39.3333333 L24.6666667,39.3333333 C25.7037037,39.3333333 26.2222222,38.952381 26.2222222,38.1904762 L26.2222222,38.1904762 L26.2168397,38.0599769 C26.1594258,37.3850717 25.6427015,37.047619 24.6666667,37.047619 L24.6666667,37.047619 Z M24.6666667,30.1904762 L12.2222222,30.1904762 C11.1851852,30.1904762 10.6666667,30.5714286 10.6666667,31.3333334 L10.6666667,31.3333334 L10.6720492,31.4638326 C10.729463,32.1387379 11.2461874,32.4761905 12.2222222,32.4761905 L12.2222222,32.4761905 L24.6666667,32.4761905 C25.7037037,32.4761905 26.2222222,32.0952381 26.2222222,31.3333334 L26.2222222,31.3333334 L26.2168397,31.2028341 C26.1594258,30.5279288 25.6427015,30.1904762 24.6666667,30.1904762 L24.6666667,30.1904762 Z M27.7777778,23.3333333 L12.2222222,23.3333333 C11.1851852,23.3333333 10.6666667,23.7142858 10.6666667,24.4761905 L10.6666667,24.4761905 L10.6720492,24.6066898 C10.729463,25.281595 11.2461874,25.6190476 12.2222222,25.6190476 L12.2222222,25.6190476 L27.7777778,25.6190476 C28.8148148,25.6190476 29.3333333,25.2380953 29.3333333,24.4761905 L29.3333333,24.4761905 L29.3279508,24.3456912 C29.270537,23.670786 28.7538126,23.3333333 27.7777778,23.3333333 L27.7777778,23.3333333 Z M37.470625,22 L35.8235937,22 C35.369375,22 35,22.3695313 35,22.8235938 L35,22.8235938 L35,24.8823438 C35,25.1096875 35.184375,25.2940625 35.4117187,25.2940625 L35.4117187,25.2940625 L37.8823437,25.2940625 C38.1098437,25.2940625 38.2942187,25.1096875 38.2942187,24.8823438 L38.2942187,24.8823438 L38.2942187,22.8235938 C38.2942187,22.369375 37.9246875,22 37.470625,22 L37.470625,22 Z M46.529375,22 L44.8823437,22 C44.428125,22 44.05875,22.3695313 44.05875,22.8235938 L44.05875,22.8235938 L44.05875,24.8823438 C44.05875,25.1096875 44.243125,25.2940625 44.4704687,25.2940625 L44.4704687,25.2940625 L46.9410937,25.2940625 C47.1684375,25.2940625 47.3528125,25.1096875 47.3529687,24.8823438 L47.3529687,24.8823438 L47.3529687,22.8235938 C47.3529687,22.369375 46.9835937,22 46.529375,22 L46.529375,22 Z M37.4704687,22.8235938 L37.4704687,24.470625 L35.8234375,24.470625 L35.8234375,22.8235938 L37.4704687,22.8235938 Z M46.5292187,22.8235938 L46.5292187,24.470625 L44.8821875,24.470625 L44.8821875,22.8235938 L46.5292187,22.8235938 Z" id="矩形-2" fill="#FFFFFF" opacity="0.958844866"></path>
        </g>
    </g>
</svg>