<?xml version="1.0" encoding="UTF-8"?>
<svg width="60px" height="60px" viewBox="0 0 60 60" version="1.1" xmlns="http://www.w3.org/2000/svg" xmlns:xlink="http://www.w3.org/1999/xlink">
    <title>存折销户</title>
    <g id="pad" stroke="none" stroke-width="1" fill="none" fill-rule="evenodd">
        <g id="存折销户">
            <rect id="矩形" stroke="#979797" fill="#D8D8D8" opacity="0" x="0.5" y="0.5" width="59" height="59"></rect>
            <path d="M51.6666667,12 C53.3235209,12 54.6666667,13.3431458 54.6666667,15 L54.6666667,45 C54.6666667,46.6568542 53.3235209,48 51.6666667,48 L8.33333333,48 C6.67647908,48 5.33333333,46.6568542 5.33333333,45 L5.33333333,15 C5.33333333,13.3431458 6.67647908,12 8.33333333,12 L51.6666667,12 Z M24.6666667,35.047619 L12.2222222,35.047619 C11.1851852,35.047619 10.6666667,35.4285715 10.6666667,36.1904762 L10.6666667,36.1904762 L10.6720492,36.3209755 C10.729463,36.9958807 11.2461874,37.3333333 12.2222222,37.3333333 L12.2222222,37.3333333 L24.6666667,37.3333333 C25.7037037,37.3333333 26.2222222,36.952381 26.2222222,36.1904762 L26.2222222,36.1904762 L26.2168397,36.0599769 C26.1594258,35.3850717 25.6427015,35.047619 24.6666667,35.047619 L24.6666667,35.047619 Z M24.6666667,28.1904762 L12.2222222,28.1904762 C11.1851852,28.1904762 10.6666667,28.5714286 10.6666667,29.3333334 L10.6666667,29.3333334 L10.6720492,29.4638326 C10.729463,30.1387379 11.2461874,30.4761905 12.2222222,30.4761905 L12.2222222,30.4761905 L24.6666667,30.4761905 C25.7037037,30.4761905 26.2222222,30.0952381 26.2222222,29.3333334 L26.2222222,29.3333334 L26.2168397,29.2028341 C26.1594258,28.5279288 25.6427015,28.1904762 24.6666667,28.1904762 L24.6666667,28.1904762 Z M27.7777778,21.3333333 L12.2222222,21.3333333 C11.1851852,21.3333333 10.6666667,21.7142858 10.6666667,22.4761905 L10.6666667,22.4761905 L10.6720492,22.6066898 C10.729463,23.281595 11.2461874,23.6190476 12.2222222,23.6190476 L12.2222222,23.6190476 L27.7777778,23.6190476 C28.8148148,23.6190476 29.3333333,23.2380953 29.3333333,22.4761905 L29.3333333,22.4761905 L29.3279508,22.3456912 C29.270537,21.670786 28.7538126,21.3333333 27.7777778,21.3333333 L27.7777778,21.3333333 Z M41.0279311,40.9074627 C35.5552016,40.9074627 31.11799,36.4698115 31.11799,30.997102 C31.11799,25.5239727 35.5552016,21.0867612 41.0279311,21.0867612 C46.50152,21.0867612 50.9379121,25.5239727 50.9379121,30.997102 C50.9379121,36.4698115 46.50154,40.9074627 41.0279311,40.9074627 Z M45.5724099,28.1074811 C45.7587436,27.9211675 45.7587436,27.6187725 45.5724099,27.4328785 L44.5602562,26.4211445 C44.3740224,26.2344511 44.0724069,26.2344511 43.8860732,26.4211445 L41.0190771,29.2877809 L38.1520409,26.4211445 C37.9657872,26.2344511 37.6641917,26.2344511 37.477858,26.4211445 L36.4657043,27.4328785 C36.2794106,27.6187725 36.2794106,27.9211874 36.4657043,28.1074811 L39.3327604,30.9740976 L36.4657043,33.8410937 C36.2794106,34.0270077 36.2794106,34.3294626 36.4657043,34.5157163 L37.477858,35.5274304 C37.6641917,35.7137241 37.9657872,35.7137241 38.1520409,35.5274304 L41.0190771,32.6604342 L43.8860732,35.5274304 C44.0724069,35.7137241 44.3740224,35.7137241 44.5602562,35.5274304 L45.5724099,34.5157163 C45.7587436,34.3294626 45.7587436,34.0270077 45.5724099,33.8410937 L42.7054137,30.9741175 L45.5724099,28.1074811 Z" id="矩形-2" fill="#FFFFFF" opacity="0.958844866"></path>
        </g>
    </g>
</svg>