<?xml version="1.0" encoding="UTF-8"?>
<svg width="60px" height="60px" viewBox="0 0 60 60" version="1.1" xmlns="http://www.w3.org/2000/svg" xmlns:xlink="http://www.w3.org/1999/xlink">
    <title>存折更换</title>
    <g id="pad" stroke="none" stroke-width="1" fill="none" fill-rule="evenodd">
        <g id="存折更换">
            <rect id="矩形" stroke="#979797" fill="#D8D8D8" opacity="0" x="0.5" y="0.5" width="59" height="59"></rect>
            <path d="M51.6666667,12 C53.3235209,12 54.6666667,13.3431458 54.6666667,15 L54.6666667,45 C54.6666667,46.6568542 53.3235209,48 51.6666667,48 L8.33333333,48 C6.67647908,48 5.33333333,46.6568542 5.33333333,45 L5.33333333,15 C5.33333333,13.3431458 6.67647908,12 8.33333333,12 L51.6666667,12 Z M24.6666667,35.047619 L12.2222222,35.047619 C11.1851852,35.047619 10.6666667,35.4285715 10.6666667,36.1904762 L10.6666667,36.1904762 L10.6720492,36.3209755 C10.729463,36.9958807 11.2461874,37.3333333 12.2222222,37.3333333 L12.2222222,37.3333333 L24.6666667,37.3333333 C25.7037037,37.3333333 26.2222222,36.952381 26.2222222,36.1904762 L26.2222222,36.1904762 L26.2168397,36.0599769 C26.1594258,35.3850717 25.6427015,35.047619 24.6666667,35.047619 L24.6666667,35.047619 Z M24.6666667,28.1904762 L12.2222222,28.1904762 C11.1851852,28.1904762 10.6666667,28.5714286 10.6666667,29.3333334 L10.6666667,29.3333334 L10.6720492,29.4638326 C10.729463,30.1387379 11.2461874,30.4761905 12.2222222,30.4761905 L12.2222222,30.4761905 L24.6666667,30.4761905 C25.7037037,30.4761905 26.2222222,30.0952381 26.2222222,29.3333334 L26.2222222,29.3333334 L26.2168397,29.2028341 C26.1594258,28.5279288 25.6427015,28.1904762 24.6666667,28.1904762 L24.6666667,28.1904762 Z M27.7777778,21.3333333 L12.2222222,21.3333333 C11.1851852,21.3333333 10.6666667,21.7142858 10.6666667,22.4761905 L10.6666667,22.4761905 L10.6720492,22.6066898 C10.729463,23.281595 11.2461874,23.6190476 12.2222222,23.6190476 L12.2222222,23.6190476 L27.7777778,23.6190476 C28.8148148,23.6190476 29.3333333,23.2380953 29.3333333,22.4761905 L29.3333333,22.4761905 L29.3279508,22.3456912 C29.270537,21.670786 28.7538126,21.3333333 27.7777778,21.3333333 L27.7777778,21.3333333 Z M41.0311478,21.149569 C35.5074739,21.149569 31.0311478,25.6270961 31.0311478,31.149569 C31.0311478,36.6720019 35.5074739,41.149569 41.0311578,41.149569 C46.5548417,41.149569 51.0311478,36.672082 51.0311478,31.149569 C51.0311478,25.6270961 46.5548417,21.149569 41.0311478,21.149569 Z M42.0370216,32.9732726 L42.0370216,30.5367771 C40.8272908,30.5367771 37.7462875,30.5648601 37.7462875,33.8802755 C37.7462875,35.6161972 38.9229912,37.0644833 40.4880129,37.3995603 C37.9745544,37.0431258 36.0312028,34.8122788 36.0312028,32.0840043 C36.0312028,27.0162138 41.2033588,26.9735589 42.0370616,26.9735589 L42.0370616,24.8995603 L46.0311928,28.9516789 L42.0370216,32.9732726 Z" id="矩形-2" fill="#FFFFFF" opacity="0.958844866"></path>
        </g>
    </g>
</svg>