<?xml version="1.0" encoding="UTF-8"?>
<svg width="60px" height="60px" viewBox="0 0 60 60" version="1.1" xmlns="http://www.w3.org/2000/svg" xmlns:xlink="http://www.w3.org/1999/xlink">
    <title>存折回收</title>
    <g id="pad" stroke="none" stroke-width="1" fill="none" fill-rule="evenodd">
        <g id="存折回收">
            <rect id="矩形" stroke="#979797" fill="#D8D8D8" opacity="0" x="0.5" y="0.5" width="59" height="59"></rect>
            <path d="M51.6666667,12 C53.3235209,12 54.6666667,13.3431458 54.6666667,15 L54.6666667,45 C54.6666667,46.6568542 53.3235209,48 51.6666667,48 L8.33333333,48 C6.67647908,48 5.33333333,46.6568542 5.33333333,45 L5.33333333,15 C5.33333333,13.3431458 6.67647908,12 8.33333333,12 L51.6666667,12 Z M24.6666667,35.047619 L12.2222222,35.047619 C11.1851852,35.047619 10.6666667,35.4285715 10.6666667,36.1904762 L10.6666667,36.1904762 L10.6720492,36.3209755 C10.729463,36.9958807 11.2461874,37.3333333 12.2222222,37.3333333 L12.2222222,37.3333333 L24.6666667,37.3333333 C25.7037037,37.3333333 26.2222222,36.952381 26.2222222,36.1904762 L26.2222222,36.1904762 L26.2168397,36.0599769 C26.1594258,35.3850717 25.6427015,35.047619 24.6666667,35.047619 L24.6666667,35.047619 Z M24.6666667,28.1904762 L12.2222222,28.1904762 C11.1851852,28.1904762 10.6666667,28.5714286 10.6666667,29.3333334 L10.6666667,29.3333334 L10.6720492,29.4638326 C10.729463,30.1387379 11.2461874,30.4761905 12.2222222,30.4761905 L12.2222222,30.4761905 L24.6666667,30.4761905 C25.7037037,30.4761905 26.2222222,30.0952381 26.2222222,29.3333334 L26.2222222,29.3333334 L26.2168397,29.2028341 C26.1594258,28.5279288 25.6427015,28.1904762 24.6666667,28.1904762 L24.6666667,28.1904762 Z M27.7777778,21.3333333 L12.2222222,21.3333333 C11.1851852,21.3333333 10.6666667,21.7142858 10.6666667,22.4761905 L10.6666667,22.4761905 L10.6720492,22.6066898 C10.729463,23.281595 11.2461874,23.6190476 12.2222222,23.6190476 L12.2222222,23.6190476 L27.7777778,23.6190476 C28.8148148,23.6190476 29.3333333,23.2380953 29.3333333,22.4761905 L29.3333333,22.4761905 L29.3279508,22.3456912 C29.270537,21.670786 28.7538126,21.3333333 27.7777778,21.3333333 L27.7777778,21.3333333 Z M39.4080078,23.5492187 C40.4328125,24.46875 42.1601563,26.5591797 42.2503906,26.66875 L40.9806641,27.5388672 L45.6126953,27.5367187 L46.9705078,23.8542969 L45.6685547,24.4730469 L44.4761719,23.0787109 C44.4611328,23.0615234 44.1775391,22.7134766 43.9240234,22.6189453 C43.6705078,22.5265625 43.2,22.5544922 43.1742188,22.5544922 L37.8912109,22.8982422 C38.0244141,22.8939453 38.6818359,22.9003906 39.4080078,23.5492187 L39.4080078,23.5492187 Z M47.1251953,33.5867187 C47.2347656,33.5609375 49.3337891,33.0603516 49.7398438,32.7509766 C50.14375,32.4416016 50.7474609,31.8013672 50.6035156,30.8796875 L47.6107422,27.1650391 L44.1753906,29.6207031 L47.1251953,33.5867187 L47.1251953,33.5867187 Z M40.4414063,25.0960937 C40.3683594,25.0166016 38.9246094,23.5298828 38.4347656,23.3365234 C38.1404297,23.2226562 37.6935547,23.1001953 37.2037109,23.1324219 C36.8792969,23.1560547 36.5333984,23.2484375 36.1982422,23.4546875 L33.884375,27.5109375 L37.8632813,29.2318359 L40.4414063,25.0960937 Z M49.1082031,33.4427734 C47.7525391,33.8617187 44.9337891,34.3193359 44.7855469,34.3429687 L44.4783203,32.9185547 L42.4566406,36.6826172 L45.4988281,39.4519531 L45.4580078,38.115625 L47.3572266,37.7761719 C47.3787109,37.771875 47.8470703,37.6988281 48.0511719,37.5333984 C48.2552734,37.3701172 48.4335938,36.9748047 48.4421875,36.9533203 L50.4123047,32.5060547 C50.3628906,32.6177734 50.0664063,33.1484375 49.1082031,33.4427734 L49.1082031,33.4427734 Z M35.9919922,34.4847656 C35.9576172,34.5835937 35.3195313,36.4634766 35.396875,36.9425781 C35.4720703,37.4238281 35.7513672,38.2294922 36.6880859,38.6183594 L41.7261719,38.3240234 L41.240625,34.3580078 L35.9919922,34.4847656 L35.9919922,34.4847656 Z M35.0789063,36.0810547 C35.4033203,34.815625 36.4582031,32.4029297 36.5140625,32.2761719 L38.0072266,32.8111328 L35.5580078,29.2253906 L31.375,30.0654297 L32.6425781,30.7572266 L31.9615234,32.3986328 C31.9529297,32.4201172 31.7767578,32.8175781 31.821875,33.0625 C31.8691406,33.3074219 32.1419922,33.6533203 32.1570313,33.6748047 L35.2679688,37.5871094 C35.1884766,37.4861328 34.8511719,36.9726562 35.0789063,36.0810547 Z" id="矩形-2" fill="#FFFFFF" opacity="0.958844866"></path>
        </g>
    </g>
</svg>