<?xml version="1.0" encoding="UTF-8"?>
<svg width="60px" height="60px" viewBox="0 0 60 60" version="1.1" xmlns="http://www.w3.org/2000/svg" xmlns:xlink="http://www.w3.org/1999/xlink">
    <title>存折补登</title>
    <g id="pad" stroke="none" stroke-width="1" fill="none" fill-rule="evenodd">
        <g id="存折补登">
            <rect id="矩形" stroke="#979797" fill="#D8D8D8" opacity="0" x="0.5" y="0.5" width="59" height="59"></rect>
            <path d="M51.6666667,12 C53.3235209,12 54.6666667,13.3431458 54.6666667,15 L54.6666667,45 C54.6666667,46.6568542 53.3235209,48 51.6666667,48 L8.33333333,48 C6.67647908,48 5.33333333,46.6568542 5.33333333,45 L5.33333333,15 C5.33333333,13.3431458 6.67647908,12 8.33333333,12 L51.6666667,12 Z M24.6666667,35.047619 L12.2222222,35.047619 C11.1851852,35.047619 10.6666667,35.4285715 10.6666667,36.1904762 L10.6666667,36.1904762 L10.6720492,36.3209755 C10.729463,36.9958807 11.2461874,37.3333333 12.2222222,37.3333333 L12.2222222,37.3333333 L24.6666667,37.3333333 C25.7037037,37.3333333 26.2222222,36.952381 26.2222222,36.1904762 L26.2222222,36.1904762 L26.2168397,36.0599769 C26.1594258,35.3850717 25.6427015,35.047619 24.6666667,35.047619 L24.6666667,35.047619 Z M41,22 L40.3333333,22 C39.7810486,22 39.3333333,22.4477153 39.3333333,23 L39.3333333,23 L39.3333333,28 L34.3333333,28 C33.8204975,28 33.3978262,28.3860402 33.3400611,28.8833789 L33.3333333,29 L33.3333333,29.6666667 C33.3333333,30.2189514 33.7810486,30.6666667 34.3333333,30.6666667 L34.3333333,30.6666667 L39.3333333,30.666 L39.3333333,35.6666667 C39.3333333,36.1795025 39.7193735,36.6021738 40.2167122,36.6599389 L40.3333333,36.6666667 L41,36.6666667 C41.5522847,36.6666667 42,36.2189514 42,35.6666667 L42,35.6666667 L41.9993333,30.666 L47,30.6666667 C47.5128358,30.6666667 47.9355072,30.2806265 47.9932723,29.7832878 L48,29.6666667 L48,29 C48,28.4477153 47.5522847,28 47,28 L47,28 L41.9993333,28 L42,23 C42,22.4871642 41.6139598,22.0644928 41.1166211,22.0067277 L41,22 Z M24.6666667,28.1904762 L12.2222222,28.1904762 C11.1851852,28.1904762 10.6666667,28.5714286 10.6666667,29.3333334 L10.6666667,29.3333334 L10.6720492,29.4638326 C10.729463,30.1387379 11.2461874,30.4761905 12.2222222,30.4761905 L12.2222222,30.4761905 L24.6666667,30.4761905 C25.7037037,30.4761905 26.2222222,30.0952381 26.2222222,29.3333334 L26.2222222,29.3333334 L26.2168397,29.2028341 C26.1594258,28.5279288 25.6427015,28.1904762 24.6666667,28.1904762 L24.6666667,28.1904762 Z M27.7777778,21.3333333 L12.2222222,21.3333333 C11.1851852,21.3333333 10.6666667,21.7142858 10.6666667,22.4761905 L10.6666667,22.4761905 L10.6720492,22.6066898 C10.729463,23.281595 11.2461874,23.6190476 12.2222222,23.6190476 L12.2222222,23.6190476 L27.7777778,23.6190476 C28.8148148,23.6190476 29.3333333,23.2380953 29.3333333,22.4761905 L29.3333333,22.4761905 L29.3279508,22.3456912 C29.270537,21.670786 28.7538126,21.3333333 27.7777778,21.3333333 L27.7777778,21.3333333 Z" id="矩形-2" fill="#FFFFFF" opacity="0.958844866"></path>
        </g>
    </g>
</svg>