<?xml version="1.0" encoding="UTF-8"?>
<svg width="60px" height="60px" viewBox="0 0 60 60" version="1.1" xmlns="http://www.w3.org/2000/svg" xmlns:xlink="http://www.w3.org/1999/xlink">
    <title>缴费业务</title>
    <g id="pad" stroke="none" stroke-width="1" fill="none" fill-rule="evenodd">
        <g id="缴费业务" fill-rule="nonzero">
            <rect id="矩形" fill="#000000" opacity="0" x="0" y="0" width="60" height="60"></rect>
            <path d="M51.12375,15.51 C52.3725,16.75875 53.01375,18.30375 53.0475,20.14875 L53.0475,46.39875 C53.01375,48.24375 52.3725,49.78875 51.12375,51.0375 C49.875,52.28625 48.33,52.9275 46.485,52.96125 L13.6725,52.96125 C11.8275,52.9275 10.27875,52.28625 9.03375,51.0375 C7.785,49.78875 7.14375,48.24375 7.11,46.39875 L7.11,20.14875 C7.14375,18.30375 7.785,16.75875 9.03375,15.51 C10.2825,14.26125 11.8275,13.62 13.6725,13.58625 L46.485,13.58625 C48.33,13.62375 49.875,14.26125 51.12375,15.51 Z M10.82625,9.87 C10.53375,9.58125 10.39125,9.17625 10.39125,8.66625 C10.39125,8.15625 10.5375,7.75125 10.82625,7.4625 C11.115,7.17375 11.52,7.0275 12.03,7.0275 L48.12375,7.0275 C48.6375,7.0275 49.03875,7.17375 49.3275,7.4625 C49.61625,7.755 49.7625,8.15625 49.7625,8.66625 C49.7625,9.17625 49.61625,9.58125 49.3275,9.87 C49.035,10.1625 48.63375,10.305 48.12375,10.305 L12.03,10.305 C11.51625,10.305 11.115,10.1625 10.82625,9.87 Z M31.7175,35.22375 L31.7175,33.27375 L36.6375,33.27375 C37.15125,33.27375 37.5525,33.1275 37.84125,32.83875 C38.13,32.55 38.27625,32.145 38.27625,31.635 C38.27625,31.125 38.13,30.72 37.84125,30.43125 C37.54875,30.1425 37.1475,29.99625 36.6375,29.99625 L33.66375,29.99625 L36.945,26.715 C37.28625,26.37375 37.45875,25.9875 37.45875,25.56 C37.45875,25.1325 37.28625,24.7575 36.945,24.43125 C36.60375,24.105 36.22875,23.94375 35.81625,23.94375 C35.40375,23.94375 35.02875,24.0975 34.6875,24.405 L30.075,29.0175 L25.4625,24.765 C25.12125,24.42375 24.74625,24.25125 24.33375,24.25125 C23.92125,24.25125 23.54625,24.42375 23.205,24.765 C22.86375,25.10625 22.69125,25.48125 22.69125,25.89375 C22.69125,26.30625 22.86375,26.68125 23.205,27.0225 L26.48625,29.99625 L23.5125,29.99625 C22.99875,29.99625 22.5975,30.1425 22.30875,30.43125 C22.01625,30.72375 21.87375,31.125 21.87375,31.635 C21.87375,32.145 22.02,32.55 22.30875,32.83875 C22.5975,33.13125 23.0025,33.27375 23.5125,33.27375 L28.4325,33.27375 L28.4325,35.22375 L23.51625,35.22375 C23.0025,35.2575 22.60125,35.4225 22.3125,35.71125 C22.02,36.00375 21.8775,36.39375 21.8775,36.88875 C21.8775,37.38375 22.02375,37.7775 22.3125,38.06625 C22.60125,38.35875 23.00625,38.50125 23.51625,38.50125 L28.43625,38.50125 L28.43625,41.1675 C28.43625,41.6475 28.5825,42.03 28.87125,42.3225 C29.16,42.615 29.565,42.7575 30.075,42.7575 C30.585,42.7575 30.99,42.61125 31.27875,42.3225 C31.5675,42.03375 31.71375,41.6475 31.71375,41.1675 L31.71375,38.50125 L36.63375,38.50125 C37.1475,38.50125 37.54875,38.355 37.8375,38.06625 C38.12625,37.7775 38.2725,37.38375 38.2725,36.88875 C38.2725,36.39375 38.12625,36 37.8375,35.71125 C37.545,35.4225 37.14375,35.2575 36.63375,35.22375 L31.7175,35.22375 L31.7175,35.22375 Z" id="形状" fill="#FFFFFF" opacity="0.962960379"></path>
        </g>
    </g>
</svg>