<?xml version="1.0" encoding="UTF-8"?>
<svg width="60px" height="60px" viewBox="0 0 60 60" version="1.1" xmlns="http://www.w3.org/2000/svg" xmlns:xlink="http://www.w3.org/1999/xlink">
    <title>对私明细查询打印</title>
    <g id="pad" stroke="none" stroke-width="1" fill="none" fill-rule="evenodd">
        <g id="对私明细查询打印" fill-rule="nonzero">
            <rect id="矩形" fill="#000000" opacity="0" x="0" y="0" width="60" height="60"></rect>
            <path d="M21.3632812,42.1875 L15.4335937,42.1875 C14.4082031,42.1464844 13.6054687,41.2792969 13.6464844,40.2539063 C13.6875,39.28125 14.4609375,38.5078125 15.4335937,38.4667969 L21.2695312,38.4667969 C21.4160156,36.7558594 21.84375,35.0800781 22.5234375,33.5097656 L15.4394531,33.5097656 C14.4140625,33.46875 13.6113281,32.6015625 13.6523438,31.5761719 C13.6933594,30.6035156 14.4667969,29.8300781 15.4394531,29.7890625 L24.7734375,29.7890625 C26.5957031,27.5332031 28.9980469,25.8164062 31.7226562,24.8320312 L15.4394531,24.8320312 C14.4140625,24.8320312 13.5761719,24 13.5820312,22.96875 C13.5820312,21.9433594 14.4140625,21.1113281 15.4394531,21.1113281 L43.8867188,21.1113281 C44.9121094,21.1113281 45.75,21.9433594 45.7441406,22.9746094 C45.7441406,24 44.9121094,24.8320312 43.8867188,24.8320312 L42.4921875,24.8320312 C47.5253906,26.6660156 51.3105469,30.9023438 52.5644634,36.1171875 L52.5644634,9.38085938 C52.5703125,6.28125 50.0625,3.75585938 46.9628906,3.73828125 L12.3515625,3.73828125 C9.25195312,3.76171875 6.75585938,6.27539062 6.75585938,9.375 L6.75585938,49.6289062 C6.75585938,52.7285156 9.2578125,55.2480469 12.3574219,55.265625 L32.6542969,55.265625 C26.6601562,53.4902344 22.2480469,48.3808594 21.3632812,42.1875 Z M39.6207391,27.2632108 C40.0401353,27.3490407 40.4588814,27.4582788 40.8672238,27.5837726 C41.2755662,27.7092663 41.6722045,27.8562176 42.0623406,28.020725 C42.4524767,28.1852323 42.8309087,28.3679461 43.198937,28.5682159 C43.5669654,28.7684858 43.9252404,28.9863117 44.2705108,29.2184427 C45.654734,30.1534877 46.8466904,31.3454441 47.7817354,32.7296673 C48.0151668,33.0749378 48.2368942,33.4358136 48.4319622,33.8018913 C48.6270302,34.1679689 48.8168964,34.5529032 48.9794531,34.9391379 C49.1420098,35.3253727 49.291562,35.7304639 49.4170557,36.1336045 C49.5425495,36.5367451 49.6517876,36.960693 49.7376176,37.3800893 C49.8242888,37.8069898 49.889394,38.2379864 49.9326856,38.6714397 C50.0224381,39.5556437 50.0224381,40.4466631 49.9326856,41.3308672 C49.889394,41.7643205 49.8242888,42.1953171 49.7376176,42.6222176 C49.6517876,43.0409636 49.5425495,43.4603599 49.4170557,43.8687024 C49.291562,44.2770448 49.1446107,44.6743333 48.9794531,45.0631689 C48.6526786,45.8366943 48.2515567,46.5766575 47.7817354,47.2726395 C46.8466904,48.6568628 45.654734,49.8488192 44.2705108,50.7838642 C43.9252403,51.0172956 43.5643645,51.2390229 43.198937,51.434091 C42.8335096,51.629159 42.4479251,51.818375 42.0623406,51.9815819 C41.6767561,52.1447888 41.2703644,52.2930405 40.8672238,52.4191845 C40.4640832,52.5453285 40.0401353,52.6539164 39.6207391,52.7397463 C39.2013428,52.8255763 38.7624397,52.8925496 38.3300389,52.9348144 C37.8881716,52.9787711 37.4443729,53.0004727 37.0003251,52.9998506 C36.5562773,53.0004727 36.1124786,52.9787711 35.6706113,52.9348144 C34.809398,52.8506693 33.9591666,52.6778776 33.1334264,52.4191845 C31.9250477,52.0431337 30.7782393,51.4921837 29.7294892,50.7838642 C28.3454512,49.8485947 27.1535341,48.6566776 26.2182646,47.2726395 C25.9848332,46.9273691 25.7631058,46.5664933 25.5680378,46.2004156 C25.3729698,45.8343379 25.1831035,45.4494037 25.0198966,45.0631689 C24.6883611,44.2761808 24.434647,43.4586332 24.2623824,42.6222176 C24.1757588,42.1953087 24.1106539,41.7643145 24.0673144,41.3308672 C23.9775619,40.4466631 23.9775619,39.5556437 24.0673144,38.6714397 C24.1106539,38.2379924 24.1757588,37.8069982 24.2623824,37.3800893 C24.3482124,36.9613432 24.4574505,36.5419469 24.5829442,36.1336045 C24.708438,35.7252621 24.8553893,35.3279736 25.0198966,34.9391379 C25.184404,34.5503023 25.3671177,34.1705699 25.5680378,33.8018913 C25.7689579,33.4332127 25.9861336,33.0749377 26.2182646,32.7296673 C27.1535341,31.3456293 28.3454512,30.1537122 29.7294892,29.2184427 C30.0754099,28.9850113 30.4362857,28.763284 30.8017132,28.5682159 C31.1671407,28.3731479 31.5527251,28.1839319 31.9383096,28.020725 C32.72517,27.6888395 33.5427525,27.4351145 34.3792609,27.2632108 C34.8060527,27.1759259 35.2370807,27.1108159 35.6706113,27.0681427 C36.9896127,26.9331791 38.3214525,26.998949 39.6207391,27.2632108 Z M32.2319171,37.4890585 L31.4833186,37.4890585 C31.0850257,37.4890585 30.7620357,37.8120485 30.7620357,38.2103413 L30.7620357,45.3476823 C30.7620357,45.7459751 31.0850257,46.0689651 31.4833186,46.0689651 L43.0454381,46.0689651 C43.4437309,46.0689651 43.7667209,45.7459751 43.7667209,45.3476823 L43.7667209,38.2103413 C43.7667209,37.8118639 43.4437309,37.4890585 43.0454381,37.4890585 L42.2968395,37.4890585 L42.2968395,41.0578212 C42.2968395,41.456114 41.9738495,41.7791041 41.5755567,41.7791041 L32.9532,41.7791041 C32.5549071,41.7791041 32.2319171,41.456114 32.2319171,41.0578212 L32.2319171,37.4890585 Z M40.9406506,34.1064801 L33.588106,34.1064801 L33.490245,34.1130657 C33.1734266,34.1560578 32.9219097,34.4048365 32.8747745,34.7203214 L32.8668232,34.8277629 L32.8668232,40.3908007 L32.8734088,40.4886618 C32.9164009,40.8054802 33.1651796,41.0569971 33.4806645,41.1041323 L33.588106,41.1120835 L40.9406506,41.1120835 L41.0385117,41.1054979 C41.3553301,41.0625058 41.606847,40.8137272 41.6539822,40.4982422 L41.6619335,40.3908007 L41.6619335,34.8277629 L41.6553478,34.7299019 C41.6075789,34.3778814 41.3057524,34.1064801 40.9406506,34.1064801 Z M40.0820509,39.3388991 C40.2701234,39.3388991 40.4227592,39.4913504 40.4227592,39.6796075 C40.4227592,39.8441709 40.3060387,39.9816031 40.1507411,40.0133899 L40.0820509,40.0203158 L34.4468903,40.0203158 L34.3782531,40.0133975 C34.2230438,39.9816435 34.106182,39.8443324 34.106182,39.6796075 C34.106182,39.5150441 34.2229025,39.3776118 34.3782002,39.345825 L34.4468903,39.3388991 L40.0820509,39.3388991 Z M40.0820509,37.605827 C40.2701234,37.605827 40.4227592,37.7582783 40.4227592,37.9465353 C40.4227592,38.1112603 40.3060387,38.2485714 40.1507411,38.2803253 L40.0820509,38.2872437 L34.4468903,38.2872437 L34.3782531,38.2803253 C34.2230438,38.2485714 34.106182,38.1112603 34.106182,37.9465353 C34.106182,37.7818104 34.2229025,37.6444993 34.3782002,37.6127454 L34.4468903,37.605827 L40.0820509,37.605827 Z M40.0820509,35.7448509 C40.2701234,35.7448509 40.4227592,35.8973022 40.4227592,36.0855592 C40.4227592,36.2501226 40.3060387,36.3875549 40.1507411,36.4193416 L40.0820509,36.4262675 L37.7093453,36.4262675 L37.6406551,36.4193416 C37.4853575,36.3875549 37.368637,36.2501226 37.368637,36.0855592 C37.368637,35.9209958 37.4853575,35.7835635 37.6406551,35.7517768 L37.7093453,35.7448509 L40.0820509,35.7448509 Z M43.8867188,12.4335938 C44.9121094,12.4746094 45.7148438,13.3417969 45.6738281,14.3671875 C45.6328125,15.3398438 44.859375,16.1132812 43.8867188,16.1542969 L15.4335938,16.1542969 C14.4082031,16.1132812 13.6054688,15.2460938 13.6464844,14.2207031 C13.6875,13.2480469 14.4667969,12.4746094 15.4335938,12.4335938 L43.8867188,12.4335938 Z" id="形状" fill="#FFFFFF"></path>
        </g>
    </g>
</svg>