<?xml version="1.0" encoding="UTF-8"?>
<svg width="60px" height="61px" viewBox="0 0 60 61" version="1.1" xmlns="http://www.w3.org/2000/svg" xmlns:xlink="http://www.w3.org/1999/xlink">
    <title>定期子账户查询与打印</title>
    <g id="pad" stroke="none" stroke-width="1" fill="none" fill-rule="evenodd">
        <g id="定期子账户查询与打印" transform="translate(0.000000, 0.432480)" fill-rule="nonzero">
            <rect id="矩形" fill="#000000" opacity="0" x="0" y="0" width="60" height="60"></rect>
            <path d="M54.5,12.75 L54.5,16.5 L2,16.5 L2,12.75 C2,10.6875 3.6875,9 5.75,9 L50.75,9 C52.8125,9 54.5,10.6875 54.5,12.75 Z M54.5,20.25 L54.5007631,28.219516 C52.6192913,27.2791151 50.4964272,26.75 48.25,26.75 C40.5181111,26.75 34.25,33.0181111 34.25,40.75 C34.25,42.7996924 34.6904969,44.7465166 35.4819868,46.5009686 L5.75,46.5 C3.6875,46.5 2,44.8125 2,42.75 L2,20.25 L54.5,20.25 Z M28.2661689,39.5 L5.75,39.5 L5.75,41.375 L28.2661689,41.375 L28.2661689,39.5 Z M12.3744715,23.33 C9.95495935,23.33 7.98813008,25.2968293 7.98813008,27.7163415 C7.98813008,28.8090244 8.39398374,29.8080488 9.0495935,30.5729268 C7.30130081,31.6812195 6.14617886,33.632439 6.14617886,35.8334146 C6.14617886,36.5202439 6.70813008,37.0821951 7.39495935,37.0821951 C8.08178862,37.0821951 8.64373984,36.5202439 8.64373984,35.8334146 C8.64373984,33.7729268 10.3139837,32.1026829 12.3744715,32.1026829 C14.4349593,32.1026829 16.1052033,33.7729268 16.1052033,35.8334146 C16.1052033,36.5202439 16.6671545,37.0821951 17.3539837,37.0821951 C18.040813,37.0821951 18.6027642,36.5202439 18.6027642,35.8334146 C18.6027642,33.6168293 17.4476423,31.6812195 15.6993496,30.5729268 C16.3549593,29.8080488 16.760813,28.8090244 16.760813,27.7163415 C16.760813,25.2968293 14.7939837,23.33 12.3744715,23.33 Z M28.25,34.25 L20.75,34.25 L20.75,36.125 L28.25,36.125 L28.25,34.25 Z M12.3588618,25.827561 C13.4047154,25.827561 14.2476423,26.6704878 14.2476423,27.7163415 C14.2476423,28.7621951 13.4047154,29.605122 12.3588618,29.605122 C11.3286179,29.6207317 10.4700813,28.7621951 10.4700813,27.7163415 C10.4700813,26.6704878 11.3130081,25.827561 12.3588618,25.827561 Z M50.0148618,30.9589976 C50.3373581,31.0249968 50.6593544,31.1089959 50.9733508,31.2054948 C51.2873472,31.3019937 51.5923437,31.4149924 51.8923402,31.5414909 C52.1923368,31.6679894 52.4833334,31.8084878 52.7663302,31.9624861 C53.049327,32.1164843 53.3248238,32.2839824 53.5903207,32.4624803 C54.6547242,33.1814866 55.5712834,34.0980457 56.2902897,35.1624493 C56.4697876,35.4279462 56.6402856,35.705443 56.7902839,35.9869398 C56.9402822,36.2684365 57.0862805,36.5644331 57.2112791,36.8614297 C57.3362776,37.1584263 57.4512763,37.4699227 57.5477752,37.7799192 C57.6442741,38.0899156 57.7282731,38.4159119 57.7942724,38.7384081 C57.8609185,39.0666748 57.9109814,39.3980912 57.9442706,39.7313967 C58.0132862,40.4113087 58.0132862,41.0964613 57.9442706,41.7763732 C57.9109814,42.1096787 57.8609185,42.4410951 57.7942724,42.7693618 C57.7282731,43.0913581 57.6442741,43.4138544 57.5477752,43.7278508 C57.4512763,44.0418471 57.3382776,44.3473436 57.2112791,44.6463402 C56.9600046,45.2411454 56.6515605,45.8101427 56.2902897,46.3453206 C55.5712834,47.4097242 54.6547242,48.3262833 53.5903207,49.0452896 C53.3248238,49.2247875 53.047327,49.3952856 52.7663302,49.5452838 C52.4853334,49.6952821 52.1888368,49.8407804 51.8923402,49.966279 C51.5958436,50.0917776 51.2833472,50.2057762 50.9733508,50.3027751 C50.6633544,50.399774 50.3373581,50.4832731 50.0148618,50.5492723 C49.6923656,50.6152715 49.3548694,50.666771 49.0223732,50.6992706 C48.6825978,50.7330712 48.3413372,50.7497588 47.999885,50.7492804 C47.6584328,50.7497588 47.3171722,50.7330712 46.9773968,50.6992706 C46.3151636,50.634567 45.6613751,50.5016981 45.0264192,50.3027751 C44.097232,50.0136095 43.2153895,49.5899545 42.4089493,49.0452896 C41.3446882,48.3261107 40.4281592,47.4095817 39.7089804,46.3453206 C39.5294824,46.0798237 39.3589844,45.8023269 39.2089861,45.5208301 C39.0589878,45.2393334 38.9129895,44.9433368 38.7874909,44.6463402 C38.5325555,44.0411828 38.3374611,43.4125266 38.2049976,42.7693618 C38.1383881,42.4410886 38.0883255,42.1096741 38.0549994,41.7763732 C37.9859838,41.0964613 37.9859838,40.4113087 38.0549994,39.7313967 C38.0883255,39.3980958 38.1383881,39.0666813 38.2049976,38.7384081 C38.2709969,38.4164118 38.3549959,38.0939155 38.4514948,37.7799192 C38.5479937,37.4659228 38.6609924,37.1604263 38.7874909,36.8614297 C38.9139895,36.5624332 39.0544879,36.2704365 39.2089861,35.9869398 C39.3634843,35.703443 39.5304824,35.4279462 39.7089804,35.1624493 C40.4281592,34.0981882 41.3446882,33.1816592 42.4089493,32.4624803 C42.6749462,32.2829824 42.952443,32.1124843 43.2334398,31.9624861 C43.5144366,31.8124878 43.8109332,31.6669895 44.1074298,31.5414909 C44.712489,31.2862863 45.3411719,31.0911836 45.9844082,30.9589976 C46.3125912,30.8918796 46.6440318,30.8418131 46.9773968,30.8089993 C47.9916476,30.7052186 49.0157707,30.7557925 50.0148618,30.9589976 Z M44.3332003,38.8222004 L43.7575627,38.8222004 C43.451294,38.8222004 43.2029297,39.0705647 43.2029297,39.3768334 L43.2029297,44.8651177 C43.2029297,45.1713865 43.451294,45.4197508 43.7575627,45.4197508 L52.6482966,45.4197508 C52.9545653,45.4197508 53.2029297,45.1713865 53.2029297,44.8651177 L53.2029297,39.3768334 C53.2029297,39.0704228 52.9545653,38.8222004 52.6482966,38.8222004 L52.072659,38.8222004 L52.072659,41.5664135 C52.072659,41.8726822 51.8242947,42.1210465 51.518026,42.1210465 L44.8878334,42.1210465 C44.5815647,42.1210465 44.3332003,41.8726822 44.3332003,41.5664135 L44.3332003,38.8222004 Z M51.0298126,36.2211544 L45.3760467,36.2211544 L45.2860937,36.2284149 C45.0225888,36.2714064 44.8214137,36.5001457 44.8214137,36.7757875 L44.8214137,36.7757875 L44.8214137,41.0535056 L44.8286741,41.1434587 C44.8716656,41.4069636 45.1004049,41.6081387 45.3760467,41.6081387 L45.3760467,41.6081387 L51.0298126,41.6081387 L51.1197657,41.6008782 C51.3832706,41.5578868 51.5844457,41.3291475 51.5844457,41.0535056 L51.5844457,41.0535056 L51.5844457,36.7757875 L51.5771852,36.6858345 C51.5341938,36.4223296 51.3054545,36.2211544 51.0298126,36.2211544 L51.0298126,36.2211544 Z M50.3695893,40.2446421 C50.5142083,40.2446421 50.6315782,40.3618701 50.6315782,40.506631 C50.6315782,40.65125 50.5143502,40.7686199 50.3695893,40.7686199 L50.3695893,40.7686199 L46.036412,40.7686199 L45.9763635,40.7617042 C45.8606541,40.7345643 45.7744231,40.6307118 45.7744231,40.506631 C45.7744231,40.362012 45.8916511,40.2446421 46.036412,40.2446421 L46.036412,40.2446421 Z M50.3695893,38.91199 C50.5142083,38.91199 50.6315782,39.029218 50.6315782,39.1739789 C50.6315782,39.3187398 50.5143502,39.4359678 50.3695893,39.4359678 L50.3695893,39.4359678 L46.036412,39.4359678 L45.9763635,39.4290521 C45.8606541,39.4019122 45.7744231,39.2980597 45.7744231,39.1739789 C45.7744231,39.029218 45.8916511,38.91199 46.036412,38.91199 L46.036412,38.91199 Z M50.3695893,37.4809856 C50.5142083,37.4809856 50.6315782,37.5982136 50.6315782,37.7429745 C50.6315782,37.8875935 50.5143502,38.0049634 50.3695893,38.0049634 L50.3695893,38.0049634 L48.5450886,38.0049634 L48.4849954,37.9980403 C48.3692264,37.9708731 48.2830997,37.8669337 48.2830997,37.7429745 C48.2830997,37.5983555 48.4003277,37.4809856 48.5450886,37.4809856 L48.5450886,37.4809856 Z" id="形状" fill="#FFFFFF" opacity="0.959984189"></path>
        </g>
    </g>
</svg>