<?xml version="1.0" encoding="UTF-8"?>
<svg width="60px" height="60px" viewBox="0 0 60 60" version="1.1" xmlns="http://www.w3.org/2000/svg" xmlns:xlink="http://www.w3.org/1999/xlink">
    <title>手机号转账</title>
    <g id="pad" stroke="none" stroke-width="1" fill="none" fill-rule="evenodd">
        <g id="手机号转账" fill="#FFFFFF">
            <rect id="矩形" opacity="0" x="0" y="0" width="60" height="60"></rect>
            <g id="编组-10" transform="translate(0.000000, 4.000000)" opacity="0.961588542">
                <g id="椭圆形-4">
                    <path d="M53.1717098,19.4753602 C53.7781991,19.357927 54.4016528,19.5691514 54.8118689,20.0310416 L54.8118689,20.0310416 L59.5617996,25.3927448 C60.2003737,26.1148651 60.1331469,27.2178045 59.4115959,27.8570219 C58.6894756,28.4955961 57.5865362,28.4283693 56.9473188,27.7068183 L56.9473188,27.7068183 L55.681438,26.2785406 C55.4243802,37.9955649 47.039417,48.3881717 35.0777931,50.7132758 C26.7539826,52.3312607 18.199886,49.7103998 12.1955388,43.7109247 C11.5155449,43.0290387 11.5139956,41.9237778 12.1958816,41.2437838 C12.8777676,40.5637898 13.9830286,40.5622406 14.6630225,41.2441266 C19.8471332,46.4254524 27.2288155,48.6841004 34.4119557,47.2878394 C46.3084963,44.9753862 54.1036977,33.4141123 51.7919103,21.5209971 C51.6422359,20.7494642 52.0269661,19.9731108 52.7315373,19.6249086 C52.8742664,19.5545065 53.0209906,19.504657 53.1717098,19.4753602 Z M30.0331086,5.6176601 C40.8144233,5.6176601 49.5544058,14.3576425 49.5544058,25.1389572 C49.5544058,35.9202719 40.8144233,44.6602543 30.0331086,44.6602543 C19.2517939,44.6602543 10.5118115,35.9202719 10.5118115,25.1389572 C10.5118115,14.3576425 19.2517939,5.6176601 30.0331086,5.6176601 Z M25.4251536,16.7489588 C25.1475389,16.3921082 24.5924945,16.1541462 24.0571146,16.4119114 C23.5615029,16.6498503 23.4226955,17.3040957 23.6209356,17.7402747 L23.6209356,17.7402747 L27.6854,23.1926506 L22.6493767,23.1926506 C22.0743673,23.1926506 21.5985357,23.5693507 21.5985357,24.0055296 C21.5985357,24.5408864 22.0744135,24.8779338 22.6493767,24.8779338 L22.6493767,24.8779338 L28.4983021,24.8779338 L28.4983021,27.4752738 L22.6493767,27.4752738 C22.0743673,27.4752738 21.5985357,27.8322169 21.5985357,28.3080254 C21.5985357,28.7838339 22.0744135,29.1804296 22.6493767,29.1804296 L22.6493767,29.1804296 L28.4784758,29.1804296 L28.4784758,34.1768002 C28.4784758,34.6129792 28.9940063,35.1284634 29.6086452,35.1284634 C30.2826707,35.1284634 30.6990696,34.6129792 30.6990696,34.1768002 L30.6990696,34.1768002 L30.6990696,29.1804296 L36.7859339,29.1804296 C37.3608739,29.1804296 37.8763582,28.783857 37.8763582,28.347678 C37.8763582,27.8321244 37.3608971,27.4752738 36.7859339,27.4752738 L36.7859339,27.4752738 L36.7860494,27.4754125 L30.6991851,27.4556093 L30.6991851,24.8582693 L36.5481105,24.8582693 C37.1230506,24.8582693 37.6385348,24.521245 37.6385348,24.0255177 C37.6385348,23.5297904 37.1230737,23.1729398 36.5481105,23.1729398 L36.5481105,23.1729398 L31.5913925,23.1729398 L35.8145136,18.0179125 C35.8145136,18.0179125 36.2903221,17.1256357 35.536899,16.6696536 C34.8231284,16.2532778 34.2283389,16.7687389 33.9507242,17.1653346 L33.9507242,17.1653346 L29.6482747,22.4392737 Z M22.7280072,0.988550105 C30.8791264,-1.34874571 39.6290951,0.516603339 46.1334826,5.9699353 C46.8703193,6.58996112 46.9681925,7.69088121 46.3481667,8.42771787 C45.7281408,9.16455454 44.6272208,9.26242772 43.8903841,8.64240191 C38.2744182,3.93261758 30.7239713,2.32592042 23.6898573,4.34292014 C12.0401302,7.68342564 5.2822233,19.880102 8.62176695,31.5264747 C8.83811535,32.2820267 8.52251279,33.0889572 7.85097054,33.4972419 C7.71492046,33.5798158 7.57309927,33.6422634 7.42550699,33.6845848 C6.83156052,33.8544301 6.19206991,33.6983471 5.74315838,33.2739672 L5.74315838,33.2739672 L0.543999404,28.3466506 C-0.155081704,27.6829336 -0.184238208,26.578332 0.478855561,25.8786597 C1.14257263,25.1795786 2.24717416,25.1504221 2.94684651,25.8135159 L2.94684651,25.8135159 L4.33239279,27.1260298 C3.5672665,15.4311882 11.014547,4.34733076 22.7280072,0.988550105 Z" id="椭圆形-3"></path>
                </g>
            </g>
        </g>
    </g>
</svg>