<?xml version="1.0" encoding="UTF-8"?>
<svg width="60px" height="60px" viewBox="0 0 60 60" version="1.1" xmlns="http://www.w3.org/2000/svg" xmlns:xlink="http://www.w3.org/1999/xlink">
    <title>话费缴费</title>
    <g id="pad" stroke="none" stroke-width="1" fill="none" fill-rule="evenodd">
        <g id="话费缴费" fill-rule="nonzero">
            <rect id="矩形" fill="#000000" opacity="0" x="0" y="0" width="60" height="60"></rect>
            <g id="形状-22" transform="translate(13.225263, 3.753635)" fill="#FFFFFF" opacity="0.961983817">
                <path d="M33.5494137,45.7335726 C33.5494137,46.6721762 33.3670772,47.5452443 33.0022845,48.3528367 C32.6374918,49.1603093 32.1353923,49.8734657 31.4959258,50.4924261 C30.8585579,51.113425 30.1105051,51.6011943 29.253806,51.9577726 C28.3951281,52.3143508 27.4748721,52.4927299 26.4891404,52.4927299 L7.06027318,52.4927299 C6.0745415,52.4927299 5.15230676,52.3143508 4.2956676,51.9577726 C3.4389085,51.6011943 2.69085568,51.113425 2.05144916,50.4924261 C1.41414123,49.8735257 0.91204166,49.1603092 0.547248984,48.3528367 C0.182396367,47.5452443 0,46.6722362 0,45.7335726 L0,6.81647836 C0,5.87781475 0.182396367,4.99449369 0.547249043,4.16855367 C0.912041719,3.34051506 1.41414129,2.6191442 2.05144922,2.00024379 C2.69091568,1.38134338 3.4389685,0.891535488 4.29566766,0.534837363 C5.15230688,0.178259121 6.07454156,0 7.06027324,0 L26.4891405,0 C27.4748722,0 28.3951282,0.178319121 29.2538061,0.534837363 C30.1104453,0.891535547 30.858558,1.38134344 31.4959259,2.00024379 C32.1353924,2.6191442 32.637492,3.34057506 33.0022846,4.16855367 C33.3670773,4.99449369 33.5494137,5.8778148 33.5494137,6.81647836 L33.5494137,45.7335726 L33.5494137,45.7335726 L33.5494137,45.7335726 Z M29.116559,9.51770695 L4.37757205,9.51770695 L4.37757205,42.9729843 L29.116559,42.9729843 L29.116559,9.51770695 L29.116559,9.51770695 L29.116559,9.51770695 Z M16.7480848,44.5509943 C15.9816245,44.5509943 15.3154761,44.8339425 14.7498796,45.3954618 C14.1842231,45.9589597 13.9014548,46.6536487 13.9014548,47.4796487 C13.9014548,48.2687137 14.1842831,48.9533295 14.7498796,49.5352349 C15.3155361,50.1173803 15.9816245,50.408303 16.7480848,50.408303 C17.5514201,50.408303 18.2237443,50.1173803 18.772972,49.5352349 C19.320161,48.9533295 19.5927362,48.2687136 19.5927362,47.4796487 C19.5927362,46.6537086 19.320161,45.9590197 18.772972,45.3954618 C18.2237443,44.8339425 17.5514202,44.5509943 16.7480848,44.5509943 L16.7480848,44.5509943 L16.7480848,44.5509943 Z M21.1256569,4.73013293 C21.1256569,4.43093578 21.035538,4.19733416 20.851103,4.02722947 C20.6707453,3.85706484 20.4699414,3.77510039 20.2485116,3.77510039 L13.2988035,3.77510039 C13.1164072,3.77510039 12.9257964,3.85700484 12.7250525,4.02722947 C12.5241887,4.19727416 12.4237567,4.43087578 12.4237567,4.73013293 C12.4237567,5.03136867 12.5139356,5.26712883 12.6983705,5.43519492 C12.8787282,5.60320102 13.0795321,5.68930266 13.2988634,5.68930266 L20.2485715,5.68930266 C20.4699414,5.68930266 20.6708053,5.60320102 20.851163,5.43519492 C21.0355379,5.26712883 21.1256569,5.03136867 21.1256569,4.73013293 L21.1256569,4.73013293 L21.1256569,4.73013293 Z M15.400884,30.5311405 L15.400884,35.0098086 L17.9008383,35.0098086 L17.9008383,30.5311405 L23.5257355,30.5311405 L23.5257355,28.0311861 L17.9008383,28.0311861 L17.9008383,25.5312318 L23.5257355,25.5312318 L23.5257355,23.0312775 L19.4545599,23.0312775 L22.4732548,20.0150826 L20.7045371,18.2463649 L16.6508611,22.3000409 L12.5959352,18.2463649 L10.8297175,20.0150826 L13.8471624,23.0312775 L9.77473678,23.0312775 L9.77473678,25.5312318 L15.399634,25.5312318 L15.399634,28.0311861 L9.77473678,28.0311861 L9.77473678,30.5311405 L15.400884,30.5311405 Z" id="形状"></path>
            </g>
        </g>
    </g>
</svg>