<?xml version="1.0" encoding="UTF-8"?>
<svg width="60px" height="60px" viewBox="0 0 60 60" version="1.1" xmlns="http://www.w3.org/2000/svg" xmlns:xlink="http://www.w3.org/1999/xlink">
    <title>密码修改重置</title>
    <g id="pad" stroke="none" stroke-width="1" fill="none" fill-rule="evenodd">
        <g id="密码修改重置" transform="translate(-0.000000, 0.000000)" fill-rule="nonzero">
            <rect id="矩形" fill="#000000" opacity="0" x="0" y="0" width="60" height="60"></rect>
            <path d="M38.937,32.451 C38.229,33.165 37.32,33.651 36.33,33.84 L26.613,35.715 C25.377,35.955 24.3,34.854 24.561,33.624 L26.667,23.739 C26.8735241,22.7694367 27.3632061,21.8829973 28.074,21.192 L41.133,8.487 L15.039,8.487 C10.632,8.487 7.062,12.06 7.062,16.464 L7.062,45.159 C7.062,49.566 10.635,53.136 15.039,53.136 L44.427,53.136 C48.834,53.136 52.404,49.563 52.404,45.159 L52.404,18.888 L38.937,32.451 Z M32.298,39.891 C33.708,39.891 34.851,41.034 34.851,42.444 C34.851,43.854 33.708,44.997 32.301,44.997 L16.989,44.997 C15.579017,44.997 14.436,43.853983 14.436,42.444 C14.436,41.034017 15.579017,39.891 16.989,39.891 L32.298,39.891 Z M41.724,12.852 C43.701,14.772 45.681,16.698 47.682,18.639 C47.562,18.765 47.469,18.867 47.37,18.966 L45.8960566,20.4386543 C42.5757187,23.7555469 40.003875,26.3205 36.426,29.88 C36.234,30.072 35.994,30.213 35.733,30.288 C34.164,30.735 31.47,31.479 29.712,31.962 C28.959,32.172 28.263,31.479 28.47,30.72 C28.899,29.1444 29.5308,26.8274533 29.9650578,25.2553084 L30.15,24.588 L30.15,24.588 C30.195,24.429 30.324,24.207 30.441,24.09 L32.6614468,21.8693093 C33.6025737,20.9286541 34.4929116,20.0394792 35.3732417,19.1606755 L36.6913286,17.8451096 C38.2322344,16.3073672 39.8049375,14.7384375 41.628,12.918 C41.646,12.9 41.67,12.888 41.724,12.852 Z M52.851,8.055 C54.234,9.633 54.168,12.162 52.689,13.647 C51.648,14.691 50.586,15.717 49.497,16.785 C47.523,14.874 45.543,12.96 43.548,11.028 C43.635,10.932 43.698,10.854 43.767,10.782 C44.745,9.801 45.714,8.808 46.704,7.839 C48.483,6.096 51.222,6.198 52.851,8.055 Z" id="形状" fill="#FFFFFF" opacity="0.95656622"></path>
        </g>
    </g>
</svg>