<?xml version="1.0" encoding="UTF-8"?>
<svg width="60px" height="60px" viewBox="0 0 60 60" version="1.1" xmlns="http://www.w3.org/2000/svg" xmlns:xlink="http://www.w3.org/1999/xlink">
    <title>对私回单查询打印</title>
    <g id="pad" stroke="none" stroke-width="1" fill="none" fill-rule="evenodd">
        <g id="对私回单查询打印" fill-rule="nonzero">
            <rect id="矩形" fill="#000000" opacity="0" x="0" y="0" width="60" height="60"></rect>
            <path d="M52.8984375,52.265625 L47.3027344,46.6230469 C50.9589844,41.0273438 49.3886719,33.5273438 43.7929688,29.8710938 C38.1972656,26.2148438 30.6972656,27.7851562 27.0410156,33.3808594 C23.3847656,38.9765625 24.9550781,46.4765625 30.5507812,50.1328125 C32.5253906,51.421875 34.8339844,52.1074219 37.1953125,52.1015625 C39.5742188,52.0957031 41.9003906,51.3867188 43.875,50.0625 L49.4765625,55.6992188 C50.1738281,56.3964844 51.3105469,56.3964844 52.0078125,55.6992188 L52.9042969,54.796875 C53.6015625,54.0878906 53.6015625,52.9570313 52.9042969,52.2480469 L52.8984375,52.265625 L52.8984375,52.265625 Z M43.734375,43.0429688 C42.890625,44.8242188 41.3671875,46.1894531 39.5039063,46.8339844 C38.7597656,47.1269531 37.96875,47.2675781 37.171875,47.2382812 C33.09375,47.296875 29.7480469,44.0390625 29.6894531,39.9609375 C29.6308594,35.8828125 32.8945312,32.5371094 36.9726563,32.4785156 C41.0507812,32.4199219 44.3964844,35.6835938 44.4492188,39.7558594 C44.4667969,40.8984375 44.2148438,42.0234375 43.7226563,43.0488281 L43.734375,43.0429688 L43.734375,43.0429688 Z M21.3632813,42.1875 L15.4335938,42.1875 C14.4082031,42.1464844 13.6054688,41.2792969 13.6464844,40.2539063 C13.6875,39.28125 14.4609375,38.5078125 15.4335938,38.4667969 L21.2695313,38.4667969 C21.4160156,36.7558594 21.84375,35.0800781 22.5234375,33.5097656 L15.4394531,33.5097656 C14.4140625,33.46875 13.6113281,32.6015625 13.6523438,31.5761719 C13.6933594,30.6035156 14.4667969,29.8300781 15.4394531,29.7890625 L24.7734375,29.7890625 C26.5957031,27.5332031 28.9980469,25.8164062 31.7226563,24.8320312 L15.4394531,24.8320312 C14.4140625,24.8320312 13.5761719,24 13.5820313,22.96875 C13.5820313,21.9433594 14.4140625,21.1113281 15.4394531,21.1113281 L43.8867188,21.1113281 C44.9121094,21.1113281 45.75,21.9433594 45.7441406,22.9746094 C45.7441406,24 44.9121094,24.8320312 43.8867188,24.8320312 L42.4921875,24.8320312 C47.5253906,26.6660156 51.3105469,30.9023438 52.5644634,36.1171875 L52.5644634,9.38085938 C52.5703125,6.28125 50.0625,3.75585938 46.9628906,3.73828125 L12.3515625,3.73828125 C9.25195313,3.76171875 6.75585938,6.27539063 6.75585938,9.375 L6.75585938,49.6289062 C6.75585938,52.7285156 9.2578125,55.2480469 12.3574219,55.265625 L32.6542969,55.265625 C26.6601563,53.4902344 22.2480469,48.3808594 21.3632813,42.1875 Z M15.4335938,12.4335938 L43.8867188,12.4335938 C44.9121094,12.4746094 45.7148438,13.3417969 45.6738281,14.3671875 C45.6328125,15.3398438 44.859375,16.1132812 43.8867188,16.1542969 L15.4335938,16.1542969 C14.4082031,16.1132812 13.6054688,15.2460938 13.6464844,14.2207031 C13.6875,13.2480469 14.4667969,12.4746094 15.4335938,12.4335938 Z" id="形状" fill="#FFFFFF"></path>
        </g>
    </g>
</svg>