<?xml version="1.0" encoding="UTF-8"?>
<svg width="60px" height="60px" viewBox="0 0 60 60" version="1.1" xmlns="http://www.w3.org/2000/svg" xmlns:xlink="http://www.w3.org/1999/xlink">
    <title>产品推荐</title>
    <g id="pad" stroke="none" stroke-width="1" fill="none" fill-rule="evenodd">
        <g id="产品推荐" fill-rule="nonzero">
            <rect id="矩形" fill="#000000" opacity="0" x="0" y="0" width="60" height="60"></rect>
            <g id="形状-14" transform="translate(6.000000, 7.000000)" fill="#FFFFFF" opacity="0.958844866">
                <path d="M24.5876667,19.6329577 C23.918897,19.8972296 24.096876,19.9403761 23.2824871,19.6167778 L1.48275175,10.5614201 C1.30477271,10.3942277 1.20229993,10.1623156 1.19127525,9.91961695 C1.18612002,9.67691826 1.27241289,9.43961288 1.44499862,9.26163385 L22.7000103,0.217062794 C23.1800143,-0.00945597977 23.6761983,-0.133501975 24.5553069,0.227849403 L46.209423,9.09983472 C46.581561,9.4611861 46.5977409,10.0490563 46.2525695,10.4050143 L24.5876667,19.6329577 Z M25.2456498,44.2911443 C25.2456498,44.8412613 25.6932941,45.2889055 26.2488044,45.2889055 L47.0022387,34.4699374 C47.8112344,33.9629668 48,33.0676783 48,31.767892 L48,13.5115575 C48,13.2472856 47.8975272,12.9938003 47.7087616,12.8050347 C47.5199959,12.616269 47.2665106,12.5137962 47.0022387,12.5137962 L26.2434111,21.2239824 C25.2402565,21.6123003 25.2402565,22.1246642 25.2402565,22.6747813 L25.2456498,44.2911443 L25.2456498,44.2911443 Z M21.756182,21.2239824 L1.00274768,12.5137962 C0.738475777,12.5137962 0.484990482,12.616269 0.296224837,12.8050347 C0.107459192,12.9938003 0.00498641286,13.2472856 0.00498641286,13.5115575 L0.00498641286,34.4969039 C0.00498641286,34.7180294 -0.129846191,35.0416277 1.00274768,35.4946652 L21.756182,45.2942988 C22.3062991,45.2942988 22.7539433,44.8466546 22.7539433,44.2965376 L22.7539433,22.6747813 C22.7539433,22.1246642 22.7539433,21.6123003 21.756182,21.2239824 L21.756182,21.2239824 Z M14.982192,26.3907678 C12.3232931,25.2312074 9.66978744,24.071647 7.0162818,22.9013 C6.57942417,22.7125344 6.3582987,22.6316348 6.3582987,22.2864634 L6.3582987,19.9781292 C6.34751209,19.6761041 6.53088443,19.2769996 6.8814492,19.4118322 L15.0630916,23.0037728 C15.8235475,23.3651242 15.5916354,23.4082706 15.6239952,24.7835632 L15.6239952,25.9269437 C15.6293885,26.1534624 15.4136564,26.5741402 14.982192,26.3907678 L14.982192,26.3907678 Z" id="形状"></path>
            </g>
        </g>
    </g>
</svg>