<?xml version="1.0" encoding="UTF-8"?>
<svg width="60px" height="60px" viewBox="0 0 60 60" version="1.1" xmlns="http://www.w3.org/2000/svg" xmlns:xlink="http://www.w3.org/1999/xlink">
    <title>二维码</title>
    <g id="pad" stroke="none" stroke-width="1" fill="none" fill-rule="evenodd">
        <g id="二维码" fill-rule="nonzero">
            <rect id="矩形" fill="#000000" opacity="0" x="0" y="0" width="60" height="60"></rect>
            <path d="M10.2,32.13 L50.4,32.13 C51.15,32.13 51.72,31.53 51.72,30.81 C51.72,30.09 51.15,29.52 50.4,29.52 L10.2,29.52 C9.48,29.52 8.91,30.09 8.91,30.81 C8.91,31.53 9.48,32.13 10.2,32.13 Z M30.3,26.43 C31.02,26.43 31.62,25.86 31.62,25.14 L31.62,10.71 C31.62,9.96 31.02,9.39 30.3,9.39 C29.58,9.39 29.01,9.96 29.01,10.71 L29.01,25.14 C28.98,25.86 29.58,26.43 30.3,26.43 Z M30.3,35.13 C29.58,35.13 29.01,35.7 29.01,36.45 L29.01,50.88 C29.01,51.6 29.58,52.17 30.3,52.17 C31.02,52.17 31.62,51.6 31.62,50.88 L31.62,36.45 C31.62,35.7 31.02,35.13 30.3,35.13 L30.3,35.13 Z M36.99,35.13 C36.27,35.13 35.7,35.7 35.7,36.45 L35.7,50.88 C35.7,51.6 36.27,52.17 36.99,52.17 C37.71,52.17 38.31,51.6 38.31,50.88 L38.31,36.45 C38.31,35.7 37.74,35.13 36.99,35.13 L36.99,35.13 Z M43.68,35.13 C42.96,35.13 42.39,35.7 42.39,36.45 L42.39,40.77 C42.39,41.49 42.96,42.06 43.68,42.06 C44.4,42.06 45,41.49 45,40.77 L45,36.45 C45,35.7 44.4,35.13 43.68,35.13 Z M43.68,44.22 C42.96,44.22 42.39,44.79 42.39,45.54 L42.39,50.85 C42.39,51.57 42.96,52.14 43.68,52.14 C44.4,52.14 45,51.57 45,50.85 L45,45.54 C45,44.79 44.4,44.22 43.68,44.22 Z M50.37,35.13 C49.65,35.13 49.08,35.7 49.08,36.45 L49.08,50.88 C49.08,51.6 49.65,52.17 50.37,52.17 C51.09,52.17 51.69,51.6 51.69,50.88 L51.69,36.45 C51.72,35.7 51.09,35.13 50.37,35.13 L50.37,35.13 Z M11.79,26.34 L22.83,26.34 C24.42,26.34 25.71,25.05 25.71,23.46 L25.71,12.42 C25.71,10.83 24.42,9.54 22.83,9.54 L11.79,9.54 C10.2,9.54 8.91,10.83 8.91,12.42 L8.91,23.46 C8.91,25.05 10.2,26.34 11.79,26.34 Z M48.84,9.51 L37.8,9.51 C36.21,9.51 34.92,10.8 34.92,12.39 L34.92,23.43 C34.92,25.02 36.21,26.31 37.8,26.31 L48.84,26.31 C50.43,26.31 51.72,25.02 51.72,23.43 L51.72,12.39 C51.72,10.83 50.43,9.51 48.84,9.51 Z M22.83,35.25 L11.79,35.25 C10.2,35.25 8.91,36.54 8.91,38.13 L8.91,49.17 C8.91,50.76 10.2,52.05 11.79,52.05 L22.83,52.05 C24.42,52.05 25.71,50.76 25.71,49.17 L25.71,38.13 C25.74,36.54 24.45,35.25 22.83,35.25 L22.83,35.25 Z" id="形状" fill="#FFFFFF" opacity="0.958844866"></path>
        </g>
    </g>
</svg>