<?xml version="1.0" encoding="UTF-8"?>
<svg width="60px" height="60px" viewBox="0 0 60 60" version="1.1" xmlns="http://www.w3.org/2000/svg" xmlns:xlink="http://www.w3.org/1999/xlink">
    <title>回单收费查询</title>
    <g id="pad" stroke="none" stroke-width="1" fill="none" fill-rule="evenodd">
        <g id="回单收费查询" fill-rule="nonzero">
            <rect id="矩形" fill="#000000" opacity="0" x="0" y="0" width="60" height="60"></rect>
            <path d="M52.4317254,43.3400359 L52.4317254,15.2411522 C52.4317254,14.5465416 52.1633531,13.8835043 51.6792306,13.3888574 C51.2003704,12.8994727 50.5478574,12.6205761 49.8585091,12.6205761 L16.4330086,12.6205761 L16.4330086,10 L49.8585091,10 C52.7264086,10.026311 55.0312527,12.3785148 54.9996795,15.2464144 L54.9996795,43.3400359 L52.4317254,43.3400359 Z M47.1186657,15.2464144 C48.5552465,15.2516766 49.7129308,16.4251474 49.70781,17.8617282 L49.70781,47.7611687 C49.718193,49.1977495 48.5605087,50.3712203 47.1239279,50.3817448 L7.59426507,50.3817448 C6.90491675,50.3817448 6.24714163,50.1081103 5.76301914,49.6187256 C5.27363445,49.1240787 5.0052622,48.4557792 5,47.7611687 L5,17.8669904 L5.0052622,17.8669904 C4.9947378,16.4304096 6.15242201,15.2569388 7.58900287,15.2464144 L47.1186657,15.2464144 Z M40.8572852,28 C40.506478,28 40.1875623,28.1307554 39.897349,28.3922663 L35.9746861,32.3149292 L32.0520231,28.6984254 C31.7618098,28.4082121 31.4428942,28.2615109 31.0920869,28.2615109 C30.7412796,28.2615109 30.422364,28.4082121 30.1321507,28.6984254 C29.8419374,28.9886386 29.6952362,29.3075543 29.6952362,29.6583616 C29.6952362,30.0091688 29.8419374,30.3280845 30.1321507,30.6182978 L32.9226629,33.1472992 L30.3936616,33.1472992 C29.9567471,33.1472992 29.6155073,33.2716763 29.3699422,33.5172414 C29.121188,33.7659956 29,34.1072354 29,34.5409607 C29,34.9746861 29.1243771,35.319115 29.3699422,35.5646801 C29.6155073,35.8134343 29.9599362,35.9346223 30.3936616,35.9346223 L34.5778354,35.9346223 L34.5778354,37.5929839 L30.3968507,37.5929839 C29.9599362,37.6216863 29.6186964,37.7620092 29.3731314,38.0075742 C29.1243771,38.2563285 29.0031892,38.5880008 29.0031892,39.0089695 C29.0031892,39.4299382 29.1275663,39.7647997 29.3731314,40.0103648 C29.6186964,40.259119 29.9631254,40.380307 30.3968507,40.380307 L34.5810245,40.380307 L34.5810245,42.6477975 C34.5810245,43.0560096 34.7054016,43.3813036 34.9509667,43.6300578 C35.1965318,43.878812 35.5409607,44 35.9746861,44 C36.4084114,44 36.7528403,43.8756229 36.9984054,43.6300578 C37.2439705,43.3844927 37.3683476,43.0560096 37.3683476,42.6477975 L37.3683476,40.380307 L41.5525214,40.380307 C41.9894359,40.380307 42.3306757,40.2559298 42.5762408,40.0103648 C42.8218059,39.7647997 42.946183,39.4299382 42.946183,39.0089695 C42.946183,38.5880008 42.8218059,38.2531393 42.5762408,38.0075742 C42.3274865,37.7620092 41.9862468,37.6216863 41.5525214,37.5929839 L37.3715368,37.5929839 L37.3715368,35.9346223 L41.5557106,35.9346223 C41.9926251,35.9346223 42.3338649,35.8102452 42.5794299,35.5646801 C42.824995,35.319115 42.9493721,34.9746861 42.9493721,34.5409607 C42.9493721,34.1072354 42.824995,33.7628065 42.5794299,33.5172414 C42.3306757,33.2716763 41.9894359,33.1472992 41.5557106,33.1472992 L39.0267092,33.1472992 L41.8172214,30.3567869 C42.1074347,30.0665736 42.2541359,29.7380905 42.2541359,29.3745266 C42.2541359,29.0109627 42.1074347,28.692047 41.8172214,28.4145904 C41.5270082,28.1371337 41.2080925,28 40.8572852,28 Z M21,28 L10,28 C9.44771525,28 9,28.4477153 9,29 L9,29 L9,30 C9,30.5522847 9.44771525,31 10,31 L10,31 L21,31 C21.5522847,31 22,30.5522847 22,30 L22,30 L22,29 C22,28.4477153 21.5522847,28 21,28 L21,28 Z M28,21 L10,21 C9.44771525,21 9,21.4477153 9,22 L9,22 L9,23 C9,23.5522847 9.44771525,24 10,24 L10,24 L28,24 C28.5522847,24 29,23.5522847 29,23 L29,23 L29,22 C29,21.4477153 28.5522847,21 28,21 L28,21 Z" id="形状" fill="#FFFFFF"></path>
        </g>
    </g>
</svg>