<?xml version="1.0" encoding="UTF-8"?>
<svg width="60px" height="60px" viewBox="0 0 60 60" version="1.1" xmlns="http://www.w3.org/2000/svg" xmlns:xlink="http://www.w3.org/1999/xlink">
    <title>挂失解挂</title>
    <g id="pad" stroke="none" stroke-width="1" fill="none" fill-rule="evenodd">
        <g id="挂失解挂" transform="translate(0.000006, 0.000000)" fill-rule="nonzero">
            <rect id="矩形" fill="#000000" opacity="0" x="0" y="0" width="59.9936494" height="59.9936494"></rect>
            <g id="形状-26" transform="translate(5.000000, 5.000000)" fill="#FFFFFF" opacity="0.95656622">
                <path d="M23.0409356,26.3157895 C30.3078403,26.3157895 36.1988304,20.4247993 36.1988304,13.1578947 C36.1988304,5.89099013 30.3078403,0 23.0409356,0 C15.774031,0 9.88304091,5.89099013 9.88304091,13.1578947 C9.88304091,20.4247993 15.774031,26.3157895 23.0409356,26.3157895 Z M15.4385965,26.9883041 C17.8006368,28.0559239 20.3611312,28.6138526 22.9532164,28.625731 C25.363741,28.6149062 27.7466586,28.1280748 29.9656557,27.1950553 L30.4385965,26.9883041 L32.1637427,26.9883041 C34.8378045,26.9713076 37.4364311,27.7308676 39.6580036,29.1437288 C39.7443246,29.261606 39.8212537,29.3636776 39.8996924,29.4465564 L39.9790381,29.5229121 L39.9132556,29.5229121 C39.2212342,30.2163537 38.8412441,31.1615792 38.8607354,32.141056 C38.8600708,32.5934678 38.9458286,33.0411331 39.1126583,33.4601814 L39.2028045,33.6672103 L30.7300171,33.6672103 C29.1643852,33.695954 27.7949362,34.7286139 27.3367438,36.2259747 C26.8785514,37.7233355 27.435621,39.3455101 28.7170723,40.2454613 C28.1761482,40.629266 27.7488776,41.1519907 27.4803611,41.758459 C26.8247713,43.0782102 27.040808,44.6565988 28.0080657,45.7499448 L28.1513427,45.9027572 L32.2430149,49.9944293 L32.031,49.9990249 L4.94152046,50 C3.71831926,50 2.54187726,49.5464795 1.63700128,48.7325566 L1.44733783,48.5526622 C0.582403972,47.6877283 0.0712212503,46.5351708 0.00690770461,45.3197965 L0,45.0584795 L0,40.7894737 C0,37.1241042 1.45805249,33.6092842 4.05260131,31.0202207 C6.55768294,28.5204352 9.92353233,27.0819348 13.4517919,26.9926899 L13.8304093,26.9883041 L15.4385965,26.9883041 Z M47.3881177,41.2971058 C48.2963846,41.2971058 49.0326805,42.0334166 49.0326805,42.9416835 C49.0326805,43.8499505 48.2963846,44.5862463 47.3881177,44.5862463 L34.4552762,44.5862463 L36.7971335,46.9281037 C37.2503566,47.3356189 37.4410338,47.9603728 37.2926045,48.5515146 C37.1441751,49.1426564 36.6809837,49.603231 36.0890104,49.7483087 C35.4970372,49.8933864 34.8733736,49.6991727 34.4684327,49.243648 L29.4689619,44.2441772 C28.9517601,43.7426373 28.8284026,42.9595851 29.1663623,42.3233279 C29.4106599,41.7018566 30.0116028,41.2942605 30.6793601,41.2971058 L47.3881177,41.2971058 Z M43.6233892,30.9306578 L48.6228599,35.9301286 C49.1400617,36.4316686 49.2634192,37.2147208 48.9254595,37.8509779 C48.6811619,38.4724493 48.080219,38.8800453 47.4124617,38.8772 L30.7037041,38.8772 C29.7954372,38.8772 29.0591414,38.1408893 29.0591414,37.2326223 C29.0591414,36.3243554 29.7954372,35.5880596 30.7037041,35.5880596 L43.6365457,35.5880596 L41.2946883,33.2462022 C40.8414652,32.8386869 40.650788,32.213933 40.7992174,31.6227912 C40.9476467,31.0316494 41.4108382,30.5710749 42.0028114,30.4259971 C42.5947847,30.2809194 43.2184482,30.4751332 43.6233892,30.9306578 Z" id="形状"></path>
            </g>
        </g>
    </g>
</svg>