<?xml version="1.0" encoding="UTF-8"?>
<svg width="60px" height="60px" viewBox="0 0 60 60" version="1.1" xmlns="http://www.w3.org/2000/svg" xmlns:xlink="http://www.w3.org/1999/xlink">
    <title>无卡无折预约取款</title>
    <g id="pad" stroke="none" stroke-width="1" fill="none" fill-rule="evenodd">
        <g id="无卡无折预约取款">
            <rect id="矩形" stroke="#979797" fill="#D8D8D8" opacity="0" x="0.5" y="0.5" width="59" height="59"></rect>
            <path d="M46.00192,36 C48.67396,36 51.18476,37.04016 53.07388,38.92812 C56.9726,42.82824 56.97204,49.1722 53.07388,53.07068 C51.18428,54.95908 48.6722,56 46.00016,56 C43.32932,56 40.81812,54.9598 38.93004,53.07268 C37.04136,51.18284 36.0018,48.67188 36.0022798,46.00004 C36.0022798,43.32856 37.04256,40.81712 38.9316,38.92832 C40.81988,37.04016 43.33084,36 46.00192,36 Z M32.1249621,5.3681935 L53.3333333,18.6666667 L53.3332982,35.7583166 C51.1901163,34.0327874 48.4656684,33 45.5,33 C42.0865424,33 38.9926489,34.3682164 36.7368244,36.5861442 L31.2561979,36.568107 L31.2561979,33.6409716 L37.8477865,33.6409716 C38.4957292,33.6409716 39.0766667,33.2611539 39.0766667,32.702482 C39.0766667,32.1438101 38.4957552,31.7416487 37.8477865,31.7416487 L37.8477865,31.7416487 L32.2616927,31.7416487 L37.0210417,25.9320653 L37.0210417,25.9320653 L37.0339729,25.9059962 C37.1106144,25.7449874 37.4764,24.8775514 36.7081771,24.4126122 C35.903776,23.9433674 35.2334635,24.5242789 34.920599,24.971232 L34.920599,24.971232 L30.071849,30.9148258 L25.3125,24.5019872 C24.9996354,24.0998258 24.3741146,23.8316487 23.7707552,24.1221435 C23.2122135,24.3902945 23.0557812,25.1276122 23.2791927,25.6191747 L23.2791927,25.6191747 L27.8597396,31.7638622 L22.1842708,31.7638622 C21.53625,31.7638622 21,32.1883935 21,32.679956 C21,33.2832893 21.5363021,33.663133 22.1842708,33.663133 L22.1842708,33.663133 L28.7758594,33.663133 L28.7758594,36.5902685 L22.1842708,36.5902685 C21.53625,36.5902685 21,36.9925341 21,37.528758 C21,38.064982 21.5363021,38.5119351 22.1842708,38.5119351 L22.1842708,38.5119351 L28.7535156,38.5119351 L28.7535156,44.1427164 C28.7535156,44.6342789 29.3345052,45.2152164 30.0271875,45.2152164 C30.7867969,45.2152164 31.2560677,44.6342789 31.2560677,44.1427164 L31.2560677,44.1427164 L31.2560677,38.5119351 L35.1344627,38.5116358 C33.7868667,40.5065496 33,42.9113835 33,45.5 C33,49.1218899 34.5404098,52.3839979 37.0018236,54.6669181 L9.66666667,54.6666667 C8.00981242,54.6666667 6.66666667,53.3235209 6.66666667,51.6666667 L6.66666667,18.6666667 L27.8750379,5.3681935 C29.1745125,4.55337241 30.8254875,4.55337241 32.1249621,5.3681935 Z M46.03324,40.16668 C45.57332,40.16668 45.2,40.54004 45.2,41.00008 L45.2,41.00008 L45.2,46.8334 C45.2,47.14252 45.58416,47.40168 45.83412,47.54504 C45.90332,47.64916 46.09328,47.74328 46.20912,47.81004 L46.20912,47.81004 L49.64668,49.8934 C50.04496,50.12328 50.47664,49.98676 50.70668,49.58836 C50.93668,49.18996 50.72252,48.68084 50.32332,48.45084 L50.32332,48.45084 L46.86668,46.45168 L46.86668,41.00008 C46.86668,40.54 46.49328,40.16668 46.03324,40.16668 Z" id="矩形-4" fill="#FFFFFF" opacity="0.958844866"></path>
        </g>
    </g>
</svg>