<?xml version="1.0" encoding="UTF-8"?>
<svg width="60px" height="60px" viewBox="0 0 60 60" version="1.1" xmlns="http://www.w3.org/2000/svg" xmlns:xlink="http://www.w3.org/1999/xlink">
    <title>风险等级管理</title>
    <g id="pad" stroke="none" stroke-width="1" fill="none" fill-rule="evenodd">
        <g id="风险等级管理" fill-rule="nonzero">
            <rect id="矩形" fill="#000000" opacity="0" x="0" y="0" width="60" height="60"></rect>
            <g id="形状-20" transform="translate(5.000000, 5.000000)" fill="#FFFFFF" opacity="0.958449591">
                <path d="M40,45 L10,45 C8.61928814,45 7.50000002,46.1192881 7.50000002,47.5 C7.50000002,48.8807119 8.61928814,50 10,50 L40,50 C41.380712,50 42.5,48.8807119 42.5,47.5 C42.5,46.1192881 41.380712,45 40,45 Z M12.5,42.4999999 L37.5,42.4999999 L37.5,24.9999999 C37.5,18.0964406 31.9035594,12.4999999 25,12.4999999 C18.0964407,12.4999999 12.5,18.0964406 12.5,24.9999999 L12.5,42.4999999 Z M25,10 C26.3807119,10 27.5,8.88071179 27.5,7.5 L27.5,2.5 C27.5,1.11928806 26.3807119,0 25,0 C23.6192882,0 22.5,1.11928806 22.5,2.5 L22.5,7.5 C22.5,8.88071179 23.6192882,10 25,10 Z M10.85,14.3999999 C11.4841464,15.0341463 12.408435,15.2818087 13.2746951,15.049695 C14.1409552,14.8175813 14.8175814,14.1409551 15.0496951,13.274695 C15.2818088,12.4084349 15.0341465,11.4841463 14.4,10.8499999 L10.85,7.32499991 C9.85809933,6.47555792 8.37951459,6.53266923 7.45609196,7.45609186 C6.53266934,8.37951448 6.47555802,9.85809922 7.32500002,10.8499999 L10.85,14.3999999 Z M10,24.9999999 C10,23.6192881 8.88071189,22.4999999 7.5,22.4999999 L2.5,22.4999999 C1.11928813,22.4999999 0,23.6192881 0,24.9999999 C0,26.3807118 1.11928813,27.4999999 2.5,27.4999999 L7.5,27.4999999 C8.88071189,27.4999999 10,26.3807118 10,24.9999999 Z M47.5000001,22.4999999 L42.5000001,22.4999999 C41.1192882,22.4999999 40.0000001,23.6192881 40.0000001,24.9999999 C40.0000001,26.3807118 41.1192882,27.4999999 42.5000001,27.4999999 L47.5000001,27.4999999 C48.8807119,27.4999999 50.0000001,26.3807118 50.0000001,24.9999999 C50.0000001,23.6192881 48.8807119,22.4999999 47.5000001,22.4999999 L47.5000001,22.4999999 Z M39.1500001,14.3999999 L42.6750001,10.8749999 C43.5244421,9.88309922 43.4673308,8.40451448 42.5439081,7.48109186 C41.6204855,6.55766923 40.1419008,6.50055792 39.1500001,7.34999991 L35.6000001,10.8499999 C34.7505581,11.8419006 34.8076694,13.3204854 35.731092,14.243908 C36.6545146,15.1673306 38.1330994,15.2244419 39.1250001,14.3749999 L39.1500001,14.3999999 Z" id="形状"></path>
            </g>
        </g>
    </g>
</svg>