<?xml version="1.0" encoding="UTF-8"?>
<svg width="60px" height="60px" viewBox="0 0 60 60" version="1.1" xmlns="http://www.w3.org/2000/svg" xmlns:xlink="http://www.w3.org/1999/xlink">
    <title>社保缴费</title>
    <g id="pad" stroke="none" stroke-width="1" fill="none" fill-rule="evenodd">
        <g id="社保缴费" fill="#FFFFFF" fill-rule="nonzero">
            <rect id="矩形" opacity="0" x="0" y="0" width="60" height="60"></rect>
            <path d="M30.1241238,3.65019924 L30.1602398,3.65626224 C30.735825,3.76472145 33.2217857,4.75071431 55.8214286,13.7142857 C56.5714286,14.0357143 57.1071428,14.7857143 57.2142857,15.6428572 C57.2142857,16.5 57.8571429,36.6428572 53.5714286,44.8928572 C49.1785714,53.4642857 31.6071428,59.6785714 30.8571428,59.8928572 C30.4285714,60 30.2142857,60 30,60 C29.7857143,60 29.5714286,60 29.25,59.8928572 C28.5,59.6785714 10.9285714,53.3571429 6.53571428,44.8928572 C3.32142857,38.7053572 2.87946427,25.828125 2.859375,19.4146206 L2.85953001,18.4078079 C2.86495536,16.8370536 2.89285716,15.8214286 2.89285717,15.6428572 C2.89285717,14.7857143 3.42857145,14.0357143 4.28571428,13.7142857 L29.25,3.75 C29.4214286,3.66428573 29.6614286,3.64714288 29.8602857,3.64371431 L30.0642991,3.6441161 C30.0823098,3.64512324 30.1017005,3.6469361 30.1241238,3.65019924 Z M21.1071428,15.6428572 C21,15.6428572 20.8928571,15.6428572 20.8928572,15.75 C19.2857143,20.1428572 16.3928572,24.6428572 13.3928572,27.6428572 C13.2857143,27.75 13.2857143,27.8571429 13.3928572,27.8571428 C14.0357143,28.8214286 15.1071429,30.8571428 15.4285714,31.7142857 C15.4285714,31.8214286 15.5357143,31.8214286 15.5357143,31.8214286 C15.6428571,31.8214286 15.6428571,31.8214286 15.75,31.7142857 C16.3928572,31.0714286 17.0357143,30.3214286 17.7857143,29.3571428 L17.7857143,45.4285714 C17.7857143,45.5357143 17.8928571,45.6428572 18,45.6428572 L21.6428572,45.6428572 C21.75,45.6428572 21.8571429,45.5357143 21.8571428,45.4285714 L21.8571428,41.4642857 C22.7142857,42.2142857 23.8928571,43.5 24.4285714,44.4642857 L24.5357143,44.5714286 L24.75,44.5714286 C27.1071428,43.0714286 29.3571428,40.8214286 31.2857143,38.25 L31.2857143,45.6428572 C31.2857143,45.75 31.3928571,45.8571428 31.5,45.8571428 L35.3571428,45.8571428 C35.4642857,45.8571428 35.5714286,45.75 35.5714286,45.6428572 L35.5714286,38.1428572 C37.3928571,40.8214286 39.5357143,43.1785714 41.6785714,44.6785714 L41.8928572,44.6785714 C42,44.6785714 42,44.6785714 42,44.5714286 C42.5357143,43.7142857 43.7142857,42.3214286 44.6785714,41.5714286 C44.6785714,41.5714286 44.7857143,41.4642857 44.7857143,41.3571428 C44.5714286,41.3571428 44.5714286,41.25 44.4642857,41.25 C41.8928572,39.75 39.3214286,37.2857143 37.5,34.7142857 L43.5,34.7142857 C43.6071428,34.7142857 43.7142857,34.6071429 43.7142857,34.5 L43.7142857,31.0714286 C43.7142857,30.9642857 43.6071429,30.8571428 43.5,30.8571428 L35.4642857,30.8571428 L35.4642857,28.3928572 L39.9642857,28.3928572 C41.1428572,28.3928572 42.1071429,27.4285714 42.1071428,26.25 L42.1071428,19.1785714 C42.1071428,18 41.1428571,17.0357143 39.9642857,17.0357143 L27.1071428,17.0357143 C25.9285714,17.0357143 24.9642857,18 24.9642857,19.1785714 L24.9642857,26.25 C24.9642857,27.4285714 25.9285714,28.3928572 27.1071428,28.3928572 L31.1785714,28.3928572 L31.1785714,30.8571428 L23.0357143,30.8571428 C22.9285714,30.8571428 22.8214286,30.9642857 22.8214286,31.0714286 L22.8214286,34.5 C22.8214286,34.6071428 22.9285714,34.7142857 23.0357143,34.7142857 L29.1428572,34.7142857 C27.2142857,37.3928572 24.4285714,39.75 21.75,41.1428572 L21.75,23.3571428 C22.8214286,21.5357143 23.7857143,19.3928571 24.75,17.1428572 L24.75,16.9285714 C24.75,16.8214286 24.6428572,16.8214286 24.6428572,16.8214286 L21.1071428,15.6428572 Z M37.9285714,20.7857143 L37.9285714,24.6428572 L29.0357143,24.6428572 L29.0357143,20.7857143 L37.9285714,20.7857143 Z" id="形状"></path>
        </g>
    </g>
</svg>