<?xml version="1.0" encoding="UTF-8"?>
<svg width="60px" height="60px" viewBox="0 0 60 60" version="1.1" xmlns="http://www.w3.org/2000/svg" xmlns:xlink="http://www.w3.org/1999/xlink">
    <title>对账单查询</title>
    <defs>
        <path d="M39,0 C40.6568542,-3.04359188e-16 42,1.34314575 42,3 L42.0009015,13.5444427 C40.6376835,12.8469326 39.0943393,12.4532206 37.4607856,12.4532206 C31.9466431,12.4532206 27.4605557,16.939308 27.4605557,22.4532029 C27.4605557,27.9671686 31.9466431,32.4532206 37.4607856,32.4532206 C39.0943393,32.4532206 40.6376835,32.0595086 42.0009015,31.3619976 L42,39 C42,40.6568542 40.6568542,42 39,42 L2.93298198,42 C5.09530772,41.5435038 6.17647059,40.8144489 6.17647059,39.812835 L6.17647059,3.00069264 L6.17647059,3.00069264 C6.17608813,1.34383843 7.51892374,0.000382614648 9.17577795,7.99584381e-08 L39,0 Z M23.9425,19 C23.53,19 23.155,19.15375 22.81375,19.46125 L18.20125,24.07375 L13.58875,19.82125 C13.2475,19.48 12.8725,19.3075 12.46,19.3075 C12.0475,19.3075 11.6725,19.48 11.33125,19.82125 C10.99,20.1625 10.8175,20.5375 10.8175,20.95 C10.8175,21.3625 10.99,21.7375 11.33125,22.07875 L14.6125,25.0525 L11.63875,25.0525 C11.125,25.0525 10.72375,25.19875 10.435,25.4875 C10.1425,25.78 10,26.18125 10,26.69125 C10,27.20125 10.14625,27.60625 10.435,27.895 C10.72375,28.1875 11.12875,28.33 11.63875,28.33 L16.55875,28.33 L16.55875,30.28 L11.6425,30.28 C11.12875,30.31375 10.7275,30.47875 10.43875,30.7675 C10.14625,31.06 10.00375,31.45 10.00375,31.945 C10.00375,32.44 10.15,32.83375 10.43875,33.1225 C10.7275,33.415 11.1325,33.5575 11.6425,33.5575 L16.5625,33.5575 L16.5625,36.22375 C16.5625,36.70375 16.70875,37.08625 16.9975,37.37875 C17.28625,37.67125 17.69125,37.81375 18.20125,37.81375 C18.71125,37.81375 19.11625,37.6675 19.405,37.37875 C19.69375,37.09 19.84,36.70375 19.84,36.22375 L19.84,33.5575 L24.76,33.5575 C25.27375,33.5575 25.675,33.41125 25.96375,33.1225 C26.2525,32.83375 26.39875,32.44 26.39875,31.945 C26.39875,31.45 26.2525,31.05625 25.96375,30.7675 C25.67125,30.47875 25.27,30.31375 24.76,30.28 L19.84375,30.28 L19.84375,28.33 L24.76375,28.33 C25.2775,28.33 25.67875,28.18375 25.9675,27.895 C26.25625,27.60625 26.4025,27.20125 26.4025,26.69125 C26.4025,26.18125 26.25625,25.77625 25.9675,25.4875 C25.675,25.19875 25.27375,25.0525 24.76375,25.0525 L21.79,25.0525 L25.07125,21.77125 C25.4125,21.43 25.585,21.04375 25.585,20.61625 C25.585,20.18875 25.4125,19.81375 25.07125,19.4875 C24.73,19.16125 24.355,19 23.9425,19 Z M37.4608083,15.0168651 C41.5613207,15.0168651 44.8974662,18.3528792 44.8974662,22.4532075 C44.8974662,24.0978552 44.360746,25.6195356 43.4532598,26.8523012 L46.9429752,30.3418105 C47.3828747,30.7816837 47.3828747,31.4948963 46.9429752,31.9348484 C46.7229466,32.1547193 46.4347737,32.2647336 46.1464168,32.2647336 C45.8580599,32.2647336 45.5698871,32.1547193 45.3498584,31.9348747 L41.8600171,28.4454671 C40.6272131,29.3528932 39.1054947,29.8895761 37.4608083,29.8895761 C33.3602959,29.8895761 30.0242818,26.5535884 30.0242818,22.4532075 C30.0242818,18.3528792 33.3602959,15.0168651 37.4608083,15.0168651 Z M37.4608083,16.8472636 C34.3695451,16.8472636 31.8547592,19.3621021 31.8547592,22.4532075 C31.8547592,25.5443391 34.3695451,28.059204 37.4608083,28.059204 C40.5520451,28.059204 43.0669889,25.5443391 43.0669889,22.4532075 C43.0669889,19.3621021 40.5520451,16.8472636 37.4608083,16.8472636 Z M21.2352941,14.0588235 L10.8823529,14.0588235 C10.3300682,14.0588235 9.88235294,14.5065388 9.88235294,15.0588235 L9.88235294,15.0588235 L9.88235294,15.5294118 C9.88235294,16.0816965 10.3300682,16.5294118 10.8823529,16.5294118 L10.8823529,16.5294118 L21.2352941,16.5294118 C21.7875789,16.5294118 22.2352941,16.0816965 22.2352941,15.5294118 L22.2352941,15.5294118 L22.2352941,15.0588235 C22.2352941,14.5065388 21.7875789,14.0588235 21.2352941,14.0588235 L21.2352941,14.0588235 Z M28.6470588,7.41176471 L10.8823529,7.41176471 C10.3300682,7.41176471 9.88235294,7.85947996 9.88235294,8.41176471 L9.88235294,8.41176471 L9.88235294,8.88235294 C9.88235294,9.43463769 10.3300682,9.88235294 10.8823529,9.88235294 L10.8823529,9.88235294 L28.6470588,9.88235294 C29.1993436,9.88235294 29.6470588,9.43463769 29.6470588,8.88235294 L29.6470588,8.88235294 L29.6470588,8.41176471 C29.6470588,7.85947996 29.1993436,7.41176471 28.6470588,7.41176471 L28.6470588,7.41176471 Z" id="path-1"></path>
        <filter x="-1.1%" y="-1.2%" width="102.3%" height="102.4%" filterUnits="objectBoundingBox" id="filter-2">
            <feOffset dx="0" dy="-1" in="SourceAlpha" result="shadowOffsetInner1"></feOffset>
            <feComposite in="shadowOffsetInner1" in2="SourceAlpha" operator="arithmetic" k2="-1" k3="1" result="shadowInnerInner1"></feComposite>
            <feColorMatrix values="0 0 0 0 0   0 0 0 0 0   0 0 0 0 0  0 0 0 0.132921766 0" type="matrix" in="shadowInnerInner1"></feColorMatrix>
        </filter>
    </defs>
    <g id="pad" stroke="none" stroke-width="1" fill="none" fill-rule="evenodd">
        <g id="对账单查询">
            <rect id="矩形" stroke="#979797" fill="#D8D8D8" opacity="0" x="0.5" y="0.5" width="59" height="59"></rect>
            <g id="明细查询" transform="translate(9.000000, 9.000000)">
                <path d="M2.3116016,23.83519 L3.25277807,23.9836388 C4.22502984,24.136989 4.94117647,24.9749446 4.94117647,25.9592158 C4.94117647,29.5264045 4.94117647,33.0935932 4.94117647,36.6607819 C4.94117647,38.9026156 6.58823529,39.4371435 9.88235294,38.2643655 L9.88235294,40 C9.88235294,41.1045695 8.98692244,42 7.88235294,42 L2,42 C0.8954305,42 -8.67738547e-17,41.1045695 0,40 L0,25.8107669 C-1.3527075e-16,24.7061974 0.8954305,23.8107669 2,23.8107669 C2.10434527,23.8107669 2.20853054,23.8189329 2.3116016,23.83519 Z" id="矩形" fill="#FFFFFF"></path>
                <g id="矩形备份-37">
                    <use fill="#FFFFFF" fill-rule="evenodd" xlink:href="#path-1"></use>
                    <use fill="black" fill-opacity="1" filter="url(#filter-2)" xlink:href="#path-1"></use>
                </g>
            </g>
        </g>
    </g>
</svg>