<?xml version="1.0" encoding="UTF-8"?>
<svg width="60px" height="60px" viewBox="0 0 60 60" version="1.1" xmlns="http://www.w3.org/2000/svg" xmlns:xlink="http://www.w3.org/1999/xlink">
    <title>凭证补打</title>
    <g id="pad" stroke="none" stroke-width="1" fill="none" fill-rule="evenodd">
        <g id="凭证补打" fill-rule="nonzero">
            <rect id="矩形" fill="#000000" opacity="0" x="0" y="0" width="60" height="60"></rect>
            <path d="M28.1640625,40.9589844 C28.1464844,40.7773438 27.9941406,40.6367188 27.8125,40.6367188 L14.4296875,40.6367188 C13.2988281,40.6367188 12.3789062,39.7167969 12.3789062,38.5859375 L12.3789062,22.1796875 C12.3789062,21.0488281 13.2988281,20.1289062 14.4296875,20.1289062 L42.0859375,20.1289062 C43.2167969,20.1289062 44.1367188,21.0488281 44.1367188,22.1796875 L44.1367188,24.4414063 C44.1367188,24.6230469 44.2714844,24.7753906 44.453125,24.7929688 C47.1953125,25.0449219 49.7851562,26.0410156 51.9824219,27.6875 C52.2167969,27.8632812 52.5449219,27.6992188 52.5449219,27.40625 L52.5449219,10.9296875 C52.5449219,9.3125 51.2324219,8 49.6152344,8 L6.9296875,8 C5.3125,8 4,9.3125 4,10.9296875 L4,46.0859375 C4,47.703125 5.3125,49.015625 6.9296875,49.015625 L30.6835937,49.015625 C30.9707031,49.015625 31.1347656,48.6875 30.9648437,48.453125 C29.3652344,46.2617188 28.3984375,43.6835938 28.1640625,40.9589844 Z M43.0527344,26.4863281 C46.5742188,26.4863281 49.8847656,27.8574219 52.375,30.3476562 C54.8652344,32.8378906 56.2363281,36.1484375 56.2363281,39.6699219 C56.2363281,43.1914062 54.8652344,46.5019531 52.375,48.9921875 C49.8847656,51.4824219 46.5742188,52.8535156 43.0527344,52.8535156 C39.53125,52.8535156 36.2207031,51.4824219 33.7304688,48.9921875 C31.2402344,46.5019531 29.8691406,43.1914062 29.8691406,39.6699219 C29.8691406,36.1484375 31.2402344,32.8378906 33.7304688,30.3476562 C36.2207031,27.8574219 39.53125,26.4863281 43.0527344,26.4863281 Z M43.0878906,32.6328125 L43.0761719,32.6328125 C42.109375,32.6328125 41.3242188,33.4121094 41.3183594,34.3789062 L41.3183594,34.3789062 L41.3007813,37.9121094 L37.7675781,37.9296875 C36.8007813,37.9355469 36.015625,38.7265625 36.0214518,39.6992187 C36.0273438,40.6660156 36.8125,41.4453125 37.7792969,41.4453125 L37.7792969,41.4453125 L37.7910156,41.4453125 L41.2890625,41.4277344 L41.2714844,44.9257812 C41.265625,45.8984375 42.0449219,46.6894531 43.0175781,46.6953125 L43.0175781,46.6953125 L43.0292969,46.6953125 C43.9960938,46.6953125 44.78125,45.9160156 44.7871094,44.9492188 L44.7871094,44.9492188 L44.8046875,41.4160156 L48.3378906,41.3984375 C49.3046875,41.3925781 50.0898438,40.6015625 50.084017,39.6289062 C50.078125,38.6621094 49.2929688,37.8828125 48.3261719,37.8828125 L48.3261719,37.8828125 L48.3144531,37.8828125 L44.8164063,37.9003906 L44.8339844,34.4023438 C44.8398438,33.4296875 44.0605469,32.6386719 43.0878906,32.6328125 L43.0878906,32.6328125 Z M18.6484375,33.8398438 L18.6484375,33.8457031 L28.7617188,33.8457031 C29.0078125,33.8457031 29.1777344,34.0917969 29.0898438,34.3203125 C28.9609375,34.6601562 28.84375,35 28.7382813,35.3515625 C28.6972656,35.4980469 28.5566406,35.5976562 28.4042969,35.5976562 L28.4042969,35.5976562 L18.671875,35.5976562 C18.1972656,35.5976562 17.7929688,35.234375 17.7695313,34.7597656 C17.7460938,34.2558594 18.1503906,33.8398438 18.6484375,33.8398438 L18.6484375,33.8398438 Z M31.3222656,29.5039062 C31.6210938,29.5039062 31.7851563,29.8496094 31.5917969,30.078125 C31.3105469,30.4121094 31.046875,30.7578125 30.8007813,31.109375 C30.7363281,31.203125 30.6308594,31.2617188 30.5136719,31.2617188 L30.5136719,31.2617188 L18.6484375,31.2617188 C18.1503906,31.2617188 17.7460938,30.8457031 17.7695313,30.3417969 C17.7929688,29.8671875 18.1972656,29.5039062 18.671875,29.5039062 L18.671875,29.5039062 Z M37.8789063,25.1679688 C38.1308594,25.1679688 38.1894531,25.53125 37.9492188,25.6191406 C37.0410156,25.9472656 36.1621094,26.3691406 35.3300781,26.8730469 C35.2714844,26.9082031 35.2128906,26.9257812 35.1425781,26.9257812 L35.1425781,26.9257812 L18.671875,26.9257812 C18.1972656,26.9257812 17.7929688,26.5625 17.7695313,26.0878906 C17.7460938,25.5839844 18.1503906,25.1679688 18.6484375,25.1679688 L18.6484375,25.1679688 Z M32.9804688,16.3789062 C33.4550781,16.3789062 33.859375,16.7421875 33.8828125,17.2167969 C33.90625,17.7207031 33.5019531,18.1367188 33.0039063,18.1367188 L23.3300781,18.1367188 C22.8554688,18.1367188 22.4511719,17.7734375 22.4277344,17.2988281 C22.4042969,16.7949219 22.8085938,16.3789062 23.3066406,16.3789062 L32.9804688,16.3789062 Z" id="形状" fill="#FFFFFF"></path>
        </g>
    </g>
</svg>