<?xml version="1.0" encoding="UTF-8"?>
<svg width="60px" height="60px" viewBox="0 0 60 60" version="1.1" xmlns="http://www.w3.org/2000/svg" xmlns:xlink="http://www.w3.org/1999/xlink">
    <title>吞卡取回</title>
    <g id="pad" stroke="none" stroke-width="1" fill="none" fill-rule="evenodd">
        <g id="吞卡取回" fill-rule="nonzero">
            <rect id="矩形" fill="#000000" opacity="0" x="0" y="0" width="60" height="60"></rect>
            <path d="M47.8977539,6.25001953 C51.0143555,6.25001953 53.598457,8.60255859 53.7435937,11.608125 L53.7500391,11.8750195 L53.7500391,20.625 C53.7500391,23.4745312 51.5614453,25.7950781 48.7506445,26.1905273 L48.75,48.1249805 C48.75,51.1428516 46.3734375,53.6056055 43.3898437,53.7438867 L43.125,53.7499805 L16.875,53.7499805 C13.8571875,53.7499805 11.394375,51.373418 11.2560937,48.3898242 L11.25,48.1249805 L11.2505859,26.1907031 C8.52744141,25.8081445 6.38806641,23.6187891 6.25640625,20.8918359 L6.24996094,20.625 L6.24996094,11.8750195 C6.24996094,8.83242188 8.74505859,6.39298828 11.8286719,6.25605469 L12.1023047,6.25001953 L47.8977539,6.25001953 Z M47.0415999,9.75 L13.0421849,9.75 C11.3853306,9.75 10.0421849,11.0931458 10.0421849,12.75 C10.0421849,12.7639633 10.0422823,12.7779264 10.0424773,12.7918883 L10.1281718,18.9286528 L10.1281718,18.9286528 C10.1281718,19.279518 10.9995781,19.5717707 12.1531718,19.6356707 L12.3873906,19.6453457 L12.6281718,19.6486532 L47.6281718,19.6486532 C48.9277031,19.6486532 49.9955937,19.363128 50.1167656,18.9979978 L50.1281718,18.9286528 L50.0413074,12.7081117 C50.0184013,11.0677528 48.6821188,9.75 47.0415999,9.75 Z M22.0568498,51.2917482 L22.0568498,23.2917482 L19.2368499,23.2917482 C19.1491336,23.2917482 19.0760704,23.9017326 19.0600954,24.7092482 L19.0576767,24.8732013 L19.0568498,25.0417482 L19.0568498,49.5417482 C19.0568498,50.4514201 19.1282311,51.1989435 19.2195136,51.2837638 L19.2368499,51.2917482 L22.0568498,51.2917482 Z M28.0568498,37.2917482 L28.0568498,23.2917482 L25.2368499,23.2917482 C25.1491336,23.2917482 25.0760704,23.5967404 25.0600954,24.0004982 L25.0576767,24.0824747 L25.0568498,24.1667482 L25.0568498,36.4167482 C25.0568498,36.8715841 25.1282311,37.2453458 25.2195136,37.287756 L25.2368499,37.2917482 L28.0568498,37.2917482 Z" id="形状" fill="#FFFFFF" opacity="0.962960379"></path>
        </g>
    </g>
</svg>