<?xml version="1.0" encoding="UTF-8"?>
<svg width="60px" height="60px" viewBox="0 0 60 60" version="1.1" xmlns="http://www.w3.org/2000/svg" xmlns:xlink="http://www.w3.org/1999/xlink">
    <title>转账汇款</title>
    <g id="pad" stroke="none" stroke-width="1" fill="none" fill-rule="evenodd">
        <g id="转账汇款">
            <rect id="矩形" stroke="#979797" fill="#D8D8D8" opacity="0" x="0.5" y="0.5" width="59" height="59"></rect>
            <path d="M32.1249621,5.3681935 L53.3333333,18.6666667 L53.3333333,51.6666667 C53.3333333,53.3235209 51.9901876,54.6666667 50.3333333,54.6666667 L9.66666667,54.6666667 C8.00981242,54.6666667 6.66666667,53.3235209 6.66666667,51.6666667 L6.66666667,18.6666667 L27.8750379,5.3681935 C29.1745125,4.55337241 30.8254875,4.55337241 32.1249621,5.3681935 Z M40.0494634,33.4141242 L36.7738588,33.4141242 L36.7738588,36.6265736 L36.7663615,36.7843049 C36.6869993,37.6148365 35.987382,38.2643758 35.1360566,38.2643758 L35.1360566,38.2643758 L26.3101833,38.2634605 L26.3102304,35.4326757 C26.3102304,34.6964615 25.7240794,34.2363276 25.2556858,34.6044347 L25.2556858,34.6044347 L19.5224784,39.1053808 C19.0540849,39.4734879 19.0540849,40.3937557 19.5224784,40.7618628 L19.5224784,40.7618628 L25.2556858,45.2640041 C25.7240794,45.6321112 26.3102304,45.1719773 26.3102304,44.4357631 L26.3102304,44.4357631 L26.3101833,41.5394605 L35.1360566,41.5399804 L35.3673533,41.5346324 C37.9735637,41.4138577 40.0494634,39.2626418 40.0494634,36.6265736 L40.0494634,36.6265736 L40.0494634,33.4141242 Z M34.3409788,21.4482397 C33.8883017,21.1858876 33.3654695,21.6349442 33.3654695,22.3302577 L33.3654695,22.3302577 L33.3651833,25.1614605 L24.2173749,25.1619578 L23.9860782,25.1673058 C21.3798678,25.2880805 19.3039681,27.4392964 19.3039681,30.0753646 L19.3039681,30.0753646 L19.3039681,33.2786656 L22.5795726,33.2786656 L22.5795726,30.0753646 L22.58707,29.9176333 C22.6664322,29.0871017 23.3660495,28.4375623 24.2173749,28.4375623 L24.2173749,28.4375623 L33.3651833,28.4374605 L33.3654695,31.3333451 L33.3707761,31.4533965 C33.4302339,32.118129 33.9776424,32.5092428 34.4200141,32.1615861 L34.4200141,32.1615861 L40.1532215,27.6594448 L40.2406549,27.5787885 C40.6195333,27.1710894 40.5903888,26.3465294 40.1532215,26.0029628 L40.1532215,26.0029628 L34.4200141,21.5020167 Z" id="矩形-4" fill="#FFFFFF" opacity="0.961588542"></path>
        </g>
    </g>
</svg>