<?xml version="1.0" encoding="UTF-8"?>
<svg width="60px" height="61px" viewBox="0 0 60 61" version="1.1" xmlns="http://www.w3.org/2000/svg" xmlns:xlink="http://www.w3.org/1999/xlink">
    <title>转账汇款备份 7</title>
    <g id="pad" stroke="none" stroke-width="1" fill="none" fill-rule="evenodd">
        <g id="转账汇款备份-7" transform="translate(0.000000, 0.448872)">
            <rect id="矩形" stroke="#979797" fill="#D8D8D8" opacity="0" x="0.5" y="0.5" width="59" height="59"></rect>
            <path d="M26.7575864,14.5720702 C26.7575864,14.7145273 26.8197008,14.8499038 26.9276925,14.9428115 L43.8637367,29.6981339 C43.9552812,29.7788719 44.0729776,29.8237086 44.1950374,29.8243437 L44.4001284,29.8243437 C44.5725154,29.7447145 44.6832267,29.5724971 44.6841004,29.3826094 L44.6841004,20.2577375 C49.3509825,20.5702604 52.5995432,23.3776452 54.6672108,27.2943115 L54.6666667,54.0183139 C54.6666667,55.6751681 53.3235209,57.0183139 51.6666667,57.0183139 L11,57.0183139 C9.34314575,57.0183139 8,55.6751681 8,54.0183139 L8,17.5511283 C8,15.8942741 9.34314575,14.5511283 11,14.5511283 L26.7580394,14.5510091 C26.757738,14.5580093 26.7575864,14.5650311 26.7575864,14.5720702 Z M41.3827967,35.7657714 L38.1071922,35.7657714 L38.1071922,38.9782208 L38.0996948,39.1359521 C38.0203326,39.9664837 37.3207153,40.6160231 36.4693899,40.6160231 L36.4693899,40.6160231 L27.6435166,40.6151077 L27.6435637,37.7843229 C27.6435637,37.0481087 27.0574127,36.5879748 26.5890192,36.9560819 L26.5890192,36.9560819 L20.8558118,41.457028 C20.3874182,41.8251351 20.3874182,42.7454029 20.8558118,43.1135101 L20.8558118,43.1135101 L26.5890192,47.6156513 C27.0574127,47.9837585 27.6435637,47.5236246 27.6435637,46.7874103 L27.6435637,46.7874103 L27.6435166,43.8911077 L36.4693899,43.8916276 L36.7006866,43.8862796 C39.3068971,43.7655049 41.3827967,41.614289 41.3827967,38.9782208 L41.3827967,38.9782208 L41.3827967,35.7657714 Z M35.6743122,23.7998869 C35.2216351,23.5375348 34.6988028,23.9865914 34.6988028,24.6819049 L34.6988028,24.6819049 L34.6985166,27.5131077 L25.5507082,27.513605 L25.3194116,27.518953 C22.7132011,27.6397277 20.6373015,29.7909436 20.6373015,32.4270118 L20.6373015,32.4270118 L20.6373015,35.6303128 L23.912906,35.6303128 L23.912906,32.4270118 L23.9204034,32.2692805 C23.9997655,31.4387489 24.6993829,30.7892095 25.5507082,30.7892095 L25.5507082,30.7892095 L34.6985166,30.7891077 L34.6988028,33.6849923 L34.7041094,33.8050437 C34.7635673,34.4697762 35.3109757,34.86089 35.7533474,34.5132333 L35.7533474,34.5132333 L41.4865548,30.011092 L41.5739882,29.9304357 C41.9528666,29.5227366 41.9237221,28.6981766 41.4865548,28.35461 L41.4865548,28.35461 L35.7533474,23.8536639 Z M43.0567606,1.06856289 C43.2086686,0.977145704 43.3986555,0.977145704 43.5505635,1.06856289 C43.7140723,1.144091 43.8190818,1.30743899 43.8199105,1.48754714 L43.8199105,1.48754714 L43.8199105,9.5230666 C46.8631185,9.69416101 49.7815069,10.7905144 52.1846319,12.6654485 C57.178501,16.5392857 59.217349,23.1221938 57.2872616,29.140508 C57.22209,29.3318873 57.0404764,29.4590168 56.8383499,29.4548506 C56.6337445,29.4522 56.4533665,29.3199228 56.3894382,29.1255443 C54.71137,23.5308655 49.7375598,19.5649377 43.9096929,19.1746682 L43.9096929,19.1746682 L43.9096929,27.4795347 C43.9088641,27.6596428 43.8038547,27.8229908 43.6403458,27.8985189 L43.6403458,27.8985189 L43.4458174,27.8985189 C43.3300439,27.8979165 43.218409,27.855389 43.1315793,27.7788091 L43.1315793,27.7788091 L28.1678559,14.805261 C28.0654259,14.7171383 28.0065105,14.5887338 28.0065105,14.4536135 C28.0065105,14.3184931 28.0654259,14.1900887 28.1678559,14.101966 L28.1678559,14.101966 Z" id="矩形-4" fill="#FFFFFF" opacity="0.961588542"></path>
        </g>
    </g>
</svg>