<?xml version="1.0" encoding="UTF-8"?>
<svg width="60px" height="60px" viewBox="0 0 60 60" version="1.1" xmlns="http://www.w3.org/2000/svg" xmlns:xlink="http://www.w3.org/1999/xlink">
    <title>虚拟卡申请</title>
    <g id="pad" stroke="none" stroke-width="1" fill="none" fill-rule="evenodd">
        <g id="虚拟卡申请">
            <rect id="矩形" stroke="#979797" fill="#D8D8D8" opacity="0" x="0.5" y="0.5" width="59" height="59"></rect>
            <path d="M53.3333333,10.6666667 C54.9901876,10.6666667 56.3333333,12.0098124 56.3333333,13.6666667 L56.3333333,46.5855856 C56.3333333,48.2424398 54.9901876,49.5855856 53.3333333,49.5855856 L6,49.5855856 C4.34314575,49.5855856 3,48.2424398 3,46.5855856 L3,13.6666667 C3,12.0098124 4.34314575,10.6666667 6,10.6666667 L53.3333333,10.6666667 Z M48.6186956,39.2365854 L9.61544715,39.2365854 C8.92861789,39.2365854 8.36666667,39.7829268 8.36666667,40.4853659 C8.36666667,41.1721951 8.92861789,41.7341463 9.61544715,41.7341463 L48.6186956,41.7341463 C49.3055249,41.7341463 49.8674761,41.1721951 49.8674761,40.4853659 C49.8674761,39.7985366 49.3055249,39.2365854 48.6186956,39.2365854 Z M16.3744715,19.58 C13.9549593,19.58 11.9881301,21.5468293 11.9881301,23.9663415 C11.9881301,25.0590244 12.3939837,26.0580488 13.0495935,26.8229268 C11.3013008,27.9312195 10.1461789,29.882439 10.1461789,32.0834146 C10.1461789,32.7702439 10.7081301,33.3321951 11.3949593,33.3321951 C12.0817886,33.3321951 12.6437398,32.7702439 12.6437398,32.0834146 C12.6437398,30.0229268 14.3139837,28.3526829 16.3744715,28.3526829 C18.4349593,28.3526829 20.1052033,30.0229268 20.1052033,32.0834146 C20.1052033,32.7702439 20.6671545,33.3321951 21.3539837,33.3321951 C22.040813,33.3321951 22.6027642,32.7702439 22.6027642,32.0834146 C22.6027642,29.8668293 21.4476423,27.9312195 19.6993496,26.8229268 C20.3549593,26.0580488 20.760813,25.0590244 20.760813,23.9663415 C20.760813,21.5468293 18.7939837,19.58 16.3744715,19.58 Z M32.5855856,26.8468468 L25.4333094,26.8468468 C24.7926687,26.8468468 24.4723484,27.1671672 24.4723484,27.8078078 C24.4723484,28.4484485 24.7926687,28.7687688 25.4333094,28.7687688 L25.4333094,28.7687688 L32.5855856,28.7687688 C33.2262262,28.7687688 33.5465465,28.4484485 33.5465465,27.8078078 C33.5465465,27.1671672 33.2262262,26.8468468 32.5855856,26.8468468 L32.5855856,26.8468468 Z M16.3588618,22.077561 C17.4047154,22.077561 18.2476423,22.9204878 18.2476423,23.9663415 C18.2476423,25.0121951 17.4047154,25.855122 16.3588618,25.855122 C15.3286179,25.8707317 14.4700813,25.0121951 14.4700813,23.9663415 C14.4700813,22.9204878 15.3130081,22.077561 16.3588618,22.077561 Z M34.5075075,21.0810811 L25.4333094,21.0810811 C24.7926687,21.0810811 24.4723484,21.4014014 24.4723484,22.0420421 C24.4723484,22.6826827 24.7926687,23.003003 25.4333094,23.003003 L25.4333094,23.003003 L34.5075075,23.003003 C35.1481482,23.003003 35.4684685,22.6826827 35.4684685,22.0420421 C35.4684685,21.4014014 35.1481482,21.0810811 34.5075075,21.0810811 L34.5075075,21.0810811 Z" id="矩形-2" fill="#FFFFFF" opacity="0.95656622"></path>
        </g>
    </g>
</svg>