<?xml version="1.0" encoding="UTF-8"?>
<svg width="60px" height="60px" viewBox="0 0 60 60" version="1.1" xmlns="http://www.w3.org/2000/svg" xmlns:xlink="http://www.w3.org/1999/xlink">
    <title>水费缴费</title>
    <g id="pad" stroke="none" stroke-width="1" fill="none" fill-rule="evenodd">
        <g id="水费缴费" fill="#FFFFFF" fill-rule="nonzero">
            <rect id="矩形" opacity="0" x="0" y="0" width="59.9980094" height="59.9980094"></rect>
            <path d="M40.258548,54.9978915 C33.2260112,54.9978915 27.1728774,50.0299025 25.8009948,43.1324746 C24.4291123,36.2350466 28.1205683,29.3290431 34.6178201,26.6378922 C41.1150719,23.9467413 48.6085484,26.2199642 52.515547,32.0673513 C56.4225457,37.9147383 55.6549155,45.7077145 50.6821075,50.6804154 C47.9236323,53.4538994 44.1702336,55.0085509 40.258548,54.9978915 Z M39.3748141,44.9980192 L39.3748141,49.4766873 L41.8747684,49.4766873 L41.8747684,44.9980192 L47.4996657,44.9980192 L47.4996657,42.4980649 L41.8747684,42.4980649 L41.8747684,39.9981105 L47.4996657,39.9981105 L47.4996657,37.4981562 L43.42849,37.4981562 L46.4471849,34.4819613 L44.6784672,32.7132436 L40.6247913,36.7669196 L36.5698654,32.7132436 L34.8036476,34.4819613 L37.8210925,37.4981562 L33.7486669,37.4981562 L33.7486669,39.9981105 L39.3735641,39.9981105 L39.3735641,42.4980649 L33.7486669,42.4980649 L33.7486669,44.9980192 L39.3748141,44.9980192 Z M23.290108,54.9978566 C18.405478,54.9991927 13.7323772,53.0046922 10.3540944,49.4766873 C6.89806217,45.9081292 4.9763874,41.1283951 5.00021904,36.1606806 C5.00021904,33.0069883 6.50041479,28.8970634 9.59160827,23.5959102 C10.8560795,21.4477559 12.2054538,19.3507216 13.6365344,17.3097751 C15.4839724,14.6712376 17.4191867,12.0952599 19.4389284,9.58616623 C20.2601633,8.5636849 21.0838983,7.56370319 21.8876336,6.61747047 L22.0838801,6.3887246 L23.288858,5 L24.4988359,6.3887246 L24.6938324,6.61872045 L25.2338225,7.25370881 C27.9498369,10.4931886 30.5242851,13.8487711 32.9499315,17.3110251 C34.3791029,19.3527272 35.7276155,21.4497185 36.9923576,23.5971602 L37.0098573,23.6259097 L37.026107,23.6546591 C30.4921205,24.94125 25.3080188,29.9191844 23.7574727,36.3956111 C22.2069267,42.8720378 24.5745961,49.6579706 29.8174888,53.764109 C27.7383337,54.5826233 25.5233244,55.0011977 23.288858,54.9978566 L23.290108,54.9978566 Z" id="形状"></path>
        </g>
    </g>
</svg>