<?xml version="1.0" encoding="UTF-8"?>
<svg width="60px" height="60px" viewBox="0 0 60 60" version="1.1" xmlns="http://www.w3.org/2000/svg" xmlns:xlink="http://www.w3.org/1999/xlink">
    <title>我的国债</title>
    <g id="pad" stroke="none" stroke-width="1" fill="none" fill-rule="evenodd">
        <g id="我的国债" fill-rule="nonzero">
            <rect id="矩形" fill="#000000" opacity="0" x="0" y="0" width="60" height="60"></rect>
            <path d="M30.0075,4.99999998 C35.775,4.99999998 40.775,8.94499998 42.4025,14.5625 C42.4425,14.71 42.4725,14.855 42.4875,15.0025 L44.3625,15 C48.1683109,14.9996798 51.371026,17.8498813 51.8125,21.63 L54.7375,46.63 C54.9858789,48.7567407 54.3134116,50.8882378 52.8895451,52.4874008 C51.4656787,54.0865638 49.4261952,55.0008939 47.285,55 L12.7125,55 C10.5717405,55 8.53293413,54.0855413 7.10962398,52.4864667 C5.68631383,50.8873921 5.01417187,48.7563078 5.26249998,46.63 L8.18749998,21.63 C8.62886327,17.8508288 11.8301432,15.0009482 15.635,15 L17.515,15 C17.53,14.875 17.5575,14.745 17.5925,14.6175 C19.205,8.97250002 24.22,4.99999998 30.0075,4.99999998 Z M41.625,24 L18.375,24 C16.5110333,24 15,25.5022 15,27.3552667 L15,27.3552667 L15,35.5570333 L16.125,35.5570333 C17.1605333,35.5570333 18,36.3916 18,37.4210667 C18,38.4505333 17.1605,39.2851 16.125,39.2851 L16.125,39.2851 L15,39.2851 L15,47.4868333 C15,49.3399 16.5110333,50.8421 18.375,50.8421 L18.375,50.8421 L41.625,50.8421 C43.4889667,50.8421 45,49.3399 45,47.4868333 L45,47.4868333 L45,39.6579 L43.875,39.6579 C42.8394667,39.6579 42,38.8233333 42,37.7938333 C42,36.7643667 42.8395,35.9298333 43.875,35.9298333 L43.875,35.9298333 L45,35.9298333 L45,27.3552667 C45,25.5022 43.4889667,24 41.625,24 L41.625,24 Z M29.6875,29.625 L38.75,31.5604921 L38.75,34.9475905 L37.3190312,34.9475905 L37.3190312,41.2378505 L38.75,41.2378505 L38.75,44.625 L20.625,44.625 L20.625,41.2379016 L22.0559184,41.2379016 L22.0559184,34.9474884 L20.625,34.9475905 L20.625,31.5604921 L29.6875,29.625 Z M28.125,35.25 L25.625,35.25 L25.625,41.5 L28.125,41.5 L28.125,35.25 Z M34.375,35.25 L31.875,35.25 L31.875,41.5 L34.375,41.5 L34.375,35.25 Z M30.0075,10 C26.8375,10 24.0075,12 22.75,15 L37.2625,15 C36.0025,12 33.175,10 30.0075,10 Z" id="形状" fill="#FFFFFF" opacity="0.958449591"></path>
        </g>
    </g>
</svg>