<?xml version="1.0" encoding="UTF-8"?>
<svg width="60px" height="60px" viewBox="0 0 60 60" version="1.1" xmlns="http://www.w3.org/2000/svg" xmlns:xlink="http://www.w3.org/1999/xlink">
    <title>一键微信绑卡</title>
    <g id="pad" stroke="none" stroke-width="1" fill="none" fill-rule="evenodd">
        <g id="一键微信绑卡" fill-rule="nonzero">
            <rect id="矩形" fill="#000000" opacity="0" x="0" y="0" width="60" height="60"></rect>
            <path d="M22.9629815,26.5573119 C22.7127843,27.4174176 22.5798834,28.3195487 22.5798834,29.2515388 C22.5798834,31.768314 23.3517107,33.722807 24.9476359,35.4540649 L7.85181217,35.4536301 L7.85181217,37.8805154 L27.326,37.88 L26.5127854,42.5382761 L31.5473279,40.260975 L31.9776458,40.2733133 C33.0726981,40.3031342 33.7763611,40.3090983 34.7680188,40.3102912 L35.5763764,40.3105894 C35.8888671,40.3105894 36.1984661,40.2990224 36.5053671,40.2794733 C37.9441628,44.4099857 42.4462875,47.4271032 47.9000179,47.4271032 C49.2886889,47.4271032 50.6933523,47.0827735 52.0900195,46.7358154 L52.0900195,46.7358154 L53.2962875,47.3876726 C53.0012644,47.5152814 52.6759378,47.5860091 52.3341455,47.5860091 L52.3341455,47.5860091 L5.42688528,47.5860091 C4.08699322,47.5860091 3,46.4989268 3,45.1591238 L3,45.1591238 L3,26.5572169 Z M47.723205,29.4848316 C52.6305253,29.4848316 57,33.0433685 57,37.4107585 C57,39.786839 55.4822118,41.8973551 53.4074028,43.5217414 L53.174625,43.700217 L53.9959862,46.429054 L51.000311,44.7884163 C49.9079423,45.0635932 48.8093196,45.3366853 47.723205,45.3366853 C42.5261151,45.3366853 38.433902,41.7844025 38.433902,37.4107585 C38.433902,33.0433685 42.5261151,29.4848316 47.723205,29.4848316 Z M17.5572169,40.3074007 L7.85181217,40.3074007 L7.85181217,42.7323275 L17.5572169,42.7323275 L17.5572169,40.3074007 Z M35.8752865,20.105166 C41.2454043,20.105166 45.9505113,23.376018 46.8948682,27.7767628 C46.5488125,27.737154 46.1985874,27.7100532 45.844193,27.7100532 L45.844193,27.7100532 C44.8917899,27.7121379 43.9761899,27.8425644 43.1159702,28.0850466 C42.6152604,28.2757911 42.1333786,28.4956997 41.6728221,28.7418197 L41.676,28.739 L42.0081214,28.5593545 C42.2801316,28.417295 42.5594765,28.285632 42.84557,28.164945 C39.1620134,29.319861 36.5590593,32.5514004 36.5590593,36.3551923 C36.5617623,37.1310777 36.6754875,37.9025835 36.8967763,38.646248 C36.5590593,38.671264 36.2192576,38.6879414 35.8752865,38.6879414 C34.513995,38.6879414 33.417457,38.4106799 32.0499115,38.1396724 L32.0499115,38.1396724 L28.2328752,40.0534022 L29.3252439,36.7679575 C26.5901528,34.8563124 24.9536845,32.3943135 24.9536845,29.394469 C24.9536845,24.1973792 29.8714282,20.105166 35.8752865,20.105166 Z M44.7087678,33.8605603 C44.1646681,33.8605603 43.6163991,34.410914 43.6163991,34.952929 C43.6163991,35.5053673 44.1667528,36.0473823 44.7087678,36.0473823 C45.5342983,36.0473823 46.0763133,35.5053673 46.0763133,34.952929 C46.0763133,34.4088293 45.5342983,33.8605603 44.7087678,33.8605603 Z M50.7167955,33.8605603 C50.1747805,33.8605603 49.6327655,34.410914 49.6327655,34.952929 C49.6327655,35.5053673 50.1747805,36.0473823 50.7167955,36.0473823 C51.536072,36.0473823 52.0822563,35.5053673 52.0822563,34.952929 C52.0822563,34.4088293 51.536072,33.8605603 50.7167955,33.8605603 Z M54.7610308,26.5572169 L54.7617399,29.2165877 C52.9933854,28.0974881 50.8882891,27.3801653 48.670421,27.242794 L48.670421,27.242794 L48.675,27.264 L48.6273654,27.0568431 C48.586,26.8887343 48.5400055,26.7220825 48.4895069,26.5569742 L54.7610308,26.5572169 Z M39.971669,24.7498175 C39.1544772,24.7498175 38.3310314,25.2918325 38.3310314,26.1131937 C38.3310314,26.9324702 39.1544772,27.4807392 39.971669,27.4807392 C40.7951149,27.4807392 41.3392146,26.9324702 41.3392146,26.1131937 C41.3392146,25.2918325 40.7951149,24.7498175 39.971669,24.7498175 Z M32.327173,24.7498175 C31.5099812,24.7498175 30.6844507,25.2918325 30.6844507,26.1131937 C30.6844507,26.9324702 31.5099812,27.4807392 32.327173,27.4807392 C33.1485342,27.4807392 33.6905492,26.9324702 33.6905492,26.1131937 C33.6905492,25.2918325 33.1464495,24.7498175 32.327173,24.7498175 Z M52.3341455,12 C53.6741266,12 54.7610308,13.0869042 54.7610308,14.4267963 L54.7610308,14.4267963 L54.7610308,21.7054047 L45.2667371,21.7056905 C42.8060599,19.5386386 39.3275596,18.1974496 35.5763764,18.1974496 C31.8279069,18.1974496 28.4352185,19.5379456 26.0568396,21.7055148 L3,21.7054047 L3,14.4267963 C3,13.0869042 4.08699322,12 5.42688528,12 L5.42688528,12 Z" id="形状" fill="#FFFFFF"></path>
        </g>
    </g>
</svg>