<?xml version="1.0" encoding="UTF-8"?>
<svg width="60px" height="60px" viewBox="0 0 60 60" version="1.1" xmlns="http://www.w3.org/2000/svg" xmlns:xlink="http://www.w3.org/1999/xlink">
    <title>取款</title>
    <g id="pad" stroke="none" stroke-width="1" fill="none" fill-rule="evenodd">
        <g id="取款">
            <rect id="矩形" stroke="#979797" fill="#D8D8D8" opacity="0" x="0.5" y="0.5" width="59" height="59"></rect>
            <path d="M32.1249621,5.3681935 L53.3333333,18.6666667 L53.3333333,51.6666667 C53.3333333,53.3235209 51.9901876,54.6666667 50.3333333,54.6666667 L9.66666667,54.6666667 C8.00981242,54.6666667 6.66666667,53.3235209 6.66666667,51.6666667 L6.66666667,18.6666667 L27.8750379,5.3681935 C29.1745125,4.55337241 30.8254875,4.55337241 32.1249621,5.3681935 Z M25.3125,24.5019872 C24.9996354,24.0998258 24.3741146,23.8316487 23.7707552,24.1221435 C23.2122135,24.3902945 23.0557812,25.1276122 23.2791927,25.6191747 L23.2791927,25.6191747 L27.8597396,31.7638622 L22.1842708,31.7638622 C21.53625,31.7638622 21,32.1883935 21,32.679956 C21,33.2832893 21.5363021,33.663133 22.1842708,33.663133 L22.1842708,33.663133 L28.7758594,33.663133 L28.7758594,36.5902685 L22.1842708,36.5902685 C21.53625,36.5902685 21,36.9925341 21,37.528758 C21,38.064982 21.5363021,38.5119351 22.1842708,38.5119351 L22.1842708,38.5119351 L28.7535156,38.5119351 L28.7535156,44.1427164 C28.7535156,44.6342789 29.3345052,45.2152164 30.0271875,45.2152164 C30.7867969,45.2152164 31.2560677,44.6342789 31.2560677,44.1427164 L31.2560677,44.1427164 L31.2560677,38.5119351 L38.1158073,38.5119351 C38.76375,38.5119351 39.3446875,38.065008 39.3446875,37.5734455 C39.3446875,36.9924299 38.763776,36.5902685 38.1158073,36.5902685 L38.1159375,36.5904247 L31.2561979,36.568107 L31.2561979,33.6409716 L37.8477865,33.6409716 C38.4957292,33.6409716 39.0766667,33.2611539 39.0766667,32.702482 C39.0766667,32.1438101 38.4957552,31.7416487 37.8477865,31.7416487 L37.8477865,31.7416487 L32.2616927,31.7416487 L37.0210417,25.9320653 L37.0210417,25.9320653 L37.0339729,25.9059962 C37.1106144,25.7449874 37.4764,24.8775514 36.7081771,24.4126122 C35.903776,23.9433674 35.2334635,24.5242789 34.920599,24.971232 L34.920599,24.971232 L30.071849,30.9148258 Z" id="矩形-4" fill="#FFFFFF" opacity="0.958844866"></path>
        </g>
    </g>
</svg>