<?xml version="1.0" encoding="UTF-8"?>
<svg width="32px" height="32px" viewBox="0 0 32 32" version="1.1" xmlns="http://www.w3.org/2000/svg" xmlns:xlink="http://www.w3.org/1999/xlink">
    <title>安全退出</title>
    <g id="pad" stroke="none" stroke-width="1" fill="none" fill-rule="evenodd">
        <g id="首页" transform="translate(-1553.000000, -38.000000)" fill-rule="nonzero">
            <g id="编组-13" transform="translate(1537.000000, 25.000000)">
                <g id="编组-8" transform="translate(16.000000, 11.000000)">
                    <g id="安全退出" transform="translate(0.000000, 2.000000)">
                        <rect id="矩形" fill="#000000" opacity="0" x="0" y="0" width="32" height="32"></rect>
                        <path d="M15,2 C15.553125,2 16,2.446875 16,3 C16,3.553125 15.553125,4 15,4 L15,4 L4,4 C2.896875,4 2,4.896875 2,6 L2,6 L2,26 C2,27.103125 2.896875,28 4,28 L4,28 L15,28 C15.553125,28 16,28.446875 16,29 C16,29.553125 15.553125,30 15,30 L15,30 L4,30 C1.790625,30 0,28.209375 0,26 L0,26 L0,6 C0,3.790625 1.790625,2 4,2 L4,2 Z M20.340625,5.01875 L31.665625,15.25625 C32.10625,15.65625 32.10625,16.34375 31.665625,16.740625 L20.340625,26.978125 C19.05625,28.140625 17,27.228125 17,25.49375 L17,21.40625 C17,21.26875 16.8875,21.15625 16.75,21.15625 L7,21.15625 C6.446875,21.15625 6,20.709375 6,20.15625 L6,11.84375 C6,11.290625 6.446875,10.84375 7,10.84375 L16.75,10.84375 C16.8875,10.84375 17,10.73125 17,10.59375 L17,6.503125 C17,4.76875 19.05625,3.85625 20.340625,5.01875 Z" id="路径-3" fill="#CFF4ED"></path>
                    </g>
                </g>
            </g>
        </g>
    </g>
</svg>