<?xml version="1.0" encoding="UTF-8"?>
<svg width="80px" height="80px" viewBox="0 0 80 80" version="1.1" xmlns="http://www.w3.org/2000/svg" xmlns:xlink="http://www.w3.org/1999/xlink">
    <title>点击说话</title>
    <g id="pad" stroke="none" stroke-width="1" fill="none" fill-rule="evenodd">
        <g id="公共页面-操作弹窗" transform="translate(-920.000000, -866.000000)">
            <g id="编组-6" transform="translate(318.000000, 243.000000)">
                <g id="点击说话" transform="translate(602.000000, 623.000000)">
                    <rect id="矩形" x="0" y="0" width="80" height="80"></rect>
                    <g id="编组-28" transform="translate(22.222222, 13.333333)" fill="#A1A1A1">
                        <rect id="矩形" x="7.52941176" y="0" width="20.0784314" height="35.1372549"></rect>
                        <path d="M17.5686275,37.6470588 C18.9547539,37.6470588 20.0784314,38.7707363 20.0784314,40.1568627 L20.0784314,52.7058824 C20.0784314,54.0920088 18.9547539,55.2156863 17.5686275,55.2156863 C16.182501,55.2156863 15.0588235,54.0920088 15.0588235,52.7058824 L15.0588235,40.1568627 C15.0588235,38.7707363 16.182501,37.6470588 17.5686275,37.6470588 Z" id="矩形备份-27"></path>
                        <rect id="矩形" x="7.52941176" y="50.1960784" width="20.0784314" height="5.01960784" rx="1.2"></rect>
                        <path d="M19.5897802,17.5686275 L22.157621,17.5686275 C22.7348972,17.5686275 23.2028721,18.0366023 23.2028721,18.6138785 C23.2028721,18.9132129 23.074539,19.1981834 22.8504009,19.3965851 C17.656016,23.9941769 15.0588235,29.2410668 15.0588235,35.1372549 C15.0588235,41.033443 17.656016,46.2803329 22.8504009,50.8779247 C23.2826655,51.2605409 23.3229267,51.9211314 22.9403191,52.3534036 C22.741926,52.5775493 22.4569554,52.7058824 22.157621,52.7058824 L19.5897802,52.7058824 C19.3432087,52.7058627 19.1026285,52.6298876 18.9017783,52.4868496 C12.9934032,48.3193502 10.0392157,42.536152 10.0392157,35.1372549 C10.0392157,27.7383578 12.9934032,21.9551596 18.9017783,17.7876602 C19.1026285,17.6446222 19.3432087,17.5686471 19.5897802,17.5686275 Z" id="矩形备份-17" fill-rule="nonzero" transform="translate(17.568627, 35.137255) scale(-1, -1) rotate(90.000000) translate(-17.568627, -35.137255) "></path>
                    </g>
                </g>
            </g>
        </g>
    </g>
</svg>