<?xml version="1.0" encoding="UTF-8"?>
<svg width="37px" height="37px" viewBox="0 0 37 37" version="1.1" xmlns="http://www.w3.org/2000/svg" xmlns:xlink="http://www.w3.org/1999/xlink">
    <title>取消</title>
    <g id="pad" stroke="none" stroke-width="1" fill="none" fill-rule="evenodd" fill-opacity="0.5">
        <g id="公共页面-操作弹窗" transform="translate(-1478.000000, -323.000000)" fill="#0B0B0B" fill-rule="nonzero">
            <g id="编组-6" transform="translate(318.000000, 243.000000)">
                <g id="取消" transform="translate(1160.000000, 80.000000)">
                    <path d="M18.375,0 C28.6125,0 36.75,8.1375 36.75,18.375 C36.75,28.6125 28.6125,36.75 18.375,36.75 C8.1375,36.75 0,28.6125 0,18.375 C0,8.1375 8.1375,0 18.375,0 Z M11.025,11.025 C10.5,11.55 10.5,12.3375 11.025,12.8625 L16.5375,18.375 L11.025,23.8875 C10.5,24.4125 10.5,25.2 11.025,25.725 C11.55,26.25 12.3375,26.25 12.8625,25.725 L18.375,20.2125 L23.8875,25.725 C24.4125,26.25 25.2,26.25 25.725,25.725 C26.25,25.2 26.25,24.4125 25.725,23.8875 L20.2125,18.375 L25.725,12.8625 C26.25,12.3375 26.25,11.55 25.725,11.025 C25.2,10.5 24.4125,10.5 23.8875,11.025 L18.375,16.5375 L12.8625,11.025 C12.3375,10.5 11.55,10.5 11.025,11.025 Z" id="形状"></path>
                </g>
            </g>
        </g>
    </g>
</svg>
