<?xml version="1.0" encoding="UTF-8"?>
<svg width="54px" height="54px" viewBox="0 0 54 54" version="1.1" xmlns="http://www.w3.org/2000/svg" xmlns:xlink="http://www.w3.org/1999/xlink">
    <title>用户</title>
    <g id="pad" stroke="none" stroke-width="1" fill="none" fill-rule="evenodd">
        <g id="首页1920" transform="translate(-1329.000000, -20.000000)">
            <g id="待办事项备份" transform="translate(1323.000000, 13.000000)">
                <g id="用户" transform="translate(6.000000, 7.000000)">
                    <circle id="椭圆形" stroke="#61BF98" fill="#E2F7F4" cx="27" cy="27" r="26"></circle>
                    <g id="编组-17" transform="translate(8.567469, 8.000000)">
                        <g id="编组-26" fill-rule="nonzero">
                            <path d="M4.93253112,29.9560835 C6.313243,29.9560835 5.43253112,27.6129377 5.43253112,25.9560835 C5.43253112,24.2992292 3.313243,22.9560835 1.93253112,22.9560835 C0.551819247,22.9560835 -0.0674688787,24.9560835 0.432531121,26.9560835 C0.932531121,28.9560835 3.55181925,29.9560835 4.93253112,29.9560835 Z" id="椭圆形" stroke="#A0DFC5" fill="#A0DFC5"></path>
                            <path d="M35.9325311,29.9560835 C37.313243,29.9560835 36.4325311,27.6129377 36.4325311,25.9560835 C36.4325311,24.2992292 34.313243,22.9560835 32.9325311,22.9560835 C31.5518192,22.9560835 30.9325311,24.9560835 31.4325311,26.9560835 C31.9325311,28.9560835 34.5518192,29.9560835 35.9325311,29.9560835 Z" id="椭圆形" stroke="#A0DFC5" fill="#A0DFC5" transform="translate(33.985046, 26.456083) scale(-1, 1) translate(-33.985046, -26.456083) "></path>
                            <path d="M18.4325311,38.9560835 C26.7168024,38.9560835 33.4325311,32.2403547 33.4325311,23.9560835 C33.4325311,15.6718122 33.4325311,8.95608346 18.4325311,8.95608346 C3.43253112,8.95608346 3.43253112,15.6718122 3.43253112,23.9560835 C3.43253112,32.2403547 10.1482599,38.9560835 18.4325311,38.9560835 Z" id="椭圆形" stroke="#A0DFC5" fill="#FFFFFF"></path>
                            <path d="M2.66004423,23.8749332 C1.08911392,23.6295817 0.30364877,22.8278792 0.30364877,21.4698255 C0.30364877,18.9835676 -0.379560962,11.9015024 0.30364877,10.104075 C0.759121924,8.90579005 1.51419084,8.07703741 2.5688555,7.61781707 C3.46953136,4.53959297 5.08991523,3.00048092 7.43000711,3.00048092 C8.91776892,3.00048092 12.4325311,-0.0439165442 18.0078503,0.000480918825 C22.2908951,0.0345877244 25.1648392,1.03458772 26.6296824,3.00048092 C29.9058111,2.76369445 32.245903,3.47405386 33.6499581,5.13155914 C35.0540132,6.78906443 35.7560408,8.92014265 35.7560408,11.5247938 C36.0813197,17.1075531 36.0813197,20.4225636 35.7560408,21.4698255 C35.5035049,22.2828853 34.671265,22.9642395 33.2593211,23.5138881 C32.7452445,23.7157395 32.1651059,23.4620919 31.9637324,22.9478282 C31.9186667,22.8327403 31.8953266,22.7102952 31.8948892,22.5866992 L31.8948892,17.7647185 C31.8944936,17.2124339 31.446458,16.7650392 30.8941734,16.7654345 C30.6613558,16.7656012 30.4358925,16.8469975 30.2580599,16.9972786 C27.7972073,19.0318307 24.9496839,20.0491067 21.7154895,20.0491067 C18.1986673,20.0491067 13.8588779,18.3836377 8.6961211,15.0526998 L8.69845643,15.0490678 C8.23391499,14.7503712 7.61518826,14.8848149 7.3164916,15.3493564 C7.23802393,15.4713915 7.18705059,15.6090396 7.16710911,15.7527479 C7.10079336,16.2336029 6.8559872,16.6347221 6.43253112,16.9560835 C5.79540454,17.4395996 5.18752257,17.7425612 4.6088852,17.8649682 C4.14642558,17.9612857 3.81490632,18.3684551 3.81378659,18.8408367 L3.81378659,22.8858618 C3.81436455,23.4381462 3.36711853,23.8863302 2.81483408,23.8869087 C2.76300288,23.886963 2.71124591,23.8829875 2.66004423,23.8749332 Z" id="路径-12" stroke="#FFFFFF" fill="#49A880"></path>
                        </g>
                        <g id="编组-28" transform="translate(11.432531, 21.956083)" fill="#85D3B3">
                            <rect id="矩形" x="0" y="0" width="2" height="3" rx="1"></rect>
                            <rect id="矩形备份-8" x="12" y="0" width="2" height="3" rx="1"></rect>
                            <path d="M5.20913581,9.86198505 C5.93128126,10.0873284 6.52823599,10.2 7,10.2 C7.47176401,10.2 8.06871874,10.0873284 8.79086419,9.86198505 L8.79086463,9.86198646 C9.26843199,9.71296302 9.77638419,9.97930048 9.92540763,10.4568678 C10.030857,10.7947958 9.92979164,11.1631875 9.66666667,11.4 C9.66666667,11.4 9.66666667,11.4 9.66666667,11.4 C9,12 8.33333333,12 7,12 C5.66666667,12 5,12 4.33333333,11.4 C4.33333333,11.4 4.33333333,11.4 4.33333333,11.4 C3.96147926,11.0653313 3.93133453,10.4925815 4.2660032,10.1207274 C4.50281567,9.85760246 4.87120739,9.75653706 5.20913537,9.86198646 Z" id="矩形备份-16"></path>
                            <path d="M6.5,2 C6.77614237,2 7,2.22385763 7,2.5 L7,5 C7,5.55228475 7.44771525,6 8,6 L8.5,6 C8.77614237,6 9,6.22385763 9,6.5 C9,6.77614237 8.77614237,7 8.5,7 L6.2198039,7 C5.66751915,7 5.2198039,6.55228475 5.2198039,6 C5.2198039,5.93414801 5.22630859,5.86845705 5.23922323,5.80388386 L5.90194193,2.49029034 C5.95895852,2.20520741 6.20927132,2 6.5,2 Z" id="矩形备份-17"></path>
                        </g>
                    </g>
                </g>
            </g>
        </g>
    </g>
</svg>