<?xml version="1.0" encoding="UTF-8"?>
<svg width="20px" height="20px" viewBox="0 0 20 20" version="1.1" xmlns="http://www.w3.org/2000/svg" xmlns:xlink="http://www.w3.org/1999/xlink">
    <title>下拉</title>
    <g id="pad" stroke="none" stroke-width="1" fill="none" fill-rule="evenodd">
        <g id="首页" transform="translate(-71.000000, -949.000000)" fill-rule="nonzero">
            <g id="下拉" transform="translate(71.000000, 949.000000)">
                <rect id="矩形" fill="#000000" opacity="0" x="0" y="0" width="20" height="20"></rect>
                <path d="M17.8732546,10.2919637 C17.6447613,10.0634704 17.2737037,10.0634704 17.0452104,10.2919637 L9.58695439,17.7482668 C9.35846107,17.9767601 9.35846107,18.3478176 9.58695439,18.5763109 C9.81544771,18.8048042 10.1865052,18.8048042 10.4149985,18.5763109 L17.8713016,11.1200078 C18.1017479,10.8915145 18.1017479,10.520457 17.8732546,10.2919637 L17.8732546,10.2919637 Z M10.4345279,17.7502197 L2.97431891,10.2900107 C2.74582559,10.0615174 2.37476809,10.0615174 2.14627479,10.2900107 C1.91778148,10.5185041 1.91778146,10.8895616 2.14627479,11.1180549 L9.60648375,18.5782638 C9.83497707,18.8067572 10.2060346,18.8067572 10.4345279,18.5782638 C10.6630212,18.3497705 10.6630212,17.978713 10.4345279,17.7502197 Z M17.8732546,1.42564203 C17.6447613,1.19714871 17.2737037,1.19714871 17.0452104,1.42564203 L9.58695439,8.88194512 C9.35846107,9.11043844 9.35846107,9.48149594 9.58695439,9.70998926 C9.81544771,9.93848258 10.1865052,9.93848258 10.4149985,9.70998926 L17.8713016,2.25368617 C18.1017479,2.02519285 18.1017479,1.65413535 17.8732546,1.42564203 L17.8732546,1.42564203 Z M10.4345279,8.88389807 L2.97431891,1.4236891 C2.74582559,1.19519578 2.37476809,1.19519578 2.14627479,1.4236891 C1.91778148,1.65218242 1.91778146,2.02323992 2.14627479,2.25173322 L9.60648375,9.71194219 C9.83497707,9.94043551 10.2060346,9.94043551 10.4345279,9.71194219 C10.6630212,9.48344887 10.6630212,9.11239137 10.4345279,8.88389807 L10.4345279,8.88389807 Z" id="形状" fill="#9E9D9C"></path>
            </g>
        </g>
    </g>
</svg>