<?xml version="1.0" encoding="UTF-8"?>
<svg width="20px" height="20px" viewBox="0 0 20 20" version="1.1" xmlns="http://www.w3.org/2000/svg" xmlns:xlink="http://www.w3.org/1999/xlink">
    <title>向上</title>
    <g id="pad" stroke="none" stroke-width="1" fill="none" fill-rule="evenodd">
        <g id="首页" transform="translate(-71.000000, -949.000000)" fill-rule="nonzero">
            <g id="向上" transform="translate(71.000000, 949.000000)">
                <rect id="矩形" fill="#000000" opacity="0" x="0" y="0" width="20" height="20"></rect>
                <path d="M17.8983498,10.0396446 C17.6698564,9.81115124 17.2987989,9.81115124 17.0703056,10.0396446 L9.61204959,17.4959477 C9.38355627,17.724441 9.38355627,18.0954985 9.61204959,18.3239918 C9.84054291,18.5524851 10.2116004,18.5524851 10.4400937,18.3239918 L17.8963968,10.8676887 C18.1268431,10.6391954 18.1268431,10.2681379 17.8983498,10.0396446 L17.8983498,10.0396446 Z M10.4596231,17.4979006 L2.9994141,10.0376916 C2.77092078,9.80919831 2.39986328,9.80919831 2.17136998,10.0376916 C1.94287668,10.266185 1.94287666,10.6372425 2.17136998,10.8657358 L9.63157895,18.3259447 C9.86007227,18.5544381 10.2311298,18.5544381 10.4596231,18.3259447 C10.6881164,18.0974514 10.6881164,17.7263939 10.4596231,17.4979006 Z M17.8983498,1.17332292 C17.6698564,0.9448296 17.2987989,0.9448296 17.0703056,1.17332292 L9.61204959,8.62962601 C9.38355627,8.85811933 9.38355627,9.22917683 9.61204959,9.45767015 C9.84054291,9.68616347 10.2116004,9.68616347 10.4400937,9.45767015 L17.8963968,2.00136706 C18.1268431,1.77287374 18.1268431,1.40181624 17.8983498,1.17332292 L17.8983498,1.17332292 Z M10.4596231,8.63157896 L2.9994141,1.17136999 C2.77092078,0.94287667 2.39986328,0.94287667 2.17136998,1.17136999 C1.94287668,1.39986331 1.94287666,1.77092081 2.17136998,1.99941411 L9.63157895,9.45962308 C9.86007227,9.6881164 10.2311298,9.6881164 10.4596231,9.45962308 C10.6881164,9.23112976 10.6881164,8.86007226 10.4596231,8.63157896 L10.4596231,8.63157896 Z" id="形状" fill="#9E9D9C" transform="translate(10.034738, 9.748657) scale(1, -1) translate(-10.034738, -9.748657) "></path>
            </g>
        </g>
    </g>
</svg>