<?xml version="1.0" encoding="UTF-8"?>
<svg width="28px" height="28px" viewBox="0 0 28 28" version="1.1" xmlns="http://www.w3.org/2000/svg" xmlns:xlink="http://www.w3.org/1999/xlink">
    <title>语音</title>
    <g id="pad" stroke="none" stroke-width="1" fill="none" fill-rule="evenodd">
        <g id="开卡5" transform="translate(-1460.000000, -40.000000)" fill-rule="nonzero">
            <g id="编组-21" transform="translate(1042.000000, 25.000000)">
                <g id="语音" transform="translate(418.000000, 15.000000)">
                    <rect id="矩形" fill="#000000" opacity="0" x="0" y="0" width="28" height="28"></rect>
                    <path d="M18.7699195,27.9984601 L9.23008051,27.9984601 C8.70129143,27.9984601 8.27304226,27.5746652 8.27304226,27.0439671 C8.27304226,26.517087 8.69429181,26.0894742 9.23008051,26.0894742 L13.3636714,26.0894742 L13.3636714,23.5441596 C9.14672147,23.5441596 5.72772769,20.1251658 5.72772769,15.908216 C5.72772769,15.908216 5.72772769,14.7558248 5.72772769,14.0017753 C5.72772769,13.8325119 5.79517854,13.6696118 5.91480832,13.549982 C6.0344381,13.4303522 6.19733822,13.3629014 6.36660166,13.3629014 L6.36723798,13.3629014 C6.71721873,13.3629014 7.00038497,13.6460676 7.00038497,13.9960484 C7.00038497,14.7500978 7.00038497,15.908216 7.00038497,15.908216 C7.00038497,19.422659 9.84922829,22.2715023 13.3636714,22.2715023 L14.6363286,22.2715023 C18.1507717,22.2715023 20.999615,19.422659 20.999615,15.908216 C20.999615,15.908216 20.999615,14.7481888 20.999615,13.9947758 C20.999615,13.6454313 21.2821449,13.3629014 21.6314894,13.3629014 C21.6372163,13.3629014 21.6429433,13.3629014 21.6486702,13.3629014 C21.8141157,13.3629014 21.9725615,13.4284433 22.089646,13.5455277 C22.2067305,13.6626122 22.2722723,13.821058 22.2722723,13.9865035 C22.2722723,14.7399166 22.2722723,15.908216 22.2722723,15.908216 C22.2722723,20.1251658 18.8532785,23.5441596 14.6363286,23.5441596 L14.6363286,26.0894742 L18.7699195,26.0894742 C19.2987086,26.0894742 19.7269577,26.513269 19.7269577,27.0439671 C19.7269577,27.5708472 19.3057082,27.9984601 18.7699195,27.9984601 Z M19.7269577,9.54492957 L19.7269577,15.2725236 C19.7269577,18.435077 17.163826,20.9988451 14,20.9988451 C10.8368104,20.9988451 8.27304226,18.4408039 8.27304226,15.2725236 L8.27304226,9.54492957 L19.7269577,9.54492957 Z M17.3661785,13.3629014 C17.7237952,13.3629014 18.0088704,13.0778262 18.0088704,12.7265727 C18.0088704,12.372774 17.7212499,12.0902441 17.3661785,12.0902441 L10.6338215,12.0902441 C10.2762048,12.0902441 9.99112959,12.3753194 9.99112959,12.7265727 C9.99112959,13.0803715 10.2787501,13.3629014 10.6338215,13.3629014 L17.3661785,13.3629014 Z M19.7269577,8.27227231 L19.7269577,6.36265005 C19.7269577,3.19436977 17.1631896,0.636328629 14,0.636328629 C10.836174,0.636328629 8.27304226,3.2000967 8.27304226,6.36265005 L8.27304226,8.27227231 L19.7269577,8.27227231 Z" id="形状" fill="#FFFFFF" opacity="0.798642113"></path>
                </g>
            </g>
        </g>
    </g>
</svg>