<?xml version="1.0" encoding="UTF-8"?>
<svg width="30px" height="30px" viewBox="0 0 30 30" version="1.1" xmlns="http://www.w3.org/2000/svg" xmlns:xlink="http://www.w3.org/1999/xlink">
    <title>查找</title>
    <g id="pad" stroke="none" stroke-width="1" fill="none" fill-rule="evenodd">
        <g id="开卡5" transform="translate(-1060.000000, -39.000000)" fill-rule="nonzero">
            <g id="编组-21" transform="translate(1042.000000, 25.000000)">
                <g id="查找" transform="translate(18.000000, 14.000000)">
                    <rect id="矩形" fill="#000000" opacity="0" x="0" y="0" width="30" height="30"></rect>
                    <path d="M14.0505,25.5470672 C8.79360723,25.5274668 4.21068534,21.9663078 2.89306981,16.8771827 C1.57545427,11.7880575 3.85437791,6.45031148 8.44126201,3.88208253 C13.0281461,1.31385359 18.7699027,2.16076386 22.4199529,5.94394231 C26.0700031,9.72712076 26.7107678,15.4955214 23.9799375,19.9875 C23.7086098,20.429225 23.1316754,20.56923 22.6880625,20.301 C22.4751853,20.1728735 22.3222202,19.9651145 22.2630865,19.7237925 C22.2039528,19.4824706 22.2435373,19.2275291 22.3730625,19.0155 C24.6841243,15.2347113 24.1526148,10.3705816 21.0795773,7.17812018 C18.0065397,3.98565875 13.1661974,3.26917664 9.30008669,5.43448435 C5.43397594,7.59979205 3.51612748,12.1013604 4.63279737,16.3895323 C5.74946726,20.6777042 9.61932089,23.6721145 14.0505,23.67675 C15.8097466,23.6782879 17.5366572,23.2039786 19.0483125,22.3040625 C19.4934855,22.0382498 20.069751,22.1817299 20.3383125,22.62525 C20.466475,22.8380786 20.5044814,23.0932268 20.4439116,23.3341686 C20.3833418,23.5751104 20.2291964,23.7819541 20.015625,23.908875 C18.2113719,24.9828969 16.1502259,25.5489443 14.0505,25.5470672 L14.0505,25.5470672 Z M26.7174375,27.5625035 C26.4681838,27.5628634 26.2289793,27.4642683 26.052375,27.288375 L23.364375,24.6140625 C23.1881218,24.439016 23.0890017,24.2008766 23.0890017,23.9524687 C23.0890017,23.7040609 23.1881218,23.4659215 23.364375,23.290875 C23.7323913,22.9256499 24.3261087,22.9256499 24.694125,23.290875 L27.3823125,25.9655625 C27.6499365,26.2336646 27.7295309,26.6366651 27.5839287,26.9863812 C27.4383266,27.3360973 27.0962518,27.5635384 26.7174375,27.5625035 L26.7174375,27.5625035 Z" id="形状" fill="#FFFFFF"></path>
                    <path d="M8.2430625,15.1875 C7.72834148,15.1873965 7.31110351,14.7701585 7.311,14.2554375 C7.31533983,10.421619 10.4221815,7.31477733 14.256,7.3104375 C14.7708157,7.3104375 15.1881563,7.72777807 15.1881563,8.24259375 C15.1881563,8.75740943 14.7708157,9.17475 14.256,9.17475 C11.4509026,9.17764377 9.17764377,11.4509026 9.17475,14.256 C9.17433629,14.770355 8.75741756,15.1871898 8.2430625,15.1875 Z" id="路径" fill="#FFCA1E"></path>
                </g>
            </g>
        </g>
    </g>
</svg>