<?xml version="1.0" encoding="UTF-8"?>
<svg width="40px" height="40px" viewBox="0 0 40 40" version="1.1" xmlns="http://www.w3.org/2000/svg" xmlns:xlink="http://www.w3.org/1999/xlink">
    <title>重庆银行</title>
    <g id="pad" stroke="none" stroke-width="1" fill="none" fill-rule="evenodd">
        <g id="转账汇款2-1" transform="translate(-882.000000, -431.000000)" fill-rule="nonzero">
            <g id="重庆银行" transform="translate(882.000000, 431.000000)">
                <rect id="矩形" fill="#000000" opacity="0" x="0" y="0" width="40" height="40"></rect>
                <polygon id="路径" fill="#1D2087" points="30.8948 23.736 23.947 30.6838 16.9994 23.7362 23.947 16.7884"></polygon>
                <path d="M24.6126,37.3466 C10.7352,37.7214 3.7808,20.3864 15.217,11.505 C9.736,10.581 3.3866,13.9672 3.2618,20.258 C-2.2832,25.4864 0.0648,33.8952 7.398,35.5928 C10.6042,39.9446 19.8002,41.1826 24.6126,37.3466 L24.6126,37.3466 Z" id="路径" fill="#009844"></path>
                <path d="M16.3038,13.6772 C24.934,7.0448 36.9458,13.1674 36.9524,23.2486 C40.6934,19.5634 40.8006,14.3584 36.965,10.859 C36.6072,6.6926 31.9412,3.2798 27.5528,6.3186 C22.4076,5.4252 17.148,8.101 16.3038,13.6772 Z" id="路径" fill="#E50012"></path>
                <path d="M3.1234,15.562 C6.934,9.1446 14.8408,3.489 25.8264,5.1756 C23.2746,-0.0852 19.1564,1.4222 17.3426,1.8492 C13.5876,-1.2952 7.2002,0.6926 7.147,6.3346 C3.5072,7.7774 2.1852,11.4956 3.1234,15.562 Z" id="路径" fill="#FCCF00"></path>
            </g>
        </g>
    </g>
</svg>