<?xml version="1.0" encoding="UTF-8"?>
<svg width="40px" height="40px" viewBox="0 0 40 40" version="1.1" xmlns="http://www.w3.org/2000/svg" xmlns:xlink="http://www.w3.org/1999/xlink">
    <title>四川天府银行南充市商业银行</title>
    <g id="pad" stroke="none" stroke-width="1" fill="none" fill-rule="evenodd">
        <g id="转账汇款2-1" transform="translate(-882.000000, -583.000000)" fill-rule="nonzero">
            <g id="四川天府银行南充市商业银行" transform="translate(882.000000, 583.000000)">
                <rect id="矩形" fill="#000000" opacity="0" x="0" y="0" width="39.997722" height="39.997722"></rect>
                <path d="M10.7454758,0.141584096 C12.8015549,0.132781213 14.7247322,1.15678067 15.8651527,2.86762294 C11.7885818,3.89005957 8.27207603,6.46327413 6.06423271,10.039478 C4.54989544,8.24744366 4.22212312,5.73592577 5.2258241,3.6152681 C6.23999478,1.4881609 8.38897567,0.135764325 10.7454758,0.141584096 Z M23.4046769,11.8301343 C21.6509414,13.0639026 21.8401603,16.0729435 23.8308038,18.5512486 C25.8229858,21.0295537 28.8612556,22.0387208 30.6196062,20.8049525 C32.3764184,19.5711843 32.1779694,16.5621434 30.1857874,14.0838382 C28.1951438,11.6055331 25.156874,10.596366 23.4046769,11.8301343 Z M5.28274355,11.4809256 C2.52203322,17.2326115 3.58991003,24.0906313 7.96872792,28.7306062 C9.19654914,29.9699105 10.6586933,30.9525174 12.2699949,31.621193 C12.5422855,31.7396471 13.4083846,32.1842344 15.8436156,32.1503904 C16.9127789,32.1503904 18.6880515,31.9304043 19.3018589,30.628948 C19.4064676,30.2397418 19.4449268,29.8366903 19.4156978,29.4351771 C18.5912501,30.110766 17.4747522,30.3088919 16.4681916,29.9582211 C14.692919,29.4413306 14.7283013,27.6383674 14.8129114,27.1430141 C15.3482622,24.0509015 18.4096075,23.9924437 19.1434073,23.875528 C21.2475584,23.7883258 23.1682858,25.06674 23.9000302,27.041482 C26.7444661,34.6856151 20.4510171,38.7592041 18.846503,39.2930166 C14.3298649,40.8159974 7.66259336,39.6160731 4.94122667,36.5778033 C1.74912042,33.5979914 0.00307673884,29.147503 0.00307673884,24.4154939 C0.00307673884,19.215822 1.85834428,14.7591802 5.28274355,11.4593885 L5.28274355,11.4809256 Z M34.4301349,11.4809256 C41.4978074,18.3414451 41.889565,29.5577963 35.3177712,36.8947064 C29.736585,43.1296975 21.0940535,39.0914909 26.7844636,32.5165212 C27.6720999,31.4965855 29.9073434,30.4212688 31.7564575,28.7321446 C36.1343512,24.0885992 37.1980524,17.2274506 34.4316733,11.4763105 L34.4316733,11.4809256 L34.4301349,11.4809256 Z M16.326662,11.8301343 C14.5683114,10.596366 11.5361951,11.6055331 9.53939804,14.0838382 C7.54106259,16.5621434 7.35953558,19.5927213 9.10711762,20.8434116 C10.8531613,22.0941019 13.8975846,21.0695512 15.8882281,18.5912461 C17.8804101,16.1114026 18.0727057,13.1039 16.3205086,11.8685934 L16.326662,11.8301343 L16.326662,11.8301343 Z M29.1089323,5.54579135e-05 C31.5118576,5.54579135e-05 33.6901817,1.40002324 34.6731965,3.56911713 C35.6555983,5.74046967 35.2581632,8.28755754 33.6609527,10.0564 C31.4644909,6.48608034 27.9621825,3.91315855 23.8984919,2.88454495 C25.0162095,1.08311257 26.9889396,-0.00896562744 29.1089323,5.54579135e-05 L29.1089323,5.54579135e-05 Z" id="形状" fill="#231815"></path>
            </g>
        </g>
    </g>
</svg>