<?xml version="1.0" encoding="UTF-8"?>
<svg width="40px" height="40px" viewBox="0 0 40 40" version="1.1" xmlns="http://www.w3.org/2000/svg" xmlns:xlink="http://www.w3.org/1999/xlink">
    <title>成都银行</title>
    <g id="pad" stroke="none" stroke-width="1" fill="none" fill-rule="evenodd">
        <g id="转账汇款2-1" transform="translate(-882.000000, -506.000000)" fill-rule="nonzero">
            <g id="成都银行" transform="translate(882.000000, 506.000000)">
                <rect id="矩形" fill="#000000" opacity="0" x="0" y="0" width="40" height="40"></rect>
                <path d="M28.9384615,9.38 L13.1846154,25.0676923 C13.1846154,25.0676923 9.29692309,29.9261538 4.64615383,25.3446154 L24.7076923,5.28307691 L28.9415385,9.38 L28.9384615,9.38 Z M19.5,39.9907692 L35.1876923,24.2338462 C35.1876923,24.2338462 40.0461538,20.3476923 35.4646154,15.6953846 L15.4030769,35.8261538 L19.5,39.9907692 Z" id="形状" fill="#CA2B2B"></path>
                <path d="M34.3538462,14.6553846 L14.2923077,34.7169231 L10.0584615,30.62 L25.8153846,14.9323077 C25.8153846,14.9323077 29.7030769,10.0738462 34.3538462,14.6553846 L34.3538462,14.6553846 Z M19.5,0.00923078125 L23.5953846,4.17384617 L3.53384617,24.2353846 C-1.0476923,19.5830769 3.81076926,15.6969231 3.81076922,15.6969231 L19.5015385,0.00923078125 L19.5,0.00923078125 Z" id="形状" fill="#DD8A34"></path>
            </g>
        </g>
    </g>
</svg>