<?xml version="1.0" encoding="UTF-8"?>
<svg width="40px" height="40px" viewBox="0 0 40 40" version="1.1" xmlns="http://www.w3.org/2000/svg" xmlns:xlink="http://www.w3.org/1999/xlink">
    <title>中国工商银行</title>
    <g id="pad" stroke="none" stroke-width="1" fill="none" fill-rule="evenodd">
        <g id="中国工商银行" fill-rule="nonzero">
            <rect id="矩形" fill="#000000" opacity="0" x="0" y="0" width="40" height="40"></rect>
            <g id="编组-73" fill="#C6000B">
                <polygon id="路径" points="9.32862192 18.5159011 15.4063604 18.5159011 15.4063604 21.6254417 9.32862192 21.6254417 9.32862192 30.8127208 19.2226148 30.8127208 19.2226148 27.7031802 12.4381626 27.7031802 12.4381626 24.7349823 18.5159011 24.7349823 18.5159011 15.4063604 12.4381626 15.4063604 12.4381626 12.2968198 19.2226148 12.2968198 19.2226148 9.18727917 9.32862192 9.18727917"></polygon>
                <path d="M19.9293286,0 C8.90459361,0 0,8.90459366 0,19.9293286 C0,30.9540635 9.04593641,39.8586572 19.9293286,40 C30.9540636,40 40,30.9540636 40,19.9293286 C40,8.90459361 31.0954063,0 19.9293286,0 Z M20.0706714,36.8904594 C10.7420495,36.8904594 3.10954064,29.2579505 3.10954064,19.9293286 C3.10954064,10.6007067 10.7420495,2.96819789 20.0706714,2.96819789 C29.3992933,2.96819789 37.0318021,10.6007067 37.0318021,19.9293286 C37.0318021,29.2579505 29.3992933,36.8904594 20.0706714,36.8904594 Z" id="形状"></path>
                <polygon id="路径" points="20.7773852 12.2968198 27.7031802 12.2968198 27.7031802 15.4063604 21.6254417 15.4063604 21.6254417 24.7349823 27.7031802 24.7349823 27.7031802 27.8445229 20.7773852 27.8445229 20.7773852 30.8127208 30.8127208 30.8127208 30.8127208 21.4840989 24.7349823 21.4840989 24.7349823 18.3745583 30.8127208 18.3745583 30.8127208 9.18727917 20.7773852 9.18727917"></polygon>
            </g>
        </g>
    </g>
</svg>