<?xml version="1.0" encoding="UTF-8"?>
<svg width="40px" height="40px" viewBox="0 0 40 40" version="1.1" xmlns="http://www.w3.org/2000/svg" xmlns:xlink="http://www.w3.org/1999/xlink">
    <title>中国农业银行</title>
    <g id="pad" stroke="none" stroke-width="1" fill="none" fill-rule="evenodd">
        <g id="中国农业银行" fill-rule="nonzero">
            <rect id="矩形" fill="#000000" opacity="0" x="0" y="0" width="40" height="40"></rect>
            <path d="M18.2112,0.2836 L19.126,0.2 L20.957,0.2 L21.7888,0.2836 L21.7888,12.4286 L21.7054,12.5126 L21.6228,12.6788 L21.5396,12.6788 L21.4562,12.7622 L21.2058,12.845 L18.8772,12.845 L18.6286,12.7622 L18.5436,12.6788 L18.3772,12.6788 L18.3772,12.5126 L18.2946,12.4286 L18.2112,12.0964 L18.2112,0.2836 Z M26.6132,19.9168 L26.6132,25.8238 L26.5302,25.99 L26.4468,26.0732 L26.3642,26.2394 L26.1978,26.2394 L26.0322,26.3228 L25.6976,26.406 L22.203,26.406 L22.203,35.7236 L22.9526,35.557 L23.7018,35.4742 L24.3684,35.2248 L25.0342,35.0578 L25.3664,34.9746 L25.6976,34.8082 L26.3642,34.5586 L27.0304,34.2264 L27.6136,33.8934 L28.277,33.5606 L28.8608,33.2276 L29.3586,32.8114 L29.9416,32.3962 L31.022,31.4802 L31.5226,30.9816 L31.9382,30.4826 L32.4378,29.9008 L32.8532,29.401 L33.27,28.8186 L33.602,28.236 L33.9342,27.5708 L34.2684,26.989 L34.6,26.3232 L34.849,25.6574 L35.2666,24.326 L35.5154,23.6608 L35.5982,22.9124 L35.7644,22.247 L35.8498,21.4978 L35.9332,20.0006 L35.8498,18.8362 L35.7644,18.2536 L35.7644,17.672 L35.5154,16.507 L35.1834,15.3418 L35.0174,14.8422 L34.8488,14.3438 L34.4342,13.2618 L33.8508,12.2642 L33.3532,11.266 L32.687,10.4336 L31.9382,9.5186 L31.189,8.6866 L30.356,7.9378 L29.5266,7.272 L28.6092,6.6072 L27.6134,6.0252 L26.613,5.5252 L26.613,19.1692 L26.53,19.3354 L26.4466,19.4194 L26.364,19.5848 L26.1976,19.669 L26.032,19.669 L25.6974,19.7516 L20.79,19.7516 L20.7074,19.8354 L20.6238,19.918 L20.6238,14.1766 L20.7074,14.0094 L20.79,13.8442 L20.9564,13.7606 L23.2036,13.7606 L23.5352,13.6772 L23.7842,13.594 L23.9506,13.5108 L24.1192,13.261 L24.1192,0.6166 L25.7808,1.1146 L26.613,1.3644 L27.3622,1.6138 L28.1944,1.9466 L28.9436,2.3626 L29.6928,2.6956 L30.3562,3.1118 L31.1056,3.611 L31.7716,4.0274 L32.4378,4.5256 L33.0186,5.1076 L33.6852,5.69 L34.2684,6.2734 L35.3492,7.4378 L35.8496,8.1036 L36.3476,8.7686 L36.7624,9.5172 L37.1792,10.1826 L38.0122,11.6798 L38.3434,12.4282 L38.5946,13.2604 L39.0926,14.8408 L39.3416,15.6738 L39.5102,16.5056 L39.5928,17.3376 L39.7592,18.2522 L39.7592,20.9984 L39.6758,21.9968 L39.5928,22.9944 L39.4248,23.993 L39.1758,24.908 L38.9268,25.9064 L38.5946,26.8218 L38.2608,27.6536 L37.8452,28.5692 L37.4284,29.4004 L36.9306,30.2318 L36.4304,31.0646 L35.8498,31.8124 L35.2666,32.5618 L34.6832,33.311 L34.019,33.9762 L33.3532,34.641 L32.604,35.2242 L31.8548,35.8064 L31.1054,36.3886 L30.2732,36.8882 L29.4414,37.3868 L28.6092,37.8022 L27.6964,38.2188 L26.8642,38.5512 L25.8634,38.8846 L24.9506,39.1334 L24.0356,39.383 L23.0358,39.5498 L22.0374,39.633 L21.0392,39.7156 L20.0422,39.8 L19.0438,39.7164 L18.0456,39.6338 L17.0472,39.5506 L16.049,39.3838 L15.051,39.1342 L14.1362,38.8854 L13.2214,38.552 L12.306,38.2196 L11.4738,37.803 L10.6416,37.3876 L9.809,36.889 L8.9768,36.3894 L8.2276,35.8072 L7.478,35.225 L6.7288,34.6418 L6.0654,33.977 L5.4,33.3116 L4.7334,32.5624 L4.1526,31.813 L3.6524,31.0652 L3.1546,30.2324 L2.6544,29.401 L2.2398,28.5698 L1.822,27.654 L1.4904,26.8222 L1.1554,25.9068 L0.9064,24.9084 L0.6574,23.9934 L0.4918,22.9948 L0.3238,21.9972 L0.2404,20.9988 L0.2404,19.0854 L0.3238,18.253 L0.4068,17.3384 L0.5754,16.5064 L0.7408,15.6746 L0.9064,14.8416 L1.407,13.2612 L1.7392,12.429 L2.0708,11.6806 L2.405,10.9326 L2.8204,10.1834 L3.2372,9.518 L3.7346,8.7694 L4.2352,8.1044 L4.733,7.4386 L5.2332,6.8556 L5.814,6.2742 L6.3976,5.6908 L6.9802,5.1084 L8.3106,4.11 L8.9768,3.6118 L9.6434,3.1126 L10.3926,2.6964 L11.1394,2.3634 L11.8882,1.9474 L12.6374,1.6146 L13.3866,1.3652 L14.2188,1.1154 L15.051,0.8666 L15.8828,0.6174 L15.8828,13.2618 L15.9664,13.429 L16.049,13.5116 L16.298,13.5948 L16.547,13.678 L16.7984,13.7614 L19.0438,13.7614 L19.2094,13.845 L19.375,14.0102 L19.375,19.9176 L19.2094,19.7512 L14.3014,19.7512 L13.9672,19.6686 L13.8012,19.6686 L13.7192,19.5844 L13.5522,19.419 L13.4702,19.335 L13.4702,19.168 L13.3866,18.9188 L13.3866,5.524 L12.3886,6.024 L11.4738,6.606 L10.5582,7.2708 L9.6436,7.9366 L8.8114,8.6854 L8.0622,9.5174 L7.3962,10.4324 L6.729,11.348 L6.1488,12.263 L5.6486,13.2606 L5.4,13.7606 L5.2336,14.343 L4.8168,15.4246 L4.5678,16.5062 L4.3188,17.6712 L4.2354,18.2528 L4.2354,18.8354 L4.1526,20 L4.1526,20.7488 L4.2356,21.4972 L4.319,22.1624 L4.402,22.9118 L4.568,23.6602 L4.7336,24.3254 L4.9826,24.9912 L5.0686,25.324 L5.234,25.6568 L5.483,26.3226 L5.732,26.9884 L6.3986,28.2354 L7.2302,29.3172 L7.6454,29.9002 L8.063,30.482 L8.5608,30.981 L9.0604,31.4796 L10.0588,32.3956 L10.6424,32.8108 L11.2232,33.227 L12.3894,33.8928 L13.0528,34.2258 L13.6362,34.558 L14.302,34.8076 L14.9686,35.0572 L15.7154,35.2242 L16.3816,35.4736 L17.0478,35.5564 L17.7974,35.723 L17.7974,26.406 L14.3014,26.406 L13.9672,26.3228 L13.8846,26.2394 L13.7194,26.2394 L13.5524,26.0732 L13.4704,25.99 L13.4704,25.8238 L13.3868,25.5736 L13.3868,19.9168 L13.4704,20 L13.5524,20.0832 L13.8014,20.2496 L14.0504,20.3328 L14.3016,20.4164 L19.0438,20.4164 L19.2094,20.4992 L19.375,20.6658 L19.375,26.3228 L20.6246,26.3228 L20.6246,20.832 L20.7082,20.6658 L20.7908,20.4992 L20.9572,20.4164 L25.698,20.4164 L25.9492,20.3328 L26.1982,20.2496 L26.4472,20.0832 L26.6132,19.9168 Z" id="形状" fill="#009174"></path>
        </g>
    </g>
</svg>