<?xml version="1.0" encoding="UTF-8"?>
<svg width="40px" height="40px" viewBox="0 0 40 40" version="1.1" xmlns="http://www.w3.org/2000/svg" xmlns:xlink="http://www.w3.org/1999/xlink">
    <title>中国银行</title>
    <g id="pad" stroke="none" stroke-width="1" fill="none" fill-rule="evenodd">
        <g id="中国银行" fill-rule="nonzero">
            <rect id="矩形" fill="#000000" opacity="0" x="0" y="0" width="39.9983425" height="39.9983425"></rect>
            <path d="M39.9810357,19.1236317 C39.7072036,12.0332272 35.332044,7.21962863 35.332044,7.21962863 C28.5508544,-0.729193259 19.8451484,0.0199989759 19.8451484,0.0199989759 C10.5379349,-0.267678517 4.82745936,6.77965124 4.82745936,6.77965124 C0.91227614,11.4517186 0.473837161,15.7484207 0.473837161,15.7484207 C-1.26453494,22.9818947 2.35527884,29.2046515 2.35527884,29.2046515 C5.05667834,34.1074763 7.89037872,36.3719752 12.4932189,38.5272489 C17.1206731,40.6809842 24.1203131,40.3840764 28.4739353,38.1964967 C32.8275575,36.0089169 35.496651,33.6013484 37.9242184,29.0277375 C40.3410172,24.4664337 39.9810357,19.1236317 39.9810357,19.1236317 Z M17.9637067,35.5366335 C17.9637067,35.5366335 10.6563903,35.1289622 6.64275062,28.0831708 C6.64275062,28.0831708 3.1752367,23.1249643 4.60900908,16.9252832 C6.04124309,10.7256021 9.39953189,8.2518832 10.0656515,7.61499291 C10.7333094,6.99963993 15.0315499,4.42746457 17.972937,4.47053927 L17.972937,11.8470829 L14.8807884,11.8470829 C14.8807884,11.8470829 10.6686973,12.0993776 10.5271662,16.7822136 L10.5271662,23.5972477 C10.5271662,23.5972477 10.6363913,27.7862629 14.9884752,28.269315 L17.9760138,28.269315 L17.9760138,35.5366335 L17.9652451,35.5366335 L17.9637067,35.5366335 Z M15.4592202,23.9495373 C15.4592202,23.9495373 14.7146431,24.1372199 14.6054179,23.2788025 L14.6054179,16.7499076 C14.6054179,16.7499076 14.7146431,16.0576355 15.2730759,16.0576355 L24.3956835,16.0576355 C24.3956835,16.0576355 25.1710283,15.9145659 25.2479474,16.7499076 L25.2479474,23.0926583 C25.2479474,23.0926583 25.4325533,24.0926068 24.7002832,23.9495373 L15.4592202,23.9495373 L15.4592202,23.9495373 Z M33.199846,28.7323681 C30.2461518,33.2490589 24.6356712,35.3274135 22.0204211,35.5474022 L22.0204211,28.2816221 L25.4879351,28.2816221 C25.4879351,28.2816221 29.1738993,27.5339682 29.4031183,23.6864739 L29.4031183,15.9361033 C29.4031183,15.9361033 28.8246865,12.0332272 24.7218206,11.8578516 L22.0204211,11.8578516 L22.0204211,4.48130793 C22.0204211,4.48130793 26.626338,4.84436616 30.3661456,8.30726496 C34.0844159,11.7593951 35.0474433,15.1992181 35.4628065,17.0575841 C35.8781698,18.9144116 36.1520018,24.2033703 33.199846,28.7323681 L33.199846,28.7323681 Z" id="形状" fill="#B81C22"></path>
        </g>
    </g>
</svg>