<?xml version="1.0" encoding="UTF-8"?>
<svg width="40px" height="40px" viewBox="0 0 40 40" version="1.1" xmlns="http://www.w3.org/2000/svg" xmlns:xlink="http://www.w3.org/1999/xlink">
    <title>中国建设银行</title>
    <g id="pad" stroke="none" stroke-width="1" fill="none" fill-rule="evenodd">
        <g id="中国建设银行" fill-rule="nonzero">
            <rect id="矩形" fill="#000000" opacity="0" x="0" y="0" width="40" height="40"></rect>
            <path d="M18.5864,1.5952 C18.5864,1.5952 21.9488,-0.9996 27.73,0.8882 C27.73,0.8882 29.6758,1.5952 31.9186,3.6014 L38.8784,10.9162 L35.1636,14.6328 L24.5434,3.8374 C24.5434,3.8376 22.774,1.6544 18.5864,1.5952 Z M33.926,15.9306 L29.5598,20.178 C29.5598,20.178 28.8504,21.1806 28.2604,20.238 L20.2386,12.3902 C20.2386,12.3902 19.5292,11.4472 18.9978,12.2736 L10.9164,20.533 C10.9164,20.533 10.386,21.3588 11.0336,21.7122 L18.9396,29.6168 C18.9396,29.6168 19.5872,30.6784 20.1792,29.8534 L28.3778,21.5948 C28.3778,21.5948 28.6148,20.8856 29.9126,21.0638 L38.2888,21.0638 C38.2888,21.0638 38.644,29.5588 32.1544,34.8666 C32.1544,34.8666 23.7204,43.3036 12.1564,38.111 C12.1564,38.111 1.0056,34.2176 1.1226,19.7652 C1.1226,19.7652 1.4186,10.0906 10.2104,4.9584 C10.2104,4.9584 16.6398,0.1792 21.771,3.7188 L33.926,15.9306 L33.926,15.9306 Z" id="形状" fill="#003B8F"></path>
        </g>
    </g>
</svg>