<?xml version="1.0" encoding="UTF-8"?>
<svg width="40px" height="40px" viewBox="0 0 40 40" version="1.1" xmlns="http://www.w3.org/2000/svg" xmlns:xlink="http://www.w3.org/1999/xlink">
    <title>交通银行</title>
    <g id="pad" stroke="none" stroke-width="1" fill="none" fill-rule="evenodd">
        <g id="交通银行" fill-rule="nonzero">
            <rect id="矩形" fill="#000000" opacity="0" x="0" y="0" width="40" height="40"></rect>
            <path d="M31.4718,29.9 C29.1462,29.9742 26.997,30.0498 24.672,30.124 C23.2012,36.3854 11.0272,34.695 12.3834,26.7496 C13.0652,22.0432 19.4248,19.9872 23.3708,23.5416 C24.2396,24.5208 24.6628,25.4318 24.9426,27.4248 C26.892,27.3492 29.5222,27.2752 31.4718,27.1996 C31.5702,17.0742 20.0694,11.9358 11.4464,16.8496 C3.1784,21.5598 4.1338,35.9098 12.7956,39.5746 L12.7956,39.8 C8.0722,39.706 2.891,36.0474 1.7626,31.7 L1.8268,8.3568 C5.5774,5.8064 9.7212,2.7494 13.4716,0.2 C13.6204,0.2756 13.7716,0.3502 13.9206,0.4254 C13.6622,3.9448 13.8252,9.746 14.0326,13.9818 C16.3836,11.7014 17.965,9.3168 22.0214,8.5256 C24.6358,8.0148 27.1372,8.3224 28.7146,8.863 C40.5616,12.9214 41.3004,28.2306 31.246,33.4996 C31.02,33.4996 30.5326,33.9424 30.1584,34.0168 C30.1584,33.9412 30.393,33.6162 30.571,33.2754 C30.8716,32.1496 31.171,31.0246 31.4718,29.9 L31.4718,29.9 Z" id="路径" fill="#1D2087"></path>
        </g>
    </g>
</svg>