<?xml version="1.0" encoding="UTF-8"?>
<svg width="40px" height="40px" viewBox="0 0 40 40" version="1.1" xmlns="http://www.w3.org/2000/svg" xmlns:xlink="http://www.w3.org/1999/xlink">
    <title>中信银行</title>
    <g id="pad" stroke="none" stroke-width="1" fill="none" fill-rule="evenodd">
        <g id="中信银行" fill-rule="nonzero">
            <rect id="矩形" fill="#000000" opacity="0" x="0" y="0" width="40" height="40"></rect>
            <path d="M11.5988,3.7362 C14.8262,4.9658 17.7462,8.039 17.7462,11.6754 L17.7966,39.6466 C18.5148,39.7496 19.2826,39.8 20.051,39.8 C20.8706,39.8 21.6384,39.7496 22.4068,39.6466 L22.4068,11.6754 C22.4068,8.0388 25.327,4.9658 28.5032,3.7362 C28.8614,3.6328 29.0658,3.2736 29.0658,2.9152 C29.0658,2.5568 28.8108,2.1996 28.4524,2.0448 C25.8914,0.8668 23.0726,0.2 20.0512,0.2 C17.0798,0.2 14.262,0.8668 11.701,2.0448 C11.3418,2.1994 11.0864,2.5568 11.0864,2.9152 C11.0864,3.2736 11.2908,3.6328 11.5988,3.7362" id="路径" fill="#D7000F"></path>
            <path d="M14.8766,39.0832 L14.8766,13.4698 C14.8766,10.6506 13.289,8.294 11.0864,7.3712 L11.0864,37.6474 C12.2646,38.2632 13.5454,38.725 14.8766,39.0832 M29.0662,37.6472 L29.0662,7.371 C26.8646,8.2938 25.2772,10.6504 25.2772,13.4696 L25.2772,39.083 C26.608,38.725 27.8888,38.2632 29.0662,37.6472 M4.3744,16.4398 C4.529,16.4398 4.682,16.5932 4.7334,16.7478 C5.0404,17.9246 5.9628,18.7456 7.0898,18.8476 C7.4488,18.7946 7.7554,18.6438 8.0122,18.3862 L8.0122,4.298 C3.35,7.8842 0.2766,13.5714 0.2766,19.973 C0.2766,26.3784 3.35,32.0628 8.0124,35.7022 L8.0124,21.5622 C7.7556,21.306 7.449,21.1522 7.09,21.1522 C5.963,21.2052 5.0406,22.0766 4.7336,23.202 C4.6822,23.354 4.5294,23.5086 4.3746,23.5086 C4.2224,23.5086 4.1196,23.354 4.0676,23.304 C3.3502,22.4334 2.9412,21.2542 2.9412,19.973 C2.9412,18.6952 3.3502,17.5148 4.0676,16.6444 C4.1194,16.5932 4.2222,16.4398 4.3744,16.4398 M38.4426,21.1524 C37.3156,21.204 36.392,22.0768 36.0344,23.2022 C35.9828,23.3542 35.8798,23.5088 35.7276,23.5088 C35.5734,23.5088 35.421,23.3542 35.421,23.3042 C34.702,22.4336 34.2418,21.2544 34.2418,19.9732 C34.2418,18.6944 34.702,17.5162 35.421,16.6446 C35.421,16.5932 35.5736,16.44 35.7276,16.44 C35.8798,16.44 35.9828,16.5934 36.0344,16.7494 C36.392,17.9248 37.3156,18.7458 38.4426,18.8478 C39.0062,18.7974 39.4664,18.3864 39.7234,17.876 C39.16,12.392 36.342,7.5774 32.2432,4.3496 L32.2432,35.599 C36.1362,32.526 38.903,28.0166 39.6212,22.8938 C39.6716,22.5874 39.7236,22.331 39.7236,22.1246 C39.4664,21.5624 39.0062,21.1524 38.4426,21.1524" id="形状" fill="#D7000F"></path>
        </g>
    </g>
</svg>