<?xml version="1.0" encoding="UTF-8"?>
<svg width="40px" height="40px" viewBox="0 0 40 40" version="1.1" xmlns="http://www.w3.org/2000/svg" xmlns:xlink="http://www.w3.org/1999/xlink">
    <title>中国光大银行</title>
    <g id="pad" stroke="none" stroke-width="1" fill="none" fill-rule="evenodd">
        <g id="中国光大银行" fill-rule="nonzero">
            <rect id="矩形" fill="#000000" opacity="0" x="0" y="0" width="40" height="40"></rect>
            <path d="M0.2,11.3558 L9.06,11.3558 C9.06,11.3558 10.7308,11.3558 11.046,11.8296 L9.4066,11.8296 L9.4066,12.334 L11.9288,12.365 C11.9288,12.365 12.3386,12.649 12.3386,12.8694 L9.4066,12.901 L9.4066,13.3734 L12.6544,13.3734 C12.6544,13.3734 13.0334,13.563 12.939,13.973 L2.8182,13.973 L2.8182,14.5092 L13.0948,14.4776 C13.0948,14.4776 13.1584,14.8876 13.1584,15.014 L2.8182,15.014 L2.8182,15.5488 L13.189,15.5182 C13.189,15.5182 13.2528,15.8328 13.0946,16.0536 L2.818,16.149 L2.818,16.6532 L12.9388,16.5902 C12.9388,16.5902 12.9388,17.0002 12.6856,17.126 L2.818,17.1896 L2.818,17.6622 L12.3708,17.5988 C12.3708,17.5988 12.3384,18.103 11.9916,18.1982 L2.818,18.2298 L2.818,18.734 L11.2354,18.6714 C11.2354,18.6714 11.0458,19.302 9.7522,19.2386 L8.1776,19.2076 L8.1776,19.6802 L10.7306,19.7114 C10.7306,19.7114 11.803,19.7114 11.9606,20.1534 L8.1776,20.2478 L8.1776,20.721 L12.6228,20.721 C12.6228,20.721 13.0332,21.0358 13.0332,21.2252 L2.8182,21.2878 L2.8182,21.855 L13.253,21.7608 C13.253,21.7608 13.663,22.0444 13.663,22.3282 L2.8182,22.3912 L2.8182,22.8644 L13.821,22.8644 C13.821,22.8644 13.9462,23.0218 13.8844,23.306 L2.8182,23.4006 L2.8182,23.8734 L13.8844,23.8734 C13.8844,23.8734 13.9786,24.1576 13.8844,24.3776 L2.8182,24.4408 L2.8182,24.9456 L13.7896,24.9456 C13.7896,24.9456 13.8844,25.2606 13.6322,25.5122 L2.8182,25.5122 L2.8182,26.0164 L13.4108,25.9852 C13.4108,25.9852 13.3796,26.49 13.1584,26.5212 L9.4064,26.5212 L9.4064,27.0576 L12.6542,27.0256 C12.6542,27.0256 12.4328,27.5306 12.213,27.5936 L9.4064,27.6254 L9.4064,28.1606 L11.2982,28.1296 C11.2982,28.1296 11.0142,28.7286 8.5246,28.6342 L0.2,28.6026 L0.2,11.3558 Z" id="路径" fill="#FBE900"></path>
            <path d="M14.6084,22.5804 C14.6084,22.5804 14.3248,20.2474 16.974,19.8062 C16.974,19.8062 21.8914,18.797 22.0182,21.8546 L22.1126,27.5306 L22.4286,28.5078 L19.9062,28.5706 L19.7484,27.6878 C19.7484,27.6878 18.487,29.012 16.4372,28.5394 C16.4372,28.5394 14.2312,28.382 14.2312,25.9536 C14.2312,25.9536 14.1364,24.346 15.6498,23.7788 C15.6498,23.7788 18.1082,23.0848 18.8654,23.0848 C18.8654,23.0848 20.5364,22.8004 19.1176,21.634 C19.1176,21.634 17.0364,21.1612 16.9742,22.5482 L14.6084,22.5804 L14.6084,22.5804 Z M22.8692,19.9318 L25.2658,19.9318 L25.2334,20.8462 C25.2334,20.8462 26.5576,19.491 27.567,19.6164 C27.567,19.6164 30.1212,19.1124 30.626,22.1078 L30.6876,28.5394 L28.324,28.5394 L28.2924,22.738 C28.2924,22.738 27.63,21.0672 25.9284,22.139 C25.9284,22.139 25.1706,22.4226 25.2974,24.3774 L25.3278,28.5394 L22.9328,28.5078 L22.8692,19.9318 Z M31.5386,16.432 L33.747,16.4636 L33.872,23.0216 L36.5518,19.5222 L39.2952,19.5222 L36.8044,22.9586 L39.8,28.4446 L37.0258,28.5396 L35.102,25.0084 L33.935,26.585 L33.9666,28.508 L31.6026,28.508 L31.5386,16.432 Z M19.7166,24.4092 C19.7166,24.4092 19.685,25.324 19.7166,25.5124 C19.7166,25.5124 19.433,26.4274 18.6452,26.5848 C18.6452,26.5848 17.1306,27.4984 16.6262,26.3326 C16.6262,26.3326 16.406,25.6388 17.1304,25.3546 C17.1304,25.3546 19.5906,24.7242 19.7166,24.4092 L19.7166,24.4092 Z" id="形状" fill="#6A1684"></path>
        </g>
    </g>
</svg>