<?xml version="1.0" encoding="UTF-8"?>
<svg width="40px" height="40px" viewBox="0 0 40 40" version="1.1" xmlns="http://www.w3.org/2000/svg" xmlns:xlink="http://www.w3.org/1999/xlink">
    <title>华夏银行</title>
    <g id="pad" stroke="none" stroke-width="1" fill="none" fill-rule="evenodd">
        <g id="华夏银行" fill-rule="nonzero">
            <rect id="矩形" fill="#000000" opacity="0" x="0" y="0" width="40" height="40"></rect>
            <path d="M37.4233333,8.81333332 C37.8483333,9.59166664 36.9283333,10.1583333 36.7866667,10.23 C35.7966667,9.66333332 33.39,12.3516667 33.39,12.3516667 C28.7216667,8.885 23.6266667,8.46 18.4616667,13.2 C13.2983334,17.94 15.4916667,24.3066667 15.4916667,24.3066667 C20.655,37.7483334 31.905,31.0983334 31.905,31.0983333 C33.39,30.815 36.9983333,26.7116666 36.9983333,26.7116667 C37.7766666,26.005 37.4933333,27.2783334 37.4933333,27.2783333 C38.555,25.2266666 38.6266667,26.57 38.6266667,26.57 C38.555,27.49 36.715,29.6833333 36.715,29.6833333 C37.2116667,29.7533333 38.415,28.55 38.415,28.55 C35.8666667,35.3433333 29.075,36.7566667 29.075,36.7566667 C21.0083333,39.0916667 14.005,32.5833334 14.005,32.5833333 C7.28333332,27.2783333 8.62833332,17.1616666 8.62833332,17.1616667 C4.45333332,19.7083334 2.26166664,16.595 2.26166668,16.595 C0.278333359,13.625 3.88833336,9.945 3.88833332,9.945 C3.88833332,15.4633333 10.5383333,10.0866667 10.5383333,10.0866667 C17.1183333,2.58666668 23.0616666,1.88 23.0616667,1.88 C27.095,1.17333332 26.8116667,2.44666668 26.8116667,2.44666668 C26.8116667,2.94166668 27.66,3.79166668 27.66,3.79166668 C31.48,3.01333336 31.055,5.135 31.055,5.135 C30.985,8.035 36.0783333,7.18666668 36.0783333,7.18666668 L37.4233333,8.81333332 Z M22.43,15.17 L32.6016667,15.0999978 C32.7702149,15.0995559 32.9319878,15.1663148 33.0511698,15.2854968 C33.1703519,15.4046788 33.2371108,15.5664518 33.2366755,15.735 L33.2366755,23.1483333 C33.2375559,23.3171698 33.1709935,23.4793724 33.051763,23.5989159 C32.9325325,23.7184593 32.7705049,23.7854467 32.6016667,23.7850088 L22.43,23.7850088 C22.2608735,23.7858925 22.0984157,23.719102 21.9788235,23.5995098 C21.8592314,23.4799176 21.7924408,23.3174599 21.7933245,23.1483333 L21.7933245,15.8066667 C21.7924408,15.6375401 21.8592314,15.4750824 21.9788235,15.3554902 C22.0984157,15.235898 22.2608735,15.1691075 22.43,15.17 L22.43,15.17 Z" id="形状" fill="#E60012"></path>
        </g>
    </g>
</svg>