<?xml version="1.0" encoding="UTF-8"?>
<svg width="40px" height="40px" viewBox="0 0 40 40" version="1.1" xmlns="http://www.w3.org/2000/svg" xmlns:xlink="http://www.w3.org/1999/xlink">
    <title>民生银行</title>
    <g id="pad" stroke="none" stroke-width="1" fill="none" fill-rule="evenodd">
        <g id="民生银行" fill-rule="nonzero">
            <rect id="矩形" fill="#000000" opacity="0" x="0" y="0" width="40" height="40"></rect>
            <path d="M23.5666667,16.7966667 L28.5316667,14.5216667 L19.1983333,10.3266667 L9.865,14.5216667 L19.125,18.7166667 L19.1966667,18.7166667 C26.2083334,18.7166667 31.8966667,21.87 31.8966667,25.735 C31.8966667,29.6016667 26.2083334,32.755 19.1966667,32.755 C12.185,32.755 6.49,29.61 6.49,25.7266667 L6.49,25.5716667 L0,25.5716667 L0,25.7266667 C0,30.9633334 8.61166668,35.2133333 19.1966667,35.2133333 C29.7833334,35.2133333 38.395,30.9633333 38.395,25.7266667 C38.395,21.3583334 32.0683333,17.8666667 23.5666667,16.7966667 Z M19.1966667,16.23 L15.395,14.5216667 L19.1966667,12.8133333 L23,14.5216667 L19.1966667,16.23 Z" id="形状" fill="#0B52A4"></path>
            <path d="M19.1966667,5 C8.61166668,5 0,9.25 0,14.4816667 C0,18.8516667 6.32666668,22.3433334 14.8283333,23.4233333 L9.855,25.6983333 L19.1966667,29.8866667 L28.53,25.6983333 L19.2616667,21.52 L19.1966667,21.52 C12.1866667,21.52 6.49,18.375 6.49,14.5 C6.49,10.6233333 12.1866667,7.46 19.1966667,7.46 C26.2083334,7.46 31.8966667,10.6133333 31.8966667,14.4816667 L31.8966667,14.645 L38.395,14.645 L38.395,14.4833333 C38.395,9.25 29.7833333,5 19.1966667,5 Z M19.1966667,23.99 L23,25.6983333 L19.1966667,27.3983333 L15.395,25.6983333 L19.1966667,23.99 Z" id="形状" fill="#189343"></path>
        </g>
    </g>
</svg>