<?xml version="1.0" encoding="UTF-8"?>
<svg width="40px" height="40px" viewBox="0 0 40 40" version="1.1" xmlns="http://www.w3.org/2000/svg" xmlns:xlink="http://www.w3.org/1999/xlink">
    <title>广发银行</title>
    <g id="pad" stroke="none" stroke-width="1" fill="none" fill-rule="evenodd">
        <g id="广发银行" fill-rule="nonzero">
            <rect id="矩形" fill="#000000" opacity="0" x="0" y="0" width="40" height="40"></rect>
            <path d="M20,16.5292308 C18.3846154,19.6938462 16.5661538,22.6615385 14.6476923,25.6292308 C9.73807377,25.9122287 4.86780182,26.6737883 0.106153828,27.9030769 C6.4676923,20.98 11.82,11.98 14.6461538,3.07692309 C15.8584615,7.5276923 17.676923,12.0769231 19.9984615,16.5292308" id="路径" fill="#BD0016"></path>
            <path d="M14.5461538,25.6292308 C18.1116171,25.4314071 21.685306,25.4314071 25.2507692,25.6292308 C28.0784615,29.783077 31.2092307,33.64 34.6430769,36.9046154 C25.3523077,34.8276923 14.6476923,34.8276923 5.25538461,36.9046154 L5.45846152,36.7061538 L5.66,36.5092308 L5.86153848,36.3107692 L6.06461539,36.1138462 L6.26461539,35.9153846 L6.4676923,35.7169231 L6.66923078,35.52 L6.8723077,35.3215385 L7.0723077,35.1246154 L6.8723077,35.3215385 L6.9723077,35.1246154 L7.17538461,34.9261538 L7.37538461,34.7292308 L7.57846152,34.5292308 L7.78,34.3323077 L7.98307691,34.1353846 L7.88153848,34.1353846 L7.98307691,33.9369231 L8.08307691,33.74 L8.18461539,33.5415385 L8.28615383,33.3430769 L8.38615383,33.1461538 L8.4876923,32.9476923 L8.58923078,32.7507692 C11.0123077,30.6738461 12.8292308,28.2 14.5461538,25.6276923" id="路径" fill="#730000"></path>
            <path d="M25.3523077,25.6292308 C23.3767262,22.7126632 21.5890015,19.6731715 20,16.5292308 C22.2215385,12.0769231 24.04,7.52923078 25.2507692,3.07692309 C28.18,12.0769231 33.4307692,21.0784616 39.9953846,27.9030769 C35.4507692,26.7169231 30.4015384,26.0246154 25.3523077,25.6292308" id="路径" fill="#E5001F"></path>
            <path d="M25.3523077,25.6292308 C30.5030769,25.9261539 35.4507692,26.7169231 39.9953846,27.9030769 L34.7446154,36.9030769 C31.3107692,33.6415384 28.18,29.8815384 25.3523077,25.6292308" id="路径" fill="#BD0016"></path>
            <path d="M14.5461538,25.6292308 C11.7184615,29.783077 8.58923074,33.64 5.25538461,36.8061538 L0.00461539062,27.8061538 C4.77903576,26.6578366 9.64476529,25.9294186 14.5461538,25.6292308" id="路径" fill="#E5001F"></path>
            <path d="M25.2507692,3.07692309 C24.04,7.5276923 22.2215384,12.0769231 20,16.5292308 C17.6769231,12.0769231 15.86,7.52923078 14.6476923,3.07692309 L25.2507692,3.07692309 L25.2507692,3.07692309 Z" id="路径" fill="#730000"></path>
        </g>
    </g>
</svg>