<?xml version="1.0" encoding="UTF-8"?>
<svg width="40px" height="34px" viewBox="0 0 40 34" version="1.1" xmlns="http://www.w3.org/2000/svg" xmlns:xlink="http://www.w3.org/1999/xlink">
    <title>平安银行</title>
    <g id="pad" stroke="none" stroke-width="1" fill="none" fill-rule="evenodd">
        <g id="平安银行" fill-rule="nonzero">
            <rect id="矩形" fill="#000000" opacity="0" x="4" y="0" width="33.1707317" height="33.1707317"></rect>
            <g id="形状-32" transform="translate(0.000000, 6.000000)" fill="#EC681B">
                <path d="M38.7894737,13.9473684 C38.7894737,14.8421053 38.1052631,15.5789474 37.2105263,15.5789474 L2.84210526,15.5789474 C1.94736842,15.5789474 1.26315791,14.8421053 1.26315791,13.9473684 L1.26315791,2.84210526 C1.26315791,1.94736842 1.94736845,1.21052631 2.84210526,1.21052631 L37.2105263,1.21052631 C38.1052632,1.21052631 38.7894737,1.94736842 38.7894737,2.84210526 L38.7894737,13.9473684 Z M18.4736842,8.78947369 L17.7368421,8.78947369 L17.7368421,9.10526316 L17,9.10526316 L17,8.42105265 L18.2631579,8.42105265 L18.2631579,7.84210528 L17,7.84210528 L17,7.31578947 L18.4736842,7.31578947 L18.4736842,6.63157897 L14.5263158,6.63157897 L14.5263158,7.31578947 L16,7.31578947 L16,7.78947368 L14.7368421,7.78947368 L14.7368421,8.42105265 L16,8.42105265 L16,9.10526316 L14.5263158,9.10526316 L14.5263158,9.7894737 L18.4736842,9.7894737 L18.4736842,8.78947369 L18.4736842,8.78947369 Z M11.2631579,6.05263159 L9.05263159,6.05263159 L9.05263159,5.36842105 C9.05263159,5.31578949 9.00000002,5.26315792 8.94736842,5.26315792 L8.05263158,5.26315792 C8.00000002,5.26315792 7.94736841,5.31578949 7.94736841,5.36842105 L7.94736841,6.05263159 L5.73684212,6.05263159 C5.31578949,6.05263159 5.00000002,6.36842106 5.00000002,6.7894737 L5.00000002,9.26315792 C5.00000002,9.68421053 5.31578949,10 5.73684212,10 L7.94736841,10 L7.94736841,11.0526316 C7.94736841,11.1052631 8.00000002,11.1578947 8.05263158,11.1578947 L8.94736842,11.1578947 C9.00000002,11.1578947 9.05263159,11.1052632 9.05263159,11.0526316 L9.05263159,10 L11.2631579,10 C11.6842106,10 12,9.68421053 12,9.26315792 L12,6.7894737 C12,6.36842106 11.6842106,6.05263159 11.2631579,6.05263159 L11.2631579,6.05263159 Z M7.89473685,9.26315789 L5.99999999,9.26315789 L5.99999999,6.94736844 L7.89473685,6.94736844 L7.89473685,9.26315789 Z M10.9473684,9.26315789 L9.05263159,9.26315789 L9.05263159,6.94736844 L10.9473684,6.94736844 L10.9473684,9.26315789 Z M28.4210527,6.89473684 L29,6.89473684 C29.0526316,6.89473684 29.1052632,6.84210527 29.1052632,6.7894737 L29.1052632,6.42105263 L34.3157895,6.42105263 L34.3157895,6.7894737 C34.3157895,6.84210527 34.368421,6.89473684 34.4210526,6.89473684 L35,6.89473684 C35.0526316,6.89473684 35.1052632,6.84210527 35.1052632,6.7894737 L35.1052632,6.36842106 C35.1052632,6.00000003 34.8421053,5.68421052 34.4210526,5.68421052 L32.1578948,5.68421052 L32.1578948,5.36842105 C32.1578948,5.31578949 32.1052632,5.26315792 32.0526316,5.26315792 L31.2105263,5.26315792 C31.1578947,5.26315792 31.1052631,5.31578949 31.1052632,5.36842105 L31.1052632,5.68421052 L28.9473684,5.68421052 C28.5789474,5.68421052 28.2631579,5.99999999 28.2631579,6.36842106 L28.2631579,6.7894737 C28.3157895,6.84210527 28.3684211,6.89473684 28.4210527,6.89473684 L28.4210527,6.89473684 Z M26.1578948,6.84210527 C26.0526316,6.84210527 25.9473685,6.89473684 25.9473684,6.94736844 L25.1052632,8.63157895 C25.1052632,8.68421052 25.1052632,8.73684212 25.1578948,8.73684212 L26,8.73684212 C26.1052632,8.73684212 26.2105263,8.68421055 26.2105263,8.63157895 L27.0526316,6.94736844 C27.0526316,6.89473687 27.0526316,6.84210527 27,6.84210527 L26.1578948,6.84210527 Z M19.2105263,5.42105266 L13.7368421,5.42105266 C13.3157895,5.42105266 13,5.73684212 13,6.15789476 L13,10.2631579 C13,10.6842105 13.3157895,11 13.7368421,11 L19.2105263,11 C19.631579,11 19.9473684,10.6842105 19.9473684,10.2631579 L19.9473684,6.15789476 C19.9473684,5.78947373 19.631579,5.42105266 19.2105263,5.42105266 L19.2105263,5.42105266 Z M18.9473684,10.3157895 L13.9473684,10.3157895 L13.9473684,6.21052633 L18.9473684,6.21052633 L18.9473684,10.3157895 Z M35.1052632,7.47368421 L34,7.47368421 L34,7 C34,6.94736844 33.9473684,6.89473684 33.8947368,6.89473684 L33.1578948,6.89473684 C33.1052632,6.89473684 33,6.9473684 33,7 L33,7.47368421 L30.5263158,7.47368421 L30.5263158,7 C30.5263158,6.94736844 30.4736842,6.89473684 30.4210526,6.89473684 L29.6842105,6.89473684 C29.631579,6.89473684 29.5789474,6.9473684 29.5789474,7 L29.5789474,7.47368421 L28.4210527,7.47368421 C28.3684211,7.47368421 28.3157895,7.52631577 28.3157895,7.57894738 L28.3157895,8.15789475 C28.3157895,8.21052632 28.3684211,8.26315792 28.4210527,8.26315792 L29.4736842,8.26315792 L29.4736842,8.57894739 C29.4736842,9.00000002 29.6842105,9.36842106 30.1578947,9.63157896 C30.368421,9.73684213 30.5789474,9.84210527 30.8421053,9.94736843 C30.4210526,10.1052632 30,10.2105263 29.631579,10.2105263 L28.5789474,10.2105263 C28.5263158,10.2105263 28.4210527,10.2631579 28.4210527,10.3157895 L28.4210527,10.8947368 C28.4210527,10.9473684 28.4736842,11 28.5789474,11 L29.5789474,11 C30,11 30.4736842,10.8947368 30.8947368,10.7368421 C31.0526316,10.6842105 31.368421,10.5263158 31.7368421,10.3684211 C32.1052632,10.5263158 32.4210527,10.6842105 32.631579,10.7368421 C33.0526316,10.8947368 33.5263158,11 33.9473684,11 L34.9473685,11 C35,11 35.0526316,10.9473684 35.0526316,10.8947368 L35.0526316,10.3157895 C35.0526316,10.2631579 35,10.2105263 34.9473685,10.2105263 L33.8947368,10.2105263 C33.4736842,10.2105263 33.1052632,10.1578948 32.6842105,9.94736843 C32.8947368,9.84210527 33.1578947,9.68421053 33.3684211,9.63157896 C33.8421053,9.36842106 34.0526316,9.00000002 34.0526316,8.57894739 L34.0526316,8.26315792 L35.1578948,8.26315792 C35.2105263,8.26315792 35.2631579,8.21052635 35.2631579,8.15789475 L35.2631579,7.57894738 C35.2105264,7.52631581 35.2105264,7.47368421 35.1052632,7.47368421 L35.1052632,7.47368421 Z M33,8.52631579 C33,8.73684209 32.9473684,8.94736842 32.6842105,9.10526316 L31.7368421,9.57894736 C31.4210526,9.42105263 31.0526316,9.26315792 30.7894737,9.10526316 C30.5263158,8.94736842 30.4736842,8.78947369 30.4736842,8.52631579 L30.4736842,8.26315792 L33,8.26315792 L33,8.52631579 Z M22.3684211,8.78947369 L23.2105263,8.78947369 C23.2631579,8.78947369 23.3157895,8.73684212 23.2631579,8.68421052 L22.4210527,7 C22.4210527,6.94736844 22.3157895,6.89473684 22.2105263,6.89473684 L21.368421,6.89473684 C21.3157895,6.89473684 21.2631579,6.9473684 21.3157895,7 L22.1578948,8.68421052 C22.1578948,8.68421052 22.2631579,8.78947369 22.3684211,8.78947369 Z M27.5263158,9.21052633 L24.7368421,9.21052633 L24.7368421,6.36842106 L27.2631579,6.36842106 C27.3157895,6.36842106 27.3684211,6.3157895 27.3684211,6.2631579 L27.3684211,5.68421052 C27.3684211,5.63157896 27.3157895,5.57894739 27.2631579,5.57894739 L21.1052632,5.57894739 C21.0526316,5.57894739 21,5.63157896 21,5.68421052 L21,6.2631579 C21,6.31578946 21.0526316,6.36842106 21.1052632,6.36842106 L23.6842105,6.36842106 L23.6842105,9.21052633 L20.9473684,9.21052633 C20.8947369,9.21052633 20.8421053,9.26315789 20.8421053,9.31578949 L20.8421053,9.89473687 C20.8421053,9.94736843 20.8947368,10 20.9473684,10 L23.6842105,10 L23.6842105,11.1052632 C23.6842105,11.1578947 23.7368421,11.2105263 23.7894737,11.2105263 L24.6315789,11.2105263 C24.6842105,11.2105263 24.7368421,11.1578947 24.7368421,11.1052632 L24.7368421,10 L27.4736842,10 C27.5263158,10 27.5789474,9.94736843 27.5789474,9.89473687 L27.5789474,9.31578949 C27.6315789,9.26315793 27.5789474,9.21052633 27.5263158,9.21052633 L27.5263158,9.21052633 Z M40,2.57894739 L40,19.5263158 L39.9473684,19.8421053 L39.8947369,20.1052632 L39.7894737,20.3684211 L39.6842105,20.631579 L39.5263158,20.8947368 L39.3157895,21 L39.1052632,21.2105263 L38.9473684,21.3684211 L38.7368421,21.5263158 L38.5263158,21.6842106 L38.3157895,21.7894737 L38.0526316,21.8947369 L37.7894737,21.9473684 L37.4736842,22.0526316 L2.52631579,22.0526316 L2.26315789,22 L2,21.9473684 L1.73684212,21.8421053 L1.52631578,21.7368421 L1.26315791,21.5263158 L1.05263158,21.3684211 L0.842105276,21.1578947 L0.684210541,21 L0.526315806,20.7894737 L0.368421071,20.5263158 L0.263157903,20.2631579 L0.157894735,20 L0.105263168,19.7368421 L0,19.4210526 L0,2.47368423 L0.0526316016,2.15789476 L0.105263168,1.89473685 L0.210526336,1.63157895 L0.31578947,1.36842105 L0.473684204,1.10526318 L0.684210541,1 L0.894736842,0.789473709 L1.05263158,0.631578939 L1.26315791,0.473684204 L1.47368421,0.31578947 L1.68421052,0.210526336 L1.94736842,0.105263168 L2.21052632,0.0526316016 L2.47368423,0 L37.4210526,0 L37.6842105,0.0526316016 L37.9473684,0.105263168 L38.2105263,0.210526336 L38.4210527,0.31578947 L38.631579,0.473684204 L38.8421053,0.631578939 L39.0526316,0.842105276 L39.2631579,1.05263158 L39.4210527,1.26315791 L39.5789474,1.52631578 L39.6842105,1.78947368 L39.7894737,2.05263159 L39.8421053,2.31578949 L40,2.57894739 Z M39.5789474,19.1578948 L39.5789474,2.84210526 C39.5789474,1.47368421 38.4736842,0.368421071 37.2105263,0.368421071 L2.84210526,0.368421071 C1.52631578,0.368421071 0.473684204,1.47368421 0.473684204,2.84210526 L0.473684204,19.1052632 C0.473684204,20.4736842 1.52631578,21.5789474 2.84210526,21.5789474 L37.2105263,21.5789474 C38.5263158,21.5789474 39.5789474,20.4736842 39.5789474,19.1578948 Z M30.4210526,18.3157895 L31.7894737,18.3157895 L31.5263158,18.1578947 L31.4210526,18.1052632 L31.3157895,18 L31.2105263,17.8947368 L31.1578947,17.8421053 L31.0526316,18 L30.9473684,18.0526316 L30.8421053,18.1052632 L30.7368421,18.1578947 L30.4210526,18.3157895 L30.4210526,18.3157895 Z M31.6315789,17.7894737 L31.4210526,17.7894737 L31.4210526,17.7368421 C31.4210526,17.7368421 31.4736842,17.6842105 31.4736842,17.6315789 C31.4736842,17.5789473 31.5263158,17.5263158 31.5789474,17.4736842 L31.0526316,17.4736842 L31.0526316,17.5789474 L31.1052632,17.6842105 L31.2105263,17.7894737 L31.3157895,17.8947368 L31.5263158,18.0526316 L31.6842106,18.1052632 L31.8421053,18.1578947 L32.0526316,18.2105263 L32.0526316,18.3684211 L32,18.4736842 L31.8947369,18.4736842 L31.6842106,18.3684211 L31.7368421,18.4736842 L31.7368421,19.3157895 L31.6842106,19.3684211 L32,19.5263158 L32.1052632,19.631579 L32.1052632,19.6842105 L32,19.7368421 L31.8947369,19.7368421 L31.7894737,19.6842105 L31.6842106,19.631579 L31.5789474,19.5789474 L31.4736842,19.5263158 L31.3684211,19.4736842 L31.2631579,19.4210526 L31.0526316,19.4736842 L30.8947368,19.4210526 L30.8947368,19.2631579 L30.9473684,19.2105263 L31.2105263,19.2105263 C31.2631579,19.2631579 31.3684211,19.2631579 31.4210526,19.3157895 L31.5789474,19.3684211 L31.5789474,18.6842106 L30.8947368,18.6842106 L30.8947368,18.8421053 L30.8421053,19.1052632 L30.7894737,19.3157895 L30.631579,19.4210526 L30.4736842,19.5789474 L30.2631579,19.6842105 L30.0526316,19.7894737 L29.7894737,19.8421053 L29.4210526,19.8421053 L29.4210526,19.7368421 L29.7894737,19.7368421 L29.631579,19.4210526 L29.631579,18.3684211 L30.0526316,18.3684211 L30,18.3157895 L30,18.1578947 L29.8947369,18.2105263 C29.8421053,18.2631579 29.7368421,18.2631579 29.6842105,18.3157895 L29.4736842,18.4210527 L29.3684211,18.4210527 L29.3684211,18.3684211 C29.4210526,18.3684211 29.4736842,18.3157895 29.5789474,18.2631579 L29.7368421,18.1578947 L29.8947369,18.0526316 L30.0526316,17.9473684 L30.2105263,17.8947368 L30.2105263,17.7894737 L30.1052632,17.7894737 C30.0526316,17.7894737 30,17.7368421 29.9473684,17.7368421 L29.7894737,17.6842105 C29.7368421,17.6842105 29.6842105,17.6842105 29.631579,17.6315789 L29.5789474,17.6315789 L29.4736842,17.3157895 L29.4736842,17.2105263 L29.5789474,17.2105263 L30.0526316,17.3684211 L30.1578947,17.4736842 L30.1578947,17.5789474 L30.2631579,17.4736842 L30.3684211,17.3684211 L30.4210526,17.2631579 L30.4210526,17.2105263 L30.4736842,17.1052632 L30.5789474,17.1052632 L30.631579,17.2105263 L30.631579,17.3684211 L31.9473684,17.3684211 L31.9473684,17.5789474 L32.1052632,17.4736842 L32.0526316,17.5789474 L32,17.6842105 L31.9473684,17.7894737 L31.7894737,17.8421053 L31.6315789,17.7894737 L31.6315789,17.7894737 Z M30.3684211,17.8421053 L30.2105263,18.0526316 L30.3684211,18 L30.5263158,17.9473684 L30.631579,17.8947368 L30.7368421,17.8421053 L30.7894737,17.7368421 L30.8421053,17.6315789 L30.8947368,17.5263158 L30.8947368,17.4736842 L30.5789474,17.4736842 C30.5263158,17.5263158 30.5263158,17.5789474 30.4736842,17.6315789 L30.4210526,17.6842105 L30.3684211,17.7368421 L30.3157895,17.7368421 L30.3684211,17.8421053 Z M30.8421053,19.3184211 L30.95,19.2644737 L30.95,19.2105263 L30.8421053,19.2644737 L30.8421053,19.3184211 Z M30.6842105,18.631579 L30,18.7368421 L30,19.4736842 L29.8947369,19.5789474 L30.2105263,19.4736842 L30.3684211,19.3684211 L30.4736842,19.2631579 L30.5789474,19.1052632 L30.631579,18.9473684 L30.631579,18.7368421 L30.6842105,18.631579 L30.6842105,18.631579 Z M28.3157895,18.2105263 L28.1052632,18.1052632 L28.1052632,17.3157895 L27.3684211,17.3157895 L27.3684211,17.8421053 L27.3157895,17.9473684 L27.2631579,18 L27.2105263,18.0526316 L27.1052632,18.1578947 L28.3157895,18.1578947 L28.3157895,18.2105263 Z M27.8947368,18.8947369 L28,18.8421053 L28.0526316,18.7894737 L28.1052632,18.7368421 L28.1578947,18.6842106 L28.2105263,18.5789474 L27.2631579,18.5789474 L27.3684211,18.7368421 L27.4736842,18.8947369 L27.5263158,18.9473684 L27.6315789,19.0526316 L27.6842105,19.1052632 L27.7368421,19.1578948 L27.8947368,19.0526316 L27.8947368,18.8947369 L27.8947368,18.8947369 Z M26.7894737,18.2631579 L26.7368421,18.1578947 L26.7368421,18.1052632 L26.7368421,18.2105263 L26.8947369,18.1052632 L27,17.9473684 L27,17.2105263 L28.1052632,17.2105263 L28.1052632,17.8947368 L28.4210527,17.8947368 L28.4210527,18 L28,18 L28.2105263,18.1052632 L28.2105263,18.2631579 L28.4210527,18.7368421 L28.3684211,18.8421053 L28.3157895,18.9473684 L28.2631579,19.0526316 L28.2105263,19.1578948 L28.1578947,19.2631579 L28.0526316,19.3684211 L28.2105263,19.4210526 L28.3157895,19.4736842 L28.4210527,19.5263158 L28.8421053,19.5263158 L28.8421053,19.631579 L28.4736842,19.631579 L28.3157895,19.5789474 L28.2105263,19.5263158 L28.1052632,19.4736842 L28,19.4210526 L27.8947368,19.3684211 L27.8421053,19.3157895 L27.6315789,19.4210526 L27.5263158,19.4736842 L27.4210526,19.5263158 L27.3157895,19.5789474 L27.2105263,19.631579 L26.9473684,19.9473684 L26.7368421,19.9473684 L26.6842105,19.8421053 L26.631579,19.9473684 L26.1052632,19.9473684 L26.1052632,19.8421053 L26.1578948,19.7368421 L26.3157895,19.7368421 L26.4210526,19.7894737 L26.4210526,19.1578948 L26.3157895,19.2105263 C26.2631579,19.2105263 26.2631579,19.2105263 26.2105263,19.2631579 L26.1052632,19.2631579 L26.1052632,19.1578948 C26.1578947,19.1578948 26.1578947,19.1052632 26.2105263,19.1052632 L26.3157895,19.0526316 L26.4210526,19 L26.4210526,18.3157895 L26.1578948,18.3157895 L26.1578948,18.1578947 L26.4210526,18.1578947 L26.4210526,17.5789474 L26.5789474,17.5789474 L26.5789474,18.1052632 L26.8421053,18.1052632 L26.8421053,18.3684211 L26.4736842,18.3684211 L26.4736842,18.8947369 C26.5263158,18.8947369 26.5789474,18.8421053 26.631579,18.7894737 L26.7894737,18.2631579 Z M26.5789474,19.6842105 L26.6842105,19.631579 L26.8947369,19.5789474 L27.1052632,19.5263158 L27.2105263,19.4736842 L27.4210526,19.3684211 L27.3157895,19.2631579 C27.2631579,19.2631579 27.2631579,19.2105263 27.2105263,19.1578948 L27.1052632,18.8947369 L27,18.7368421 L27,18.6842106 L27.0526316,18.4736842 L26.8421053,18.5789474 C26.7894737,18.631579 26.6842105,18.6842106 26.5789474,18.7368421 L26.5789474,19.6842105 L26.5789474,19.6842105 Z M19.1578948,17.9473684 L18.2631579,17.9473684 L18.2631579,18.2631579 L19.1578948,18.2631579 L19.1578948,17.9473684 Z M18.2631579,17.3684211 L18.2631579,17.6315789 L19.1578948,17.6315789 L19.1578948,17.3684211 L18.2631579,17.3684211 Z M18.7894737,19.3157895 L18.6842105,19.1578948 L18.5789474,18.9473684 L18.5263158,18.7368421 L18.4736842,18.5789474 L18.2631579,18.5789474 L18.2631579,19.5789474 L18.3684211,19.4736842 L18.4210527,19.4210526 L18.4736842,19.3684211 L18.5789474,19.3157895 L18.7894737,19.3157895 L18.7894737,19.3157895 Z M17.9473684,18.631579 L17.8421053,18.6842106 L17.4210526,18.6842106 L17.4210526,19.4736842 L17.5263158,19.3684211 L17.6842105,19.2105263 L17.7894737,19.1578948 L17.9473684,19.2105263 L17.9473684,18.631579 L17.9473684,18.631579 Z M17.9473684,18 L17.9473684,17.8947368 L18,17.7894737 L18,17.4210526 L17.4210526,17.4210526 L17.3157895,17.6842105 L17.8947368,17.6842105 L17.9473684,17.7894737 L17.8947368,18 L17.5263158,18 L17.5263158,18.3157895 L17.9473684,18.3157895 L18.0526316,18.3684211 L18.0526316,18 L17.9473684,18 Z M19.3157895,18.5789474 L18.7368421,18.5789474 L18.7894737,18.6842106 L18.8421053,18.8421053 L18.8947369,19 L19,18.8947369 C19.1578948,18.7894737 19.2105263,18.6842106 19.3157895,18.5789474 L19.3157895,18.5789474 Z M19.5263158,18.7368421 L19.4736842,18.7894737 L19.3684211,18.8947369 L19.1578948,19.1052632 L19.2105263,19.1578948 L19.3157895,19.2631579 L19.4736842,19.3684211 L19.631579,19.4736842 L19.7368421,19.5789474 L19.7368421,19.7368421 L19.631579,19.7894737 L19.4736842,19.7894737 L19.2631579,19.6842105 L19.1052632,19.5789474 L18.8947369,19.4210526 L18.7894737,19.3157895 L18.7894737,19.4736842 L18.7368421,19.5263158 L18.5789474,19.6842105 L18.4736842,19.7368421 L18.3684211,19.7894737 L18.1052632,19.7894737 L18.0526316,19.7368421 L18.0526316,19.4210526 L17.9473684,19.5263158 L17.7894737,19.6842105 L17.6842105,19.7894737 L17.5789474,19.8421053 L17.4210526,19.8421053 L17.4210526,18.7894737 L16.8421053,18.7894737 L16.8421053,18.631579 L17.1578947,18.631579 L17.1578947,18.3157895 L17.1052632,18.3157895 L17.0526316,18.3684211 L16.9473684,18.4210527 L16.8421053,18.4210527 L16.8421053,18.3684211 L16.8947368,18.2631579 L16.9473684,18.1578947 L17,18.0526316 L17.0526316,17.9473684 L17.1052632,17.8421053 L17.1578947,17.7368421 L17.2105263,17.6315789 L17.2105263,17.4736842 L17.3684211,17.4736842 L17.3684211,17.6842105 L17.9473684,17.6842105 L18,17.5789474 L19.3684211,17.5789474 L19.3684211,18.4736842 L19.2631579,18.5263158 L19.4210526,18.5789474 L19.5263158,18.7368421 L19.5263158,18.7368421 Z M21.368421,17.0526316 L22.8947369,17.0526316 L22.8947369,17.1605263 L21.3157895,17.1605263 L21.3157895,17.0526316 L21.368421,17.0526316 Z M20.6842105,17.0526316 L20.7894737,16.9473684 L20.8947368,16.9473684 L21,17.0526316 L21,17.1578947 L20.8421053,17.3157895 L20.7368421,17.5263158 L20.631579,17.6842105 L20.5263158,17.8421053 L20.4210526,17.8947368 L20.3157895,17.8421053 L20.3157895,17.7894737 L20.4210526,17.6315789 L20.5263158,17.4736842 L20.631579,17.3157895 L20.6842105,17.0526316 Z M20.4210526,18.7894737 L20.3684211,18.8421053 L20.2631579,18.7894737 L20.2105263,18.6842106 L20.2631579,18.5789474 L20.4210526,18.4210527 L20.5263158,18.2631579 L20.5789474,18.1578947 L20.631579,18.0526316 L20.6842105,17.9473684 L20.7368421,17.8421053 L20.8421053,17.7368421 L20.9473684,17.7368421 L21.0526316,17.8421053 C21.0526316,17.9473684 21.0526316,18 21,18.1052632 L20.8947368,18.2631579 L20.8947368,19.8421053 L20.7894737,19.8421053 L20.7894737,18.6842106 L20.4210526,18.7894737 L20.4210526,18.7894737 Z M21.0526316,17.9473684 L21.0526316,17.8947368 L22.8947369,17.8947368 L22.8947369,18 L22.631579,18 L22.631579,19.5789474 L22.5789474,19.631579 L21.7894737,19.631579 L21.6315789,19.5789474 L21.5263158,19.5263158 L21.5263158,19.3684211 L21.5789474,19.2631579 L21.7368421,19.2631579 L22,19.3157895 L22.3684211,19.3157895 L22.3684211,17.9473684 L21.2105263,17.9473684 L21.0526316,17.9473684 Z M11.4210526,17.3684211 L11.4210526,18.8421053 L11.6842106,18.8421053 L11.6842106,18.6842106 L11.6315789,18.5263158 L11.6315789,18.4736842 C11.6315789,18.4210527 11.5789474,18.3684211 11.5789474,18.2631579 L11.5789474,18.2105263 L11.5789474,18 L11.6842106,17.4210526 L11.4210526,17.4210526 L11.4210526,17.3684211 Z M13.4736842,18 L13.4210526,18.0526316 L12.8421053,18.0526316 L12.9473684,18.2105263 L13,18.4210527 L13.0526316,18.631579 C13.0526316,18.6842105 13.1052632,18.7894737 13.1052632,18.8947369 C13.1052632,19 13.1052632,19.1578948 13.1578947,19.2631579 L13.2631579,18.8421053 L13.2631579,18.6842106 L13.3157895,18.3684211 L13.3157895,18.1578947 L13.3157895,18.1052632 L13.368421,18.0526316 L13.4736842,18 L13.5263158,18.0526316 L13.5263158,18.7894737 L13.4736842,18.9473684 L13.4210526,19.1052632 L13.3157895,19.3684211 C13.3157895,19.3684211 13.3157895,19.4210526 13.2631579,19.4736842 L13.7368421,19.4736842 L13.7368421,19.631579 L12.0526316,19.631579 L12.0526316,19.5263158 L12.5789474,19.5263158 L12.4736842,19.4210526 L12.4210526,19.2105263 L12.3157895,18.8947369 L12.2105263,18.631579 C12.1578948,18.5789474 12.1052632,18.4736842 12.1052632,18.3684211 L12.1052632,18.3157895 L12.2631579,18.3157895 L12.2105263,18.2631579 L12.2631579,18.3684211 L12.368421,18.631579 L12.4210526,18.7368421 L12.4736842,18.8421053 L12.4736842,18.9473684 C12.4736842,19 12.4736842,19.0526316 12.5263158,19.1052632 L12.5263158,19.2631579 L12.4210526,19.3684211 L12.9473684,19.3684211 L12.9473684,19.1578948 L12.8421053,19.2105263 L12.7894737,19.2105263 L12.7894737,18.9473684 C12.7894737,18.8421053 12.7894737,18.7368421 12.7368421,18.631579 L12.631579,18.3157895 L12.631579,18.2105263 L12.7368421,18.1052632 L12.368421,18.1052632 L12.368421,18 L12.2631579,18.0526316 L12.2105263,18.0526316 L12.1052632,18 L12.1052632,18.2105263 L12.2105263,18.4210527 L12.2631579,18.5789474 C12.2631579,18.631579 12.3157895,18.6842106 12.3157895,18.7368421 L12.3157895,19.2631579 L11.5789474,19.2631579 L11.4736842,19.2631579 L11.4736842,19.8947369 L11.368421,19.8947369 L11.368421,17.2105263 L12.0526316,17.2105263 L12.1578948,17.1052632 L12.1578948,17.4210526 L12.1052632,17.7368421 L12.3157895,17.5789474 L12.4210526,17.5263158 L12.5263158,17.4736842 L12.5789474,17.4210526 L12.631579,17.3684211 C12.6842105,17.3157895 12.7368421,17.2631579 12.7894737,17.1578947 L12.8421053,17.1052632 L13.1052632,17.1052632 L13.2105263,17.2631579 L13.3157895,17.3684211 L13.4210526,17.4210526 L13.5263158,17.4736842 L13.631579,17.5263158 L13.7368421,17.5789474 L13.8421053,17.6315789 L13.9473684,17.6842105 L14.0526316,17.7894737 L14.0526316,17.8421053 L13.9473684,17.9473684 L13.6842105,17.9473684 L13.4736842,17.8421053 L13.4736842,18 L13.4736842,18 Z M12.4210526,17.7368421 L13.3157895,17.7368421 C13.2631579,17.7368421 13.2105263,17.6842105 13.1052632,17.6315789 C13.0526316,17.6315789 13.0526316,17.5789474 13,17.5263158 L12.9473684,17.4736842 L12.8947369,17.4210526 L12.8421053,17.3157895 L12.7894737,17.3684211 L12.6842105,17.4736842 L12.631579,17.5789474 L12.5789474,17.6315789 L12.4210526,17.7368421 L12.4210526,17.7368421 Z M8.57894739,17.7894737 L8.57894739,17.8421053 L9.94736843,17.8421053 L9.94736843,17.3157895 L8.57894739,17.3157895 L8.57894739,17.7894737 L8.57894739,17.7894737 Z M8.10526318,18.5789474 L8.10526318,19.4210526 L8.31578948,19.3157895 L8.47368422,19.2105263 L8.63157895,19.1052632 L8.73684212,19 L8.84210525,18.8947369 L8.94736842,18.7894737 L9.05263159,18.6842106 L8.21052632,18.6842106 L8.10526318,18.5789474 L8.10526318,18.5789474 Z M8.26315792,17.2105263 L8.15789475,17.5789474 C8.15789475,17.6315789 8.10526318,17.7368421 8.10526318,17.7894737 L8.10526318,18.5263158 L8.15789475,18.4736842 L9.10526318,18.4736842 L9.10526318,18.2105263 L8.36842105,18.2105263 L8.36842105,17.2105263 L8.26315792,17.2105263 Z M9.63157896,18.8421053 L9.68421053,18.8947369 L9.7894737,19 L9.94736843,19.1052632 L10.1052632,19.2105263 L10.2631579,19.3157895 L10.4736842,19.4210526 L10.5263158,19.5263158 L10.5263158,19.6842105 L10.4210526,19.7894737 L10.3157895,19.7894737 L10.1578947,19.6842105 L10,19.5789474 L9.84210527,19.4210526 L9.7368421,19.3157895 L9.63157896,19.2105263 L9.47368423,19.1578948 L9.36842106,19.0526316 L9.36842106,19.7894737 L9.26315789,19.7894737 L9.26315789,19 L9.10526316,19.1578948 L9.00000002,19.2631579 L8.89473686,19.3684211 L8.57894739,19.4210526 L8.42105265,19.5263158 L8.26315792,19.631579 L8.15789475,19.631579 L8.05263158,19.5789474 L8.05263158,19.7894737 L7.89473685,19.7894737 L7.89473685,18.3157895 L7.63157894,18.3684211 L7.52631581,18.3157895 L7.52631581,18.1578947 L7.57894738,18.0526316 L7.63157894,17.9473684 L7.68421054,17.8421053 L7.73684211,17.7368421 L7.78947368,17.6315789 L7.84210528,17.4736842 L7.89473685,17.3157895 L7.89473685,17.0526316 L7.94736841,17.0526316 L8.05263158,17.1052632 L8.10526318,17.2105263 L8.15789475,17.1578947 L9.94736843,17.1578947 L9.94736843,18.1052632 L9.15789476,18.1052632 L9.15789476,18.3684211 L10.1578947,18.3684211 L10.1578947,18.5263158 L9.26315789,18.5263158 L9.63157896,18.8421053 L9.63157896,18.8421053 Z M24.7368421,18.4210527 L24.7368421,18.5789474 L24.3684211,18.5789474 L24.3684211,18.2631579 L24.7368421,18.2631579 L24.7368421,18.4210527 L24.7368421,18.4210527 Z M15.5263158,18.4210527 L15.5263158,18.5789474 L15.1578948,18.5789474 L15.1578948,18.2631579 L15.5263158,18.2631579 L15.5263158,18.4210527 L15.5263158,18.4210527 Z" id="形状"></path>
            </g>
        </g>
    </g>
</svg>