<?xml version="1.0" encoding="UTF-8"?>
<svg width="40px" height="41px" viewBox="0 0 40 41" version="1.1" xmlns="http://www.w3.org/2000/svg" xmlns:xlink="http://www.w3.org/1999/xlink">
    <title>招商银行</title>
    <g id="pad" stroke="none" stroke-width="1" fill="none" fill-rule="evenodd">
        <g id="招商银行" fill-rule="nonzero">
            <rect id="矩形" fill="#000000" opacity="0" x="0" y="0" width="40" height="40"></rect>
            <g id="编组-74" transform="translate(0.000000, 1.000000)" fill="#A61F23">
                <path d="M39.9807395,19.1717991 L32.7361089,19.1717991 L33.0572664,19.9995521 L40,19.9995521 L40,19.1717991 L39.9807395,19.1717991 Z M6.98662964,28.0903003 L18.0672325,28.0903003 L12.4127119,14.3907191 L6.98662964,28.0903003 Z M31.447448,16.1371526 L39.6300195,16.1371526 L39.55029,15.7725471 L39.4723522,15.4272021 L39.446373,15.3098475 L31.0779154,15.3098475 L31.4478959,16.1376005 L31.447448,16.1371526 Z M18.3431502,28.0903003 L29.4250969,28.0903003 L23.7696804,14.3907191 L18.3431502,28.0903003 Z" id="形状"></path>
                <path d="M36.4121744,27.8152785 L32.0897628,34.1130098 L8.45759333,34.1130098 L3.81312849,28.3214262 L14.0198428,1.97666346 L19.813666,15.7703075 L25.3320194,1.84004838 L30.6174554,14.2070726 L39.1462677,14.2070726 C36.6616649,5.98553224 29.029585,0 19.9991042,0 C8.95433473,0 0,8.95433473 0,19.9995521 C0,31.0447694 8.95388681,39.9986562 19.9991042,39.9986562 C28.6381044,39.9986562 35.9965062,34.5215113 38.7946519,26.8500146 L35.9987458,26.8500146 L36.4121744,27.8152785 Z" id="路径"></path>
                <path d="M33.5163826,21.1027749 L33.8850194,21.9314237 L39.9063851,21.9314237 L39.9982083,21.1027749 L33.5163826,21.1027749 Z M34.7109807,23.8623995 L39.6300195,23.8623995 L39.6801863,23.5600546 L39.7670825,23.0359902 L34.3445835,23.0359902 L34.7118766,23.8623995 L34.7109807,23.8623995 Z M32.2290654,18.0681284 L39.9063851,18.0681284 L39.8987705,18.021097 L39.8539786,17.5861683 L39.8163535,17.2408233 L31.9061163,17.2408233 L32.2286175,18.0681284 L32.2290654,18.0681284 Z M35.1718886,24.9638306 L35.5391817,25.7467918 L39.1726949,25.7467918 L39.4033728,24.9638306 L35.1714407,24.9638306 L35.1718886,24.9638306 Z" id="形状"></path>
            </g>
        </g>
    </g>
</svg>