<?xml version="1.0" encoding="UTF-8"?>
<svg width="40px" height="40px" viewBox="0 0 40 40" version="1.1" xmlns="http://www.w3.org/2000/svg" xmlns:xlink="http://www.w3.org/1999/xlink">
    <title>兴业银行</title>
    <g id="pad" stroke="none" stroke-width="1" fill="none" fill-rule="evenodd">
        <g id="兴业银行" fill-rule="nonzero">
            <rect id="矩形" fill="#000000" opacity="0" x="0" y="0" width="40" height="40"></rect>
            <path d="M39.7972,19.87 C39.7972,14.794 32.9176,10.6784 24.4322,10.6784 C17.6402,10.6784 11.8778,13.319 9.8512,16.9746 L9.8512,16.9706 C9.6636,17.3106 9.5594,17.6804 9.5594,18.0662 C9.5594,18.9784 10.1342,19.7898 11.0312,20.3186 L18.8202,24.815 C19.2238,25.0358 19.7038,25.1654 20.2214,25.1654 C20.7426,25.1654 21.2228,25.036 21.6262,24.8172 L29.0136,20.5488 C29.5126,20.2606 29.8302,19.8094 29.8302,19.3054 C29.8302,18.8164 29.5312,18.382 29.0598,18.0908 L26.313,16.5038 L20.2214,20.0176 L15.618,17.3558 C17.396,15.7528 20.7126,14.6742 24.5092,14.6742 C30.1868,14.6742 34.7894,17.0852 34.7894,20.0606 C34.6708,24.6658 27.9142,28.2314 19.7084,28.0182 C11.4994,27.8006 4.9442,23.888 5.0636,19.2824 L5.0608,19.2824 C5.121,13.2088 13.0834,8.3596 22.8442,8.4544 C23.7164,8.464 24.5674,8.5096 25.4006,8.5936 C23.398,7.8548 20.8962,7.4166 18.175,7.4166 C16,7.4166 13.9652,7.6982 12.2128,8.1862 C5.1476,10.1258 0.2,14.6272 0.2,19.87 C0.2,26.8904 9.0638,32.5832 20.0012,32.5832 C30.936,32.5832 39.8,26.8902 39.8,19.87 L39.7972,19.87 Z" id="路径" fill="#002E6C"></path>
        </g>
    </g>
</svg>