<?xml version="1.0" encoding="UTF-8"?>
<svg width="40px" height="40px" viewBox="0 0 40 40" version="1.1" xmlns="http://www.w3.org/2000/svg" xmlns:xlink="http://www.w3.org/1999/xlink">
    <title>浦发银行</title>
    <g id="pad" stroke="none" stroke-width="1" fill="none" fill-rule="evenodd">
        <g id="浦发银行" fill-rule="nonzero">
            <rect id="矩形" fill="#000000" opacity="0" x="0" y="0" width="40" height="40"></rect>
            <path d="M8.72,16.08 C10.8153846,14.1661538 13.6092308,13.3138462 16.3615385,13.7476923 C15.7569231,12.4276923 13.4076923,8.23538461 8.13076922,8.23538461 C3.26923078,8.23846152 0,12.7230769 0,16.9076923 L0,32.4061538 C0,33.3876923 0.709230781,33.9830769 0.709230781,33.9830769 L5.03538461,37.4507692 C5.03538461,37.4507692 5.8923077,38.2076923 5.8923077,37.0507692 L5.8923077,22.9523077 C5.8923077,22.9230769 5.88,22.8 5.88,22.5923077 C5.88,21.5415385 6.12153848,18.4246154 8.72,16.0876923 M39.9876923,7.59692309 C39.9876923,6.62 39.2769231,6.01384617 39.2769231,6.01384617 L34.9723077,2.5523077 C34.9723077,2.5523077 34.1076923,1.79538461 34.1076923,2.9523077 C34.1076923,6.88153848 34.0984615,16.8153846 34.0984615,16.8153846 C34.1076923,16.8415384 34.1138461,16.9676923 34.1138462,17.1738462 C34.1138462,18.2246154 33.8784616,21.34 31.2707692,23.6753846 C29.1784615,25.5892308 26.3876923,26.4430769 23.6384615,26.0107692 C24.2507692,27.3307692 26.5876923,31.5230769 31.8692308,31.5230769 C36.7353846,31.5230769 40,27.04 40,22.8553846 C40,22.8553846 39.9907692,14.82 39.9907692,7.5923077 M26.1907692,15.7815385 L26.3215385,15.6553846 C28.9107693,13.4538461 32.0153846,13.6523077 33.0584615,13.7953846 C32.6353846,12.5323077 30.7707692,8.31076922 25.2261538,8.31076922 C22.0876923,8.31076922 20.0415384,10.0476923 18.8830769,11.5123077 C17.5092307,13.2415385 17.1692307,15.2738462 17.0907692,16.3384615 C16.6415384,21.3723077 14.0661538,23.7830769 13.7769231,24.0446154 C10.9092308,26.5261539 7.96923078,26.1984616 6.91692309,25.9692308 C7.41692309,27.3169231 9.44461539,31.6276923 14.9476923,31.4815385 C17.1415385,31.4138462 19.0738461,30.5246154 20.6969231,28.8246154 C22.5061539,26.9323077 22.8907693,23.9923077 22.9661538,23.1292308 C23.3553846,18.8215385 25.3430769,16.56 26.1907692,15.7815385" id="形状" fill="#14377E"></path>
        </g>
    </g>
</svg>