<?xml version="1.0" encoding="UTF-8"?>
<svg width="40px" height="40px" viewBox="0 0 40 40" version="1.1" xmlns="http://www.w3.org/2000/svg" xmlns:xlink="http://www.w3.org/1999/xlink">
    <title>北京银行</title>
    <g id="pad" stroke="none" stroke-width="1" fill="none" fill-rule="evenodd">
        <g id="北京银行" fill-rule="nonzero">
            <rect id="矩形" fill="#000000" opacity="0" x="0" y="0" width="40" height="40"></rect>
            <polygon id="路径" fill="#E3131B" points="39.2076923 25.4507692 39.3892308 24.78 39.5476923 24.1076923 39.6830769 23.4246154 39.7907692 22.7538462 39.8415385 22.4107692 39.8769231 22.0569231 39.9153846 21.7153846 39.9507692 21.3738462 39.9615385 21.02 39.9892308 20.6661538 39.9892308 20.3123077 40 19.9584615 39.9892308 19.4446154 39.9769231 18.9446154 39.9384615 18.4446154 39.9030769 17.9430769 39.8538462 17.4430769 39.7923077 16.9553846 39.7184615 16.4661538 39.6215385 15.9907692 39.5246154 15.5138462 39.4123077 15.0384615 39.3046154 14.5753846 39.1692308 14.1107692 39.0230769 13.6584615 38.8646154 13.2076923 38.6953846 12.7553846 38.5230769 12.3169231 38.3276923 11.8769231 38.1323077 11.4369231 37.9123077 11.0107692 37.6923077 10.5830769 37.4615385 10.1676923 37.2169231 9.7523077 36.9492308 9.33692309 36.68 8.93538461 36.4015385 8.5323077 36.1076923 8.14153848 35.8015385 7.7523077 35.4969231 7.3723077 35.1676923 6.98307691 34.8276923 6.61692309 34.4846154 6.23692309 34.1169231 5.8723077 33.7523077 5.51846152 33.3738462 5.16307691 32.9953846 4.83384617 32.6169231 4.50461539 32.2261538 4.1876923 31.8353846 3.88307691 31.4338462 3.58923078 31.0307692 3.3076923 30.6292308 3.04 30.2138462 2.78307691 29.7984615 2.53846152 29.3723077 2.29538461 28.9446154 2.07692309 28.5184615 1.8676923 28.0769231 1.66 27.6369231 1.47692309 27.1876923 1.29384617 26.7353846 1.12461539 26.2846154 0.976923086 25.8307692 0.830769219 25.3661538 0.695384609 24.9030769 0.573846172 24.4261538 0.463076914 23.9538462 0.369230781 23.4769231 0.28 22.9907692 0.209230781 22.5030769 0.147692305 22.0123077 0.0861538281 21.5138462 0.0492307813 21.0138462 0.0246153906 20.5123077 0 19.4876923 0 18.9738462 0.0246153906 18.4630769 0.0492307813 17.9615385 0.0861538281 17.4738462 0.147692305 16.9861538 0.209230781 16.4984615 0.28 16.0092308 0.367692305 15.5323077 0.463076914 15.0569231 0.573846172 14.5953846 0.696923086 14.1292308 0.830769219 13.68 0.976923086 13.2307692 1.12307691 12.7784615 1.29384617 12.3369231 1.47692309 11.9 1.66153848 11.46 1.8676923 11.0338462 2.07692309 10.6061538 2.29538461 10.1907692 2.53846152 9.77538461 2.78307691 9.36 3.04 8.95846152 3.3076923 8.55538461 3.58923078 8.16615383 3.88153848 7.77538461 4.1876923 7.38461539 4.50461539 6.99384617 4.83384617 6.6276923 5.16307691 6.24923078 5.51692309 5.88461539 5.87076922 5.51692309 6.23692309 5.17846152 6.61692309 4.83384617 6.98307691 4.50461539 7.3723077 4.1876923 7.7523077 3.89538461 8.14153848 3.60153848 8.5323077 3.32153848 8.93538461 3.04 9.33692309 2.78461539 9.7523077 2.54153848 10.1676923 2.30923078 10.5830769 2.07846152 11.0107692 1.86923078 11.4369231 1.67384617 11.8769231 1.47846152 12.3169231 1.29538461 12.7553846 1.13692309 13.2076923 0.978461523 13.6584615 0.832307695 14.1107692 0.696923086 14.5753846 0.576923086 15.0384615 0.466153828 15.5153846 0.367692305 15.9923077 0.283076914 16.4661538 0.210769219 16.9553846 0.149230781 17.4430769 0.101538477 17.9430769 0.0507692188 18.4446154 0.0276923047 18.9446154 0.0123076953 19.4446154 0.00153847656 19.9584615 0.0123076953 20.4707692 0.0276923047 20.9830769 0.0507692188 21.4846154 0.101538477 21.9830769 0.147692305 22.4846154 0.209230781 22.9723077 0.283076914 23.46 0.367692305 23.9369231 0.466153828 24.4138462 0.576923086 24.8907692 0.696923086 25.3661538 0.832307695 25.8292308 0.978461523 26.28 1.13692309 26.7430769 1.29538461 27.1846154 1.47846152 27.6353846 1.67384617 28.0753846 1.86923078 28.5153846 2.07692309 28.9415385 2.3076923 29.3692308 2.54153848 29.7953846 2.78461539 30.2107692 3.04 30.6261538 3.32153848 31.04 3.60153848 31.4446154 3.89384617 31.8338462 4.1876923 32.2369231 4.50461539 32.6153846 4.83384617 33.0061538 5.17692309 33.3830769 5.51692309 33.7630769 5.88461539 34.1307692 6.24923078 34.4846154 6.6276923 34.8384615 6.99384617 35.1769231 7.38461539 35.4969231 7.77538461 35.8138462 8.16615383 36.1184615 8.55538461 36.4123077 8.95846152 36.6923077 9.36153848 36.9615385 9.77538461 37.2184615 10.1907692 37.4615385 10.6061538 37.7046154 11.0338462 37.9246154 11.46 38.1461538 11.9 38.34 12.3369231 38.5369231 12.7784615 38.7061538 13.2307692 38.8769231 13.6815385 39.0369231 14.1323077 39.1707692 14.5953846 39.3046154 15.0584615 39.4276923 15.5353846 39.5353846 16.0107692 39.6353846 16.5 39.72 16.9876923 39.7923077 17.4753846 39.8661538 17.9630769 39.9153846 18.4646154 39.9523077 18.9753846 39.9753846 19.4892308 40 20 40 20.7184615 39.9892308 21.4261538 39.9646154 22.1230769 39.9030769 22.8184615 39.8292308 23.5 39.7307692 24.16 39.6107692 24.8292308 39.4630769 25.4784615 39.3046154 26.1123077 39.1092308 26.7461538 38.9015385 27.3692308 38.6707692 27.98 38.4261538 28.5753846 38.1461538 29.1753846 37.8523077 29.76 37.5353846 30.3338462 37.2046154 30.7246154 36.9615385 31.1030769 36.7169231 31.4692308 36.4738462 31.8107692 36.2169231 32.1507692 35.9723077 32.4676923 35.7153846 32.7753846 35.46 33.0676923 35.2030769 33.3338462 34.9353846 33.6046154 34.6784615 33.8476923 34.4107692 34.08 34.1415385 34.3 33.8615385 34.5061538 33.5923077 34.6907692 33.3107692 34.8723077 33.0307692 35.0307692 32.7492308 35.1784615 32.4692308 35.3123077 32.1892308 35.4338462 31.8953846 35.5446154 31.6030769 35.6292308 31.3092308 35.7153846 31.0169231 35.7769231 30.7123077 35.8230769 30.4184615 35.8615385 30.1138462 35.8738462 29.8076923 35.8861538 29.5030769 35.8738462 29.1861538 35.8615385 28.88 35.8246154 28.5630769 35.7769231 28.2461538 35.7153846 27.9892308 35.6538462 27.7215385 35.58 27.4753846 35.5076923 27.22 35.4092308 26.9753846 35.3123077 26.7446154 35.2015385 26.5138462 35.0815385 26.28 34.9461538 26.0615385 34.8107692 25.8415385 34.6523077 25.6215385 34.4938462 25.4123077 34.3246154 25.2184615 34.1538462 25.0230769 33.9569231 24.8276923 33.7630769 24.6323077 33.5538462 24.4492308 33.3338462 24.2784615 33.1030769 24.1092308 32.8723077 23.9369231 32.6261538 23.7784615 32.3707692 23.62 32.1046154 23.4723077 31.8215385 23.3153846 31.5415385 23.18 31.2492308 23.0461538 30.9446154 22.9107692 30.6276923 22.7892308 30.2984615 22.6661538 29.9676923 22.5461538 29.6261538 22.4353846 29.2723077 22.3246154 28.3584615 22.0092308 28.6492308 21.8384615 28.9307692 21.6538462 29.1984615 21.4692308 29.4446154 21.2769231 29.6753846 21.0676923 29.8938462 20.8615385 30.0907692 20.6415385 30.2723077 20.4107692 30.4415385 20.1769231 30.5892308 19.9338462 30.7369231 19.6769231 30.8476923 19.42 30.9553846 19.1523077 31.0415385 18.8830769 31.1030769 18.6030769 31.1646154 18.3107692 31.1876923 17.9692308 31.2 17.6507692 31.1876923 17.3215385 31.1646154 16.9907692 31.1030769 16.6753846 31.0184615 16.3569231 30.9215385 16.0523077 30.7984615 15.7338462 30.6507692 15.4292308 30.4815385 15.1246154 30.2846154 14.8184615 30.0661538 14.5261538 29.82 14.2338462 29.5523077 13.94 29.26 13.6584615 28.9538462 13.3784615 28.6138462 13.0861538 28.2723077 12.8046154 27.9184615 12.5492308 27.5507692 12.3030769 27.1753846 12.0723077 26.7846154 11.8523077 26.38 11.6569231 25.9646154 11.4630769 25.54 11.2907692 25.1 11.1215385 24.6476923 10.9738462 24.1830769 10.84 23.7076923 10.7169231 23.22 10.5953846 22.7184615 10.4969231 22.2076923 10.4123077 21.62 10.3276923 21.0353846 10.2538462 20.4261538 10.1923077 19.8153846 10.1430769 19.1923077 10.0953846 18.5584615 10.0584615 17.9246154 10.0338462 17.2661538 10.0215385 16.6046154 10.0092308 15.9338462 10.0215385 15.2523077 10.0215385 14.5569231 10.0461538 13.8492308 10.0815385 13.1292308 10.12 12.4076923 10.1553846 11.6769231 10.2169231 11.6769231 16.5276923 12.2615385 16.4538462 12.8476923 16.3815385 13.4323077 16.3323077 14.0323077 16.2830769 14.6184615 16.2461538 15.2153846 16.2230769 15.8138462 16.2092308 17.02 16.2092308 17.62 16.2338462 18.2292308 16.26 18.84 16.3076923 19.4476923 16.3569231 20.0584615 16.4184615 20.6815385 16.4923077 21.3030769 16.5646154 21.8046154 16.6507692 22.2815385 16.7476923 22.7184615 16.8569231 23.1338462 16.9676923 23.5138462 17.1015385 23.8676923 17.2353846 24.1953846 17.3830769 24.4876923 17.5415385 24.6230769 17.6138462 24.7446154 17.7 24.8676923 17.7969231 24.9753846 17.8815385 25.0876923 17.98 25.1723077 18.0769231 25.2692308 18.1753846 25.3430769 18.2723077 25.4169231 18.3830769 25.4892308 18.4938462 25.5507692 18.6030769 25.5984615 18.7261538 25.6369231 18.8338462 25.6723077 18.9569231 25.6984615 19.08 25.7215385 19.2138462 25.7215385 19.4323077 25.6984615 19.5430769 25.6723077 19.6661538 25.5753846 19.9338462 25.44 20.2384615 25.3553846 20.3615385 25.2584615 20.4830769 25.1492308 20.5923077 25.0138462 20.6784615 24.88 20.7630769 24.7323077 20.8369231 24.5738462 20.8984615 24.4046154 20.9476923 24.22 20.9830769 24.0123077 21.02 23.8046154 21.0323077 23.3415385 21.0323077 23.0969231 21.02 22.8415385 20.9830769 22.56 20.9476923 21.8292308 20.8615385 21.1092308 20.7876923 20.3892308 20.7261538 19.68 20.6784615 18.9876923 20.6415385 18.2907692 20.6169231 17.5953846 20.6046154 16.9107692 20.5923077 16.24 20.6046154 15.5692308 20.6169231 14.8969231 20.6415385 14.24 20.6784615 13.5938462 20.7246154 12.9461538 20.7861538 12.3107692 20.8615385 11.6769231 20.9476923 11.6769231 27.3784615 12.5661538 27.2815385 13.4323077 27.1846154 14.2876923 27.1107692 15.1415385 27.0492308 15.96 27.0123077 16.7753846 26.9753846 17.5692308 26.9646154 18.3507692 26.9646154 19.12 26.9892308 19.8769231 27.0123077 20.6076923 27.0615385 21.3307692 27.1353846 22.0369231 27.2076923 22.7323077 27.3061538 23.4030769 27.4138462 24.0630769 27.5369231 24.5861538 27.6353846 25.0753846 27.7569231 25.54 27.88 25.9661538 28.0138462 26.3661538 28.1723077 26.7353846 28.3307692 26.9046154 28.4153846 27.0630769 28.5015385 27.2215385 28.5876923 27.3692308 28.6846154 27.5046154 28.7830769 27.6353846 28.88 27.7584615 28.9907692 27.8676923 29.0876923 27.98 29.1984615 28.0753846 29.3076923 28.1615385 29.4169231 28.2461538 29.54 28.32 29.6615385 28.3815385 29.7846154 28.4430769 29.9046154 28.4784615 30.04 28.5276923 30.1630769 28.5523077 30.2953846 28.5753846 30.4307692 28.6015385 30.5784615 28.6015385 30.6861538 28.6138462 30.8092308 28.6015385 30.9323077 28.6015385 31.04 28.5753846 31.1630769 28.5523077 31.2723077 28.5169231 31.3953846 28.4784615 31.5030769 28.4323077 31.6261538 28.3707692 31.7369231 28.3092308 31.86 28.2353846 31.9830769 28.0753846 32.2246154 27.8830769 32.4707692 27.76 32.6153846 27.6123077 32.7492308 27.4661538 32.8846154 27.3076923 33.0076923 27.1492308 33.1292308 26.9784615 33.2492308 26.8092308 33.36 26.6246154 33.4707692 26.4415385 33.5784615 26.2476923 33.6784615 26.0384615 33.7753846 25.8307692 33.8723077 25.6107692 33.9584615 25.38 34.0430769 25.1492308 34.1169231 24.9030769 34.1892308 24.6584615 34.2646154 24.4046154 34.3261538 24.1476923 34.3846154 23.8661538 34.4338462 23.3061538 34.5323077 22.7184615 34.6169231 22.0953846 34.6784615 21.4384615 34.7276923 20.7538462 34.7523077 19.6569231 34.7523077 19.2784615 34.74 18.9 34.7153846 18.5230769 34.6907692 18.1553846 34.6538462 17.7892308 34.6061538 17.4353846 34.5569231 17.0692308 34.4953846 16.7169231 34.4215385 16.3630769 34.3369231 16.0215385 34.2523077 15.6784615 34.1538462 15.3384615 34.0569231 14.9969231 33.9338462 14.6661538 33.8107692 14.3369231 33.6892308 14.0076923 33.5430769 13.6784615 33.3969231 13.3615385 33.2492308 13.0430769 33.08 12.74 32.9076923 12.4338462 32.7261538 12.1292308 32.5415385 11.8230769 32.3476923 11.5307692 32.14 11.2369231 31.92 10.9446154 31.7 10.6523077 31.4692308 10.3707692 31.2230769 10.0907692 30.98 9.82153848 30.7230769 9.54307691 30.4553846 9.28461539 30.1876923 9.02923078 29.9046154 8.7723077 29.6246154 8.52923078 29.3446154 8.29846152 29.0630769 8.07692309 28.7707692 7.85692309 28.4784615 7.64923078 28.1846154 7.45538461 27.8784615 7.25846152 27.5861538 7.07692309 27.2692308 6.90615383 26.9646154 6.7476923 26.6476923 6.58923078 26.3292308 6.44307691 26.0123077 6.29538461 25.6815385 6.16 25.3661538 6.04 25.0230769 5.92923078 24.6938462 5.82 24.3523077 5.72307691 24.0092308 5.63538461 23.6692308 5.55076922 23.3153846 5.47846152 22.9615385 5.41692309 22.6061538 5.35538461 22.24 5.31846152 21.8753846 5.2723077 21.5076923 5.24461539 21.1415385 5.22153848 20.7630769 5.20923078 20.3846154 5.20923078 19.6276923 5.22153848 19.2492308 5.24461539 18.8723077 5.27076922 18.5046154 5.31846152 18.1384615 5.35538461 17.7723077 5.41692309 17.4184615 5.47846152 17.0523077 5.55076922 16.7107692 5.63538461 16.3569231 5.72307691 16.0153846 5.82 15.6615385 5.9276923 15.3323077 6.04 14.9892308 6.16 14.66 6.29538461 14.3307692 6.44307691 14.0015385 6.58923078 13.6846154 6.7476923 13.3661538 6.90615383 13.0492308 7.07538461 12.7307692 7.26 12.4261538 7.45538461 12.1215385 7.64923078 11.8292308 7.85692309 11.5215385 8.07692309 11.2292308 8.29692309 10.9369231 8.52923078 10.6553846 8.7723077 10.3753846 9.02923078 10.0953846 9.28461539 9.81538461 9.54307691 9.54615383 9.82153848 9.27692309 10.1030769 9.02 10.3830769 8.77692309 10.6646154 8.5323077 10.9569231 8.30153848 11.2492308 8.08 11.5415385 7.86153848 11.8353846 7.65384617 12.1415385 7.45846152 12.4461538 7.26307691 12.7507692 7.08 13.0692308 6.90923078 13.3861538 6.73846152 13.7030769 6.58 14.02 6.43384617 14.3476923 6.29846152 14.6769231 6.16461539 15.0092308 6.04153848 15.3492308 5.92 15.6784615 5.82153848 16.0323077 5.72461539 16.3738462 5.6276923 16.7276923 5.55384617 17.0815385 5.48153848 17.4353846 5.42 17.7892308 5.35846152 18.1553846 5.30923078 18.5353846 5.27384617 18.9 5.24923078 19.2784615 5.22461539 19.6569231 5.2123077 20.0353846 5.2 20.4138462 5.2123077 20.7923077 5.22461539 21.1707692 5.24923078 21.5353846 5.27384617 21.9030769 5.30923078 22.2692308 5.36 22.6215385 5.42 22.9769231 5.48153848 23.3307692 5.55384617 23.6846154 5.6276923 24.0246154 5.72461539 24.3676923 5.82153848 24.7092308 5.92 25.0384615 6.04307691 25.3815385 6.16461539 25.6984615 6.29846152 26.0276923 6.43384617 26.3446154 6.58 26.6615385 6.73846152 26.9784615 6.9076923 27.2830769 7.08 27.6 7.26307691 27.8938462 7.45846152 28.1984615 7.65384617 28.4907692 7.86153848 28.7830769 8.08 29.0661538 8.30153848 29.3569231 8.5323077 29.6384615 8.77692309 29.9076923 9.02 30.1876923 9.27692309 30.4569231 9.54615383 30.7123077 9.81538461 30.9676923 10.0815385 31.2230769 10.3630769 31.4692308 10.6446154 31.7015385 10.9246154 31.92 11.2169231 32.14 11.5107692 32.3476923 11.8030769 32.5415385 12.1107692 32.7261538 12.4138462 32.9092308 12.72 33.0907692 13.0369231 33.2492308 13.3415385 33.4076923 13.6723077 33.5538462 13.9892308 33.7015385 14.3184615 33.8369231 14.6476923 33.9569231 14.9769231 34.0676923 15.32 34.1769231 15.66 34.2738462 16.0030769 34.3615385 16.3446154 34.4461538 16.6984615 34.52 17.0523077 34.58 17.4061538 34.6292308 17.7723077 34.6784615 18.1384615 34.7138462 18.5046154 34.7523077 18.8723077 34.7753846 19.2492308 34.7876923 19.6276923 34.7876923 20.0061538 34.7138462 21.6184615 35.0307692 21.8138462 35.3476923 21.9953846 35.6661538 22.2030769 35.9707692 22.4107692 36.2630769 22.6307692 36.5569231 22.8507692 36.8507692 23.0692308 37.1307692 23.3153846 37.4123077 23.5584615 37.6907692 23.8030769 37.9492308 24.0584615 38.2169231 24.3153846 38.4723077 24.5953846 38.7153846 24.8646154 38.9615385 25.1584615 39.2061538 25.4507692"></polygon>
        </g>
    </g>
</svg>