<?xml version="1.0" encoding="UTF-8"?>
<svg width="40px" height="40px" viewBox="0 0 40 40" version="1.1" xmlns="http://www.w3.org/2000/svg" xmlns:xlink="http://www.w3.org/1999/xlink">
    <title>江苏银行</title>
    <g id="pad" stroke="none" stroke-width="1" fill="none" fill-rule="evenodd">
        <g id="江苏银行" fill-rule="nonzero">
            <rect id="矩形" fill="#000000" opacity="0" x="0" y="0" width="40" height="40"></rect>
            <path d="M26.7923077,13.3230769 C24.6769231,13.3230769 22.6784615,13.6476923 20.8892308,14.2323077 C23.7232218,14.6763057 25.8120241,17.1175933 25.8123077,19.9861538 C25.8123077,25.2784615 19.6046154,29.5646154 11.9492308,29.5646154 C9.56,29.5646154 7.31076926,29.1492308 5.3476923,28.4107692 C9.31787935,33.2965826 14.3179336,37.2454592 19.9907692,39.9753846 C28.7289058,35.7710582 35.7789442,28.7221048 39.9846154,19.9846154 C39.8753846,19.7538462 39.76,19.5246154 39.6461538,19.2953846 C37.576923,15.7923077 32.6030769,13.3230769 26.7923077,13.3230769 Z" id="路径" fill="#D5AB44"></path>
            <path d="M13.1692308,26.5569231 C15.2076923,26.5569231 17.1461539,26.2523077 18.8861538,25.7076923 C16.2299305,25.1978749 14.2738624,22.9270518 14.1630769,20.2246154 C14.1584615,20.1492308 14.1584615,20.0707692 14.1584615,19.9846154 C14.1584615,14.6923077 20.3646154,10.4 28.0261538,10.4 C30.4153846,10.4 32.6630769,10.82 34.6276923,11.5538462 C30.6591633,6.67160113 25.6611062,2.72631953 19.9907692,4.4408921e-15 C11.2541057,4.2001401 4.20484728,11.245601 0,19.98 C1.82461539,23.7984615 7.03076922,26.5569231 13.1692308,26.5569231 L13.1692308,26.5569231 Z" id="路径" fill="#095CAA"></path>
        </g>
    </g>
</svg>