<?xml version="1.0" encoding="UTF-8"?>
<svg width="40px" height="40px" viewBox="0 0 40 40" version="1.1" xmlns="http://www.w3.org/2000/svg" xmlns:xlink="http://www.w3.org/1999/xlink">
    <title>恒丰银行</title>
    <g id="pad" stroke="none" stroke-width="1" fill="none" fill-rule="evenodd">
        <g id="恒丰银行" fill-rule="nonzero">
            <rect id="矩形" fill="#000000" opacity="0" x="0" y="0" width="40" height="40"></rect>
            <path d="M23.08,21.7592 L38.0422,21.7656 L39.8,20.0086 L38.0422,18.2506 L19.566,18.2408 L23.08,21.7592 L23.08,21.7592 Z M28.5476,8.7486 L25.0322,5.2272 L21.5114,8.7448 L28.5476,8.7486 Z M32.8792,26.9204 L23.9974,26.918 L20.5834,30.3328 L20.6862,30.433 L29.3616,30.435 L32.8792,26.9204 L32.8792,26.9204 Z M20.6904,9.5676 L17.1754,13.0836 L32.885,13.0886 L29.3696,9.5702 L20.6904,9.5676 L20.6904,9.5676 Z M23.902,22.584 L26.1158,24.7986 L24.8172,26.0974 L33.6984,26.0974 L37.2208,22.5872 L23.902,22.584 Z M21.507,31.2516 L25.0208,34.7728 L28.5428,31.2554 L21.507,31.2516 L21.507,31.2516 Z M16.3514,13.9054 L15.7886,14.4646 L18.7458,17.4202 L37.2206,17.4242 L33.705,13.9094 L16.3514,13.9054 Z" id="形状" fill="#A98349"></path>
            <polygon id="路径" fill="#00428E" points="13.8852 15.203 19.4208 9.6672 14.9792 5.2286 0.2 19.9914 14.9744 34.772 24.2108 25.542"></polygon>
        </g>
    </g>
</svg>