<?xml version="1.0" encoding="UTF-8"?>
<svg width="40px" height="40px" viewBox="0 0 40 40" version="1.1" xmlns="http://www.w3.org/2000/svg" xmlns:xlink="http://www.w3.org/1999/xlink">
    <title>渤海银行</title>
    <g id="pad" stroke="none" stroke-width="1" fill="none" fill-rule="evenodd">
        <g id="渤海银行" fill-rule="nonzero">
            <rect id="矩形" fill="#000000" opacity="0" x="0" y="0" width="40" height="40"></rect>
            <path d="M7.0424,14.2838 C7.0424,14.2838 12.1236,7.415 20.4172,11.6844 C20.4172,11.6844 24.6496,8.8218 29.9872,8.9654 C30.609,8.9818 34.8532,8.9314 36.2802,10.9724 C36.9938,11.987 36.9134,13.2604 35.7068,14.2504 C35.7068,14.2504 29.9506,9.7682 15.7914,14.054 C15.7914,14.054 13.7426,12.9624 11.1,13.1448 C8.6382,13.3172 7.0424,14.2838 7.0424,14.2838 L7.0424,14.2838 Z" id="路径" fill="#6FBA2C"></path>
            <path d="M34.1684,31.0398 L39.8,19.4072 C39.8,19.4072 36.925,11.3366 21.7106,13.4166 C8.0886,15.2838 0.2,24.6554 0.2,24.6554 C0.2,24.6554 9.189,18.6214 20.6556,21.8348 C30.1496,24.5072 34.1684,31.0398 34.1684,31.0398 Z" id="路径" fill="#00428E"></path>
        </g>
    </g>
</svg>