<?xml version="1.0" encoding="UTF-8"?>
<svg width="40px" height="40px" viewBox="0 0 40 40" version="1.1" xmlns="http://www.w3.org/2000/svg" xmlns:xlink="http://www.w3.org/1999/xlink">
    <title>中国邮政储蓄银行</title>
    <g id="pad" stroke="none" stroke-width="1" fill="none" fill-rule="evenodd">
        <g id="中国邮政储蓄银行" fill-rule="nonzero">
            <rect id="矩形" fill="#000000" opacity="0" x="0" y="0" width="40" height="40"></rect>
            <path d="M26.0562,38.639 L28.5734,27.6628 L34.378,27.6628 L35.0988,23.8512 L26.9668,23.8512 L24.47,34.962 L9.6858,34.962 L10.1094,33.0258 L23.095,33.0258 L25.6736,21.7982 L35.601,21.7982 L36.3164,18.3158 L23.985,18.3158 L21.6284,29.2688 L10.9786,29.2688 L11.405,27.663 L19.7856,27.663 L21.7416,18.316 L13.205,18.316 L13.7118,16.3044 L26.6386,16.3044 L28.1266,10.5548 L37.868,10.5548 L38.6398,7.0124 L26.444,7.0124 L24.8398,12.624 L14.3658,12.624 L14.9264,10.4384 L23.4072,10.4384 L25.0316,5.0792 L39.0248,5.0792 L39.8,1.361 L23.3522,1.361 L21.9954,6.9536 L13.3406,6.9536 L10.7468,18.3158 L2.1322,18.3158 L0.2,27.526 L9.0428,27.526 L6.7206,38.639 L26.0562,38.639 Z M3.238,23.7944 L3.704,21.8582 L10.2078,21.8582 L9.646,23.7944 L3.238,23.7944 Z M12.0452,23.7944 L12.469,21.8582 L18.896,21.8582 L18.49,23.7944 L12.0452,23.7944 Z" id="形状" fill="#108C3E"></path>
        </g>
    </g>
</svg>