<?xml version="1.0" encoding="UTF-8"?>
<svg width="40px" height="40px" viewBox="0 0 40 40" version="1.1" xmlns="http://www.w3.org/2000/svg" xmlns:xlink="http://www.w3.org/1999/xlink">
    <title>icons_card，银行卡</title>
    <g id="pad" stroke="none" stroke-width="1" fill="none" fill-rule="evenodd">
        <g id="转账汇款2-1" transform="translate(-882.000000, -707.000000)">
            <g id="icons_card，银行卡" transform="translate(882.000000, 707.000000)">
                <rect id="矩形" fill="#000000" fill-rule="nonzero" opacity="0" x="0" y="0" width="40" height="40"></rect>
                <circle id="椭圆形" fill="#D4ECDE" cx="20" cy="20" r="20"></circle>
                <g id="形状-31" transform="translate(7.000000, 10.000000)" fill="#4BA361" fill-rule="nonzero">
                    <path d="M21.6666667,0 L4.33333334,0 C1.95,0 0,1.95 0,4.33333334 L0,5.41666666 C0,6.06666666 0.433333342,6.5 1.08333334,6.5 L24.9166667,6.5 C25.5666667,6.5 26,6.06666666 26,5.41666666 L26,4.33333334 C26,1.95 24.05,0 21.6666667,0 Z M24.9166667,8.66666666 L1.08333334,8.66666666 C0.433333342,8.66666666 0,9.1 0,9.75 L0,15.1666667 C0,17.55 1.95,19.5 4.33333334,19.5 L21.6666667,19.5 C24.05,19.5 26,17.55 26,15.1666667 L26,9.75 C26,9.1 25.5666667,8.66666666 24.9166667,8.66666666 Z M11.9166667,16.25 L5.41666666,16.25 C4.76666666,16.25 4.33333334,15.8166667 4.33333334,15.1666667 C4.33333334,14.5166667 4.76666668,14.0833333 5.41666666,14.0833333 L11.9166667,14.0833333 C12.5666667,14.0833333 13,14.5166667 13,15.1666667 C13,15.8166666 12.5666667,16.25 11.9166667,16.25 Z M20.5833333,13 L18.4166667,13 C17.7666667,13 17.3333333,12.5666667 17.3333333,11.9166667 C17.3333333,11.2666667 17.7666667,10.8333333 18.4166667,10.8333333 L20.5833333,10.8333333 C21.2333333,10.8333333 21.6666667,11.2666667 21.6666667,11.9166667 C21.6666667,12.5666666 21.2333333,13 20.5833333,13 Z" id="形状"></path>
                </g>
            </g>
        </g>
    </g>
</svg>