<?xml version="1.0" encoding="UTF-8"?>
<svg width="40px" height="32px" viewBox="0 0 40 32" version="1.1" xmlns="http://www.w3.org/2000/svg" xmlns:xlink="http://www.w3.org/1999/xlink">
    <title>开卡</title>
    <g id="pad" stroke="none" stroke-width="1" fill="none" fill-rule="evenodd">
        <g id="开卡14" transform="translate(-72.000000, -172.000000)" fill-rule="nonzero">
            <g id="编组-4" transform="translate(72.000000, 167.000000)">
                <g id="开卡" transform="translate(0.000000, 5.000000)">
                    <path d="M36.923077,0 L3.07692305,0 C1.37758538,0 0,1.39911015 0,3.12499997 L0,28.125 C0,29.8508898 1.37758538,31.25 3.07692305,31.25 L36.923077,31.25 C38.6224146,31.25 40,29.8508898 40,28.125 L40,3.12499997 C40,1.39911015 38.6224146,0 36.923077,0 L36.923077,0 Z M3.07692305,3.12499997 L36.923077,3.12499997 L36.923077,28.125 L3.07692305,28.125 L3.07692305,3.12499997 Z" id="形状" fill="#444444"></path>
                    <path d="M25.1948756,3.70614035 C28.1867714,3.70614035 30.2244587,4.97710195 31.2302259,7.1446214 C31.8952576,8.57803093 32.0237807,10.2001895 31.8377212,11.6057508 C31.6658591,12.9169377 31.1951062,14.2064647 30.4553518,15.2662441 L30.4157488,15.3203934 L34.2168911,18.734894 C34.673936,19.1455268 34.9536848,19.7280846 34.9940069,20.3531848 L35,20.5094442 L35,23.8187405 C35.0035927,24.6532816 34.3671897,25.3403858 33.5616189,25.3716985 C32.7560481,25.4030112 32.0716664,24.7672462 32.0148139,23.9347747 L32.0110778,23.8187405 L32.0103306,20.8498113 L27.269177,16.5905814 C26.9442552,16.2988434 26.7565005,15.8763245 26.7539251,15.4310708 C26.7513496,14.9858171 26.9342033,14.5610009 27.2557269,14.2652554 L27.3506247,14.1848051 C28.1516518,13.562088 28.7180496,12.3947836 28.8764617,11.1880276 C28.9900401,10.3286007 28.907098,9.28506621 28.5357263,8.48365644 C28.0380733,7.41072656 27.0592063,6.8003865 25.1948756,6.80038655 C23.370148,6.80038655 22.4361146,7.42542429 21.9593839,8.54786208 C21.6111762,9.36629018 21.5431786,10.3432984 21.6320986,11.2383091 C21.7210185,12.1255842 22.3001193,13.4066021 22.9868206,14.0447904 L23.1086186,14.1499948 C23.4457524,14.4196597 23.6556829,14.8254667 23.6856517,15.2654308 C23.7156205,15.7053949 23.5627782,16.1376852 23.2655362,16.4536611 L23.1766162,16.5403 L18.4048263,20.8474906 L18.4048263,23.8187405 C18.4050738,24.6283692 17.8023203,25.3012737 17.0224569,25.3619958 L16.9103729,25.3658636 C16.1285943,25.3657151 15.4790361,24.7418264 15.4204028,23.9347747 L15.4166667,23.8187405 L15.4166667,20.5078971 C15.4166667,19.8813123 15.6587681,19.2833492 16.0846874,18.8439662 L16.1952769,18.7372147 L20.0584391,15.2499993 L20.0434946,15.2283396 C19.3246625,14.1716545 18.8367234,12.8921837 18.6835419,11.7651045 L18.6588834,11.5554694 C18.5213937,10.174662 18.6230165,8.71340426 19.2230396,7.30165443 C20.1794898,5.05059033 22.1895297,3.70614035 25.1941284,3.70614035 L25.1948756,3.70614035 Z" id="路径" fill="#444444"></path>
                    <path d="M35.1096491,24.5394737 C35.1096491,25.4599483 34.3944065,26.2061404 33.51211,26.2061404 L6.18087242,26.2061404 C5.29857595,26.2061404 4.58333333,25.4599483 4.58333333,24.5394737 L4.58333333,22.872807 L35.1096491,22.872807 L35.1096491,24.5394737 Z" id="路径" fill="#00B386"></path>
                </g>
            </g>
        </g>
    </g>
</svg>