<?xml version="1.0" encoding="UTF-8"?>
<svg width="36px" height="36px" viewBox="0 0 36 36" version="1.1" xmlns="http://www.w3.org/2000/svg" xmlns:xlink="http://www.w3.org/1999/xlink">
    <title>首页</title>
    <g id="pad" stroke="none" stroke-width="1" fill="none" fill-rule="evenodd">
        <g id="开卡14" transform="translate(-123.000000, -1086.000000)">
            <g id="绿色按钮" transform="translate(100.000000, 1075.000000)">
                <g id="首页" transform="translate(23.000000, 11.000000)">
                    <path d="M18.6585046,5.57619153 L31.9970552,17.2474233 C32.4126918,17.6111054 32.4548093,18.242868 32.0911273,18.6585046 C31.9012392,18.8755196 31.6269132,19 31.3385506,19 L4.6614494,19 C4.10916465,19 3.6614494,18.5522847 3.6614494,18 C3.6614494,17.7116374 3.78592983,17.4373114 4.00294479,17.2474233 L17.3414954,5.57619153 C17.7185214,5.24629379 18.2814786,5.24629379 18.6585046,5.57619153 Z" id="三角形" fill="#FFFFFF"></path>
                    <path d="M27,20 C28.1045695,20 29,20.8954305 29,22 L29,33 C29,34.1045695 28.1045695,35 27,35 L9,35 C7.8954305,35 7,34.1045695 7,33 L7,22 C7,20.8954305 7.8954305,20 9,20 L27,20 Z M21.125,25.4545455 L14.875,25.4545455 C14.3227153,25.4545455 13.875,25.9022607 13.875,26.4545455 L13.875,26.4545455 L13.875,29.9090909 C13.875,30.4613757 14.3227153,30.9090909 14.875,30.9090909 L14.875,30.9090909 L21.125,30.9090909 C21.6772847,30.9090909 22.125,30.4613757 22.125,29.9090909 L22.125,29.9090909 L22.125,26.4545455 C22.125,25.9022607 21.6772847,25.4545455 21.125,25.4545455 L21.125,25.4545455 Z" id="形状结合" fill="#FFFFFF"></path>
                    <rect id="矩形备份-3" fill="#FFFFFF" x="3" y="33" width="30" height="2" rx="1"></rect>
                    <rect id="矩形" x="0" y="0" width="36" height="36"></rect>
                </g>
            </g>
        </g>
    </g>
</svg>