<?xml version="1.0" encoding="UTF-8"?>
<svg width="30px" height="29px" viewBox="0 0 30 29" version="1.1" xmlns="http://www.w3.org/2000/svg" xmlns:xlink="http://www.w3.org/1999/xlink">
    <title>Navigation-完成</title>
    <g id="pad" stroke="none" stroke-width="1" fill="none" fill-rule="evenodd">
        <g id="开卡29" transform="translate(-1065.000000, -158.000000)">
            <g id="编组-10" transform="translate(868.000000, 142.000000)">
                <g id="编组-9" transform="translate(47.000000, 16.000000)">
                    <g id="Navigation_1" transform="translate(121.432918, 0.000000)">
                        <g id="Navigation-完成" transform="translate(28.712310, 0.000000)">
                            <circle id="椭圆形" fill="#6CC3A4" cx="14.5" cy="14.5" r="14.5"></circle>
                            <path d="M23.7096485,10.1268567 L23.8042457,10.2058356 C24.0388236,10.4483211 24.0075706,10.7857627 23.7306552,11.0003991 L12.4791208,19.721435 C12.1875004,19.9474692 11.7831824,20.0361025 11.4031919,19.9867644 C11.0556165,20.0276472 10.6852408,19.9688866 10.3930828,19.8057044 C10.253891,19.7279601 10.1415665,19.630872 10.0638832,19.5211597 L5.94533879,13.7045248 C5.77837186,13.4687168 5.92074816,13.1866521 6.26702475,13.0672258 C6.63297566,12.9410141 7.07990658,12.9962402 7.35464888,13.2016207 L12.0085187,16.681 L22.8593845,10.1095972 C23.1151984,9.95469231 23.4735421,9.9671929 23.7096485,10.1268567 Z" id="形状结合" fill="#FFFFFF"></path>
                        </g>
                    </g>
                </g>
            </g>
        </g>
    </g>
</svg>