<?xml version="1.0" encoding="UTF-8"?>
<svg width="100px" height="100px" viewBox="0 0 100 100" version="1.1" xmlns="http://www.w3.org/2000/svg" xmlns:xlink="http://www.w3.org/1999/xlink">
    <title>交易成功</title>
    <g id="pad" stroke="none" stroke-width="1" fill="none" fill-rule="evenodd">
        <g id="开卡28" transform="translate(-910.000000, -388.000000)" fill-rule="nonzero">
            <g id="交易成功" transform="translate(910.000000, 388.000000)">
                <rect id="矩形" fill="#000000" opacity="0" x="0" y="0" width="100" height="100"></rect>
                <path d="M50,0.390625 C22.5976562,0.390625 0.390625,22.5976562 0.390625,50 C0.390625,77.4023438 22.5976562,99.609375 50,99.609375 C77.4023438,99.609375 99.609375,77.4023438 99.609375,50 C99.609375,22.5976562 77.4023438,0.390625 50,0.390625 Z M74.2578125,38.0957031 L44.8046875,67.5585938 C44.3652344,67.9980469 43.7597656,68.2519531 43.1347656,68.2519531 C42.5097656,68.2519531 41.9042969,67.9980469 41.4648438,67.5585938 L25.78125,51.875 C24.8632812,50.9570313 24.8632812,49.453125 25.78125,48.5351563 C26.6992188,47.6171875 28.203125,47.6171875 29.1210938,48.5351563 L43.1347656,62.5488281 L70.9277344,34.7558594 C71.8457031,33.8378906 73.3496094,33.8378906 74.2675781,34.7558594 C75.1855469,35.6738281 75.1855469,37.1777344 74.2578125,38.0957031 Z" id="形状" fill="#54B36A"></path>
            </g>
        </g>
    </g>
</svg>