<?xml version="1.0" encoding="UTF-8"?>
<svg width="30px" height="30px" viewBox="0 0 30 30" version="1.1" xmlns="http://www.w3.org/2000/svg" xmlns:xlink="http://www.w3.org/1999/xlink">
    <title>人民币</title>
    <g id="pad" stroke="none" stroke-width="1" fill="none" fill-rule="evenodd">
        <g id="明细查询" transform="translate(-439.000000, -584.000000)" fill-rule="nonzero">
            <g id="人民币" transform="translate(439.000000, 584.000000)">
                <rect id="矩形" fill="#000000" opacity="0" x="0" y="0" width="30" height="30"></rect>
                <path d="M13.2,30 L13.2,23.3509091 L4.70727272,23.3509091 L4.70727272,20.5036364 L13.2,20.5036364 L13.2,17.58 L4.70727272,17.58 L4.70727272,14.5527273 L11.6836364,14.5527273 L3.37636362,0 L7.46727272,0 L13.4018182,10.56 C13.9810325,11.5796976 14.5001009,12.6324048 14.9563636,13.7127273 C15.2690909,12.9854545 15.8290909,11.8727273 16.6363636,10.3745454 L22.2436364,0 L26.6072727,0 L18.3327273,14.5527273 L25.3145454,14.5527273 L25.3145454,17.58 L16.9090909,17.58 L16.9090909,20.5036364 L25.3145454,20.5036364 L25.3145454,23.3454546 L16.9090909,23.3454546 L16.9090909,30 L13.2,30 Z" id="路径" fill="#5D5D5D"></path>
            </g>
        </g>
    </g>
</svg>