<?xml version="1.0" encoding="UTF-8"?>
<svg width="30px" height="30px" viewBox="0 0 30 30" version="1.1" xmlns="http://www.w3.org/2000/svg" xmlns:xlink="http://www.w3.org/1999/xlink">
    <title>倒序</title>
    <g id="pad" stroke="none" stroke-width="1" fill="none" fill-rule="evenodd">
        <g id="明细查询" transform="translate(-665.000000, -760.000000)" fill-rule="nonzero">
            <g id="倒序" transform="translate(665.000000, 760.000000)">
                <rect id="矩形" fill="#000000" opacity="0" x="0" y="0" width="30" height="30"></rect>
                <path d="M9.375,8.4375 L12.1875,8.4375 L8.4375,3.75 L4.6875,8.4375 L7.5,8.4375 L7.5,26.25 L9.375,26.25 L9.375,8.4375 Z M22.2375,3.75 L19.95,3.75 L16.9228125,12.82875 L18.7021875,13.42125 L19.738125,10.3125 L22.449375,10.3125 L23.4853125,13.42125 L25.2646875,12.82875 L22.2375,3.75 Z M21.09375,6.245625 L21.825,8.4375 L20.3625,8.4375 L21.09375,6.245625 L21.09375,6.245625 Z M17.8125,18.75 L22.216875,18.75 L17.8125,24.035625 L17.8125,26.25 L24.375,26.25 L24.375,24.375 L19.970625,24.375 L24.375,19.089375 L24.375,16.875 L17.8125,16.875 L17.8125,18.75 Z" id="形状" fill="#FFFFFF"></path>
            </g>
        </g>
    </g>
</svg>