<?xml version="1.0" encoding="UTF-8"?>
<svg width="120px" height="120px" viewBox="0 0 120 120" version="1.1" xmlns="http://www.w3.org/2000/svg" xmlns:xlink="http://www.w3.org/1999/xlink">
    <title>注意2</title>
    <g id="pad" stroke="none" stroke-width="1" fill="none" fill-rule="evenodd">
        <g id="开卡11" transform="translate(-902.000000, -645.000000)" fill-rule="nonzero">
            <g id="注意2" transform="translate(902.000000, 645.000000)">
                <rect id="矩形" fill="#000000" opacity="0" x="0" y="0" width="120" height="120"></rect>
                <path d="M101.891318,107.827533 L18.1530523,107.827533 C14.4096703,107.827533 11.0578228,105.891925 9.1864916,102.650043 C7.31516039,99.4079215 7.3159998,95.5371858 9.18841031,92.2959034 L51.057543,19.8187229 C52.929234,16.5787596 56.280362,14.6445909 60.0219452,14.6445909 C63.7637682,14.6445909 67.1150161,16.5787596 68.9867071,19.8186029 L110.85584,92.2959033 C112.72825,95.5373057 112.72897,99.4079214 110.857878,102.650043 C108.986547,105.891925 105.6347,107.827533 101.891318,107.827533 Z M60.0219451,19.8210014 C58.1513334,19.8210014 56.4757095,20.7880257 55.539864,22.4080075 L55.539864,22.4080075 L13.6708512,94.8851878 C12.734526,96.5058889 12.7341662,98.4412568 13.6698919,100.062438 C14.6054975,101.683379 16.2814812,102.651123 18.1531723,102.651123 L101.891438,102.651123 C103.763129,102.651123 105.439112,101.683379 106.374598,100.062438 C107.310324,98.4414967 107.309844,96.5058891 106.373639,94.8851878 L64.504386,22.4078875 C63.5686604,20.7880257 61.8929166,19.8210014 60.0219451,19.8210014 Z M60.2030223,72.7874101 C58.058876,72.7874101 56.3056648,71.0491887 56.3056648,68.9050424 L56.3056648,38.8815983 C56.3056648,36.737452 58.0588761,34.9992306 60.2030223,34.9992306 C62.3471686,34.9992306 64.1003798,36.737452 64.1003798,38.8815983 L64.1003798,68.9050424 C64.1003798,71.0491887 62.3471686,72.7874101 60.2030223,72.7874101 Z M54.339238,86.4397938 C54.339238,89.6752922 56.9621277,92.2981818 60.197626,92.2981818 C63.4331243,92.2981818 66.056014,89.6752922 66.056014,86.4397938 C66.056014,83.2042955 63.4331243,80.5814058 60.197626,80.5814058 C56.9621277,80.5814058 54.339238,83.2042955 54.339238,86.4397938 L54.339238,86.4397938 Z" id="形状" fill="#FF0202"></path>
            </g>
        </g>
    </g>
</svg>