<?xml version="1.0" encoding="UTF-8"?>
<svg width="80px" height="80px" viewBox="0 0 80 80" version="1.1" xmlns="http://www.w3.org/2000/svg" xmlns:xlink="http://www.w3.org/1999/xlink">
    <title>大额存单</title>
    <defs>
        <linearGradient x1="50%" y1="0%" x2="50%" y2="95.6430288%" id="linearGradient-1">
            <stop stop-color="#FFFFFF" stop-opacity="0.66720389" offset="0%"></stop>
            <stop stop-color="#FFFFFF" stop-opacity="0.832714161" offset="100%"></stop>
        </linearGradient>
    </defs>
    <g id="pad" stroke="none" stroke-width="1" fill="none" fill-rule="evenodd">
        <g id="个人解挂1" transform="translate(-601.000000, -674.000000)" fill-rule="nonzero">
            <g id="大额存单" transform="translate(601.000000, 674.000000)">
                <rect id="矩形" fill="#000000" opacity="0" x="0" y="0" width="80" height="80"></rect>
                <path d="M70,13.3333334 C73.6666666,13.3333334 76.6666666,16.3333334 76.6666666,20 L76.6666666,60 C76.6666666,63.6666666 73.6666666,66.6666666 70,66.6666666 L10,66.6666666 C6.33333336,66.6666666 3.33333336,63.6666666 3.33333336,60 L3.33333336,20 C3.33333336,16.3333334 6.33333336,13.3333334 10,13.3333334 L70,13.3333334 Z M18.5,28.5 L14,28.5 L17.6666666,36.6666666 L14,36.6666666 L14,38.3333334 L21.1666666,38.3333334 L21.1666666,42.3333334 L14,42.3333334 L14,44 L21.1666666,44 L21.1666666,49.1666666 L25.3333334,49.1666666 L25.3333334,44 L32.5,44 L32.5,42.5 L25.3333334,42.5 L25.3333334,38.3333334 L32.5,38.3333334 L32.5,36.6666666 L28.8333334,36.6666666 L32.5,28.5 L28,28.5 L24.3333334,36.6666666 L22.1666666,36.6666666 L18.5,28.5 Z M55,45 L41.6666666,45 C40.6666666,45 40,45.6666666 40,46.6666666 C40,47.6666667 40.6666666,48.3333334 41.6666666,48.3333334 L41.6666666,48.3333334 L55,48.3333334 C56,48.3333334 56.6666666,47.6666666 56.6666666,46.6666666 C56.6666666,45.6666666 56,45 55,45 L55,45 Z M66.6666666,36.6666666 L41.6666666,36.6666666 C40.6666666,36.6666666 40,37.3333334 40,38.3333334 C40,39.3333334 40.6666666,40 41.6666666,40 L41.6666666,40 L66.6666666,40 C67.6666667,40 68.3333334,39.3333334 68.3333334,38.3333334 C68.3333334,37.3333333 67.6666666,36.6666666 66.6666666,36.6666666 L66.6666666,36.6666666 Z M66.6666666,28.3333334 L41.6666666,28.3333334 C40.6666666,28.3333334 40,29 40,30 C40,31 40.6666666,31.6666666 41.6666666,31.6666666 L41.6666666,31.6666666 L66.6666666,31.6666666 C67.6666667,31.6666666 68.3333334,31 68.3333334,30 C68.3333334,29 67.6666666,28.3333334 66.6666666,28.3333334 L66.6666666,28.3333334 Z" id="路径-2" fill="url(#linearGradient-1)"></path>
            </g>
        </g>
    </g>
</svg>