<?xml version="1.0" encoding="UTF-8"?>
<svg width="80px" height="80px" viewBox="0 0 80 80" version="1.1" xmlns="http://www.w3.org/2000/svg" xmlns:xlink="http://www.w3.org/1999/xlink">
    <title>活期一本通</title>
    <defs>
        <linearGradient x1="50%" y1="2.59232955%" x2="50%" y2="99.4072334%" id="linearGradient-1">
            <stop stop-color="#FFFFFF" stop-opacity="0.607544799" offset="0%"></stop>
            <stop stop-color="#FFFFFF" stop-opacity="0.838559878" offset="100%"></stop>
        </linearGradient>
    </defs>
    <g id="pad" stroke="none" stroke-width="1" fill="none" fill-rule="evenodd">
        <g id="个人解挂1" transform="translate(-611.000000, -446.000000)">
            <g id="活期一本通" transform="translate(611.000000, 446.000000)">
                <rect id="矩形" stroke="#979797" fill="#D8D8D8" opacity="0" x="0.5" y="0.5" width="79" height="79"></rect>
                <path d="M73.1773879,15 C77.8167641,15 79.9610136,17.7562112 80,21.1723602 L80,21.1723602 L80,58.8276398 C80,62.2437888 77.8167641,65 73.1773879,65 L73.1773879,65 L15.711501,65 C11.0721248,65 8.88888889,62.2437888 8.88888889,58.8276398 L8.88888889,58.8276398 L8.88888889,56.1878882 L6.82261209,56.1878882 C2.18323587,56.1878882 0,53.431677 0,50.015528 L0,50.015528 L8.69395712,21.25 C8.77192982,20.9006211 8.84990253,20.5900621 8.92787524,20.2795031 C9.08382066,18.9208075 9.62962963,17.6785714 10.6042885,16.7468944 C11.3450292,15.8928571 12.3976608,15.3493789 13.8791423,15.1552795 C14.4249513,15.0776398 15.0097466,15 15.6725146,15 L15.6725146,15 Z M76.4132554,32.4689441 L71.1111111,50.015528 C69.668616,54.2857143 68.9278752,56.1878882 64.288499,56.1878882 L64.288499,56.1878882 L12.6315789,56.1878882 L12.6705653,57.6242236 C12.6705653,57.9347826 12.7095517,58.2065217 12.7875244,58.4782609 C12.9434698,59.6428571 13.957115,60.4968944 15.1267057,60.4968944 L15.1267057,60.4968944 L74.0350877,60.4968944 C75.3606238,60.4968944 76.4132554,59.4487578 76.4132554,58.1677019 L76.4132554,58.1677019 L76.4132554,32.4689441 Z M68.2261209,47.1040373 L4.32748538,47.1040373 L3.78167641,48.8121118 C3.78167641,49.1226708 3.82066277,49.3944099 3.89863548,49.6661491 C4.0545809,50.7919255 5.02923977,51.6847826 6.23781676,51.6847826 L6.23781676,51.6847826 L65.1461988,51.6847826 C66.4717349,51.6847826 67.0565302,50.947205 67.5243665,49.3167702 L67.5243665,49.3167702 L68.2261209,47.1040373 Z M24.6666666,20.6666666 C18.5916666,20.6666666 13.6666666,25.5916666 13.6666666,31.6666666 C13.6666666,37.7416666 18.5916666,42.6666666 24.6666666,42.6666666 C28.0212409,42.6666666 31.0251601,41.1649483 33.0428148,38.797121 L69.7076023,38.7965839 L69.7076023,37.8649068 L33.7556085,37.8644958 C34.9614678,36.0995774 35.6666666,33.9654549 35.6666666,31.6666666 C35.6666666,25.5916666 30.7416666,20.6666666 24.6666666,20.6666666 Z M24.6666666,22.6666666 C29.6372294,22.6666666 33.6666666,26.6961039 33.6666666,31.6666666 C33.6666666,36.6372294 29.6372294,40.6666666 24.6666666,40.6666666 C19.6961039,40.6666666 15.6666666,36.6372294 15.6666666,31.6666666 C15.6666666,26.6961039 19.6961039,22.6666666 24.6666666,22.6666666 Z M25.6666667,25.6666666 L23.6666667,25.6666666 L23.6666667,33.6666666 L29.6666667,33.6666666 L29.6666667,31.6666666 L25.6666667,31.6666666 L25.6666667,25.6666666 Z" id="形状" fill="url(#linearGradient-1)" fill-rule="nonzero"></path>
            </g>
        </g>
    </g>
</svg>