<?xml version="1.0" encoding="UTF-8"?>
<svg width="80px" height="80px" viewBox="0 0 80 80" version="1.1" xmlns="http://www.w3.org/2000/svg" xmlns:xlink="http://www.w3.org/1999/xlink">
    <title>定期一本通</title>
    <defs>
        <linearGradient x1="50%" y1="2.59232955%" x2="50%" y2="99.4072334%" id="linearGradient-1">
            <stop stop-color="#FFFFFF" stop-opacity="0.607544799" offset="0%"></stop>
            <stop stop-color="#FFFFFF" stop-opacity="0.838559878" offset="100%"></stop>
        </linearGradient>
    </defs>
    <g id="pad" stroke="none" stroke-width="1" fill="none" fill-rule="evenodd">
        <g id="个人解挂1" transform="translate(-1333.000000, -445.000000)">
            <g id="定期一本通" transform="translate(1333.000000, 445.000000)">
                <rect id="矩形" stroke="#979797" fill="#D8D8D8" opacity="0" x="0.5" y="0.5" width="79" height="79"></rect>
                <path d="M73.1773879,16 C77.8167641,16 79.9610136,18.7562112 80,22.1723602 L80,22.1723602 L80,59.8276398 C80,63.2437888 77.8167641,66 73.1773879,66 L73.1773879,66 L15.711501,66 C11.0721248,66 8.88888889,63.2437888 8.88888889,59.8276398 L8.88888889,59.8276398 L8.88888889,57.1878882 L6.82261209,57.1878882 C2.18323587,57.1878882 0,54.431677 0,51.015528 L0,51.015528 L8.69395712,22.25 C8.77192982,21.9006211 8.84990253,21.5900621 8.92787524,21.2795031 C9.08382066,19.9208075 9.62962963,18.6785714 10.6042885,17.7468944 C11.3450292,16.8928571 12.3976608,16.3493789 13.8791423,16.1552795 C14.4249513,16.0776398 15.0097466,16 15.6725146,16 L15.6725146,16 Z M76.4132554,33.4689441 L71.1111111,51.015528 C69.668616,55.2857143 68.9278752,57.1878882 64.288499,57.1878882 L64.288499,57.1878882 L12.6315789,57.1878882 L12.6705653,58.6242236 C12.6705653,58.9347826 12.7095517,59.2065217 12.7875244,59.4782609 C12.9434698,60.6428571 13.957115,61.4968944 15.1267057,61.4968944 L15.1267057,61.4968944 L74.0350877,61.4968944 C75.3606238,61.4968944 76.4132554,60.4487578 76.4132554,59.1677019 L76.4132554,59.1677019 L76.4132554,33.4689441 Z M68.2261209,48.1040373 L4.32748538,48.1040373 L3.78167641,49.8121118 C3.78167641,50.1226708 3.82066277,50.3944099 3.89863548,50.6661491 C4.0545809,51.7919255 5.02923977,52.6847826 6.23781676,52.6847826 L6.23781676,52.6847826 L65.1461988,52.6847826 C66.4717349,52.6847826 67.0565302,51.947205 67.5243665,50.3167702 L67.5243665,50.3167702 L68.2261209,48.1040373 Z M23.4,21.4 C17.3248678,21.4 12.4,26.3248678 12.4,32.4 C12.4,38.4751322 17.3248678,43.4 23.4,43.4 C26.6234916,43.396192 29.5224738,42.0076785 31.5341266,39.7972798 L69.7076023,39.7965839 L69.7076023,38.8649068 L32.2943788,38.8647913 C33.6162567,37.0502256 34.3971456,34.81628 34.4,32.4 C34.4,26.3248678 29.4751322,21.4 23.4,21.4 Z M23.4,22.7469467 C28.728736,22.7529729 33.0470271,27.071264 33.0530533,32.4 C33.0530533,37.7312341 28.7312341,42.0530533 23.4,42.0530533 C18.0687659,42.0530533 13.7469467,37.7312341 13.7469467,32.4 C13.7469467,27.0687659 18.0687659,22.7469467 23.4,22.7469467 Z M23.3321775,26.4883787 C21.5706154,26.4883787 20.1386627,27.8677396 20.1386627,29.5621302 L20.1386627,29.5621302 L20.1386627,31.1905207 L19.4556213,31.1905207 L19.317086,31.1972887 C18.54153,31.2702993 17.9356704,31.9238822 17.9370981,32.7178935 L17.9370981,32.7178935 L17.9370981,36.6336331 L17.9430609,36.7722091 C18.0115624,37.5481983 18.6615953,38.1578834 19.4556213,38.1611361 L19.4556213,38.1611361 L27.3443787,38.1611361 L27.4829259,38.1543676 C28.2585482,38.081351 28.8644598,37.4277123 28.8630321,36.6336331 L28.8630321,36.6336331 L28.8630321,32.7178935 L28.8570684,32.579313 C28.7885565,31.8033012 28.1384329,31.1936382 27.3443787,31.1905207 L27.3443787,31.1905207 L26.5256923,31.1905207 L26.5256923,29.5621302 L26.5206295,29.3879656 C26.426545,27.773766 25.0329961,26.4883787 23.3321775,26.4883787 Z M27.3443787,32.5418935 C27.4410179,32.5422522 27.5190774,32.620733 27.5190774,32.7173728 L27.5190774,32.7173728 L27.5190774,36.6331124 L27.5102787,36.6885036 C27.487281,36.7581783 27.4217715,36.808565 27.3443787,36.8088521 L27.3443787,36.8088521 L19.4556213,36.8088521 L19.4003165,36.7996922 C19.3308259,36.7762514 19.2808801,36.710465 19.2810528,36.6331124 L19.2810528,36.6331124 L19.2810528,32.7173728 L19.2898774,32.6620558 C19.3128876,32.5924791 19.3783268,32.5421805 19.4556213,32.5418935 L19.4556213,32.5418935 Z M23.4,33.8173577 C23.0523062,33.8153166 22.7377036,34.0231798 22.6032198,34.3438187 C22.4687359,34.6644577 22.5409289,35.0345524 22.7860597,35.2811413 C23.0311904,35.5277303 23.4008504,35.6021171 23.7222813,35.4695373 C24.0437123,35.3369576 24.2534474,35.0235934 24.2534474,34.6758935 C24.2548118,34.2031615 23.8727318,33.8188086 23.4,33.8173577 Z M23.3321775,27.840142 C24.3521183,27.840142 25.1817396,28.6131361 25.1817396,29.5621302 L25.1817396,29.5621302 L25.1817396,31.1905207 L21.4826154,31.1905207 L21.4826154,29.5621302 L21.4887576,29.4211052 C21.5660533,28.5372992 22.3632337,27.840142 23.3321775,27.840142 Z" id="形状" fill="url(#linearGradient-1)" fill-rule="nonzero"></path>
            </g>
        </g>
    </g>
</svg>