<?xml version="1.0" encoding="UTF-8"?>
<svg width="80px" height="80px" viewBox="0 0 80 80" version="1.1" xmlns="http://www.w3.org/2000/svg" xmlns:xlink="http://www.w3.org/1999/xlink">
    <title>国债</title>
    <defs>
        <linearGradient x1="50%" y1="0%" x2="50%" y2="100%" id="linearGradient-1">
            <stop stop-color="#FFFFFF" stop-opacity="0.504261364" offset="0%"></stop>
            <stop stop-color="#FFFFFF" stop-opacity="0.875163899" offset="100%"></stop>
        </linearGradient>
    </defs>
    <g id="pad" stroke="none" stroke-width="1" fill="none" fill-rule="evenodd">
        <g id="个人解挂1" transform="translate(-981.000000, -674.000000)" fill-rule="nonzero">
            <g id="国债" transform="translate(981.000000, 674.000000)">
                <rect id="矩形" fill="#000000" opacity="0" x="0" y="0" width="80" height="80"></rect>
                <g id="形状-2" transform="translate(8.000000, 11.000000)" fill="url(#linearGradient-1)">
                    <path d="M57.6875,0 C61.7260944,0 65,3.25476667 65,7.26974444 L65,25.8479722 L62.5625,25.8479722 C60.3189167,25.8479722 58.5,27.6561278 58.5,29.8866389 C58.5,32.1172222 60.3188444,33.92545 62.5625,33.92545 L65,33.92545 L65,50.8881389 C65,54.9031167 61.7260944,58.1578833 57.6875,58.1578833 L7.3125,58.1578833 C3.27390556,58.1578833 0,54.9031167 0,50.8881389 L0,33.1177167 L2.4375,33.1177167 C4.68108333,33.1177167 6.5,31.3094889 6.5,29.0789778 C6.5,26.8484667 4.68115556,25.0402389 2.4375,25.0402389 L0,25.0402389 L0,7.26974444 C0,3.25476667 3.27390556,0 7.3125,0 L57.6875,0 Z M32.5,18.47365 L19.5,21.2105111 L19.5,26 L21.5526278,25.9998556 L21.5526278,34.8947444 L19.5,34.8947444 L19.5,39.6842333 L45.5,39.6842333 L45.5,34.8946722 L43.4473,34.8946722 L43.4473,26 L45.5,26 L45.5,21.2105111 L32.5,18.47365 Z M30.1052556,26 L30.1052556,34.8946722 L26.3420444,34.8946722 L26.3420444,26 L30.1052556,26 Z M38.6578833,26 L38.6578833,34.8946722 L34.8946722,34.8946722 L34.8946722,26 L38.6578833,26 Z" id="形状"></path>
                </g>
            </g>
        </g>
    </g>
</svg>