<?xml version="1.0" encoding="UTF-8"?>
<svg width="80px" height="80px" viewBox="0 0 80 80" version="1.1" xmlns="http://www.w3.org/2000/svg" xmlns:xlink="http://www.w3.org/1999/xlink">
    <title>储蓄存单</title>
    <defs>
        <linearGradient x1="50%" y1="0%" x2="50%" y2="95.6430288%" id="linearGradient-1">
            <stop stop-color="#FFFFFF" stop-opacity="0.66720389" offset="0%"></stop>
            <stop stop-color="#FFFFFF" stop-opacity="0.832714161" offset="100%"></stop>
        </linearGradient>
    </defs>
    <g id="pad" stroke="none" stroke-width="1" fill="none" fill-rule="evenodd">
        <g id="个人解挂1" transform="translate(-1333.000000, -674.000000)" fill-rule="nonzero">
            <g id="储蓄存单" transform="translate(1333.000000, 674.000000)">
                <rect id="矩形" fill="#000000" opacity="0" x="0" y="0" width="80" height="80"></rect>
                <path d="M70,13.3333334 C73.6666666,13.3333334 76.6666666,16.3333334 76.6666666,20 L76.6666666,60 C76.6666666,63.6666666 73.6666666,66.6666666 70,66.6666666 L10,66.6666666 C6.33333336,66.6666666 3.33333336,63.6666666 3.33333336,60 L3.33333336,20 C3.33333336,16.3333334 6.33333336,13.3333334 10,13.3333334 L70,13.3333334 Z M55,45 L41.6666666,45 C40.6666666,45 40,45.6666666 40,46.6666666 C40,47.6666667 40.6666666,48.3333334 41.6666666,48.3333334 L41.6666666,48.3333334 L55,48.3333334 C56,48.3333334 56.6666666,47.6666666 56.6666666,46.6666666 C56.6666666,45.6666666 56,45 55,45 L55,45 Z M22.6666592,27.3398547 C20.0751065,27.3398547 17.7738138,27.5759048 15.7627811,28.0480051 C13.9571577,28.47175 12.6796905,30.0811483 12.6767587,31.9358253 L12.6767587,31.9358253 L12.6666592,42.9917679 L12.6793916,42.9917679 C12.6703006,43.0844952 12.6666592,43.1790406 12.6666592,43.2772224 C12.6666592,44.6626766 13.5630277,45.6172218 14.8084819,46.2590398 C15.4721181,46.6008579 16.2539361,46.8535851 17.1575722,47.0499487 C18.6848446,47.3844941 20.6266623,47.5626759 22.6666592,47.5626759 C24.7066612,47.5626759 26.6466607,47.3844941 28.1775694,47.0499487 C29.0793873,46.8535851 29.8612053,46.6008579 30.5248415,46.2590398 C31.7702958,45.6172218 32.6666592,44.6626766 32.6666592,43.2772224 L32.6666592,43.2772224 L32.6666592,31.9462377 C32.6679889,30.0880258 31.3894611,28.4736032 29.5803911,28.0490813 C27.5647599,27.5762635 25.2601826,27.3398547 22.6666592,27.3398547 Z M16.3012088,41.1081321 C16.4028074,41.1391681 16.5046282,41.1694719 16.6066633,41.1990411 L16.6066633,41.1990411 C20.6666622,42.3572226 24.9812066,42.3281317 29.0302964,41.1117684 L29.0302964,41.1117684 L29.0302964,42.4754044 C29.0302964,43.0172225 25.9957518,44.0335859 22.6630254,44.0335859 C19.9557533,44.0335859 17.4521176,43.3463133 16.6066633,42.811768 C16.4102997,42.6881316 16.303027,42.571768 16.303027,42.4754044 L16.303027,42.4754044 L16.303027,41.1117684 Z M66.6666666,36.6666666 L41.6666666,36.6666666 C40.6666666,36.6666666 40,37.3333334 40,38.3333334 C40,39.3333334 40.6666666,40 41.6666666,40 L41.6666666,40 L66.6666666,40 C67.6666667,40 68.3333334,39.3333334 68.3333334,38.3333334 C68.3333334,37.3333333 67.6666666,36.6666666 66.6666666,36.6666666 L66.6666666,36.6666666 Z M29.0302964,35.7208607 L29.0302964,37.2808603 C24.9212066,38.7881327 20.4066623,38.7881327 16.2975724,37.2790421 L16.2975724,37.2790421 L16.2957543,35.7208607 C16.6466633,35.8281334 16.9630268,35.9499516 17.355754,36.0354061 C18.9957536,36.3881332 20.4775714,36.6535877 22.6630254,36.6535877 C24.8484793,36.6535877 26.3230244,36.3881333 27.9612058,36.0354061 C28.353933,35.9499516 28.6793875,35.8281334 29.0302964,35.7208607 L29.0302964,35.7208607 Z M22.6666617,31.1990437 C26.5430243,31.1990437 29.0302964,31.6481345 29.0302964,32.1335889 C29.0302964,32.6190433 26.5430244,33.017225 22.6666617,33.017225 C18.7902991,33.017225 16.2957543,32.6190433 16.2957543,32.0608616 C16.2957543,31.50268 18.7902991,31.1990437 22.6666617,31.1990437 Z M66.6666666,28.3333334 L41.6666666,28.3333334 C40.6666666,28.3333334 40,29 40,30 C40,31 40.6666666,31.6666666 41.6666666,31.6666666 L41.6666666,31.6666666 L66.6666666,31.6666666 C67.6666667,31.6666666 68.3333334,31 68.3333334,30 C68.3333334,29 67.6666666,28.3333334 66.6666666,28.3333334 L66.6666666,28.3333334 Z" id="路径-2" fill="url(#linearGradient-1)"></path>
            </g>
        </g>
    </g>
</svg>