<?xml version="1.0" encoding="UTF-8"?>
<svg width="68px" height="67px" viewBox="0 0 68 67" version="1.1" xmlns="http://www.w3.org/2000/svg" xmlns:xlink="http://www.w3.org/1999/xlink">
    <title>选择</title>
    <defs>
        <filter x="-0.7%" y="-1.7%" width="101.3%" height="103.3%" filterUnits="objectBoundingBox" id="filter-1">
            <feOffset dx="0" dy="2" in="SourceAlpha" result="shadowOffsetOuter1"></feOffset>
            <feGaussianBlur stdDeviation="2" in="shadowOffsetOuter1" result="shadowBlurOuter1"></feGaussianBlur>
            <feColorMatrix values="0 0 0 0 0   0 0 0 0 0   0 0 0 0 0  0 0 0 0.0629916958 0" type="matrix" in="shadowBlurOuter1" result="shadowMatrixOuter1"></feColorMatrix>
            <feMerge>
                <feMergeNode in="shadowMatrixOuter1"></feMergeNode>
                <feMergeNode in="SourceGraphic"></feMergeNode>
            </feMerge>
        </filter>
    </defs>
    <g id="pad" stroke="none" stroke-width="1" fill="none" fill-rule="evenodd">
        <g id="开卡13" transform="translate(-527.000000, -511.000000)">
            <g id="编组-6" filter="url(#filter-1)" transform="translate(45.000000, 294.000000)">
                <g id="编组-18" transform="translate(45.000000, 49.951724)">
                    <g id="卡片等级" transform="translate(0.000000, 60.331034)">
                        <g id="选择" transform="translate(446.000000, 115.717241)">
                            <path d="M10.6071979,5.56685839 C21.0894602,5.56685839 31.5717224,5.56685839 42.0539846,5.56685839 C43.9230506,5.56685839 46.259383,3.71123893 49.062982,0 L49.062982,43.7100109 C49.062982,46.4714347 46.8244058,48.7100109 44.062982,48.7100109 L0,48.7100109 L0,48.7100109 C3.73813196,45.9265817 5.60719794,43.6070574 5.60719794,41.7514379 C5.60719794,31.3565781 5.60719794,20.9617182 5.60719794,10.5668584 C5.60719794,7.80543464 7.84577419,5.56685839 10.6071979,5.56685839 Z" id="矩形" fill="#5EB73E"></path>
                            <path d="M18.6622453,23.1154236 C19.0724516,22.9058642 19.5734311,22.9975605 19.8813988,23.3385703 L26.5536922,30.7267405 C27.0182467,31.2411374 27.0323748,32.0160069 26.5868765,32.5467588 L25.2615811,34.1256719 C24.7659551,34.7161442 23.8820299,34.795923 23.2872787,34.3038627 C23.1312542,34.1747776 23.0053459,34.0135744 22.9182682,33.8314102 L18.301657,24.1735825 C18.1144983,23.7820515 18.2740925,23.3137167 18.6622453,23.1154236 Z" id="矩形" fill="#FFFFFF"></path>
                            <path d="M38.4222219,20.9671357 L25.5399609,33.8964171 C24.9955057,34.4428596 24.1079485,34.4476459 23.5575463,33.9071077 L23.4848366,33.8300684 L22.7597742,33.0009214 C22.2522279,32.4205156 22.3147017,31.5415163 22.8993134,31.0376214 L37.4246748,19.6464865 C37.7175647,19.4168339 38.1278445,19.4353665 38.3981706,19.6720744 L38.5064782,19.7891638 C38.7750544,20.1486581 38.7392718,20.6489287 38.4222219,20.9671357 Z" id="矩形备份-4" fill="#FFFFFF"></path>
                        </g>
                    </g>
                </g>
            </g>
        </g>
    </g>
</svg>