<?xml version="1.0" encoding="UTF-8"?>
<svg width="173px" height="143px" viewBox="0 0 173 143" version="1.1" xmlns="http://www.w3.org/2000/svg" xmlns:xlink="http://www.w3.org/1999/xlink">
    <title>身份证认证</title>
    <defs>
        <linearGradient x1="50%" y1="0%" x2="50%" y2="97.1092498%" id="linearGradient-1">
            <stop stop-color="#DDDDDD" offset="0%"></stop>
            <stop stop-color="#B6B6B6" offset="100%"></stop>
        </linearGradient>
        <linearGradient x1="50%" y1="0.475576362%" x2="50%" y2="97.8424477%" id="linearGradient-2">
            <stop stop-color="#DBDBDB" stop-opacity="0.245957168" offset="0%"></stop>
            <stop stop-color="#C4C4C4" stop-opacity="0.318072552" offset="100%"></stop>
        </linearGradient>
        <rect id="path-3" x="0" y="22.0223628" width="127" height="108" rx="20"></rect>
        <filter x="-12.2%" y="-19.0%" width="132.3%" height="138.0%" filterUnits="objectBoundingBox" id="filter-4">
            <feOffset dx="5" dy="0" in="SourceAlpha" result="shadowOffsetOuter1"></feOffset>
            <feGaussianBlur stdDeviation="6" in="shadowOffsetOuter1" result="shadowBlurOuter1"></feGaussianBlur>
            <feComposite in="shadowBlurOuter1" in2="SourceAlpha" operator="out" result="shadowBlurOuter1"></feComposite>
            <feColorMatrix values="0 0 0 0 0   0 0 0 0 0   0 0 0 0 0  0 0 0 0.148164336 0" type="matrix" in="shadowBlurOuter1"></feColorMatrix>
        </filter>
    </defs>
    <g id="pad" stroke="none" stroke-width="1" fill="none" fill-rule="evenodd">
        <g id="公共页面-选择认证方式" transform="translate(-879.000000, -598.000000)">
            <g id="国徽" transform="translate(886.000000, 598.000000)">
                <g id="编组-5备份-5">
                    <rect id="蒙版" fill="url(#linearGradient-1)" transform="translate(92.500000, 66.022363) rotate(12.000000) translate(-92.500000, -66.022363) " x="29" y="12.0223628" width="127" height="108" rx="20"></rect>
                    <g id="矩形备份-5">
                        <use fill="black" fill-opacity="1" filter="url(#filter-4)" xlink:href="#path-3"></use>
                        <rect stroke="#E8E8E8" stroke-width="1" stroke-linejoin="square" fill="url(#linearGradient-2)" fill-rule="evenodd" x="0.5" y="22.5223628" width="126" height="107" rx="20"></rect>
                    </g>
                </g>
                <path d="M34.5,78.1623629 C34.5,93.7329414 47.0494215,106.282363 62.62,106.282363 C78.1905785,106.282363 90.74,93.7329413 90.74,78.1623629 C90.74,62.5917844 78.1905785,50.0423628 62.7361983,50.0423628 C47.2818181,50.0423628 34.5,62.5917843 34.5,78.1623629 Z" id="路径" fill="#FBBCBE" fill-rule="nonzero"></path>
                <path d="M38.94,78.9023629 C38.94,92.4560471 49.7567463,103.322363 62.99,103.322363 C76.2232537,103.322363 87.04,92.3392049 87.04,78.9023629 C87.04,65.3486786 76.2232537,54.4823628 62.99,54.4823628 C49.7567465,54.4823628 38.94,65.3486786 38.94,78.9023629 L38.94,78.9023629 Z" id="路径" fill="#EF1401" fill-rule="nonzero"></path>
                <path d="M73.991145,70.5011863 L75.1491604,68.0635393 L75.7281679,70.6172649 L78.16,70.6172649 L76.1913741,71.8941275 C76.3071756,72.7066765 76.5387787,73.635304 76.6545802,74.4478531 C76.0755725,73.8674609 75.2649619,73.4031472 74.6859542,72.9388334 C73.8753436,73.4031471 73.0647328,73.7513824 72.3699237,74.2156962 L73.1805344,72.010206 L71.32771,70.6172649 C72.3699237,70.3851079 73.1805344,70.5011865 73.991145,70.5011863 L73.991145,70.5011863 Z M70.7487023,79.6713825 L68.3168703,78.9749119 L66.9272519,81.0643237 L66.5798474,78.742755 C66.0008397,78.3945197 65.0744276,78.2784413 64.2638168,78.1623628 L66.5798474,77.2337354 C66.5798474,76.4211865 66.4640459,75.7247159 66.4640459,74.7960884 L68.0852672,76.5372649 L70.4012977,75.9568727 L69.2432825,77.930206 C69.8222902,78.2784413 70.2854963,78.9749119 70.7487023,79.6713825 L70.7487023,79.6713825 Z M61.4845801,65.0455002 L63.1058015,60.4023628 L64.727023,65.0455002 L69.7064886,65.0455002 L65.6534351,67.8313825 L65.6534351,67.9474609 L67.0430534,72.010206 L63.221603,69.4564805 L59.4001526,72.010206 L60.789771,67.9474609 L60.789771,67.8313825 L56.620916,65.0455002 L61.4845801,65.0455002 L61.4845801,65.0455002 Z M55.8103054,75.8407943 L58.1263359,76.4211863 L59.7475572,74.6800099 C59.7475572,75.4925588 59.6317557,76.1890294 59.6317557,77.1176569 L61.9477863,78.0462844 C61.1371757,78.1623628 60.3265649,78.3945197 59.6317557,78.6266766 L59.2843512,81.0643237 L57.7789314,78.9749119 L55.4629008,79.555304 C55.9261068,78.9749118 56.5051145,78.2784412 56.9683206,77.5819707 L55.8103054,75.8407943 L55.8103054,75.8407943 Z M50.3676335,70.6172649 L50.8308397,68.0635393 L52.2204581,70.5011863 C53.0310687,70.5011863 53.8416795,70.3851079 54.6522901,70.5011863 L52.7994656,71.8941275 L53.6100764,74.0996178 C53.0310687,73.6353041 52.1046566,73.2870688 51.2940458,72.822755 C50.7150381,73.2870687 49.9044275,73.7513825 49.3254198,74.3317746 C49.4412213,73.5192256 49.6728244,72.5905981 49.788626,71.7780491 L47.82,70.5011863 L50.3676335,70.6172649 L50.3676335,70.6172649 Z M56.0419085,93.252559 L56.0419085,91.2792256 C55.5787024,91.1631472 54.3048856,90.9309903 54.0732825,90.6988334 C53.957481,90.582755 54.0732825,90.4666765 54.1890839,90.4666766 C55.2312977,90.4666766 56.2735114,90.2345197 57.3157252,89.8862844 C56.7367175,89.770206 56.2735114,89.6541275 55.6945039,89.4219707 C55.5787024,89.4219707 55.5787024,89.3058924 55.5787023,89.1898138 L55.6945039,89.0737354 C56.6209161,88.9576571 58.589542,88.3772649 59.5159543,86.7521668 L59.5159543,85.9396178 C59.5159543,85.8235394 59.5159543,85.7074609 59.6317557,85.7074609 C59.7475572,85.5913825 59.7475572,85.5913825 59.8633588,85.5913825 C59.9791605,85.5913825 60.0949619,85.5913825 60.0949618,85.7074609 C60.2107633,85.8235393 60.2107633,85.8235393 60.2107634,85.9396178 L60.2107634,86.2878531 L65.5376336,86.2878531 L65.5376336,85.9396178 C65.5376336,85.8235394 65.5376336,85.7074609 65.6534351,85.7074609 C65.7692366,85.5913825 65.7692366,85.5913825 65.8850382,85.5913825 C66.0008398,85.5913825 66.1166413,85.5913825 66.1166413,85.7074609 C66.2324428,85.8235393 66.2324428,85.8235393 66.2324428,85.9396178 L66.2324428,86.7521668 C67.390458,88.1451079 69.5906871,88.8415785 70.5170992,89.0737354 C70.6329007,89.0737354 70.6329007,89.3058924 70.5170992,89.3058922 C70.1696946,89.4219706 69.590687,89.6541275 68.8958779,89.770206 L68.8958779,89.8862844 C70.5170994,90.2345197 71.4435115,90.4666766 71.6751146,90.4666766 C72.0225192,90.4666766 71.9067177,90.582755 71.7909161,90.6988334 C71.559313,90.9309903 70.5170992,91.0470687 70.2854963,91.1631472 L70.2854963,93.252559 L78.16,93.252559 L78.16,95.9223628 L48.0516031,95.9223628 L48.0516031,93.252559 L56.0419085,93.252559 L56.0419085,93.252559 Z" id="形状" fill-opacity="0.9" fill="#FEFCFF" fill-rule="nonzero"></path>
                <path d="M41.9080602,97.3806936 L39.7022441,104.872574 C39.5861486,105.705005 39.9344353,106.418518 40.5149131,106.775274 C40.8631999,107.013112 41.2114866,107.13203 41.6758691,107.250949 C41.9080603,107.726624 42.3724426,108.08338 42.9529204,108.202299 C43.069016,108.202299 43.3012072,108.321218 43.4173028,108.321218 C43.6494941,108.915812 44.2299719,109.391486 44.9265454,109.510405 C45.1587366,109.629324 45.3909277,109.629324 45.6231189,109.629324 L45.6231189,109.748243 C45.9714057,110.342836 46.5518836,110.818511 47.2484571,110.818511 L50.9635157,111.175268 C51.6600892,111.294186 52.3566628,110.818511 52.8210452,110.342836 L53.401523,110.342836 C54.2141921,110.93743 55.1429568,110.93743 55.4912435,110.93743 L55.6073392,110.93743 C55.955626,111.056349 56.5361039,111.056349 57.0004862,111.056349 L57.2326773,111.056349 L60.135067,111.413105 L60.3672581,111.413105 C60.7155448,111.413105 60.9477361,111.294186 61.1799273,111.294186 C62.108692,111.413105 62.8052655,111.413105 63.8501256,111.294186 C64.1984124,111.413105 64.5466991,111.532024 64.8949859,111.413105 L67.7973756,111.056349 L67.9134711,111.056349 C68.2617579,111.175268 68.6100446,111.175268 69.0744269,110.93743 L69.4227137,110.93743 C69.887096,110.93743 70.8158607,110.818511 71.6285299,110.342836 L72.2090077,110.342836 C72.5572945,110.93743 73.3699635,111.294186 74.0665371,111.175268 L77.6655002,110.818511 C78.1298825,110.818511 78.5942649,110.580674 78.9425517,110.223918 C79.0586472,110.104999 79.2908384,109.867161 79.406934,109.629324 C79.6391252,109.510405 79.9874119,109.510405 80.219603,109.510405 C80.9161765,109.391486 81.4966545,108.915811 81.7288457,108.321218 C81.8449413,108.321218 82.0771325,108.202299 82.193228,108.202299 C82.773706,108.08338 83.2380883,107.726624 83.4702795,107.250949 C83.8185662,107.13203 84.2829485,107.013112 84.6312353,106.775274 C85.2117132,106.418518 85.56,105.586087 85.56,104.872574 L83.8185662,97.3806936 C83.586375,97.0239373 83.2380883,96.7860998 82.773706,96.7861 C82.6576104,96.7861 82.6576104,96.7861 82.5415148,96.9050186 C74.2987282,102.256362 67.6812799,104.991493 62.5730743,104.872574 C57.4648685,104.872574 50.9635159,102.137443 43.0690161,96.7861 C42.7207293,96.5482624 42.256347,96.6671813 42.0241558,97.0239373 C42.0241558,97.2617749 42.0241558,97.2617749 41.9080602,97.3806936 L41.9080602,97.3806936 Z" id="路径" fill="#EF1401" fill-rule="nonzero"></path>
                <path d="M67.3077783,104.119286 C67.0766953,104.119286 66.8456124,104.00544 66.7300708,103.777747 C66.6145293,103.550055 66.6145293,103.436209 66.4989877,103.322363 C66.3834463,103.09467 66.3834463,102.866978 66.6145293,102.753132 C66.8456124,102.52544 66.8456124,102.183901 66.6145293,102.070055 L66.2679048,101.728517 C66.0368218,101.500824 65.6901973,101.500824 65.4591143,101.728517 C65.3435728,101.728517 65.1124898,101.728517 64.8814069,101.614671 C64.7658654,101.500824 64.5347824,101.500824 64.3036994,101.386978 C64.0726163,101.273132 63.9570749,101.159286 63.9570749,100.931594 C63.9570749,100.590055 63.7259918,100.362363 63.3793673,100.362363 L62.8016599,100.362363 C62.4550355,100.362363 62.2239524,100.590055 62.2239524,100.931594 C62.2239524,101.159286 62.108411,101.386978 61.8773279,101.386978 C61.6462449,101.386978 61.5307034,101.500824 61.2996204,101.614671 C61.0685374,101.728517 60.8374545,101.728517 60.6063714,101.500824 C60.3752884,101.273132 60.0286639,101.273132 59.797581,101.500824 L59.4509565,101.842363 C59.2198735,102.070055 59.2198735,102.411594 59.4509565,102.52544 C59.566498,102.639286 59.6820395,102.980824 59.566498,103.09467 C59.4509565,103.208517 59.4509565,103.436209 59.3354151,103.550055 C59.2198736,103.777747 59.104332,103.891594 58.7577075,103.891594 C58.411083,103.891594 58.18,104.119286 58.18,104.460824 L58.18,105.143901 C58.18,105.48544 58.411083,105.713132 58.7577075,105.713132 C58.9887906,105.713132 59.2198735,105.826978 59.3354151,106.054671 C59.4509565,106.282363 59.4509565,106.396209 59.566498,106.510055 C59.6820394,106.737747 59.6820394,106.96544 59.4509565,107.079286 C59.2198735,107.306978 59.2198735,107.648517 59.4509565,107.762363 L59.797581,108.103901 C60.028664,108.331594 60.3752885,108.331594 60.6063714,108.103901 C60.7219129,107.990055 61.0685374,107.876209 61.2996204,107.990055 C61.4151619,108.103901 61.6462449,108.103901 61.8773279,108.217747 C62.108411,108.331594 62.2239524,108.44544 62.2239524,108.673132 C62.2239524,109.01467 62.4550355,109.242363 62.8016599,109.242363 L63.2638259,109.242363 C63.6104504,109.242363 63.8415334,109.01467 63.8415334,108.673132 C63.8415334,108.44544 63.9570749,108.217747 64.1881579,108.217747 C64.4192409,108.217747 64.5347824,108.103901 64.7658653,107.990055 C64.9969482,107.876209 65.2280312,107.876209 65.4591143,108.103901 C65.6901973,108.331594 66.0368218,108.331594 66.2679048,108.103901 L66.6145293,107.762363 C66.8456124,107.53467 66.8456124,107.193132 66.6145293,107.079286 C66.4989879,106.96544 66.3834463,106.623901 66.4989877,106.510055 C66.6145292,106.396209 66.6145292,106.168517 66.7300708,106.054671 C66.8456122,105.826978 66.9611538,105.713132 67.1922367,105.713132 C67.5388612,105.713132 67.7699443,105.48544 67.7699443,105.143901 L67.7699443,104.688517 C67.8854857,104.346978 67.6544028,104.119286 67.3077783,104.119286 L67.3077783,104.119286 Z" id="路径" fill-opacity="0.9" fill="#FFFFFF" fill-rule="nonzero"></path>
                <path d="M60.4,105.062572 C60.4,106.100108 61.3418181,107.022363 62.5527272,107.022363 C63.7636363,107.022363 64.84,106.21539 64.84,105.177854 C64.84,104.140318 63.8981819,103.218064 62.5527272,103.333346 C61.3418181,103.218064 60.4,104.025036 60.4,105.062572 Z" id="路径" fill="#DA2A22" fill-rule="nonzero"></path>
                <path d="M53,109.982363 L53,105.665696 C53,105.172363 53.3477108,104.802363 53.8113253,104.802363 C53.9272288,104.802363 54.0431325,104.802363 54.1590361,104.925696 C56.2453012,105.912363 58.4474698,106.035696 60.533735,105.295696 C59.606506,107.515696 57.1725301,109.11903 53,109.982363 L53,109.982363 Z M72.24,109.982363 L72.24,105.665696 C72.24,105.172363 71.8922892,104.802363 71.4286747,104.802363 C71.3127712,104.802363 71.1968675,104.802363 71.0809639,104.925696 C68.9946988,105.912363 66.9084338,106.035696 64.7062651,105.295696 C65.6334941,107.515696 68.1833736,109.11903 72.24,109.982363 L72.24,109.982363 Z" id="形状" fill-opacity="0.9" fill="#FFFFFF" fill-rule="nonzero"></path>
                <path d="M57.44,104.185696 C59.7077419,104.555696 61.3787097,104.802363 62.6916128,104.925696 C64.0045161,105.04903 65.9141935,104.67903 68.54,104.062363 L67.9432258,106.282363 C64.9593548,106.282363 63.1690323,106.035696 62.6916128,105.542363 C62.2141935,105.912363 60.5432257,106.15903 57.44,106.282363 L57.44,104.185696 Z" id="路径" fill-opacity="0.9" fill="#FFFFFF" fill-rule="nonzero"></path>
            </g>
        </g>
    </g>
</svg>