<?xml version="1.0" encoding="UTF-8"?>
<svg width="164px" height="123px" viewBox="0 0 164 123" version="1.1" xmlns="http://www.w3.org/2000/svg" xmlns:xlink="http://www.w3.org/1999/xlink">
    <title>存折认证</title>
    <defs>
        <linearGradient x1="50%" y1="0%" x2="50%" y2="100%" id="linearGradient-1">
            <stop stop-color="#89B1E3" offset="0%"></stop>
            <stop stop-color="#3A85B8" offset="100%"></stop>
        </linearGradient>
        <linearGradient x1="50%" y1="1.26475087%" x2="50%" y2="100%" id="linearGradient-2">
            <stop stop-color="#89B1E3" stop-opacity="0.590390079" offset="0%"></stop>
            <stop stop-color="#3A85B8" stop-opacity="0.66835118" offset="100%"></stop>
        </linearGradient>
        <path d="M4,24 L136,24 C138.209139,24 140,25.790861 140,28 L140,95 C140,103.836556 132.836556,111 124,111 L16,111 C7.163444,111 -6.94190838e-16,103.836556 0,95 L0,28 C-2.705415e-16,25.790861 1.790861,24 4,24 Z" id="path-3"></path>
        <filter x="-11.1%" y="-23.6%" width="129.3%" height="147.1%" filterUnits="objectBoundingBox" id="filter-4">
            <feOffset dx="5" dy="0" in="SourceAlpha" result="shadowOffsetOuter1"></feOffset>
            <feGaussianBlur stdDeviation="6" in="shadowOffsetOuter1" result="shadowBlurOuter1"></feGaussianBlur>
            <feComposite in="shadowBlurOuter1" in2="SourceAlpha" operator="out" result="shadowBlurOuter1"></feComposite>
            <feColorMatrix values="0 0 0 0 0   0 0 0 0 0   0 0 0 0 0  0 0 0 0.149803322 0" type="matrix" in="shadowBlurOuter1"></feColorMatrix>
        </filter>
        <linearGradient x1="12.0852601%" y1="48.7258515%" x2="93.2373548%" y2="50.8002047%" id="linearGradient-5">
            <stop stop-color="#D2EBFF" offset="0%"></stop>
            <stop stop-color="#F3F9FF" offset="100%"></stop>
        </linearGradient>
    </defs>
    <g id="pad" stroke="none" stroke-width="1" fill="none" fill-rule="evenodd">
        <g id="公共页面-选择认证方式" transform="translate(-1290.000000, -609.000000)">
            <g id="存折认证" transform="translate(1297.000000, 609.000000)">
                <rect id="矩形" stroke="#9BC1EB" fill="url(#linearGradient-1)" x="20.5" y="0.5" width="135" height="91" rx="12"></rect>
                <g id="矩形备份-9">
                    <use fill="black" fill-opacity="1" filter="url(#filter-4)" xlink:href="#path-3"></use>
                    <path stroke="#9BC1EB" stroke-width="1" d="M136,24.5 C136.966498,24.5 137.841498,24.8917508 138.474874,25.5251263 C139.108249,26.1585017 139.5,27.0335017 139.5,28 L139.5,28 L139.5,95 C139.5,99.2802068 137.765103,103.155207 134.960155,105.960155 C132.155207,108.765103 128.280207,110.5 124,110.5 L124,110.5 L16,110.5 C11.7197932,110.5 7.84479319,108.765103 5.03984489,105.960155 C2.23489659,103.155207 0.5,99.2802068 0.5,95 L0.5,95 L0.5,28 C0.5,27.0335017 0.891750844,26.1585017 1.52512627,25.5251263 C2.15850169,24.8917508 3.03350169,24.5 4,24.5 L4,24.5 Z" stroke-linejoin="square" fill="url(#linearGradient-2)" fill-rule="evenodd"></path>
                </g>
                <rect id="矩形" fill="url(#linearGradient-5)" x="2" y="26" width="136" height="22" rx="2"></rect>
                <g id="成都农商" transform="translate(6.000000, 31.000000)" fill="#5695C8">
                    <path d="M10.8917856,3.6023174 L9.24891372,3.6023174 C9.59445479,4.23753362 9.79515829,4.92861577 9.79515829,5.64866543 C9.79515829,7.92468446 7.92261535,9.7992965 5.61555969,9.7992965 C3.33954066,9.7992965 1.46492862,7.92675357 1.46492862,5.64866543 C1.46492862,3.34367887 3.33954066,1.46906683 5.61555969,1.46906683 C5.84729981,1.46906683 6.07697083,1.49803435 6.30664184,1.52700186 L6.30664184,3.6023174 L3.59611008,3.6023174 L3.59611008,7.66604593 L7.66397683,7.66604593 C7.66397683,2.96917029 7.66397683,5.82247052 7.66397683,1.78564039 L7.66397683,0.374508587 C7.23153321,0.200703497 6.77012208,0.086902545 6.31078005,0.028967515 C6.08110904,0 5.84936892,0 5.61969791,0 C2.50775916,0 0,2.53672667 0,5.64866543 C0,8.76060418 2.50775916,11.2683633 5.61969791,11.2683633 C8.73163666,11.2683633 11.2683633,8.76060418 11.2683633,5.64866543 C11.2662942,4.95758328 11.1504242,4.26443203 10.8917856,3.6023174 Z M6.30871095,6.31284916 L4.95344507,6.31284916 L4.95344507,4.95758328 L6.30871095,4.95758328 L6.30871095,6.31284916 L6.30871095,6.31284916 Z" id="形状"></path>
                    <g id="编组" transform="translate(14.639813, 0.838888)" fill-rule="nonzero">
                        <path d="M37.0382337,4.30698423 C36.7444203,4.26560206 36.0657528,4.16007755 35.8526347,3.996618 C35.9064315,3.93454475 35.9064315,3.93454475 36.1609318,3.80005272 C36.6306194,3.38623107 36.9347783,3.12966165 36.1340334,2.9144744 C36.1278261,2.82757186 36.0988586,2.82757186 36.0388544,2.77377504 C36.0347162,2.23994512 36.3202531,1.68956234 36.5561315,1.26125694 C36.4940582,0.731565234 35.9767812,0.379816838 35.4263984,0.443959192 C35.3436341,0.508101547 35.2298331,0.57431301 35.1201704,0.669491988 C34.9815401,0.766740074 34.8408408,0.86398816 34.7022105,0.961236246 C34.5925478,1.05641522 34.5077144,1.12262669 34.42495,1.18676904 C34.2821816,1.25504961 34.2821816,1.25504961 34.195279,1.26125694 C33.9014656,0.777085615 33.3676357,1.0750372 32.9993345,1.24677318 C32.9972654,1.21780566 32.9662287,1.18883815 32.9641596,1.15987063 C33.0758915,1.06469166 33.0758915,1.06469166 33.2372819,0.847435294 C33.3014243,0.487410465 33.0365784,-0.0277974805 32.5730982,0.00117003451 C32.5937893,0.326020024 32.5937893,0.326020024 32.5730982,0.474995816 C32.1572074,1.30056999 31.6875199,2.1592499 31.1185151,2.87516134 C30.7833196,3.10276325 30.8164253,3.16069828 30.9219498,3.47934094 C31.3316332,3.51244667 32.2668702,2.12200595 32.4799883,1.81370883 C32.5958584,1.80750151 32.5958584,1.80750151 32.9786434,1.87164386 C32.8524278,2.20477028 32.2916995,2.5358276 31.9502966,2.67652696 C32.0558211,2.96620211 32.2047969,3.0158607 32.4468826,3.17932025 C32.4386061,3.50623935 31.9337437,3.83315845 31.6213084,3.9717887 C31.6047555,4.149732 31.5840644,4.2987078 31.5964791,4.50561862 C31.9275364,4.69183836 32.3620491,4.16214665 32.5979275,4.20559793 C32.5875819,4.5014804 32.2999759,5.97261634 33.0758915,5.80501858 C33.2124526,5.20497719 33.7069695,4.70011479 33.6697255,4.11041895 C33.6097214,4.11455716 33.3097007,4.42906161 33.0324402,4.6525253 C32.9600214,4.41871607 33.0820988,4.05662213 33.1565867,3.8455731 C33.5766157,3.58279635 33.5766157,3.58279635 33.6324816,3.52072311 C33.6159287,3.25587726 33.4959204,3.20414955 33.1979689,3.10276325 C33.123481,2.84205561 33.7524899,2.62479925 33.7276606,2.24201423 C33.5786848,2.19235563 33.4566074,2.11166041 33.3386682,2.0578636 L33.3324609,1.96889195 C33.5559246,1.80750151 33.7504207,1.64611106 34.0069902,1.54265565 C34.0152666,1.68956234 34.1063074,1.74335915 34.2283847,1.82612348 C34.3649459,3.0903486 33.5621319,5.18428611 34.8180806,6.14228321 C34.844979,6.11124659 34.8739465,6.10917748 34.9318815,6.10503927 L35.0125768,5.98089277 C35.1449997,5.76570552 35.2774226,5.55051827 35.4119146,5.36429853 C35.5981344,5.08703803 35.7553866,4.80977752 35.9457446,4.56148454 C36.0016105,4.52837881 36.0595455,4.52424059 36.1174805,4.52217148 C36.5975136,4.7290823 37.0796159,4.99599726 37.5865474,5.17187146 C37.8017346,4.85115969 37.3092869,4.43733805 37.0382337,4.30698423 Z M34.7270398,1.37091967 C34.7829057,1.33781394 34.7829057,1.33781394 34.9567108,1.3274684 C35.0415443,1.29229356 35.0974102,1.25918783 35.1553452,1.2260821 C35.5505449,1.02330949 35.6912442,0.926061406 35.7491793,0.923992298 C35.7615939,1.1019356 35.742972,1.27987891 35.72435,1.45782222 C35.5505449,1.46816776 35.3746707,1.4785133 35.227764,1.45989133 L35.1718981,1.49299706 C34.9484344,1.6543875 34.8387717,1.75163558 34.7539382,1.81577794 C34.7270398,1.84681456 34.6980723,1.84888367 34.6711739,1.87992029 C34.6608284,1.69990788 34.6794503,1.52196457 34.7270398,1.37091967 Z M34.8222188,2.90619797 C34.9298124,2.75101485 35.0643045,2.59376263 35.2298331,2.4365104 C35.3684634,2.3102948 35.476057,2.1840792 35.5588213,2.09096933 C35.5691669,2.26891264 35.4367439,2.48409989 35.362256,2.69514893 C35.3332885,2.69721804 35.304321,2.69928715 35.2484551,2.73239288 C35.1077557,2.80067345 34.9670564,2.89792153 34.826357,2.96620211 C34.7973895,2.96827121 34.7704911,2.99930784 34.7415236,3.00137695 C34.768422,2.96827121 34.7953204,2.93723459 34.8222188,2.90619797 Z M34.7353163,2.4365104 L34.8511863,2.43030308 C34.8553245,2.48823811 34.8304952,2.55031135 34.8035968,2.58134798 C34.7746293,2.58341709 34.7477309,2.61445371 34.7477309,2.61445371 L34.7353163,2.4365104 Z M34.9049831,4.23249633 C34.9711946,4.34629728 35.1470688,4.36491926 35.3519105,4.38354123 C35.4408822,4.40630142 35.5277847,4.40216321 35.5877888,4.42699251 C35.5877888,4.42699251 35.5898579,4.45596002 35.6208946,4.48492754 C35.5381302,4.54906989 35.4553659,4.61321224 35.3705325,4.6773546 C35.2319022,4.77460269 35.093272,4.90288739 34.9546417,5.029103 L34.6773812,5.25256668 C34.4870233,4.99806637 34.5656494,4.4000941 34.5470274,4.07731322 C34.6215153,3.86419507 34.7270398,3.68211355 34.8656701,3.55382884 C34.9753328,3.42761324 35.1139631,3.33036515 35.2836299,3.26208458 C35.5401994,3.15656006 35.7946997,3.05310465 36.0823057,2.97447854 C36.0843748,3.00344605 36.0864439,3.03448268 36.0864439,3.03448268 C35.8484965,3.43382056 35.6560694,3.59314189 35.3125974,3.73384125 C35.227764,3.76901609 35.1408615,3.77315431 35.0270605,3.81039826 C34.9463653,3.93454475 34.921536,3.99454889 34.8987758,4.08558965 C34.8718774,4.14559379 34.8718774,4.1745613 34.9049831,4.23249633 Z M42.9082937,2.30201837 C42.8482896,2.00613589 44.0007828,1.26746426 44.1497586,0.913646757 C44.0318195,0.174975125 43.1752087,0.617764282 42.7013829,0.677768421 C42.5255087,0.855711727 42.3475654,1.00261841 42.2296262,1.24056585 C42.2585937,1.21159834 42.2875612,1.21159834 42.3185979,1.21159834 C42.6434479,0.915715865 42.761387,1.00468752 43.1152045,1.32953751 C43.2331437,1.77232667 42.1096179,2.3351241 41.7558004,2.6889416 C41.7268329,2.6889416 41.6957963,2.71790912 41.6957963,2.74894574 C41.6957963,2.92688905 41.6357921,3.10276325 41.7558004,3.25173904 C41.7847679,3.28070655 41.8137355,3.30967407 41.8447721,3.34071069 C42.5834437,3.28277566 42.7013829,2.69101071 43.4400545,3.07586484 C43.5000587,3.69659731 43.7049004,4.64217976 43.4400545,5.26291222 C42.9682978,5.38085139 42.5834437,5.14497306 42.1696221,4.96702975 C42.1385854,4.96702975 42.1385854,4.99599726 42.1385854,4.99599726 C42.3454963,5.17394057 42.5813746,5.34981477 42.819322,5.55672559 C42.7593179,5.55672559 42.7303504,5.55672559 42.7013829,5.58569311 C43.0262329,5.79260393 43.3821195,6.20642557 43.793872,6.20642557 C43.793872,6.17745805 43.8249086,6.11745392 43.8538762,6.05951889 C44.4456411,5.49879056 43.9718153,4.31526066 44.0897545,3.54762151 C44.060787,3.28070655 44.060787,2.98482408 44.060787,2.69101071 C44.0318195,2.63307568 44.0007828,2.60203906 43.9718153,2.57307154 C44.3546003,2.45513238 45.1532761,2.77998237 45.3601869,2.45513238 C45.2712153,1.26953337 43.5290262,2.21511582 42.9082937,2.30201837 Z M41.7558004,1.23849675 C41.8447721,1.09159006 41.8447721,0.884679242 41.7558004,0.706735936 C41.6088937,0.410853461 41.2840438,0.20394264 40.9571247,0.292914293 C40.8971205,0.617764282 40.7791813,0.764670966 40.4543314,0.942614272 C39.9225705,1.14952509 39.9825747,1.35643591 40.0405097,1.88819673 C40.0694772,1.91716424 40.1294814,1.91716424 40.1584489,1.94613176 C40.3653597,1.8571601 40.543303,1.79922507 40.7502138,1.79922507 C40.9571247,2.00613589 40.5722705,2.59790084 40.3074247,2.68480339 C40.1894855,3.09862503 39.6866922,3.5703817 39.3618422,3.83729666 C39.3618422,3.80832915 39.3328747,3.74832501 39.3328747,3.7193575 C39.0969964,3.80832915 39.0969964,4.31112245 39.0680289,4.51803327 C39.4218464,4.42906161 39.4218464,4.42906161 39.5997897,4.34008996 C39.777733,4.19318328 40.1915546,3.69038998 40.427433,3.69038998 C40.3674288,4.54700078 40.160518,5.19670076 40.7233154,5.9374415 L40.8412546,5.9374415 C40.8722912,5.79053482 40.9881613,4.28215493 41.0771329,3.80832915 C41.0481654,3.80832915 41.0481654,3.80832915 41.0171288,3.83729666 C40.9281571,4.16214665 40.8391855,4.51803327 40.7812505,4.84288326 C40.7522829,4.84288326 40.7233154,4.84288326 40.6922788,4.81391574 L40.6922788,4.46009824 C40.7812505,3.92833743 40.7233154,3.27863745 41.0481654,2.83584829 C41.3440479,2.5109983 41.4909546,2.53996581 41.4909546,2.09717666 C41.4019829,1.86129832 41.1950721,1.71232253 41.1371371,1.44747668 C41.3109422,1.35850502 41.5199221,1.29850088 41.7558004,1.23849675 Z M19.4115008,3.92833743 C19.3225292,3.69245909 19.85429,3.33657248 19.9742983,3.18966579 C19.9142941,2.89378332 19.5004725,2.33305499 19.20459,2.77584415 C19.20459,2.92481994 19.20459,3.04275911 19.146655,3.16069828 C19.0866508,3.18966579 19.0287158,3.18966579 18.9997483,3.21863331 L18.9997483,3.33657248 C18.9107766,3.36553999 18.8528416,3.42554413 18.7638699,3.45451164 C18.4100524,3.63245495 18.2031416,3.7214266 18.2321091,4.2242199 C18.3190117,4.37112658 18.5569591,4.40216321 18.7638699,4.40216321 L18.9707808,4.40216321 C18.9707808,4.43113072 18.9707808,4.43113072 18.9707808,4.46009824 L18.9418133,4.46009824 C18.8838782,4.52010237 18.8238741,4.5780374 18.7638699,4.66700906 C18.5279916,4.93392402 18.172105,5.25877401 17.8782916,5.25877401 C17.8782916,4.5780374 17.9962308,3.92833743 17.9962308,3.27863745 C17.78932,2.98275497 17.8782916,2.95378746 18.0541658,2.65790498 L18.1431375,2.65790498 C18.3790158,2.8648158 18.5859266,2.83584829 18.7638699,2.71790912 C18.9997483,2.62893747 19.376326,2.34340053 19.4135699,2.30408748 C19.9763674,1.86129832 20.3591524,1.89026583 20.0053349,1.18056172 C19.5915132,0.855711727 19.3846024,0.795707589 18.8818091,0.855711727 C18.9997483,0.470857599 18.9397441,0.263946778 18.7638699,0.14600761 C18.43902,-0.0609032119 17.7293158,0.206011748 17.7293158,0.559829252 C17.847255,0.441890084 18.1431375,0.292914293 18.3190117,0.381885946 C18.3790158,0.617764282 18.1410684,1.00261841 18.0831333,1.20952923 C17.847255,1.3274684 17.3154942,1.71232253 17.0485792,1.71232253 C16.9596076,1.47644419 16.8127009,1.26953337 16.6637251,1.03158593 C16.6637251,1.20952923 16.6926926,1.3274684 16.6637251,1.62335087 C16.4568143,1.97716838 16.3099076,2.33305499 15.896086,2.50892919 C15.8381509,2.83377918 15.896086,3.12966165 16.1029968,3.39657661 C16.6947617,3.39657661 17.0775468,2.36202251 17.58034,2.36202251 C17.4334334,2.6868725 16.4878509,4.46009824 16.2499035,4.5780374 C16.2188668,4.72494409 16.2188668,4.72494409 16.0429926,4.78494823 C16.0740293,4.63804154 16.1898993,4.48906575 16.1609318,4.34215907 C15.896086,4.66700906 15.7181427,5.10979822 15.7181427,5.49465234 C15.7781468,5.49465234 15.8671184,5.49465234 15.9250535,5.52361986 C16.5147493,5.13876573 17.1065143,4.34008996 17.4313643,3.77936163 C17.4603318,3.77936163 17.4603318,3.80832915 17.4892993,3.80832915 C17.4892993,3.95523583 17.4003276,4.60700492 17.3423926,5.43464821 C17.5182668,5.7594982 17.6962101,5.96640902 17.9320884,6.26229149 C17.9631251,6.26229149 18.0210601,6.23332398 18.0810642,6.23332398 C18.2879751,5.87950647 18.5528209,5.55465648 18.7597317,5.22773738 C18.937675,4.99185905 19.0845817,4.75598071 19.2025209,4.48906575 C19.262525,4.48906575 19.262525,4.48906575 20.1501725,4.81391574 C20.3860508,4.99185905 20.9757466,5.43464821 21.2736982,5.43464821 C21.3626699,4.34215907 20.2970791,4.2242199 19.4115008,3.92833743 Z M18.5259225,1.53437922 C18.5859266,1.50541171 18.6728292,1.44540757 18.7618008,1.35643591 C18.9687117,1.23849675 19.20459,1.11848847 19.3535658,1.20746012 C19.2645941,1.5033426 19.0576833,1.8571601 18.7618008,2.09510755 C18.5838575,2.24201423 18.3769467,2.3599534 18.2010725,2.3599534 C18.2590075,2.06614003 18.4079833,1.80129418 18.5259225,1.53437922 Z M26.9202945,0.795707589 L26.8892579,0.795707589 C26.8002863,0.323950916 26.5064729,0.0880725795 26.0926512,0.0570359563 L25.7967688,0.0570359563 C25.7077971,0.0570359563 25.6188255,0.0860034713 25.5298538,0.0860034713 C25.5298538,0.292914293 25.6767605,0.468788491 25.7967688,0.617764282 C25.8567729,0.706735936 25.9147079,0.824675104 25.9147079,0.913646757 C25.8857404,0.942614272 25.8257363,0.973650895 25.7967688,1.00261841 C25.6188255,1.06055344 25.4408822,1.12055758 25.2339713,1.18056172 C24.7622147,1.29850088 24.2283847,1.35850502 23.9035348,1.65231839 C23.8145631,1.62335087 23.8145631,1.62335087 23.7566281,1.53437922 C23.2828023,1.6812859 23.4317781,2.06614003 23.6676564,2.33098588 C24.1394131,2.33098588 24.4642631,1.8302617 24.9691255,1.8302617 C24.8201497,2.12614417 24.8801538,2.45099416 25.1449997,2.6868725 C25.1449997,2.89378332 24.9380889,2.98275497 24.8201497,3.12966165 C24.6442755,3.48347916 24.1704497,5.7594982 24.8801538,5.7594982 C25.0270605,5.37464407 24.8801538,4.84288326 24.9091213,4.45802913 C25.1449997,4.34008996 25.1739672,4.34008996 25.2339713,4.34008996 L25.2629388,4.34008996 C25.322943,4.66493995 25.380878,5.13876573 25.7946997,5.22566828 L25.8236672,5.2567049 C25.8836713,5.04979408 25.9416063,5.01875745 26.0905821,5.01875745 L26.3574971,5.01875745 C26.5044038,5.2567049 26.7113146,5.46154661 26.9182254,5.66845743 C27.0651321,5.81536412 27.1830713,5.93537239 27.3030795,6.08227908 C27.3920512,6.17125073 27.5099904,6.26022238 27.6279295,6.34919404 C27.6879337,6.32022652 27.7169012,6.32022652 27.7748362,6.32022652 C28.1596903,5.63948992 28.0107146,4.98978994 27.9217429,4.25111831 C27.9217429,3.7193575 27.9217429,3.2165642 27.8927754,2.7137709 C27.7458687,2.38892091 27.5368888,2.29994926 27.1830713,2.18201009 L27.1830713,2.09303844 C27.4189496,1.8571601 27.3899821,1.59024514 27.1541038,1.38333432 L27.1541038,1.29436267 C27.4189496,1.26539515 27.7148321,1.26539515 28.0107146,1.23642764 C28.5424754,1.32539929 28.5424754,1.32539929 28.7493862,1.32539929 C28.7783537,1.29643178 28.8073212,1.23642764 28.8073212,1.20746012 C28.7224878,0.292914293 27.5679254,0.766740074 26.9202945,0.795707589 Z M26.0905821,1.8302617 C26.2374888,1.6812859 26.4464687,1.56334674 26.5933754,1.50541171 C26.5933754,1.50541171 26.6223429,1.53437922 26.6533796,1.56541584 C26.5644079,1.86129832 26.3285296,2.06820914 26.0926512,2.27511996 C26.0036796,2.33305499 25.8857404,2.39305913 25.7967688,2.45306327 C25.7967688,2.45306327 25.7967688,2.45306327 25.7967688,2.42409575 L25.7967688,2.27718907 C25.8257363,2.09717666 25.9436755,1.94820086 26.0905821,1.8302617 Z M25.8547038,2.8648158 C25.972643,2.8648158 26.030578,2.80481166 26.0905821,2.83584829 C26.2374888,3.3676091 26.5044038,3.3676091 26.0905821,3.66349157 C26.0616146,3.69245909 26.030578,3.69245909 26.0016105,3.72349571 L26.0016105,3.63245495 C26.1195497,3.24966993 26.0036796,3.18966579 25.8547038,2.8648158 Z M25.2339713,3.69245909 C25.1739672,3.78143074 25.1160322,3.83936577 25.0270605,3.89936991 C24.998093,3.60348744 24.8801538,3.10276325 25.2339713,2.92481994 C25.2629388,2.92481994 25.2939755,2.89585243 25.322943,2.89585243 C25.3519105,3.01379159 25.4408822,3.01379159 25.5298538,3.13173076 C25.4698497,3.33864158 25.3829471,3.51451578 25.2339713,3.69245909 Z M25.2939755,1.89026583 C25.265008,1.86129832 25.265008,1.86129832 25.2339713,1.8323308 C25.2050038,1.80336329 25.2050038,1.77232667 25.2050038,1.71439164 L25.2339713,1.71439164 C25.4408822,1.62541998 25.5898579,1.59645247 25.7967688,1.53644833 L25.8257363,1.53644833 C25.7967688,1.56541584 25.7967688,1.56541584 25.7967688,1.56541584 C25.7077971,1.74129004 25.5008863,1.80129418 25.2939755,1.89026583 Z M25.5898579,4.10628073 C25.5898579,3.98834156 25.6788296,3.89936991 25.7967688,3.83936577 C25.8567729,3.81039826 25.9147079,3.78143074 25.972643,3.78143074 C25.972643,3.78143074 25.972643,3.81039826 26.0036796,3.81039826 C25.9147079,3.89936991 25.8567729,3.95730494 25.7967688,3.98834156 C25.7367646,4.01730908 25.6767605,4.04627659 25.5898579,4.10628073 Z M26.0905821,4.5780374 C26.0016105,4.63804154 25.9126388,4.66700906 25.8236672,4.69597657 C25.7946997,4.66700906 25.7946997,4.63804154 25.7946997,4.63804154 L25.7946997,4.46009824 C25.9126388,4.40216321 26.0016105,4.37112658 26.0905821,4.31319155 C26.2374888,4.25525652 26.3264605,4.19525239 26.3574971,4.19525239 C26.3864646,4.2242199 26.3864646,4.25525652 26.3864646,4.28422404 C26.2995621,4.40216321 26.2105904,4.49113486 26.0905821,4.5780374 Z M27.4210187,5.40568069 C27.3920512,5.40568069 27.3920512,5.40568069 27.3610146,5.43464821 C27.1541038,5.34567655 27.0361646,5.31670904 26.9182254,5.2567049 C26.7402821,5.19670076 26.680278,5.16773325 26.4754363,5.04979408 C26.4464687,5.04979408 26.4464687,5.02082656 26.4464687,4.98978994 C26.5064729,4.96082242 26.5064729,4.96082242 26.9182254,4.90081829 C26.8871888,4.7539116 26.8871888,4.60493581 26.8871888,4.45802913 C26.9182254,4.42906161 26.9182254,4.42906161 26.9182254,4.42906161 C27.1541038,4.25111831 27.0961687,4.01523997 26.9182254,3.86626418 C26.8292538,3.77729253 26.7113146,3.68832087 26.5623388,3.65935336 C26.5623388,3.65935336 26.5623388,3.63038584 26.5623388,3.59934922 C26.680278,3.5703817 26.7982171,3.54141419 26.9182254,3.48141005 C27.0651321,3.45037343 27.1830713,3.42140591 27.3320471,3.42140591 C27.4210187,4.07524411 27.3920512,4.7270132 27.4210187,5.40568069 Z M27.2451445,2.95378746 L27.1561729,2.95378746 C27.1272054,2.95378746 27.1272054,2.92481994 27.1272054,2.89585243 C27.0672012,2.89585243 27.0092662,2.92481994 26.9202945,2.92481994 L26.6823471,2.92481994 C26.6823471,2.71790912 26.6823471,2.71790912 26.6823471,2.5109983 C26.7713187,2.5109983 26.8602904,2.5109983 26.9202945,2.53996581 C27.1272054,2.56893333 27.2451445,2.71790912 27.2451445,2.95378746 Z M12.3144596,2.78618969 C12.283423,2.57927887 13.77525,0.588796767 12.3868784,0.717081477 C12.2999759,0.835020645 12.2110042,0.955028921 12.1241017,1.07296809 C12.0061625,1.22194388 11.8592558,1.33988305 11.6833816,1.45989133 C11.3564625,1.25504961 11.5323367,1.04813879 11.1495517,1.0502079 C11.1495517,1.0502079 11.1205842,1.02124038 11.0916167,1.02124038 C10.94471,1.34815948 11.0378199,1.84888367 10.981954,2.20477028 C10.8640148,2.23580691 10.715039,2.14683525 10.5970998,2.08890022 C10.5660632,1.8819894 10.8019415,1.76198112 10.9178116,1.64197285 C10.94471,1.31712286 10.9136734,1.11021204 10.4998517,1.11435025 C10.4708842,1.14331777 10.4419167,1.20332191 10.4108801,1.23228942 L10.3819126,1.29229356 C10.3529451,1.29229356 10.3219084,1.26332605 10.2929409,1.26332605 C10.2329368,1.20539102 10.2329368,1.11641936 10.2039693,1.02744771 C9.90601768,0.793638481 9.84394444,0.321881808 9.51702534,0.174975125 C9.4570212,0.14600761 9.36804955,0.117040095 9.25011038,0.148076718 C9.1032037,0.208080856 9.04526867,0.326020024 9.13424032,0.474995816 C9.19217535,0.446028301 9.22321197,0.443959192 9.281147,0.414991677 C9.39908617,0.561898361 9.25424859,0.975720003 9.22735019,1.15366331 C9.02043937,1.21366745 8.43281263,1.57369228 8.28383684,1.42678559 C8.25486933,1.42678559 8.25486933,1.45575311 8.25486933,1.48678973 C8.46384926,1.86957475 8.61282505,1.98751392 9.0287158,2.19028653 C9.05975242,2.48409989 8.70800403,2.63514479 8.5010932,2.78412058 C8.5010932,2.8130881 7.55964897,3.35312534 6.99685153,3.32829604 C6.9389165,3.35726356 6.90994899,3.38830018 6.87891236,3.4172677 C6.85822128,4.6007976 7.55964897,3.64900782 8.20934895,3.55589795 C8.20934895,3.52693043 8.20934895,3.46692629 8.23831646,3.43588967 C8.38522314,3.37588553 8.70800403,3.10897057 8.8280123,3.28484477 C8.74317887,3.84764221 8.12658462,4.35457372 7.77483622,4.77046447 C7.7437996,4.74149695 7.7437996,4.74149695 7.71483208,4.74149695 C7.62792954,4.94840778 7.59896202,5.09738357 7.60103113,5.3332619 C8.10175532,5.09324535 8.27556041,4.59045205 8.68731294,4.31939888 C8.71834957,4.67321638 8.66455275,5.41395712 9.0804435,5.64776635 L9.0783744,5.38085139 L9.67013935,5.37671318 C9.759111,5.49465234 9.94119252,5.96640902 10.1170667,5.96433991 C10.1750018,5.7863966 10.2619043,5.63742081 10.3198393,5.46154661 L10.3508759,5.4325791 C10.3777744,5.28567241 10.4067419,5.13669662 10.4357094,4.95875332 C10.5495103,4.48492754 10.6053763,3.92419921 10.4253638,3.5703817 C10.3943272,3.48347916 10.3653597,3.42347502 10.3053556,3.36553999 C10.1874164,3.21863331 9.97843647,3.13173076 9.682554,3.13379987 C9.62461897,3.16276739 9.59565145,3.22277152 9.53564731,3.25380815 C9.5066798,3.28484477 9.47564317,3.31381229 9.44667566,3.31381229 C9.44667566,3.22484063 9.50461069,3.13586898 9.5335782,3.07586484 C9.7094524,2.89792153 10.0053349,2.77584415 10.2991482,2.71584001 C10.3591524,2.68480339 10.3881199,2.68480339 10.4170874,2.68480339 C10.7419374,2.62273014 11.0378199,2.62066103 11.155759,2.67859606 L11.1847266,2.67859606 L11.155759,2.79653523 L11.1329989,3.80212182 C11.1040313,3.80212182 11.1040313,3.80212182 11.0440272,3.80212182 C11.0150597,3.89109348 11.0750638,3.95109762 11.1061004,4.06903678 C11.0771329,4.04006927 11.0460963,4.01110175 11.0171288,4.01110175 C10.9881613,4.10007341 11.0191979,4.12904092 11.0771329,4.18904506 C11.1992103,4.80770842 11.0295434,5.69742495 11.1805883,6.3160883 C11.2405925,6.43402747 11.2716291,6.58093416 11.3606008,6.66990581 C11.3606008,6.66990581 11.3895683,6.66990581 11.4185358,6.64093829 C11.5613043,5.96020169 11.557166,5.25049757 11.6109629,4.54079346 C11.9068453,4.627696 12.0558211,4.65666352 12.1447928,4.68356192 C12.2337644,4.71252944 12.2627319,4.71252944 12.3517036,4.77046447 C12.4696428,4.88840364 12.589651,5.00634281 12.7965619,5.0042737 C13.1524485,4.13938646 13.3821195,3.28277566 12.3144596,2.78618969 Z M9.54392374,3.72349571 C9.71979794,3.66349157 9.86877373,3.63245495 9.95774539,3.63038584 C10.046717,3.92626832 10.2039693,4.95875332 9.73014348,5.05186319 L9.55220018,5.05393229 C9.43426101,5.05393229 9.28735433,5.08496892 9.16734605,5.0560014 C9.0783744,4.96702975 9.10734191,4.78908644 9.1052728,4.67114727 C9.25217949,4.61114314 9.40115528,4.58010651 9.54806196,4.52010237 C9.66600113,4.48906575 9.75497278,4.46009824 9.84394444,4.42906161 C9.84187533,4.25111831 9.7839403,4.22215079 9.69289954,4.10628073 L9.54599285,4.10628073 C9.39908617,4.10628073 9.25011038,4.16835398 9.07423618,4.19732149 C9.07216707,4.01937819 9.07216707,4.01937819 9.1301021,3.81246737 C9.24804127,3.81246737 9.39494795,3.75453234 9.54392374,3.72349571 Z M9.53564731,2.5109983 L9.5335782,2.30408748 C9.61841164,1.91923335 9.9101559,1.38540343 10.29501,1.38126521 L10.3239775,1.38126521 C10.3239775,1.41023273 10.3239775,1.43920024 10.29501,1.49920438 C10.2101766,1.82612348 9.76945654,2.24408334 9.53564731,2.5109983 Z M10.4191565,2.26891264 C10.390189,2.29788015 10.3591524,2.29788015 10.3012174,2.29994926 C10.3012174,2.29994926 10.3012174,2.27098175 10.3012174,2.23994512 C10.3301849,2.17994098 10.390189,2.11993685 10.4191565,2.11993685 C10.5081282,2.05993271 10.5660632,2.11993685 10.5681323,2.26684353 L10.4191565,2.26891264 Z M11.155759,2.02682698 C11.155759,2.05579449 11.1267915,2.08683111 11.097824,2.08683111 C11.0957549,1.90888781 11.1247224,1.73301361 11.1516208,1.52403368 L11.1516208,1.5550703 C11.1805883,1.5550703 11.211625,1.5550703 11.2405925,1.58403782 C11.2426616,1.69990788 11.2736982,1.9068187 11.155759,2.02682698 Z M12.1468619,4.26560206 C11.9999552,4.23870366 11.8220119,4.18076863 11.6440686,4.15180111 C11.5799262,3.56003616 11.575788,2.99930784 11.6316539,2.40754289 C11.6606214,2.34753875 11.9544348,2.02061965 12.130309,1.81370883 C12.2192807,1.72473718 12.2772157,1.66473304 12.2772157,1.66473304 C12.2503173,1.87164386 12.1923823,2.02061965 12.1344472,2.16752633 C12.0744431,2.31443302 12.0165081,2.43444129 11.900638,2.58341709 C11.7558004,3.1151779 11.9047762,3.23311707 12.1427237,3.32001961 C12.320667,3.37795464 12.5275778,3.43588967 12.7055211,3.58279635 C12.7386268,4.20145971 12.531716,4.29250047 12.1468619,4.26560206 Z M5.06223535,4.82012307 C5.00430032,5.06634694 5.00430032,5.40568069 4.85532453,5.62086794 C4.4704704,5.68294119 3.8662908,4.79943198 3.65937998,4.21387436 C3.59937585,4.08972787 3.57040833,3.96765048 3.57040833,3.93661386 C3.59937585,3.87454061 3.63041247,3.84350399 3.65937998,3.78349985 C3.77731915,3.56624349 3.92629494,3.35105623 4.04423411,3.1669056 C4.16217328,2.79653523 3.98422997,2.70549447 3.77731915,2.42823397 C3.71938412,2.42823397 3.6883475,2.39719735 3.65937998,2.39719735 C3.39246502,2.36616072 3.48143668,2.48823811 3.48143668,2.82757186 C3.24555834,3.35105623 3.24555834,3.35105623 3.21452172,3.32001961 C3.06554593,2.98068586 3.06554593,2.98068586 2.82966759,2.24201423 C2.91863924,1.96475373 3.24348923,1.90474959 3.45040005,1.71852985 C3.42143254,1.37919611 3.15451758,1.28815534 2.8586351,1.16400885 C2.76966345,1.25711872 2.6806918,1.31712286 2.56275263,1.31712286 C2.20893513,0.60948785 2.14893099,0.42326811 1.41025935,0.270154102 C1.38129184,0.270154102 1.35232432,0.270154102 1.3212877,0.239117479 C1.20334853,0.177044233 1.08540936,0.114970986 0.936433573,0.114970986 C0.936433573,0.177044233 0.907466058,0.268084994 0.907466058,0.361194864 L1.02540523,0.361194864 C1.11437688,0.483272248 1.26128356,0.607418741 1.41025935,0.731565234 C1.73510934,0.977789112 2.05995933,1.25504961 2.05995933,1.65645661 C1.824081,1.77853399 1.61717018,1.90268048 1.41025935,2.02475787 C1.23231605,2.14683525 1.08540936,2.27098175 0.907466058,2.45513238 L0.818494405,2.45513238 C0.700555237,2.27098175 0.551579445,1.83853813 0.344668624,1.71646074 L0.255696971,2.11786774 C0.197761941,2.39512824 0.137757802,2.64135212 0.0777536642,2.88757599 C0.137757802,3.38002375 0.195692832,3.53520686 0.195692832,3.7193575 C0.135688694,3.90350813 0.0777536642,4.08972787 0.017749526,4.24284187 C-0.011217989,4.61321224 -0.0422546122,5.3829205 0.253627862,5.69121762 C0.282595377,5.72225425 0.34880684,5.69742495 0.379843464,5.69742495 C1.00057593,5.20497719 0.845392812,4.73528963 0.787457782,3.996618 C0.816425297,3.996618 0.84746192,4.02765462 0.876429435,4.02765462 C0.965401088,4.30491512 1.17231191,4.95254599 1.40819025,5.32084725 C1.4971619,5.44292464 1.55716604,5.50706699 1.64406858,5.53603451 C1.96891857,5.44292464 2.08685774,5.04358675 2.20479691,4.76632625 C2.61861855,4.67321638 2.91450103,4.70839122 3.2103835,4.4000941 C3.23935102,4.4000941 3.23935102,4.4000941 3.26831853,4.4000941 C3.3862577,4.61528135 3.50419687,4.88840364 3.65317266,5.13669662 C3.92422583,5.59810775 4.1683806,5.80294947 4.55323473,6.20435646 C4.96705637,6.48161696 5.1739672,6.54369021 5.20293471,6.57472683 L5.28983726,6.57472683 C5.23190223,6.32850295 5.23190223,6.32850295 5.11396306,4.78701733 C5.09120287,4.78908644 5.06223535,4.78908644 5.06223535,4.82012307 Z M0.34880684,4.90702561 C0.319839325,4.90702561 0.288802702,4.93806223 0.288802702,4.93806223 C0.259835187,4.93806223 0.259835187,4.90702561 0.259835187,4.90702561 C0.0529243657,4.69183836 0.112928504,4.08972787 0.259835187,3.8724715 C0.259835187,3.84143488 0.259835187,3.84143488 0.259835187,3.84143488 C0.377774355,4.15180111 0.408810979,4.56976097 0.34880684,4.90702561 Z M1.4723326,4.67528549 C1.4723326,4.67528549 1.44336509,4.64424887 1.41232846,4.64424887 C1.23438516,4.49113486 0.99850682,4.17663041 0.969539305,3.96144316 C1.17645013,3.99247978 1.29438929,4.0235164 1.41232846,3.99247978 C1.53026763,3.93040653 1.61923928,3.8704024 1.79718259,3.7462559 C1.79718259,3.7462559 1.85718673,3.7462559 1.88615424,3.7462559 C1.82821921,4.05455303 1.85718673,4.64424887 1.4723326,4.67528549 Z M2.35998002,4.58217562 C2.33101251,4.58217562 2.29997589,4.551139 2.27100837,4.52010237 C2.35998002,4.18076863 2.47791919,3.84350399 2.56689085,3.53520686 C2.39101665,3.16483649 2.29997589,2.98068586 1.88615424,2.88757599 C1.70821094,2.94964924 1.56130425,3.13379987 1.41232846,3.28898299 C1.23438516,3.47313362 1.02747433,3.65935336 0.791595998,3.65935336 C0.584685177,3.41312948 0.760559375,3.1669056 0.880567651,2.91861262 C0.880567651,2.79653523 0.851600136,2.70342536 0.851600136,2.61031549 C1.02954344,2.42616486 1.22403961,2.42409575 1.39991381,2.486169 C1.5488896,2.54824225 1.69579629,2.61031549 1.87373959,2.57927887 C1.99167876,2.486169 2.28756124,2.2089085 2.46550454,2.33305499 C2.70138288,3.10276325 2.94967587,3.7193575 2.97864338,3.84350399 C2.8317367,4.12076449 2.65379339,4.42906161 2.35998002,4.58217562 Z M3.65937998,1.20952923 C3.74835164,1.26953337 3.83732329,1.29850088 3.89525832,1.35850502 C4.5449583,1.24056585 4.28011245,0.94468338 3.8662908,0.588796767 L3.65937998,0.588796767 C3.42350165,0.617764282 3.24555834,0.646731797 3.00968,0.677768421 C3.06761503,0.855711727 3.39246502,1.06262255 3.65937998,1.20952923 Z" id="形状"></path>
                        <g transform="translate(0.021888, 7.267878)">
                            <path d="M1.31388372,0.0786261121 L1.31388372,0.314504449 C1.2352576,0.252431202 1.16697703,0.206910821 1.10490379,0.184150631 C1.04283054,0.159321333 0.974549969,0.146906683 0.893854749,0.146906683 C0.701427685,0.146906683 0.55659011,0.219325471 0.455203807,0.364163046 C0.360024829,0.502793296 0.31243534,0.680736603 0.31243534,0.895923857 C0.31243534,1.12766398 0.368301262,1.31181461 0.475894889,1.44837575 C0.583488516,1.58286778 0.724187875,1.65114836 0.902131181,1.65114836 C0.980757294,1.65114836 1.05110697,1.6366646 1.11111111,1.60976619 C1.17111525,1.58286778 1.23732671,1.5352783 1.31181461,1.46699772 L1.31181461,1.69873784 C1.22698117,1.7380509 1.15249328,1.76701842 1.08628181,1.78150217 C1.02007035,1.79805504 0.943513346,1.80426236 0.854541693,1.80426236 C0.583488516,1.80426236 0.376577695,1.72977447 0.23174012,1.57872957 C0.0765570039,1.41733913 0,1.18766812 0,0.889716532 C0,0.699358576 0.0310366232,0.54417546 0.0951789779,0.422098076 C0.242085661,0.140699359 0.509000621,0 0.895923857,0 C1.04489965,0.00206910821 1.1835299,0.028967515 1.31388372,0.0786261121 Z" id="路径"></path>
                            <path d="M1.9635837,0.935236913 L1.9635837,1.69459963 C1.9635837,1.72563625 1.96772191,1.75253466 1.97599834,1.77736396 L1.65942479,1.77736396 C1.66770122,1.75460377 1.67183944,1.72563625 1.67183944,1.69459963 L1.67183944,0.111731844 C1.67183944,0.0806952204 1.66770122,0.0537968136 1.65942479,0.028967515 L1.97599834,0.028967515 C1.96772191,0.0558659218 1.9635837,0.0848334368 1.9635837,0.111731844 L1.9635837,0.809021312 L2.72915373,0.809021312 L2.72915373,0.111731844 C2.72915373,0.0848334368 2.72501552,0.0558659218 2.71673909,0.028967515 L3.03331264,0.028967515 C3.02503621,0.0537968136 3.02089799,0.0806952204 3.02089799,0.111731844 L3.02089799,1.69459963 C3.02089799,1.72563625 3.02503621,1.75253466 3.03331264,1.77736396 L2.71673909,1.77736396 C2.72501552,1.75253466 2.72915373,1.72563625 2.72915373,1.69459963 L2.72915373,0.935236913 L1.9635837,0.935236913 Z" id="路径"></path>
                            <path d="M3.50920753,0.028967515 L4.41340782,0.028967515 L4.41340782,0.167597765 C4.38650941,0.159321333 4.35961101,0.155183116 4.3327126,0.155183116 L3.81543555,0.155183116 L3.81543555,0.821435961 L4.31822884,0.821435961 C4.35547279,0.821435961 4.38650941,0.817297745 4.41340782,0.809021312 L4.41340782,0.94972067 C4.39064763,0.945582454 4.35961101,0.941444238 4.32029795,0.941444238 L3.81336644,0.941444238 L3.81336644,1.63459549 L4.31615974,1.63459549 C4.34305814,1.63459549 4.37616387,1.63045727 4.41340782,1.62218084 L4.41340782,1.77529485 L3.51127664,1.77529485 C3.51748396,1.75046555 3.52162218,1.72149803 3.52162218,1.69253052 L3.52162218,0.109662735 C3.52162218,0.0765570039 3.51748396,0.0496585971 3.50920753,0.028967515 Z" id="路径"></path>
                            <path d="M4.96999793,0.351748396 L4.96999793,1.69459963 C4.96999793,1.72563625 4.97413615,1.75460377 4.98241258,1.77943306 L4.82516036,1.77943306 C4.83343679,1.75460377 4.8355059,1.72563625 4.8355059,1.69459963 L4.8355059,0.113800952 C4.8355059,0.0806952204 4.83136768,0.0537968136 4.82516036,0.0310366232 L5.10448996,0.0310366232 C5.10862818,0.0475894889 5.11897372,0.0682805711 5.13552659,0.0910407614 L6.08938547,1.42561556 L6.08938547,0.113800952 C6.08938547,0.0848334368 6.08524726,0.0558659218 6.07697083,0.0310366232 L6.23422305,0.0310366232 C6.22801573,0.0496585971 6.22387751,0.0786261121 6.22387751,0.113800952 L6.22387751,1.70080695 C6.22387751,1.73598179 6.22801573,1.76081109 6.23629216,1.77943306 L5.97972274,1.77943306 C5.97558452,1.76494931 5.96316987,1.74425822 5.94247879,1.7132216 L4.96999793,0.351748396 Z" id="路径"></path>
                            <path d="M8.01158701,0.0972480861 L8.01158701,0.314504449 C7.85019657,0.204841713 7.69087523,0.1510449 7.5315539,0.1510449 C7.35981792,0.1510449 7.22118767,0.20897993 7.11566315,0.32484999 C7.04945169,0.397268777 7.00393131,0.475894889 6.97910201,0.564866543 C6.95013449,0.670391061 6.93358163,0.786261121 6.93358163,0.912476723 C6.93358163,1.17525347 6.99151666,1.36974964 7.10945582,1.49803435 C7.20877302,1.60562797 7.33912684,1.6614939 7.50051728,1.6614939 C7.59362715,1.6614939 7.68466791,1.6366646 7.77157045,1.58907511 L7.77157045,0.906269398 C7.77157045,0.875232775 7.76743224,0.84626526 7.76122491,0.821435961 L8.06952204,0.821435961 C8.06331471,0.848334368 8.05917649,0.875232775 8.05917649,0.906269398 L8.05917649,1.57872957 C8.05917649,1.61804262 8.06538382,1.65321746 8.07572936,1.68425409 C7.91847714,1.73598179 7.80260708,1.76908752 7.73018829,1.78357128 C7.6577695,1.79805504 7.57086696,1.80633147 7.46948065,1.80633147 C7.28739913,1.80633147 7.13842334,1.77322574 7.02255328,1.70908339 C6.88392303,1.63045727 6.78046762,1.51665632 6.71011794,1.36561142 C6.6501138,1.2331885 6.61907718,1.0821436 6.61907718,0.910407614 C6.61907718,0.604179599 6.71425616,0.37037037 6.90461411,0.204841713 C7.05772812,0.0703496793 7.26256983,0.00413821643 7.51500103,0.00413821643 C7.67432237,0.00206910821 7.83778192,0.0331057314 8.01158701,0.0972480861 Z" id="路径"></path>
                            <path d="M8.50817298,0.028967515 L9.04821022,0.028967515 C9.24684461,0.028967515 9.41651148,0.0682805711 9.55721084,0.1510449 C9.68549555,0.223463687 9.78067453,0.32484999 9.84481688,0.455203807 C9.90895924,0.585557625 9.94206497,0.7303952 9.94206497,0.889716532 C9.94206497,1.13180219 9.87792262,1.33250569 9.7475688,1.48975791 C9.58824747,1.68218498 9.37926754,1.77943306 9.12269812,1.77943306 L8.50610387,1.77943306 C8.5143803,1.75460377 8.51851852,1.72563625 8.51851852,1.69666874 L8.51851852,0.113800952 C8.52058763,0.0786261121 8.51644941,0.0517277054 8.50817298,0.028967515 Z M8.81440099,1.62838816 L9.05234844,1.62838816 C9.20960066,1.62838816 9.33374715,1.58286778 9.42892613,1.48975791 C9.49306849,1.42561556 9.54065798,1.35112766 9.5716946,1.26422512 C9.61514587,1.14421684 9.63583695,1.01800124 9.63583695,0.885578316 C9.63583695,0.612456031 9.54893441,0.413821643 9.37719843,0.287606042 C9.27374302,0.211049038 9.14959652,0.17380509 9.00682806,0.17380509 L8.8164701,0.17380509 L8.8164701,1.62838816 L8.81440099,1.62838816 Z" id="形状"></path>
                            <path d="M11.721498,0.028967515 C11.7132216,0.0517277054 11.7090834,0.0806952204 11.7090834,0.111731844 L11.7090834,1.19801366 C11.7090834,1.33871301 11.6759777,1.45665218 11.6097662,1.55390027 C11.5414856,1.65114836 11.4545831,1.71735982 11.3469894,1.75253466 C11.243534,1.78564039 11.1297331,1.80426236 11.0055866,1.80426236 C10.8276433,1.80426236 10.6869439,1.77115663 10.5876267,1.70701428 C10.5069315,1.65528657 10.4448583,1.587006 10.3972688,1.50010346 C10.3517484,1.41320091 10.3289882,1.31802193 10.3289882,1.21249741 L10.3289882,0.113800952 C10.3289882,0.0827643286 10.32485,0.0558659218 10.3165736,0.0310366232 L10.6331471,0.0310366232 C10.6248707,0.0558659218 10.6228016,0.0848334368 10.6228016,0.113800952 L10.6228016,1.22077385 C10.6228016,1.32422926 10.6476309,1.41320091 10.6952204,1.48355059 C10.7759156,1.60355887 10.9042003,1.663563 11.0862818,1.663563 C11.2414649,1.663563 11.3635423,1.62218084 11.4463066,1.5373474 C11.5311401,1.45458307 11.5725222,1.3345748 11.5725222,1.17939168 L11.5725222,0.113800952 C11.5725222,0.0806952204 11.568384,0.0517277054 11.5621767,0.0310366232 L11.721498,0.0310366232 L11.721498,0.028967515 Z" id="路径"></path>
                            <path d="M13.3064349,0.966273536 L13.3064349,1.69253052 C13.3064349,1.72149803 13.3105731,1.75046555 13.3167805,1.77736396 L13.0002069,1.77736396 C13.0084833,1.75460377 13.0126216,1.72770536 13.0126216,1.69253052 L13.0126216,0.111731844 C13.0126216,0.0827643286 13.0084833,0.0558659218 13.0002069,0.028967515 L13.5319677,0.028967515 C13.6540451,0.028967515 13.7595696,0.0537968136 13.8506104,0.103455411 C13.9209601,0.142768467 13.976826,0.19656528 14.0182082,0.264845851 C14.0595903,0.335195531 14.0802814,0.411752535 14.0802814,0.500724188 C14.0802814,0.697289468 13.9892406,0.829712394 13.80509,0.900062073 C13.7554314,0.918684047 13.6912891,0.935236913 13.6105938,0.951789779 L14.1837368,1.70701428 C14.2085661,1.7380509 14.2313263,1.76081109 14.2540865,1.77529485 L13.8713015,1.77529485 C13.863025,1.74839644 13.8506104,1.72356714 13.8340575,1.69873784 L13.3064349,0.966273536 Z M13.3064349,0.866956342 L13.440927,0.866956342 C13.5216222,0.866956342 13.5899028,0.84626526 13.6478378,0.806952204 C13.7409477,0.740740741 13.7885371,0.643492655 13.7885371,0.515207945 C13.7885371,0.397268777 13.7492241,0.302089799 13.670598,0.23174012 C13.6126629,0.182081523 13.5319677,0.157252224 13.4264432,0.157252224 L13.3064349,0.157252224 L13.3064349,0.866956342 Z" id="形状"></path>
                            <path d="M15.8741982,0.028967515 C15.8679909,0.0517277054 15.8638527,0.0806952204 15.8638527,0.111731844 L15.8638527,1.19801366 C15.8638527,1.33871301 15.8307469,1.45665218 15.7645355,1.55390027 C15.6962549,1.65114836 15.6093524,1.71735982 15.5017587,1.75253466 C15.3983033,1.78564039 15.2845024,1.80426236 15.1603559,1.80426236 C14.9824126,1.80426236 14.8437823,1.77115663 14.742396,1.70701428 C14.6617008,1.65528657 14.5975585,1.587006 14.5520381,1.50010346 C14.5065177,1.41320091 14.4858266,1.31802193 14.4858266,1.21249741 L14.4858266,0.113800952 C14.4858266,0.0827643286 14.4816884,0.0558659218 14.473412,0.0310366232 L14.7899855,0.0310366232 C14.7817091,0.0558659218 14.7775709,0.0848334368 14.7775709,0.113800952 L14.7775709,1.22077385 C14.7775709,1.32422926 14.8024002,1.41320091 14.8499897,1.48355059 C14.9286158,1.60355887 15.0589696,1.663563 15.238982,1.663563 C15.3941651,1.663563 15.5162425,1.62218084 15.5990068,1.5373474 C15.6838403,1.45458307 15.7252224,1.3345748 15.7252224,1.17939168 L15.7252224,0.113800952 C15.7252224,0.0806952204 15.7210842,0.0517277054 15.7128078,0.0310366232 L15.8741982,0.0310366232 L15.8741982,0.028967515 Z" id="路径"></path>
                            <path d="M16.6397683,0.966273536 L16.6397683,1.69253052 C16.6397683,1.72149803 16.6439065,1.75046555 16.6501138,1.77736396 L16.3335402,1.77736396 C16.3418167,1.75460377 16.3459549,1.72770536 16.3459549,1.69253052 L16.3459549,0.111731844 C16.3459549,0.0827643286 16.3418167,0.0558659218 16.3335402,0.028967515 L16.8653011,0.028967515 C16.9853093,0.028967515 17.092903,0.0537968136 17.1839437,0.103455411 C17.2542934,0.142768467 17.3101593,0.19656528 17.3515415,0.264845851 C17.3929236,0.335195531 17.4136147,0.411752535 17.4136147,0.500724188 C17.4136147,0.697289468 17.3205049,0.829712394 17.1363542,0.900062073 C17.0866956,0.918684047 17.0225533,0.935236913 16.9418581,0.951789779 L17.5170701,1.70701428 C17.5398303,1.7380509 17.5646596,1.76081109 17.5874198,1.77529485 L17.2046348,1.77529485 C17.1963584,1.74839644 17.1839437,1.72356714 17.1673909,1.69873784 L16.6397683,0.966273536 Z M16.6397683,0.866956342 L16.7742603,0.866956342 C16.8549555,0.866956342 16.9232361,0.84626526 16.9811711,0.806952204 C17.074281,0.740740741 17.1218705,0.643492655 17.1218705,0.515207945 C17.1218705,0.397268777 17.0825574,0.302089799 17.0039313,0.23174012 C16.9459963,0.182081523 16.8653011,0.157252224 16.7597765,0.157252224 L16.6397683,0.157252224 L16.6397683,0.866956342 Z" id="形状"></path>
                            <path d="M18.0095179,1.22698117 L17.839851,1.70287606 C17.8315746,1.72356714 17.8295055,1.74839644 17.8295055,1.77529485 L17.6639768,1.77529485 C17.6805297,1.75046555 17.6929443,1.72563625 17.6991517,1.70287606 L18.2722946,0.0910407614 C18.278502,0.0682805711 18.2826402,0.0475894889 18.2826402,0.0268984068 L18.5371405,0.0268984068 C18.5371405,0.0455203807 18.5412787,0.0641423546 18.547486,0.0848334368 L19.139251,1.70287606 C19.1475274,1.72356714 19.1620112,1.74839644 19.1827023,1.77529485 L18.8392303,1.77529485 C18.8392303,1.75253466 18.8350921,1.72770536 18.8268156,1.70287606 L18.6592179,1.22698117 L18.0095179,1.22698117 Z M18.0550383,1.10076557 L18.6136975,1.10076557 L18.3302297,0.308297124 L18.0550383,1.10076557 Z" id="形状"></path>
                            <path d="M20.3579557,1.77736396 L19.4723774,1.77736396 C19.4806538,1.75253466 19.4827229,1.72563625 19.4827229,1.69666874 L19.4827229,0.113800952 C19.4827229,0.0827643286 19.4785847,0.0558659218 19.4723774,0.0310366232 L19.788951,0.0310366232 C19.7806745,0.0558659218 19.7765363,0.0827643286 19.7765363,0.113800952 L19.7765363,1.63873371 L20.2689841,1.63873371 C20.306228,1.63873371 20.3372646,1.63459549 20.3579557,1.62838816 L20.3579557,1.77736396 Z" id="路径"></path>
                            <path d="M22.7167391,0.0786261121 L22.7167391,0.314504449 C22.638113,0.252431202 22.5698324,0.206910821 22.5077592,0.184150631 C22.447755,0.159321333 22.3774053,0.146906683 22.2967101,0.146906683 C22.1042831,0.146906683 21.9594455,0.219325471 21.8580592,0.364163046 C21.7628802,0.502793296 21.7152907,0.680736603 21.7152907,0.895923857 C21.7152907,1.12766398 21.7711566,1.31181461 21.8787503,1.44837575 C21.9863439,1.58286778 22.1270432,1.65114836 22.3049866,1.65114836 C22.3836127,1.65114836 22.4518932,1.6366646 22.5139665,1.60976619 C22.5739706,1.58286778 22.6422512,1.5352783 22.71467,1.46699772 L22.71467,1.69873784 C22.6298365,1.7380509 22.5553486,1.76701842 22.4891372,1.78150217 C22.4229257,1.79805504 22.3463687,1.80426236 22.2573971,1.80426236 C21.9863439,1.80426236 21.7794331,1.72977447 21.6345955,1.57872957 C21.4794124,1.41733913 21.4028554,1.18766812 21.4028554,0.889716532 C21.4028554,0.699358576 21.433892,0.54417546 21.4980343,0.422098076 C21.644941,0.140699359 21.911856,0 22.2987792,0 C22.4498241,0.00206910821 22.5884544,0.028967515 22.7167391,0.0786261121 Z" id="路径"></path>
                            <path d="M23.80509,0.00206910821 C24.0616594,0.00206910821 24.2665011,0.0724187875 24.417546,0.215187254 C24.5830747,0.372439479 24.665839,0.60211049 24.665839,0.902131181 C24.665839,1.19801366 24.5872129,1.42354645 24.4299607,1.58286778 C24.2809849,1.73184358 24.072005,1.80633147 23.8030209,1.80633147 C23.5216222,1.80633147 23.3105731,1.72770536 23.1657356,1.56838403 C23.0188289,1.40492448 22.9464101,1.17939168 22.9464101,0.889716532 C22.9464101,0.705565901 22.9815849,0.546244569 23.0519346,0.409683426 C23.1864267,0.140699359 23.4388579,0.00620732464 23.80509,0.00206910821 Z M23.8071591,0.136561142 C23.6147321,0.136561142 23.4719636,0.20897993 23.3809228,0.355886613 C23.2981585,0.488309539 23.2567763,0.666252845 23.2567763,0.889716532 C23.2567763,1.40906269 23.440927,1.66977033 23.8092282,1.66977033 C23.9933789,1.66977033 24.1320091,1.59735154 24.2271881,1.45044486 C24.2727085,1.38216429 24.3037451,1.30353818 24.3244362,1.21663563 C24.3451273,1.12973309 24.3554728,1.02627767 24.3554728,0.906269398 C24.3554728,0.399337885 24.1713222,0.142768467 23.8071591,0.136561142 Z" id="形状"></path>
                            <path d="M25.3093317,0.430374509 L25.1086282,1.70080695 C25.1065591,1.70494517 25.1065591,1.70908339 25.1065591,1.7132216 C25.1065591,1.71942893 25.1086282,1.74218912 25.1106973,1.77736396 L24.951376,1.77736396 C24.9637906,1.74012001 24.9699979,1.7132216 24.972067,1.69666874 L25.2244982,0.105524519 C25.2265673,0.0972480861 25.2265673,0.0889716532 25.2265673,0.0806952204 C25.2265673,0.0682805711 25.2244982,0.0517277054 25.2224291,0.0310366232 L25.487275,0.0310366232 C25.4893441,0.05793503 25.4934823,0.0806952204 25.4976205,0.0972480861 L25.9631699,1.45665218 L26.4349265,0.0931098696 C26.4411339,0.0744878957 26.4452721,0.0600041382 26.4452721,0.0475894889 C26.4452721,0.0413821643 26.443203,0.0351748396 26.443203,0.0331057314 L26.7080488,0.0331057314 C26.7080488,0.0475894889 26.7059797,0.0600041382 26.7059797,0.0703496793 C26.7059797,0.0786261121 26.7059797,0.086902545 26.7080488,0.0951789779 L26.939789,1.70494517 C26.9418581,1.71942893 26.9501345,1.74632733 26.96048,1.78150217 L26.6480447,1.78150217 C26.6521829,1.76701842 26.6521829,1.75253466 26.6521829,1.74218912 C26.6521829,1.73391268 26.6521829,1.72149803 26.6501138,1.71115249 L26.4659632,0.40554521 L26.0211049,1.70494517 C26.0128285,1.72977447 26.0086903,1.75046555 26.0086903,1.76701842 C26.0086903,1.77115663 26.0066211,1.77529485 26.0066211,1.78150217 L25.7603973,1.78150217 C25.7603973,1.77529485 25.7603973,1.76908752 25.7603973,1.76494931 C25.7603973,1.75253466 25.7562591,1.73598179 25.7500517,1.71529071 L25.3093317,0.430374509 Z" id="路径"></path>
                            <path d="M27.5667287,0.430374509 L27.3660252,1.70080695 C27.3639561,1.70494517 27.3639561,1.70908339 27.3639561,1.7132216 C27.3639561,1.71942893 27.3660252,1.74218912 27.3680944,1.77736396 L27.208773,1.77736396 C27.2211877,1.74012001 27.227395,1.7132216 27.2315332,1.69666874 L27.4839644,0.105524519 C27.4860335,0.0972480861 27.4860335,0.0889716532 27.4860335,0.0806952204 C27.4860335,0.0682805711 27.4839644,0.0517277054 27.4818953,0.0310366232 L27.7467412,0.0310366232 C27.7488103,0.05793503 27.7529485,0.0806952204 27.7570867,0.0972480861 L28.222636,1.45665218 L28.6943927,0.0931098696 C28.7006,0.0744878957 28.7026691,0.0600041382 28.7026691,0.0475894889 C28.7026691,0.0413821643 28.7006,0.0351748396 28.7006,0.0331057314 L28.9654459,0.0331057314 C28.9633768,0.0475894889 28.9633768,0.0600041382 28.9633768,0.0703496793 C28.9633768,0.0786261121 28.9633768,0.086902545 28.9654459,0.0951789779 L29.197186,1.70494517 C29.1992551,1.71942893 29.2075316,1.74632733 29.2178771,1.78150217 L28.9054418,1.78150217 C28.9075109,1.76701842 28.90958,1.75253466 28.90958,1.74218912 C28.90958,1.73391268 28.9075109,1.72149803 28.9075109,1.71115249 L28.7233602,0.40554521 L28.278502,1.70494517 C28.2702255,1.72977447 28.2660873,1.75046555 28.2660873,1.76701842 C28.2660873,1.77115663 28.2640182,1.77529485 28.2640182,1.78150217 L28.0177943,1.78150217 C28.0177943,1.77529485 28.0177943,1.76908752 28.0177943,1.76494931 C28.0177943,1.75253466 28.0136561,1.73598179 28.0074488,1.71529071 L27.5667287,0.430374509 Z" id="路径"></path>
                            <path d="M29.5779019,0.028967515 L30.4821022,0.028967515 L30.4821022,0.167597765 C30.4552038,0.159321333 30.4283054,0.155183116 30.401407,0.155183116 L29.8841299,0.155183116 L29.8841299,0.821435961 L30.3869232,0.821435961 C30.4241672,0.821435961 30.4552038,0.817297745 30.4821022,0.809021312 L30.4821022,0.94972067 C30.459342,0.945582454 30.4283054,0.941444238 30.3889923,0.941444238 L29.8841299,0.941444238 L29.8841299,1.63459549 L30.3869232,1.63459549 C30.4138216,1.63459549 30.4469274,1.63045727 30.4841713,1.62218084 L30.4841713,1.77529485 L29.5820401,1.77529485 C29.5882475,1.75046555 29.5923857,1.72149803 29.5923857,1.69253052 L29.5923857,0.109662735 C29.5903166,0.0765570039 29.5861784,0.0496585971 29.5779019,0.028967515 Z" id="路径"></path>
                            <path d="M31.2062901,0.966273536 L31.2062901,1.69253052 C31.2062901,1.72149803 31.2104283,1.75046555 31.2166356,1.77736396 L30.9021312,1.77736396 C30.9083385,1.75460377 30.9124767,1.72770536 30.9124767,1.69253052 L30.9124767,0.111731844 C30.9124767,0.0827643286 30.9083385,0.0558659218 30.9021312,0.028967515 L31.433892,0.028967515 C31.5559694,0.028967515 31.6614939,0.0537968136 31.7525347,0.103455411 C31.8228843,0.142768467 31.8787503,0.19656528 31.9201324,0.264845851 C31.9615146,0.335195531 31.9822057,0.411752535 31.9822057,0.500724188 C31.9822057,0.697289468 31.8890958,0.829712394 31.7070143,0.900062073 C31.6573557,0.918684047 31.5911442,0.935236913 31.5125181,0.951789779 L32.0877302,1.70701428 C32.1104904,1.7380509 32.1353197,1.76081109 32.1580799,1.77529485 L31.777364,1.77529485 C31.7690875,1.74839644 31.7566729,1.72356714 31.74012,1.69873784 L31.2062901,0.966273536 Z M31.2062901,0.866956342 L31.3407821,0.866956342 C31.4214773,0.866956342 31.4897579,0.84626526 31.5476929,0.806952204 C31.6408028,0.740740741 31.6883923,0.643492655 31.6883923,0.515207945 C31.6883923,0.397268777 31.6490792,0.302089799 31.5704531,0.23174012 C31.5125181,0.182081523 31.4318229,0.157252224 31.3262984,0.157252224 L31.2062901,0.157252224 L31.2062901,0.866956342 Z" id="形状"></path>
                            <path d="M33.6085247,0.0786261121 L33.6085247,0.314504449 C33.5298986,0.252431202 33.461618,0.206910821 33.3995448,0.184150631 C33.3395407,0.159321333 33.269191,0.146906683 33.1884958,0.146906683 C32.9981378,0.146906683 32.8512311,0.219325471 32.7498448,0.364163046 C32.6546658,0.502793296 32.6070764,0.680736603 32.6070764,0.895923857 C32.6070764,1.12766398 32.6608732,1.31181461 32.7705359,1.44837575 C32.8781295,1.58286778 33.0188289,1.65114836 33.1967722,1.65114836 C33.2753983,1.65114836 33.3436789,1.6366646 33.4057521,1.60976619 C33.4657563,1.58286778 33.5319677,1.5352783 33.6064556,1.46699772 L33.6064556,1.69873784 C33.5216222,1.7380509 33.4471343,1.76701842 33.3809228,1.78150217 C33.3147114,1.79805504 33.2381544,1.80426236 33.1491827,1.80426236 C32.8781295,1.80426236 32.6712187,1.72977447 32.5263811,1.57872957 C32.371198,1.41733913 32.294641,1.18766812 32.294641,0.889716532 C32.294641,0.699358576 32.3256776,0.54417546 32.38982,0.422098076 C32.5367267,0.140699359 32.8036416,0 33.1905649,0 C33.3395407,0.00206910821 33.4781709,0.028967515 33.6085247,0.0786261121 Z" id="路径"></path>
                            <path d="M33.976826,0.028967515 L34.2933995,0.028967515 C34.2871922,0.0496585971 34.283054,0.0765570039 34.283054,0.111731844 L34.283054,1.69253052 C34.283054,1.72770536 34.2871922,1.75667287 34.2933995,1.77736396 L33.976826,1.77736396 C33.9851024,1.75253466 33.9871715,1.72356714 33.9871715,1.69253052 L33.9871715,0.111731844 C33.9871715,0.0806952204 33.9851024,0.0537968136 33.976826,0.028967515 Z" id="路径"></path>
                            <path d="M34.9389613,1.22698117 L34.7713635,1.70287606 C34.7630871,1.72356714 34.761018,1.74839644 34.761018,1.77529485 L34.5954893,1.77529485 C34.6120422,1.75046555 34.6244569,1.72563625 34.6306642,1.70287606 L35.2038072,0.0910407614 C35.2120836,0.0682805711 35.2162218,0.0475894889 35.2162218,0.0268984068 L35.4707221,0.0268984068 C35.4727912,0.0455203807 35.4748603,0.0641423546 35.4831368,0.0848334368 L36.0728326,1.70287606 C36.081109,1.72356714 36.0955928,1.74839644 36.1142148,1.77529485 L35.7728119,1.77529485 C35.7728119,1.75253466 35.7686737,1.72770536 35.7603973,1.70287606 L35.5927995,1.22698117 L34.9389613,1.22698117 Z M34.9844817,1.10076557 L35.5431409,1.10076557 L35.2596731,0.308297124 L34.9844817,1.10076557 Z" id="形状"></path>
                            <path d="M37.28533,1.77736396 L36.3997517,1.77736396 C36.4080281,1.75253466 36.4121664,1.72563625 36.4121664,1.69666874 L36.4121664,0.113800952 C36.4121664,0.0827643286 36.4080281,0.0558659218 36.3997517,0.0310366232 L36.7163253,0.0310366232 C36.7080488,0.0558659218 36.7059797,0.0827643286 36.7059797,0.113800952 L36.7059797,1.63873371 L37.1984275,1.63873371 C37.2356714,1.63873371 37.2646389,1.63459549 37.2873991,1.62838816 L37.2873991,1.77736396 L37.28533,1.77736396 Z" id="路径"></path>
                            <path d="M38.4212704,0.028967515 L39.0130354,0.028967515 C39.157873,0.028967515 39.273743,0.0600041382 39.3647838,0.124146493 C39.4682392,0.19656528 39.5178978,0.308297124 39.5178978,0.459342024 C39.5178978,0.616594248 39.4558245,0.728326091 39.331678,0.796606663 C39.292365,0.817297745 39.2364991,0.840057935 39.1661494,0.860749017 C39.2427064,0.875232775 39.3068487,0.897992965 39.3565073,0.92696048 C39.4868612,1.00351748 39.5510035,1.12766398 39.5510035,1.29733085 C39.5510035,1.46699772 39.4868612,1.59528243 39.3585765,1.68425409 C39.2716739,1.74425822 39.1702876,1.77529485 39.0523484,1.77529485 L38.4212704,1.77529485 C38.4274778,1.75253466 38.431616,1.72356714 38.431616,1.6883923 L38.431616,0.109662735 C38.431616,0.0786261121 38.4274778,0.0496585971 38.4212704,0.028967515 Z M38.7254293,0.813159528 L38.8516449,0.813159528 C38.9633768,0.813159528 39.0502793,0.792468446 39.1082144,0.75315539 C39.1889096,0.697289468 39.2302917,0.600041382 39.2302917,0.46348024 C39.2302917,0.260707635 39.1247672,0.159321333 38.9116491,0.159321333 L38.7254293,0.159321333 L38.7254293,0.813159528 Z M38.7254293,1.64287192 L38.9323402,1.64287192 C39.1475274,1.64287192 39.2571902,1.53114008 39.2571902,1.30560728 C39.2571902,1.17318436 39.2178771,1.07593627 39.1413201,1.01386303 C39.1061453,0.98489551 39.0668322,0.964204428 39.02545,0.951789779 C38.9819988,0.941444238 38.9261328,0.935236913 38.8557832,0.935236913 L38.7254293,0.935236913 L38.7254293,1.64287192 Z" id="形状"></path>
                            <path d="M40.0910408,1.22698117 L39.9213739,1.70287606 C39.9130975,1.72356714 39.9110283,1.74839644 39.9110283,1.77529485 L39.7454997,1.77529485 C39.7620526,1.75046555 39.7723981,1.72563625 39.7806745,1.70287606 L40.3538175,0.0910407614 C40.3620939,0.0682805711 40.3662322,0.0475894889 40.3662322,0.0268984068 L40.6207325,0.0268984068 C40.6228016,0.0455203807 40.6248707,0.0641423546 40.6331471,0.0848334368 L41.222843,1.70287606 C41.2311194,1.72356714 41.2456031,1.74839644 41.2662942,1.77529485 L40.9248914,1.77529485 C40.9248914,1.75253466 40.9207532,1.72770536 40.9124767,1.70287606 L40.744879,1.22698117 L40.0910408,1.22698117 Z M40.1365611,1.10076557 L40.6952204,1.10076557 L40.4117525,0.308297124 L40.1365611,1.10076557 Z" id="形状"></path>
                            <path d="M41.6925305,0.351748396 L41.6925305,1.69459963 C41.6925305,1.72563625 41.6966687,1.75460377 41.7028761,1.77943306 L41.5435547,1.77943306 C41.5518312,1.75460377 41.5559694,1.72563625 41.5559694,1.69459963 L41.5559694,0.113800952 C41.5559694,0.0806952204 41.5518312,0.0537968136 41.5435547,0.0310366232 L41.8249534,0.0310366232 C41.8290917,0.0475894889 41.8394372,0.0682805711 41.8559901,0.0910407614 L42.809849,1.42561556 L42.809849,0.113800952 C42.809849,0.0848334368 42.8057107,0.0558659218 42.7995034,0.0310366232 L42.9567556,0.0310366232 C42.9505483,0.0496585971 42.9464101,0.0786261121 42.9464101,0.113800952 L42.9464101,1.70080695 C42.9464101,1.73598179 42.9505483,1.76081109 42.9588247,1.77943306 L42.7022553,1.77943306 C42.696048,1.76494931 42.6836334,1.74425822 42.6629423,1.7132216 L41.6925305,0.351748396 Z" id="路径"></path>
                            <path d="M43.7306021,0.947651562 L43.7306021,1.69253052 C43.7306021,1.72356714 43.7326712,1.75046555 43.7409477,1.77736396 L43.4243741,1.77736396 C43.4326505,1.75253466 43.4347196,1.72356714 43.4347196,1.69253052 L43.4347196,0.111731844 C43.4347196,0.0806952204 43.4305814,0.0517277054 43.4243741,0.028967515 L43.7409477,0.028967515 C43.7326712,0.0537968136 43.7306021,0.0806952204 43.7306021,0.111731844 L43.7306021,0.802813987 L44.2913304,0.086902545 C44.301676,0.0724187875 44.3120215,0.0537968136 44.3223671,0.028967515 L44.5375543,0.028967515 C44.5147941,0.0455203807 44.494103,0.0662114629 44.4754811,0.0910407614 L43.939582,0.773846472 L44.6244569,1.70494517 C44.6513553,1.74012001 44.6720463,1.7628802 44.6885992,1.77736396 L44.3120215,1.77736396 C44.3037451,1.74839644 44.2933995,1.72770536 44.283054,1.71115249 L43.7306021,0.947651562 Z" id="路径"></path>
                        </g>
                    </g>
                </g>
            </g>
        </g>
    </g>
</svg>